<svg version="1.1" width="665" height="431" xmlns="http://www.w3.org/2000/svg"><rect width="665" height="431" rx="15" stroke="transparent" fill="white"/><rect x="330.5" y="5.5" width="200" height="50" stroke="black" fill="#f4d7e3" stroke-width="1"/><text x="430" y="20" text-anchor="middle" dominant-baseline="middle">Instruction RAM</text><text x="430" y="40" text-anchor="middle" dominant-baseline="middle">16 KiB</text><rect x="330.5" y="60.5" width="200" height="80" stroke="black" fill="#f4d7e3" stroke-width="1"/><text x="430" y="75" text-anchor="middle" dominant-baseline="middle">Instruction Cache</text><text x="430" y="95" text-anchor="middle" dominant-baseline="middle">½ KiB</text><rect x="345.5" y="108.5" width="170" height="27" stroke="black" fill="#d4aa00" stroke-width="1"/><text x="430" y="122" text-anchor="middle" dominant-baseline="middle">Prefetcher</text><path d="M 300.5 20.5 L 310.5 15.5 L 310.5 115.5 L 300.5 110.5 Z" stroke="black" fill="#e9ddaf" stroke-width="1"/><path d="M 310.5 30.5 L 330.5 30.5" stroke="black" fill="transparent" stroke-width="1"/><path d="M 310.5 100.5 L 330.5 100.5" stroke="black" fill="transparent" stroke-width="1"/><rect x="145.5" y="15.5" width="115" height="100" stroke="black" fill="#d4aa00" stroke-width="1"/><text x="203" y="55" text-anchor="middle" dominant-baseline="middle">Frontend</text><text x="203" y="75" text-anchor="middle" dominant-baseline="middle">(two stages)</text><path d="M 260.5 65.5 L 300.5 65.5" stroke="black" fill="transparent" stroke-width="1"/><text x="280" y="61" text-anchor="middle">32b</text><rect x="100.5" y="70.5" width="35" height="45" stroke="black" fill="#f4d7e3" stroke-width="1"/><text x="118" y="83" text-anchor="middle" dominant-baseline="middle"><tspan font-family="monospace">pc</tspan></text><text x="118" y="103" text-anchor="middle" dominant-baseline="middle">32b</text><rect x="5.5" y="70.5" width="85" height="45" stroke="black" fill="#d4aa00" stroke-width="1"/><text x="48" y="83" text-anchor="middle" dominant-baseline="middle">GDB/Debug</text><text x="48" y="103" text-anchor="middle" dominant-baseline="middle">Interface</text><rect x="5.5" y="15.5" width="130" height="45" stroke="black" fill="#d4aa00" stroke-width="1"/><text x="70" y="28" text-anchor="middle" dominant-baseline="middle">Branch</text><text x="70" y="48" text-anchor="middle" dominant-baseline="middle">Predictor</text><path d="M 135.5 93 L 145.5 93" stroke="black" fill="transparent" stroke-width="1"/><path d="M 118 70.5 L 118 60.5" stroke="black" fill="transparent" stroke-width="1"/><path d="M 135.5 38 L 145.5 38" stroke="black" fill="transparent" stroke-width="1"/><path d="M 90.5 93 L 100.5 93" stroke="black" fill="transparent" stroke-width="1"/><path d="M 570.5 85.5 L 580.5 90.5 L 580.5 155.5 L 570.5 160.5 Z" stroke="black" fill="#e9ddaf" stroke-width="1"/><path d="M 530.5 100.5 L 570.5 100.5" stroke="black" fill="transparent" stroke-width="1"/><text x="550" y="96" text-anchor="middle">128b</text><path d="M 580.5 123 L 658.5 123" stroke="black" fill="transparent" stroke-width="1"/><path d="M 655.5 126 L 658.5 123 L 655.5 120" stroke="black" fill="transparent" stroke-width="1"/><text x="604" y="124" text-anchor="start" dominant-baseline="middle" stroke="white" fill="white" stroke-width="10" stroke-linecap="round" stroke-linejoin="round">L1</text><text x="604" y="124" text-anchor="start" dominant-baseline="middle">L1</text><path d="M 310.5 145.5 L 570.5 145.5" stroke="black" fill="transparent" stroke-width="1"/><rect x="330.5" y="151.5" width="200" height="50" stroke="black" fill="#f4d7e3" stroke-width="1"/><text x="430" y="166" text-anchor="middle" dominant-baseline="middle">Local Data RAM</text><text x="430" y="186" text-anchor="middle" dominant-baseline="middle">4 KiB</text><path d="M 310.5 176.5 L 330.5 176.5" stroke="black" fill="transparent" stroke-width="1"/><path d="M 310.5 218.5 L 658.5 218.5" stroke="black" fill="transparent" stroke-width="1"/><path d="M 655.5 221.5 L 658.5 218.5 L 655.5 215.5" stroke="black" fill="transparent" stroke-width="1"/><text x="334" y="219" text-anchor="start" dominant-baseline="middle" stroke="white" fill="white" stroke-width="10" stroke-linecap="round" stroke-linejoin="round">Ethernet TX configuration and command</text><text x="334" y="219" text-anchor="start" dominant-baseline="middle">Ethernet TX configuration and command</text><path d="M 310.5 242.5 L 658.5 242.5" stroke="black" fill="transparent" stroke-width="1"/><path d="M 655.5 245.5 L 658.5 242.5 L 655.5 239.5" stroke="black" fill="transparent" stroke-width="1"/><text x="334" y="243" text-anchor="start" dominant-baseline="middle" stroke="white" fill="white" stroke-width="10" stroke-linecap="round" stroke-linejoin="round">Ethernet RX configuration</text><text x="334" y="243" text-anchor="start" dominant-baseline="middle">Ethernet RX configuration</text><path d="M 310.5 266.5 L 658.5 266.5" stroke="black" fill="transparent" stroke-width="1"/><path d="M 655.5 269.5 L 658.5 266.5 L 655.5 263.5" stroke="black" fill="transparent" stroke-width="1"/><text x="334" y="267" text-anchor="start" dominant-baseline="middle" stroke="white" fill="white" stroke-width="10" stroke-linecap="round" stroke-linejoin="round">Ethernet MAC configuration</text><text x="334" y="267" text-anchor="start" dominant-baseline="middle">Ethernet MAC configuration</text><path d="M 310.5 290.5 L 658.5 290.5" stroke="black" fill="transparent" stroke-width="1"/><path d="M 655.5 293.5 L 658.5 290.5 L 655.5 287.5" stroke="black" fill="transparent" stroke-width="1"/><text x="334" y="291" text-anchor="start" dominant-baseline="middle" stroke="white" fill="white" stroke-width="10" stroke-linecap="round" stroke-linejoin="round">Ethernet PCS configuration</text><text x="334" y="291" text-anchor="start" dominant-baseline="middle">Ethernet PCS configuration</text><path d="M 310.5 314.5 L 658.5 314.5" stroke="black" fill="transparent" stroke-width="1"/><path d="M 655.5 317.5 L 658.5 314.5 L 655.5 311.5" stroke="black" fill="transparent" stroke-width="1"/><text x="334" y="315" text-anchor="start" dominant-baseline="middle" stroke="white" fill="white" stroke-width="10" stroke-linecap="round" stroke-linejoin="round">NoC 0 configuration and command</text><text x="334" y="315" text-anchor="start" dominant-baseline="middle">NoC 0 configuration and command</text><path d="M 310.5 338.5 L 658.5 338.5" stroke="black" fill="transparent" stroke-width="1"/><path d="M 655.5 341.5 L 658.5 338.5 L 655.5 335.5" stroke="black" fill="transparent" stroke-width="1"/><text x="334" y="339" text-anchor="start" dominant-baseline="middle" stroke="white" fill="white" stroke-width="10" stroke-linecap="round" stroke-linejoin="round">NoC 1 configuration and command</text><text x="334" y="339" text-anchor="start" dominant-baseline="middle">NoC 1 configuration and command</text><path d="M 310.5 362.5 L 658.5 362.5" stroke="black" fill="transparent" stroke-width="1"/><path d="M 655.5 365.5 L 658.5 362.5 L 655.5 359.5" stroke="black" fill="transparent" stroke-width="1"/><text x="334" y="363" text-anchor="start" dominant-baseline="middle" stroke="white" fill="white" stroke-width="10" stroke-linecap="round" stroke-linejoin="round">NoC overlay configuration and command</text><text x="334" y="363" text-anchor="start" dominant-baseline="middle">NoC overlay configuration and command</text><path d="M 310.5 386.5 L 658.5 386.5" stroke="black" fill="transparent" stroke-width="1"/><path d="M 655.5 389.5 L 658.5 386.5 L 655.5 383.5" stroke="black" fill="transparent" stroke-width="1"/><text x="334" y="387" text-anchor="start" dominant-baseline="middle" stroke="white" fill="white" stroke-width="10" stroke-linecap="round" stroke-linejoin="round">PIC configuration and status</text><text x="334" y="387" text-anchor="start" dominant-baseline="middle">PIC configuration and status</text><path d="M 310.5 410.5 L 658.5 410.5" stroke="black" fill="transparent" stroke-width="1"/><path d="M 655.5 413.5 L 658.5 410.5 L 655.5 407.5" stroke="black" fill="transparent" stroke-width="1"/><text x="334" y="411" text-anchor="start" dominant-baseline="middle" stroke="white" fill="white" stroke-width="10" stroke-linecap="round" stroke-linejoin="round">Tile control / debug / status</text><text x="334" y="411" text-anchor="start" dominant-baseline="middle">Tile control / debug / status</text><path d="M 300.5 135.5 L 310.5 130.5 L 310.5 425.5 L 300.5 420.5 Z" stroke="black" fill="#e9ddaf" stroke-width="1"/><rect x="145.5" y="175.5" width="115" height="40" stroke="black" fill="#d4aa00" stroke-width="1"/><text x="203" y="195" text-anchor="middle" dominant-baseline="middle">Integer Unit</text><path d="M 120.5 135.5 L 130.5 140.5 L 130.5 190.5 L 120.5 195.5 Z" stroke="black" fill="#e9ddaf" stroke-width="1"/><path d="M 130.5 165.5 L 167.5 165.5 Q 170.5 165.5 170.5 168.5 L 170.5 174.5" stroke="black" fill="transparent" stroke-width="1"/><path d="M 167.5 171.5 L 170.5 174.5 L 173.5 171.5" stroke="black" fill="transparent" stroke-width="1"/><path d="M 130.5 155.5 L 177.5 155.5 Q 180.5 155.5 180.5 158.5 L 180.5 174.5" stroke="black" fill="transparent" stroke-width="1"/><path d="M 177.5 171.5 L 180.5 174.5 L 183.5 171.5" stroke="black" fill="transparent" stroke-width="1"/><text x="137" y="151" text-anchor="start">2x 32b</text><rect x="5.5" y="135.5" width="85" height="45" stroke="black" fill="#f4d7e3" stroke-width="1"/><text x="48" y="148" text-anchor="middle" dominant-baseline="middle">GPRs</text><text x="48" y="168" text-anchor="middle" dominant-baseline="middle">32x 32b</text><path d="M 48 115.5 L 48 135.5" stroke="black" fill="transparent" stroke-width="1"/><path d="M 90.5 150.5 L 119.5 150.5" stroke="black" fill="transparent" stroke-width="1"/><path d="M 116.5 153.5 L 119.5 150.5 L 116.5 147.5" stroke="black" fill="transparent" stroke-width="1"/><path d="M 90.5 160.5 L 119.5 160.5" stroke="black" fill="transparent" stroke-width="1"/><path d="M 116.5 163.5 L 119.5 160.5 L 116.5 157.5" stroke="black" fill="transparent" stroke-width="1"/><rect x="145.5" y="385.5" width="115" height="40" stroke="black" fill="#d4aa00" stroke-width="1"/><text x="203" y="405" text-anchor="middle" dominant-baseline="middle">Retire Unit</text><path d="M 142.5 405.5 L 51 405.5 Q 48 405.5 48 402.5 L 48 181.5" stroke="black" fill="transparent" stroke-width="1"/><path d="M 51 184.5 L 48 181.5 L 45 184.5" stroke="black" fill="transparent" stroke-width="1"/><text x="110" y="401" text-anchor="middle">32b</text><rect x="145.5" y="275.5" width="115" height="50" stroke="black" fill="#d4aa00" stroke-width="1"/><text x="203" y="300" text-anchor="middle" dominant-baseline="middle">Load/Store Unit</text><path d="M 260.5 300.5 L 300.5 300.5" stroke="black" fill="transparent" stroke-width="1"/><text x="280" y="296" text-anchor="middle">32b</text><path d="M 206 116.5 L 203 118 L 200 116.5 L 200 165.5 L 194 165.5 L 203 174.5 L 212 165.5 L 206 165.5 Z" stroke="transparent" fill="#aaaaff" stroke-width="1"/>
<text x="208" y="145" text-anchor="start" dominant-baseline="middle">1 Instruction</text><path d="M 206 216.5 L 203 218 L 200 216.5 L 200 265.5 L 194 265.5 L 203 274.5 L 212 265.5 L 206 265.5 Z" stroke="transparent" fill="#aaaaff" stroke-width="1"/>
<text x="208" y="245" text-anchor="start" dominant-baseline="middle">1 Instruction</text><path d="M 198 255.5 L 113.5 255.5 Q 110.5 255.5 110.5 252.5 L 110.5 183.5 Q 110.5 180.5 113.5 180.5 L 119.5 180.5" stroke="black" fill="transparent" stroke-width="1"/><path d="M 116.5 183.5 L 119.5 180.5 L 116.5 177.5" stroke="black" fill="transparent" stroke-width="1"/><text x="168" y="251" text-anchor="middle">32b</text><path d="M 206 326.5 L 203 328 L 200 326.5 L 200 375.5 L 194 375.5 L 203 384.5 L 212 375.5 L 206 375.5 Z" stroke="transparent" fill="#aaaaff" stroke-width="1"/>
<text x="208" y="355" text-anchor="start" dominant-baseline="middle">1 Instruction</text><path d="M 198 365.5 L 103.5 365.5 Q 100.5 365.5 100.5 362.5 L 100.5 173.5 Q 100.5 170.5 103.5 170.5 L 119.5 170.5" stroke="black" fill="transparent" stroke-width="1"/><path d="M 116.5 173.5 L 119.5 170.5 L 116.5 167.5" stroke="black" fill="transparent" stroke-width="1"/><text x="168" y="361" text-anchor="middle">32b</text></svg>
