<svg version="1.1" width="665" height="583" xmlns="http://www.w3.org/2000/svg"><rect width="665" height="583" rx="15" stroke="transparent" fill="white"/><rect x="330.5" y="5.5" width="200" height="50" stroke="black" fill="#f4d7e3" stroke-width="1"/><text x="430" y="20" text-anchor="middle" dominant-baseline="middle">Instruction RAM</text><text x="430" y="40" text-anchor="middle" dominant-baseline="middle">16 KiB (NC only)</text><rect x="330.5" y="60.5" width="200" height="80" stroke="black" fill="#f4d7e3" stroke-width="1"/><text x="430" y="75" text-anchor="middle" dominant-baseline="middle">Instruction Cache</text><text x="430" y="95" text-anchor="middle" dominant-baseline="middle">½ KiB or 2 KiB</text><rect x="345.5" y="108.5" width="170" height="27" stroke="black" fill="#d4aa00" stroke-width="1"/><text x="430" y="122" text-anchor="middle" dominant-baseline="middle">Prefetcher</text><path d="M 300.5 20.5 L 310.5 15.5 L 310.5 115.5 L 300.5 110.5 Z" stroke="black" fill="#e9ddaf" stroke-width="1"/><path d="M 310.5 30.5 L 330.5 30.5" stroke="black" fill="transparent" stroke-width="1"/><path d="M 310.5 100.5 L 330.5 100.5" stroke="black" fill="transparent" stroke-width="1"/><rect x="145.5" y="15.5" width="115" height="100" stroke="black" fill="#d4aa00" stroke-width="1"/><text x="203" y="55" text-anchor="middle" dominant-baseline="middle">Frontend</text><text x="203" y="75" text-anchor="middle" dominant-baseline="middle">(two stages)</text><path d="M 260.5 65.5 L 300.5 65.5" stroke="black" fill="transparent" stroke-width="1"/><text x="280" y="61" text-anchor="middle">32b</text><rect x="100.5" y="70.5" width="35" height="45" stroke="black" fill="#f4d7e3" stroke-width="1"/><text x="118" y="83" text-anchor="middle" dominant-baseline="middle"><tspan font-family="monospace">pc</tspan></text><text x="118" y="103" text-anchor="middle" dominant-baseline="middle">32b</text><rect x="5.5" y="70.5" width="85" height="45" stroke="black" fill="#d4aa00" stroke-width="1"/><text x="48" y="83" text-anchor="middle" dominant-baseline="middle">GDB/Debug</text><text x="48" y="103" text-anchor="middle" dominant-baseline="middle">Interface</text><rect x="5.5" y="15.5" width="130" height="45" stroke="black" fill="#d4aa00" stroke-width="1"/><text x="70" y="28" text-anchor="middle" dominant-baseline="middle">Branch</text><text x="70" y="48" text-anchor="middle" dominant-baseline="middle">Predictor</text><path d="M 135.5 93 L 145.5 93" stroke="black" fill="transparent" stroke-width="1"/><path d="M 118 70.5 L 118 60.5" stroke="black" fill="transparent" stroke-width="1"/><path d="M 135.5 38 L 145.5 38" stroke="black" fill="transparent" stroke-width="1"/><path d="M 90.5 93 L 100.5 93" stroke="black" fill="transparent" stroke-width="1"/><path d="M 570.5 85.5 L 580.5 90.5 L 580.5 155.5 L 570.5 160.5 Z" stroke="black" fill="#e9ddaf" stroke-width="1"/><path d="M 530.5 100.5 L 570.5 100.5" stroke="black" fill="transparent" stroke-width="1"/><text x="550" y="96" text-anchor="middle">128b</text><path d="M 580.5 123 L 658.5 123" stroke="black" fill="transparent" stroke-width="1"/><path d="M 655.5 126 L 658.5 123 L 655.5 120" stroke="black" fill="transparent" stroke-width="1"/><text x="604" y="124" text-anchor="start" dominant-baseline="middle" stroke="white" fill="white" stroke-width="10" stroke-linecap="round" stroke-linejoin="round">L1</text><text x="604" y="124" text-anchor="start" dominant-baseline="middle">L1</text><path d="M 310.5 145.5 L 570.5 145.5" stroke="black" fill="transparent" stroke-width="1"/><rect x="330.5" y="151.5" width="200" height="50" stroke="black" fill="#f4d7e3" stroke-width="1"/><text x="430" y="166" text-anchor="middle" dominant-baseline="middle">Local Data RAM</text><text x="430" y="186" text-anchor="middle" dominant-baseline="middle">2 KiB or 4 KiB</text><rect x="330.5" y="206.5" width="200" height="50" stroke="black" fill="#f4d7e3" stroke-width="1"/><text x="430" y="221" text-anchor="middle" dominant-baseline="middle">MOP Expander Configuration</text><text x="430" y="241" text-anchor="middle" dominant-baseline="middle">9x 32b (T only)</text><path d="M 310.5 176.5 L 330.5 176.5" stroke="black" fill="transparent" stroke-width="1"/><path d="M 310.5 231.5 L 330.5 231.5" stroke="black" fill="transparent" stroke-width="1"/><rect x="550.5" y="206.5" width="108" height="50" stroke="black" fill="#d4aa00" stroke-width="1"/><text x="604" y="221" text-anchor="middle" dominant-baseline="middle">MOP Expander</text><text x="604" y="241" text-anchor="middle" dominant-baseline="middle">(T only)</text><path d="M 530.5 231.5 L 550.5 231.5" stroke="black" fill="transparent" stroke-width="1"/><path d="M 638.5 258.5 L 638.5 271.5" stroke="black" fill="transparent" stroke-width="1"/><path d="M 635.5 268.5 L 638.5 271.5 L 641.5 268.5" stroke="black" fill="transparent" stroke-width="1"/><path d="M 618.5 271.5 L 618.5 258.5" stroke="black" fill="transparent" stroke-width="1"/><path d="M 621.5 261.5 L 618.5 258.5 L 615.5 261.5" stroke="black" fill="transparent" stroke-width="1"/><path d="M 310.5 273.5 L 658.5 273.5" stroke="black" fill="transparent" stroke-width="1"/><path d="M 655.5 276.5 L 658.5 273.5 L 655.5 270.5" stroke="black" fill="transparent" stroke-width="1"/><text x="334" y="274" text-anchor="start" dominant-baseline="middle" stroke="white" fill="white" stroke-width="10" stroke-linecap="round" stroke-linejoin="round">Push Tensix instruction (not NC)</text><text x="334" y="274" text-anchor="start" dominant-baseline="middle">Push Tensix instruction (not NC)</text><path d="M 310.5 297.5 L 658.5 297.5" stroke="black" fill="transparent" stroke-width="1"/><path d="M 655.5 300.5 L 658.5 297.5 L 655.5 294.5" stroke="black" fill="transparent" stroke-width="1"/><text x="334" y="298" text-anchor="start" dominant-baseline="middle" stroke="white" fill="white" stroke-width="10" stroke-linecap="round" stroke-linejoin="round">Tensix backend configuration (not NC)</text><text x="334" y="298" text-anchor="start" dominant-baseline="middle">Tensix backend configuration (not NC)</text><path d="M 310.5 321.5 L 658.5 321.5" stroke="black" fill="transparent" stroke-width="1"/><path d="M 655.5 324.5 L 658.5 321.5 L 655.5 318.5" stroke="black" fill="transparent" stroke-width="1"/><text x="334" y="322" text-anchor="start" dominant-baseline="middle" stroke="white" fill="white" stroke-width="10" stroke-linecap="round" stroke-linejoin="round">Tensix GPRs (not NC)</text><text x="334" y="322" text-anchor="start" dominant-baseline="middle">Tensix GPRs (not NC)</text><path d="M 310.5 345.5 L 658.5 345.5" stroke="black" fill="transparent" stroke-width="1"/><path d="M 655.5 348.5 L 658.5 345.5 L 655.5 342.5" stroke="black" fill="transparent" stroke-width="1"/><text x="334" y="346" text-anchor="start" dominant-baseline="middle" stroke="white" fill="white" stroke-width="10" stroke-linecap="round" stroke-linejoin="round">Tensix semaphores (T only)</text><text x="334" y="346" text-anchor="start" dominant-baseline="middle">Tensix semaphores (T only)</text><path d="M 310.5 369.5 L 658.5 369.5" stroke="black" fill="transparent" stroke-width="1"/><path d="M 655.5 372.5 L 658.5 369.5 L 655.5 366.5" stroke="black" fill="transparent" stroke-width="1"/><text x="334" y="370" text-anchor="start" dominant-baseline="middle" stroke="white" fill="white" stroke-width="10" stroke-linecap="round" stroke-linejoin="round">TTSync (T only)</text><text x="334" y="370" text-anchor="start" dominant-baseline="middle">TTSync (T only)</text><path d="M 310.5 393.5 L 658.5 393.5" stroke="black" fill="transparent" stroke-width="1"/><path d="M 655.5 396.5 L 658.5 393.5 L 655.5 390.5" stroke="black" fill="transparent" stroke-width="1"/><text x="334" y="394" text-anchor="start" dominant-baseline="middle" stroke="white" fill="white" stroke-width="10" stroke-linecap="round" stroke-linejoin="round">PCBufs (not NC)</text><text x="334" y="394" text-anchor="start" dominant-baseline="middle">PCBufs (not NC)</text><path d="M 310.5 417.5 L 658.5 417.5" stroke="black" fill="transparent" stroke-width="1"/><path d="M 655.5 420.5 L 658.5 417.5 L 655.5 414.5" stroke="black" fill="transparent" stroke-width="1"/><text x="334" y="418" text-anchor="start" dominant-baseline="middle" stroke="white" fill="white" stroke-width="10" stroke-linecap="round" stroke-linejoin="round">Mailboxes (not NC)</text><text x="334" y="418" text-anchor="start" dominant-baseline="middle">Mailboxes (not NC)</text><path d="M 310.5 441.5 L 658.5 441.5" stroke="black" fill="transparent" stroke-width="1"/><path d="M 655.5 444.5 L 658.5 441.5 L 655.5 438.5" stroke="black" fill="transparent" stroke-width="1"/><text x="334" y="442" text-anchor="start" dominant-baseline="middle" stroke="white" fill="white" stroke-width="10" stroke-linecap="round" stroke-linejoin="round">NoC 0 configuration and command</text><text x="334" y="442" text-anchor="start" dominant-baseline="middle">NoC 0 configuration and command</text><path d="M 310.5 465.5 L 658.5 465.5" stroke="black" fill="transparent" stroke-width="1"/><path d="M 655.5 468.5 L 658.5 465.5 L 655.5 462.5" stroke="black" fill="transparent" stroke-width="1"/><text x="334" y="466" text-anchor="start" dominant-baseline="middle" stroke="white" fill="white" stroke-width="10" stroke-linecap="round" stroke-linejoin="round">NoC 1 configuration and command</text><text x="334" y="466" text-anchor="start" dominant-baseline="middle">NoC 1 configuration and command</text><path d="M 310.5 489.5 L 658.5 489.5" stroke="black" fill="transparent" stroke-width="1"/><path d="M 655.5 492.5 L 658.5 489.5 L 655.5 486.5" stroke="black" fill="transparent" stroke-width="1"/><text x="334" y="490" text-anchor="start" dominant-baseline="middle" stroke="white" fill="white" stroke-width="10" stroke-linecap="round" stroke-linejoin="round">NoC overlay configuration and command</text><text x="334" y="490" text-anchor="start" dominant-baseline="middle">NoC overlay configuration and command</text><path d="M 310.5 513.5 L 658.5 513.5" stroke="black" fill="transparent" stroke-width="1"/><path d="M 655.5 516.5 L 658.5 513.5 L 655.5 510.5" stroke="black" fill="transparent" stroke-width="1"/><text x="334" y="514" text-anchor="start" dominant-baseline="middle" stroke="white" fill="white" stroke-width="10" stroke-linecap="round" stroke-linejoin="round">TDMA-RISC configuration and command</text><text x="334" y="514" text-anchor="start" dominant-baseline="middle">TDMA-RISC configuration and command</text><path d="M 310.5 537.5 L 658.5 537.5" stroke="black" fill="transparent" stroke-width="1"/><path d="M 655.5 540.5 L 658.5 537.5 L 655.5 534.5" stroke="black" fill="transparent" stroke-width="1"/><text x="334" y="538" text-anchor="start" dominant-baseline="middle" stroke="white" fill="white" stroke-width="10" stroke-linecap="round" stroke-linejoin="round">PIC configuration and status</text><text x="334" y="538" text-anchor="start" dominant-baseline="middle">PIC configuration and status</text><path d="M 310.5 561.5 L 658.5 561.5" stroke="black" fill="transparent" stroke-width="1"/><path d="M 655.5 564.5 L 658.5 561.5 L 655.5 558.5" stroke="black" fill="transparent" stroke-width="1"/><text x="334" y="562" text-anchor="start" dominant-baseline="middle" stroke="white" fill="white" stroke-width="10" stroke-linecap="round" stroke-linejoin="round">Tile control / debug / status</text><text x="334" y="562" text-anchor="start" dominant-baseline="middle">Tile control / debug / status</text><path d="M 300.5 135.5 L 310.5 130.5 L 310.5 576.5 L 300.5 571.5 Z" stroke="black" fill="#e9ddaf" stroke-width="1"/><rect x="145.5" y="175.5" width="115" height="40" stroke="black" fill="#d4aa00" stroke-width="1"/><text x="203" y="195" text-anchor="middle" dominant-baseline="middle">Integer Unit</text><path d="M 120.5 135.5 L 130.5 140.5 L 130.5 190.5 L 120.5 195.5 Z" stroke="black" fill="#e9ddaf" stroke-width="1"/><path d="M 130.5 165.5 L 167.5 165.5 Q 170.5 165.5 170.5 168.5 L 170.5 174.5" stroke="black" fill="transparent" stroke-width="1"/><path d="M 167.5 171.5 L 170.5 174.5 L 173.5 171.5" stroke="black" fill="transparent" stroke-width="1"/><path d="M 130.5 155.5 L 177.5 155.5 Q 180.5 155.5 180.5 158.5 L 180.5 174.5" stroke="black" fill="transparent" stroke-width="1"/><path d="M 177.5 171.5 L 180.5 174.5 L 183.5 171.5" stroke="black" fill="transparent" stroke-width="1"/><text x="137" y="151" text-anchor="start">2x 32b</text><rect x="5.5" y="135.5" width="85" height="45" stroke="black" fill="#f4d7e3" stroke-width="1"/><text x="48" y="148" text-anchor="middle" dominant-baseline="middle">GPRs</text><text x="48" y="168" text-anchor="middle" dominant-baseline="middle">32x 32b</text><path d="M 48 115.5 L 48 135.5" stroke="black" fill="transparent" stroke-width="1"/><path d="M 90.5 150.5 L 119.5 150.5" stroke="black" fill="transparent" stroke-width="1"/><path d="M 116.5 153.5 L 119.5 150.5 L 116.5 147.5" stroke="black" fill="transparent" stroke-width="1"/><path d="M 90.5 160.5 L 119.5 160.5" stroke="black" fill="transparent" stroke-width="1"/><path d="M 116.5 163.5 L 119.5 160.5 L 116.5 157.5" stroke="black" fill="transparent" stroke-width="1"/><rect x="145.5" y="536.5" width="115" height="40" stroke="black" fill="#d4aa00" stroke-width="1"/><text x="203" y="556" text-anchor="middle" dominant-baseline="middle">Retire Unit</text><path d="M 142.5 556.5 L 51 556.5 Q 48 556.5 48 553.5 L 48 181.5" stroke="black" fill="transparent" stroke-width="1"/><path d="M 51 184.5 L 48 181.5 L 45 184.5" stroke="black" fill="transparent" stroke-width="1"/><text x="110" y="552" text-anchor="middle">32b</text><rect x="145.5" y="275.5" width="115" height="201" stroke="black" fill="#d4aa00" stroke-width="1"/><text x="203" y="376" text-anchor="middle" dominant-baseline="middle">Load/Store Unit</text><path d="M 260.5 376 L 300.5 376" stroke="black" fill="transparent" stroke-width="1"/><text x="280" y="372" text-anchor="middle">32b</text><path d="M 206 116.5 L 203 118 L 200 116.5 L 200 165.5 L 194 165.5 L 203 174.5 L 212 165.5 L 206 165.5 Z" stroke="transparent" fill="#aaaaff" stroke-width="1"/>
<text x="208" y="145" text-anchor="start" dominant-baseline="middle">1 Instruction</text><path d="M 206 216.5 L 203 218 L 200 216.5 L 200 265.5 L 194 265.5 L 203 274.5 L 212 265.5 L 206 265.5 Z" stroke="transparent" fill="#aaaaff" stroke-width="1"/>
<text x="208" y="245" text-anchor="start" dominant-baseline="middle">1 Instruction</text><path d="M 198 255.5 L 113.5 255.5 Q 110.5 255.5 110.5 252.5 L 110.5 183.5 Q 110.5 180.5 113.5 180.5 L 119.5 180.5" stroke="black" fill="transparent" stroke-width="1"/><path d="M 116.5 183.5 L 119.5 180.5 L 116.5 177.5" stroke="black" fill="transparent" stroke-width="1"/><text x="168" y="251" text-anchor="middle">32b</text><path d="M 206 477.5 L 203 479 L 200 477.5 L 200 526.5 L 194 526.5 L 203 535.5 L 212 526.5 L 206 526.5 Z" stroke="transparent" fill="#aaaaff" stroke-width="1"/>
<text x="208" y="506" text-anchor="start" dominant-baseline="middle">1 Instruction</text><path d="M 198 516.5 L 103.5 516.5 Q 100.5 516.5 100.5 513.5 L 100.5 173.5 Q 100.5 170.5 103.5 170.5 L 119.5 170.5" stroke="black" fill="transparent" stroke-width="1"/><path d="M 116.5 173.5 L 119.5 170.5 L 116.5 167.5" stroke="black" fill="transparent" stroke-width="1"/><text x="168" y="512" text-anchor="middle">32b</text></svg>
