<svg version="1.1" width="618" height="125" xmlns="http://www.w3.org/2000/svg"><rect width="618" height="125" rx="5" stroke="transparent" fill="white"/><rect x="4.5" y="21.5" width="608" height="31" stroke="black" fill="transparent" stroke-width="1"/><text x="604" y="18" text-anchor="middle" dominant-baseline="auto">0</text><text x="509" y="18" text-anchor="middle" dominant-baseline="auto">5</text><text x="556" y="37" text-anchor="middle" dominant-baseline="middle"><tspan font-family="monospace">InputReg</tspan></text><text x="490" y="18" text-anchor="middle" dominant-baseline="auto">6</text><text x="471" y="18" text-anchor="middle" dominant-baseline="auto">7</text><text x="480" y="37" text-anchor="middle" dominant-baseline="middle"><tspan font-family="monospace">XYZW</tspan></text><text x="452" y="18" text-anchor="middle" dominant-baseline="auto">8</text><text x="452" y="37" text-anchor="middle" dominant-baseline="middle"><tspan font-family="monospace">Cr</tspan></text><text x="433" y="18" text-anchor="middle" dominant-baseline="auto">9</text><text x="414" y="18" text-anchor="middle" dominant-baseline="auto">10</text><path d="M 423.5 37 L 423.5 62" stroke="black" fill="transparent" stroke-width="1"/><text x="423" y="72" text-anchor="middle" dominant-baseline="middle"><tspan font-family="monospace">ADCSel</tspan></text><text x="395" y="18" text-anchor="middle" dominant-baseline="auto">11</text><path d="M 395 37 L 395 82" stroke="black" fill="transparent" stroke-width="1"/><text x="395" y="92" text-anchor="middle" dominant-baseline="middle"><tspan font-family="monospace">Channel</tspan></text><text x="300" y="18" text-anchor="middle" dominant-baseline="auto">16</text><text x="281" y="18" text-anchor="middle" dominant-baseline="auto">17</text><path d="M 290.5 37 L 290.5 102" stroke="black" fill="transparent" stroke-width="1"/><text x="290" y="112" text-anchor="middle" dominant-baseline="middle"><tspan font-family="monospace">ThreadSel</tspan></text><text x="262" y="18" text-anchor="middle" dominant-baseline="auto">18</text><text x="243" y="18" text-anchor="middle" dominant-baseline="auto">19</text><path d="M 252.5 37 L 252.5 62" stroke="black" fill="transparent" stroke-width="1"/><text x="252" y="72" text-anchor="middle" dominant-baseline="middle"><tspan font-family="monospace">Shift8</tspan></text><text x="224" y="18" text-anchor="middle" dominant-baseline="auto">20</text><path d="M 224 37 L 224 82" stroke="black" fill="transparent" stroke-width="1"/><text x="224" y="92" text-anchor="middle" dominant-baseline="middle"><tspan font-family="monospace">OverrideThread</tspan></text><text x="205" y="18" text-anchor="middle" dominant-baseline="auto">21</text><text x="205" y="37" text-anchor="middle" dominant-baseline="middle"><tspan font-family="monospace">1</tspan></text><text x="186" y="18" text-anchor="middle" dominant-baseline="auto">22</text><text x="167" y="18" text-anchor="middle" dominant-baseline="auto">23</text><path d="M 176.5 37 L 176.5 62" stroke="black" fill="transparent" stroke-width="1"/><text x="176" y="72" text-anchor="middle" dominant-baseline="middle"><tspan font-family="monospace">SizeSel</tspan></text><text x="148" y="18" text-anchor="middle" dominant-baseline="auto">24</text><text x="15" y="18" text-anchor="middle" dominant-baseline="auto">31</text><text x="81" y="37" text-anchor="middle" dominant-baseline="middle"><tspan font-family="monospace">0x48</tspan></text><path d="M 594.5 22 L 594.5 24.5" stroke="black" fill="transparent" stroke-width="1"/><path d="M 594.5 49.5 L 594.5 52" stroke="black" fill="transparent" stroke-width="1"/><path d="M 575.5 22 L 575.5 24.5" stroke="black" fill="transparent" stroke-width="1"/><path d="M 575.5 49.5 L 575.5 52" stroke="black" fill="transparent" stroke-width="1"/><path d="M 556.5 22 L 556.5 24.5" stroke="black" fill="transparent" stroke-width="1"/><path d="M 556.5 49.5 L 556.5 52" stroke="black" fill="transparent" stroke-width="1"/><path d="M 537.5 22 L 537.5 24.5" stroke="black" fill="transparent" stroke-width="1"/><path d="M 537.5 49.5 L 537.5 52" stroke="black" fill="transparent" stroke-width="1"/><path d="M 518.5 22 L 518.5 24.5" stroke="black" fill="transparent" stroke-width="1"/><path d="M 518.5 49.5 L 518.5 52" stroke="black" fill="transparent" stroke-width="1"/><path d="M 499.5 22 L 499.5 52" stroke="black" fill="transparent" stroke-width="1"/><path d="M 480.5 22 L 480.5 24.5" stroke="black" fill="transparent" stroke-width="1"/><path d="M 480.5 49.5 L 480.5 52" stroke="black" fill="transparent" stroke-width="1"/><path d="M 461.5 22 L 461.5 52" stroke="black" fill="transparent" stroke-width="1"/><path d="M 442.5 22 L 442.5 52" stroke="black" fill="transparent" stroke-width="1"/><path d="M 423.5 22 L 423.5 24.5" stroke="black" fill="transparent" stroke-width="1"/><path d="M 423.5 49.5 L 423.5 52" stroke="black" fill="transparent" stroke-width="1"/><path d="M 404.5 22 L 404.5 52" stroke="black" fill="transparent" stroke-width="1"/><path d="M 385.5 22 L 385.5 52" stroke="black" fill="transparent" stroke-width="1"/><path d="M 366.5 22 L 366.5 24.5" stroke="black" fill="transparent" stroke-width="1"/><path d="M 366.5 49.5 L 366.5 52" stroke="black" fill="transparent" stroke-width="1"/><path d="M 347.5 22 L 347.5 24.5" stroke="black" fill="transparent" stroke-width="1"/><path d="M 347.5 49.5 L 347.5 52" stroke="black" fill="transparent" stroke-width="1"/><path d="M 328.5 22 L 328.5 24.5" stroke="black" fill="transparent" stroke-width="1"/><path d="M 328.5 49.5 L 328.5 52" stroke="black" fill="transparent" stroke-width="1"/><path d="M 309.5 22 L 309.5 52" stroke="black" fill="transparent" stroke-width="1"/><path d="M 290.5 22 L 290.5 24.5" stroke="black" fill="transparent" stroke-width="1"/><path d="M 290.5 49.5 L 290.5 52" stroke="black" fill="transparent" stroke-width="1"/><path d="M 271.5 22 L 271.5 52" stroke="black" fill="transparent" stroke-width="1"/><path d="M 252.5 22 L 252.5 24.5" stroke="black" fill="transparent" stroke-width="1"/><path d="M 252.5 49.5 L 252.5 52" stroke="black" fill="transparent" stroke-width="1"/><path d="M 233.5 22 L 233.5 52" stroke="black" fill="transparent" stroke-width="1"/><path d="M 214.5 22 L 214.5 52" stroke="black" fill="transparent" stroke-width="1"/><path d="M 195.5 22 L 195.5 52" stroke="black" fill="transparent" stroke-width="1"/><path d="M 176.5 22 L 176.5 24.5" stroke="black" fill="transparent" stroke-width="1"/><path d="M 176.5 49.5 L 176.5 52" stroke="black" fill="transparent" stroke-width="1"/><path d="M 157.5 22 L 157.5 52" stroke="black" fill="transparent" stroke-width="1"/><path d="M 138.5 22 L 138.5 24.5" stroke="black" fill="transparent" stroke-width="1"/><path d="M 138.5 49.5 L 138.5 52" stroke="black" fill="transparent" stroke-width="1"/><path d="M 119.5 22 L 119.5 24.5" stroke="black" fill="transparent" stroke-width="1"/><path d="M 119.5 49.5 L 119.5 52" stroke="black" fill="transparent" stroke-width="1"/><path d="M 100.5 22 L 100.5 24.5" stroke="black" fill="transparent" stroke-width="1"/><path d="M 100.5 49.5 L 100.5 52" stroke="black" fill="transparent" stroke-width="1"/><path d="M 81.5 22 L 81.5 24.5" stroke="black" fill="transparent" stroke-width="1"/><path d="M 81.5 49.5 L 81.5 52" stroke="black" fill="transparent" stroke-width="1"/><path d="M 62.5 22 L 62.5 24.5" stroke="black" fill="transparent" stroke-width="1"/><path d="M 62.5 49.5 L 62.5 52" stroke="black" fill="transparent" stroke-width="1"/><path d="M 43.5 22 L 43.5 24.5" stroke="black" fill="transparent" stroke-width="1"/><path d="M 43.5 49.5 L 43.5 52" stroke="black" fill="transparent" stroke-width="1"/><path d="M 24.5 22 L 24.5 24.5" stroke="black" fill="transparent" stroke-width="1"/><path d="M 24.5 49.5 L 24.5 52" stroke="black" fill="transparent" stroke-width="1"/></svg>