<svg version="1.1" width="618" height="85" xmlns="http://www.w3.org/2000/svg"><rect width="618" height="85" rx="5" stroke="transparent" fill="white"/><rect x="4.5" y="21.5" width="608" height="31" stroke="black" fill="transparent" stroke-width="1"/><text x="604" y="18" text-anchor="middle" dominant-baseline="auto">0</text><text x="566" y="18" text-anchor="middle" dominant-baseline="auto">2</text><text x="585" y="37" text-anchor="middle" dominant-baseline="middle"><tspan font-family="monospace">0x7</tspan></text><text x="167" y="18" text-anchor="middle" dominant-baseline="auto">23</text><path d="M 167 37 L 167 62" stroke="black" fill="transparent" stroke-width="1"/><text x="167" y="72" text-anchor="middle" dominant-baseline="middle"><tspan font-family="monospace">WhichUnpacker</tspan></text><text x="148" y="18" text-anchor="middle" dominant-baseline="auto">24</text><text x="15" y="18" text-anchor="middle" dominant-baseline="auto">31</text><text x="81" y="37" text-anchor="middle" dominant-baseline="middle"><tspan font-family="monospace">0x43</tspan></text><path d="M 594.5 22 L 594.5 24.5" stroke="black" fill="transparent" stroke-width="1"/><path d="M 594.5 49.5 L 594.5 52" stroke="black" fill="transparent" stroke-width="1"/><path d="M 575.5 22 L 575.5 24.5" stroke="black" fill="transparent" stroke-width="1"/><path d="M 575.5 49.5 L 575.5 52" stroke="black" fill="transparent" stroke-width="1"/><path d="M 556.5 22 L 556.5 52" stroke="black" fill="transparent" stroke-width="1"/><path d="M 537.5 22 L 537.5 24.5" stroke="black" fill="transparent" stroke-width="1"/><path d="M 537.5 49.5 L 537.5 52" stroke="black" fill="transparent" stroke-width="1"/><path d="M 518.5 22 L 518.5 24.5" stroke="black" fill="transparent" stroke-width="1"/><path d="M 518.5 49.5 L 518.5 52" stroke="black" fill="transparent" stroke-width="1"/><path d="M 499.5 22 L 499.5 24.5" stroke="black" fill="transparent" stroke-width="1"/><path d="M 499.5 49.5 L 499.5 52" stroke="black" fill="transparent" stroke-width="1"/><path d="M 480.5 22 L 480.5 24.5" stroke="black" fill="transparent" stroke-width="1"/><path d="M 480.5 49.5 L 480.5 52" stroke="black" fill="transparent" stroke-width="1"/><path d="M 461.5 22 L 461.5 24.5" stroke="black" fill="transparent" stroke-width="1"/><path d="M 461.5 49.5 L 461.5 52" stroke="black" fill="transparent" stroke-width="1"/><path d="M 442.5 22 L 442.5 24.5" stroke="black" fill="transparent" stroke-width="1"/><path d="M 442.5 49.5 L 442.5 52" stroke="black" fill="transparent" stroke-width="1"/><path d="M 423.5 22 L 423.5 24.5" stroke="black" fill="transparent" stroke-width="1"/><path d="M 423.5 49.5 L 423.5 52" stroke="black" fill="transparent" stroke-width="1"/><path d="M 404.5 22 L 404.5 24.5" stroke="black" fill="transparent" stroke-width="1"/><path d="M 404.5 49.5 L 404.5 52" stroke="black" fill="transparent" stroke-width="1"/><path d="M 385.5 22 L 385.5 24.5" stroke="black" fill="transparent" stroke-width="1"/><path d="M 385.5 49.5 L 385.5 52" stroke="black" fill="transparent" stroke-width="1"/><path d="M 366.5 22 L 366.5 24.5" stroke="black" fill="transparent" stroke-width="1"/><path d="M 366.5 49.5 L 366.5 52" stroke="black" fill="transparent" stroke-width="1"/><path d="M 347.5 22 L 347.5 24.5" stroke="black" fill="transparent" stroke-width="1"/><path d="M 347.5 49.5 L 347.5 52" stroke="black" fill="transparent" stroke-width="1"/><path d="M 328.5 22 L 328.5 24.5" stroke="black" fill="transparent" stroke-width="1"/><path d="M 328.5 49.5 L 328.5 52" stroke="black" fill="transparent" stroke-width="1"/><path d="M 309.5 22 L 309.5 24.5" stroke="black" fill="transparent" stroke-width="1"/><path d="M 309.5 49.5 L 309.5 52" stroke="black" fill="transparent" stroke-width="1"/><path d="M 290.5 22 L 290.5 24.5" stroke="black" fill="transparent" stroke-width="1"/><path d="M 290.5 49.5 L 290.5 52" stroke="black" fill="transparent" stroke-width="1"/><path d="M 271.5 22 L 271.5 24.5" stroke="black" fill="transparent" stroke-width="1"/><path d="M 271.5 49.5 L 271.5 52" stroke="black" fill="transparent" stroke-width="1"/><path d="M 252.5 22 L 252.5 24.5" stroke="black" fill="transparent" stroke-width="1"/><path d="M 252.5 49.5 L 252.5 52" stroke="black" fill="transparent" stroke-width="1"/><path d="M 233.5 22 L 233.5 24.5" stroke="black" fill="transparent" stroke-width="1"/><path d="M 233.5 49.5 L 233.5 52" stroke="black" fill="transparent" stroke-width="1"/><path d="M 214.5 22 L 214.5 24.5" stroke="black" fill="transparent" stroke-width="1"/><path d="M 214.5 49.5 L 214.5 52" stroke="black" fill="transparent" stroke-width="1"/><path d="M 195.5 22 L 195.5 24.5" stroke="black" fill="transparent" stroke-width="1"/><path d="M 195.5 49.5 L 195.5 52" stroke="black" fill="transparent" stroke-width="1"/><path d="M 176.5 22 L 176.5 52" stroke="black" fill="transparent" stroke-width="1"/><path d="M 157.5 22 L 157.5 52" stroke="black" fill="transparent" stroke-width="1"/><path d="M 138.5 22 L 138.5 24.5" stroke="black" fill="transparent" stroke-width="1"/><path d="M 138.5 49.5 L 138.5 52" stroke="black" fill="transparent" stroke-width="1"/><path d="M 119.5 22 L 119.5 24.5" stroke="black" fill="transparent" stroke-width="1"/><path d="M 119.5 49.5 L 119.5 52" stroke="black" fill="transparent" stroke-width="1"/><path d="M 100.5 22 L 100.5 24.5" stroke="black" fill="transparent" stroke-width="1"/><path d="M 100.5 49.5 L 100.5 52" stroke="black" fill="transparent" stroke-width="1"/><path d="M 81.5 22 L 81.5 24.5" stroke="black" fill="transparent" stroke-width="1"/><path d="M 81.5 49.5 L 81.5 52" stroke="black" fill="transparent" stroke-width="1"/><path d="M 62.5 22 L 62.5 24.5" stroke="black" fill="transparent" stroke-width="1"/><path d="M 62.5 49.5 L 62.5 52" stroke="black" fill="transparent" stroke-width="1"/><path d="M 43.5 22 L 43.5 24.5" stroke="black" fill="transparent" stroke-width="1"/><path d="M 43.5 49.5 L 43.5 52" stroke="black" fill="transparent" stroke-width="1"/><path d="M 24.5 22 L 24.5 24.5" stroke="black" fill="transparent" stroke-width="1"/><path d="M 24.5 49.5 L 24.5 52" stroke="black" fill="transparent" stroke-width="1"/></svg>