<svg version="1.1" width="371" height="85" xmlns="http://www.w3.org/2000/svg"><rect width="371" height="85" rx="5" stroke="transparent" fill="white"/><rect x="4.5" y="21.5" width="361" height="31" stroke="black" fill="transparent" stroke-width="1"/><text x="357" y="18" text-anchor="middle" dominant-baseline="auto">0</text><text x="224" y="18" text-anchor="middle" dominant-baseline="auto">7</text><text x="290" y="37" text-anchor="middle" dominant-baseline="middle"><tspan font-family="monospace">Exponent</tspan></text><text x="205" y="18" text-anchor="middle" dominant-baseline="auto">8</text><text x="167" y="18" text-anchor="middle" dominant-baseline="auto">10</text><text x="186" y="37" text-anchor="middle" dominant-baseline="middle"><tspan font-family="monospace">0</tspan></text><text x="148" y="18" text-anchor="middle" dominant-baseline="auto">11</text><text x="34" y="18" text-anchor="middle" dominant-baseline="auto">17</text><text x="91" y="37" text-anchor="middle" dominant-baseline="middle"><tspan font-family="monospace">Mantissa</tspan></text><text x="15" y="18" text-anchor="middle" dominant-baseline="auto">18</text><path d="M 15 37 L 15 62" stroke="black" fill="transparent" stroke-width="1"/><text x="5" y="72" text-anchor="start" dominant-baseline="middle"><tspan font-family="monospace">Sign</tspan></text><path d="M 347.5 22 L 347.5 24.5" stroke="black" fill="transparent" stroke-width="1"/><path d="M 347.5 49.5 L 347.5 52" stroke="black" fill="transparent" stroke-width="1"/><path d="M 328.5 22 L 328.5 24.5" stroke="black" fill="transparent" stroke-width="1"/><path d="M 328.5 49.5 L 328.5 52" stroke="black" fill="transparent" stroke-width="1"/><path d="M 309.5 22 L 309.5 24.5" stroke="black" fill="transparent" stroke-width="1"/><path d="M 309.5 49.5 L 309.5 52" stroke="black" fill="transparent" stroke-width="1"/><path d="M 290.5 22 L 290.5 24.5" stroke="black" fill="transparent" stroke-width="1"/><path d="M 290.5 49.5 L 290.5 52" stroke="black" fill="transparent" stroke-width="1"/><path d="M 271.5 22 L 271.5 24.5" stroke="black" fill="transparent" stroke-width="1"/><path d="M 271.5 49.5 L 271.5 52" stroke="black" fill="transparent" stroke-width="1"/><path d="M 252.5 22 L 252.5 24.5" stroke="black" fill="transparent" stroke-width="1"/><path d="M 252.5 49.5 L 252.5 52" stroke="black" fill="transparent" stroke-width="1"/><path d="M 233.5 22 L 233.5 24.5" stroke="black" fill="transparent" stroke-width="1"/><path d="M 233.5 49.5 L 233.5 52" stroke="black" fill="transparent" stroke-width="1"/><path d="M 214.5 22 L 214.5 52" stroke="black" fill="transparent" stroke-width="1"/><path d="M 195.5 22 L 195.5 24.5" stroke="black" fill="transparent" stroke-width="1"/><path d="M 195.5 49.5 L 195.5 52" stroke="black" fill="transparent" stroke-width="1"/><path d="M 176.5 22 L 176.5 24.5" stroke="black" fill="transparent" stroke-width="1"/><path d="M 176.5 49.5 L 176.5 52" stroke="black" fill="transparent" stroke-width="1"/><path d="M 157.5 22 L 157.5 52" stroke="black" fill="transparent" stroke-width="1"/><path d="M 138.5 22 L 138.5 24.5" stroke="black" fill="transparent" stroke-width="1"/><path d="M 138.5 49.5 L 138.5 52" stroke="black" fill="transparent" stroke-width="1"/><path d="M 119.5 22 L 119.5 24.5" stroke="black" fill="transparent" stroke-width="1"/><path d="M 119.5 49.5 L 119.5 52" stroke="black" fill="transparent" stroke-width="1"/><path d="M 100.5 22 L 100.5 24.5" stroke="black" fill="transparent" stroke-width="1"/><path d="M 100.5 49.5 L 100.5 52" stroke="black" fill="transparent" stroke-width="1"/><path d="M 81.5 22 L 81.5 24.5" stroke="black" fill="transparent" stroke-width="1"/><path d="M 81.5 49.5 L 81.5 52" stroke="black" fill="transparent" stroke-width="1"/><path d="M 62.5 22 L 62.5 24.5" stroke="black" fill="transparent" stroke-width="1"/><path d="M 62.5 49.5 L 62.5 52" stroke="black" fill="transparent" stroke-width="1"/><path d="M 43.5 22 L 43.5 24.5" stroke="black" fill="transparent" stroke-width="1"/><path d="M 43.5 49.5 L 43.5 52" stroke="black" fill="transparent" stroke-width="1"/><path d="M 24.5 22 L 24.5 52" stroke="black" fill="transparent" stroke-width="1"/></svg>