<svg version="1.1" width="561" height="227" xmlns="http://www.w3.org/2000/svg"><rect width="561" height="227" rx="5" stroke="transparent" fill="white"/><defs><linearGradient id="lg1" x1="0%" y1="0%" x2="0%" y2="100%">
<stop offset="0%" stop-color="black"/>
<stop offset="33%" stop-color="white"/>
<stop offset="67%" stop-color="white"/>
<stop offset="100%" stop-color="black"/>
</linearGradient><mask id="m1" maskUnits="userSpaceOnUse" x="0" y="0" width="557.5" height="83.5">
<rect x="74.5" y="5.5" width="482" height="78" stroke="transparent" fill="url('#lg1')"/></mask></defs>
<rect x="75.5" y="31.5" width="30" height="26" stroke="transparent" fill="#ffd6d6"/>
<text x="90" y="44" text-anchor="middle" dominant-baseline="middle" font-family="monospace">A</text>
<rect x="105.5" y="31.5" width="30" height="26" stroke="transparent" fill="#ffeed6"/>
<text x="120" y="44" text-anchor="middle" dominant-baseline="middle" font-family="monospace">B</text>
<rect x="135.5" y="31.5" width="30" height="26" stroke="transparent" fill="#f6ffd6"/>
<text x="150" y="44" text-anchor="middle" dominant-baseline="middle" font-family="monospace">C</text>
<rect x="165.5" y="31.5" width="30" height="26" stroke="transparent" fill="#ddffd6"/>
<text x="180" y="44" text-anchor="middle" dominant-baseline="middle" font-family="monospace">D</text>
<rect x="195.5" y="31.5" width="30" height="26" stroke="transparent" fill="#d6ffe7"/>
<text x="210" y="44" text-anchor="middle" dominant-baseline="middle" font-family="monospace">E</text>
<rect x="225.5" y="31.5" width="30" height="26" stroke="transparent" fill="#d6fdff"/>
<text x="240" y="44" text-anchor="middle" dominant-baseline="middle" font-family="monospace">F</text>
<rect x="255.5" y="31.5" width="30" height="26" stroke="transparent" fill="#d6e4ff"/>
<text x="270" y="44" text-anchor="middle" dominant-baseline="middle" font-family="monospace">G</text>
<rect x="285.5" y="31.5" width="30" height="26" stroke="transparent" fill="#e0d6ff"/>
<text x="300" y="44" text-anchor="middle" dominant-baseline="middle" font-family="monospace">H</text>
<rect x="315.5" y="31.5" width="30" height="26" stroke="transparent" fill="#f9d6ff"/>
<text x="330" y="44" text-anchor="middle" dominant-baseline="middle" font-family="monospace">I</text>
<rect x="345.5" y="31.5" width="30" height="26" stroke="transparent" fill="#ffd6ec"/>
<text x="360" y="44" text-anchor="middle" dominant-baseline="middle" font-family="monospace">J</text>
<rect x="375.5" y="31.5" width="30" height="26" stroke="transparent" fill="#ffd8d6"/>
<text x="390" y="44" text-anchor="middle" dominant-baseline="middle" font-family="monospace">K</text>
<rect x="405.5" y="31.5" width="30" height="26" stroke="transparent" fill="#fff1d6"/>
<text x="420" y="44" text-anchor="middle" dominant-baseline="middle" font-family="monospace">L</text>
<rect x="435.5" y="31.5" width="30" height="26" stroke="transparent" fill="#f3ffd6"/>
<text x="450" y="44" text-anchor="middle" dominant-baseline="middle" font-family="monospace">M</text>
<rect x="465.5" y="31.5" width="30" height="26" stroke="transparent" fill="#daffd6"/>
<text x="480" y="44" text-anchor="middle" dominant-baseline="middle" font-family="monospace">N</text>
<rect x="495.5" y="31.5" width="30" height="26" stroke="transparent" fill="#d6ffea"/>
<text x="510" y="44" text-anchor="middle" dominant-baseline="middle" font-family="monospace">O</text>
<rect x="525.5" y="31.5" width="30" height="26" stroke="transparent" fill="#d6faff"/>
<text x="540" y="44" text-anchor="middle" dominant-baseline="middle" font-family="monospace">P</text>
<path d="M 75.5 5.5 L 555.5 5.5" stroke="black" fill="transparent" stroke-width="1" mask="url('#m1')"/>
<path d="M 75.5 31.5 L 555.5 31.5" stroke="black" fill="transparent" stroke-width="1" mask="url('#m1')"/>
<path d="M 75.5 57.5 L 555.5 57.5" stroke="black" fill="transparent" stroke-width="1" mask="url('#m1')"/>
<path d="M 75.5 83.5 L 555.5 83.5" stroke="black" fill="transparent" stroke-width="1" mask="url('#m1')"/>
<path d="M 75.5 5.5 L 75.5 83.5" stroke="black" fill="transparent" stroke-width="1" mask="url('#m1')"/>
<path d="M 105.5 5.5 L 105.5 83.5" stroke="black" fill="transparent" stroke-width="1" mask="url('#m1')"/>
<path d="M 135.5 5.5 L 135.5 83.5" stroke="black" fill="transparent" stroke-width="1" mask="url('#m1')"/>
<path d="M 165.5 5.5 L 165.5 83.5" stroke="black" fill="transparent" stroke-width="1" mask="url('#m1')"/>
<path d="M 195.5 5.5 L 195.5 83.5" stroke="black" fill="transparent" stroke-width="1" mask="url('#m1')"/>
<path d="M 225.5 5.5 L 225.5 83.5" stroke="black" fill="transparent" stroke-width="1" mask="url('#m1')"/>
<path d="M 255.5 5.5 L 255.5 83.5" stroke="black" fill="transparent" stroke-width="1" mask="url('#m1')"/>
<path d="M 285.5 5.5 L 285.5 83.5" stroke="black" fill="transparent" stroke-width="1" mask="url('#m1')"/>
<path d="M 315.5 5.5 L 315.5 83.5" stroke="black" fill="transparent" stroke-width="1" mask="url('#m1')"/>
<path d="M 345.5 5.5 L 345.5 83.5" stroke="black" fill="transparent" stroke-width="1" mask="url('#m1')"/>
<path d="M 375.5 5.5 L 375.5 83.5" stroke="black" fill="transparent" stroke-width="1" mask="url('#m1')"/>
<path d="M 405.5 5.5 L 405.5 83.5" stroke="black" fill="transparent" stroke-width="1" mask="url('#m1')"/>
<path d="M 435.5 5.5 L 435.5 83.5" stroke="black" fill="transparent" stroke-width="1" mask="url('#m1')"/>
<path d="M 465.5 5.5 L 465.5 83.5" stroke="black" fill="transparent" stroke-width="1" mask="url('#m1')"/>
<path d="M 495.5 5.5 L 495.5 83.5" stroke="black" fill="transparent" stroke-width="1" mask="url('#m1')"/>
<path d="M 525.5 5.5 L 525.5 83.5" stroke="black" fill="transparent" stroke-width="1" mask="url('#m1')"/>
<path d="M 555.5 5.5 L 555.5 83.5" stroke="black" fill="transparent" stroke-width="1" mask="url('#m1')"/>
<text x="70" y="44" text-anchor="end" dominant-baseline="middle" font-family="monospace">SrcB[i]</text>
<path d="M 321.5 93.5 L 309.5 93.5 L 309.5 115.5 L 297.5 115.5 L 315.5 133.5 L 333.5 115.5 L 321.5 115.5 Z" stroke="transparent" fill="black" stroke-width="1"/>
<defs><linearGradient id="lg2" x1="0%" y1="0%" x2="0%" y2="100%">
<stop offset="0%" stop-color="black"/>
<stop offset="33%" stop-color="white"/>
<stop offset="67%" stop-color="white"/>
<stop offset="100%" stop-color="black"/>
</linearGradient><mask id="m2" maskUnits="userSpaceOnUse" x="0" y="0" width="557.5" height="221.5">
<rect x="74.5" y="143.5" width="482" height="78" stroke="transparent" fill="url('#lg2')"/></mask></defs>
<rect x="75.5" y="169.5" width="30" height="26" stroke="transparent" fill="#ffeed6"/>
<text x="90" y="182" text-anchor="middle" dominant-baseline="middle" font-family="monospace">B</text>
<rect x="105.5" y="169.5" width="30" height="26" stroke="transparent" fill="#f6ffd6"/>
<text x="120" y="182" text-anchor="middle" dominant-baseline="middle" font-family="monospace">C</text>
<rect x="135.5" y="169.5" width="30" height="26" stroke="transparent" fill="#ddffd6"/>
<text x="150" y="182" text-anchor="middle" dominant-baseline="middle" font-family="monospace">D</text>
<rect x="165.5" y="169.5" width="30" height="26" stroke="transparent" fill="#d6ffe7"/>
<text x="180" y="182" text-anchor="middle" dominant-baseline="middle" font-family="monospace">E</text>
<rect x="195.5" y="169.5" width="30" height="26" stroke="transparent" fill="#d6fdff"/>
<text x="210" y="182" text-anchor="middle" dominant-baseline="middle" font-family="monospace">F</text>
<rect x="225.5" y="169.5" width="30" height="26" stroke="transparent" fill="#d6e4ff"/>
<text x="240" y="182" text-anchor="middle" dominant-baseline="middle" font-family="monospace">G</text>
<rect x="255.5" y="169.5" width="30" height="26" stroke="transparent" fill="#e0d6ff"/>
<text x="270" y="182" text-anchor="middle" dominant-baseline="middle" font-family="monospace">H</text>
<rect x="285.5" y="169.5" width="30" height="26" stroke="transparent" fill="#f9d6ff"/>
<text x="300" y="182" text-anchor="middle" dominant-baseline="middle" font-family="monospace">I</text>
<rect x="315.5" y="169.5" width="30" height="26" stroke="transparent" fill="#ffd6ec"/>
<text x="330" y="182" text-anchor="middle" dominant-baseline="middle" font-family="monospace">J</text>
<rect x="345.5" y="169.5" width="30" height="26" stroke="transparent" fill="#ffd8d6"/>
<text x="360" y="182" text-anchor="middle" dominant-baseline="middle" font-family="monospace">K</text>
<rect x="375.5" y="169.5" width="30" height="26" stroke="transparent" fill="#fff1d6"/>
<text x="390" y="182" text-anchor="middle" dominant-baseline="middle" font-family="monospace">L</text>
<rect x="405.5" y="169.5" width="30" height="26" stroke="transparent" fill="#f3ffd6"/>
<text x="420" y="182" text-anchor="middle" dominant-baseline="middle" font-family="monospace">M</text>
<rect x="435.5" y="169.5" width="30" height="26" stroke="transparent" fill="#daffd6"/>
<text x="450" y="182" text-anchor="middle" dominant-baseline="middle" font-family="monospace">N</text>
<rect x="465.5" y="169.5" width="30" height="26" stroke="transparent" fill="#d6ffea"/>
<text x="480" y="182" text-anchor="middle" dominant-baseline="middle" font-family="monospace">O</text>
<rect x="495.5" y="169.5" width="30" height="26" stroke="transparent" fill="#d6faff"/>
<text x="510" y="182" text-anchor="middle" dominant-baseline="middle" font-family="monospace">P</text>
<rect x="525.5" y="169.5" width="30" height="26" stroke="transparent" fill="#ffd6d6"/>
<text x="540" y="182" text-anchor="middle" dominant-baseline="middle" font-family="monospace">A</text>
<path d="M 75.5 143.5 L 555.5 143.5" stroke="black" fill="transparent" stroke-width="1" mask="url('#m2')"/>
<path d="M 75.5 169.5 L 555.5 169.5" stroke="black" fill="transparent" stroke-width="1" mask="url('#m2')"/>
<path d="M 75.5 195.5 L 555.5 195.5" stroke="black" fill="transparent" stroke-width="1" mask="url('#m2')"/>
<path d="M 75.5 221.5 L 555.5 221.5" stroke="black" fill="transparent" stroke-width="1" mask="url('#m2')"/>
<path d="M 75.5 143.5 L 75.5 221.5" stroke="black" fill="transparent" stroke-width="1" mask="url('#m2')"/>
<path d="M 105.5 143.5 L 105.5 221.5" stroke="black" fill="transparent" stroke-width="1" mask="url('#m2')"/>
<path d="M 135.5 143.5 L 135.5 221.5" stroke="black" fill="transparent" stroke-width="1" mask="url('#m2')"/>
<path d="M 165.5 143.5 L 165.5 221.5" stroke="black" fill="transparent" stroke-width="1" mask="url('#m2')"/>
<path d="M 195.5 143.5 L 195.5 221.5" stroke="black" fill="transparent" stroke-width="1" mask="url('#m2')"/>
<path d="M 225.5 143.5 L 225.5 221.5" stroke="black" fill="transparent" stroke-width="1" mask="url('#m2')"/>
<path d="M 255.5 143.5 L 255.5 221.5" stroke="black" fill="transparent" stroke-width="1" mask="url('#m2')"/>
<path d="M 285.5 143.5 L 285.5 221.5" stroke="black" fill="transparent" stroke-width="1" mask="url('#m2')"/>
<path d="M 315.5 143.5 L 315.5 221.5" stroke="black" fill="transparent" stroke-width="1" mask="url('#m2')"/>
<path d="M 345.5 143.5 L 345.5 221.5" stroke="black" fill="transparent" stroke-width="1" mask="url('#m2')"/>
<path d="M 375.5 143.5 L 375.5 221.5" stroke="black" fill="transparent" stroke-width="1" mask="url('#m2')"/>
<path d="M 405.5 143.5 L 405.5 221.5" stroke="black" fill="transparent" stroke-width="1" mask="url('#m2')"/>
<path d="M 435.5 143.5 L 435.5 221.5" stroke="black" fill="transparent" stroke-width="1" mask="url('#m2')"/>
<path d="M 465.5 143.5 L 465.5 221.5" stroke="black" fill="transparent" stroke-width="1" mask="url('#m2')"/>
<path d="M 495.5 143.5 L 495.5 221.5" stroke="black" fill="transparent" stroke-width="1" mask="url('#m2')"/>
<path d="M 525.5 143.5 L 525.5 221.5" stroke="black" fill="transparent" stroke-width="1" mask="url('#m2')"/>
<path d="M 555.5 143.5 L 555.5 221.5" stroke="black" fill="transparent" stroke-width="1" mask="url('#m2')"/>
<text x="70" y="182" text-anchor="end" dominant-baseline="middle" font-family="monospace">SrcB[i]</text>
</svg>