<svg version="1.1" width="561" height="527" xmlns="http://www.w3.org/2000/svg"><rect width="561" height="527" rx="5" stroke="transparent" fill="white"/><defs><linearGradient id="lg1" x1="0%" y1="0%" x2="0%" y2="100%">
<stop offset="0%" stop-color="black"/>
<stop offset="16%" stop-color="white"/>
<stop offset="84%" stop-color="white"/>
<stop offset="100%" stop-color="black"/>
</linearGradient><mask id="m1" maskUnits="userSpaceOnUse" x="0" y="0" width="557.5" height="161.5">
<rect x="74.5" y="5.5" width="482" height="156" stroke="transparent" fill="url('#lg1')"/></mask></defs>
<rect x="75.5" y="31.5" width="30" height="26" stroke="transparent" fill="#ffd6d6"/>
<text x="90" y="44" text-anchor="middle" dominant-baseline="middle" font-family="monospace">AA</text>
<rect x="135.5" y="31.5" width="30" height="26" stroke="transparent" fill="#ffeed6"/>
<text x="150" y="44" text-anchor="middle" dominant-baseline="middle" font-family="monospace">AB</text>
<rect x="195.5" y="31.5" width="30" height="26" stroke="transparent" fill="#f6ffd6"/>
<text x="210" y="44" text-anchor="middle" dominant-baseline="middle" font-family="monospace">AC</text>
<rect x="255.5" y="31.5" width="30" height="26" stroke="transparent" fill="#ddffd6"/>
<text x="270" y="44" text-anchor="middle" dominant-baseline="middle" font-family="monospace">AD</text>
<rect x="315.5" y="31.5" width="30" height="26" stroke="transparent" fill="#d6ffe7"/>
<text x="330" y="44" text-anchor="middle" dominant-baseline="middle" font-family="monospace">AE</text>
<rect x="375.5" y="31.5" width="30" height="26" stroke="transparent" fill="#d6fdff"/>
<text x="390" y="44" text-anchor="middle" dominant-baseline="middle" font-family="monospace">AF</text>
<rect x="435.5" y="31.5" width="30" height="26" stroke="transparent" fill="#d6e4ff"/>
<text x="450" y="44" text-anchor="middle" dominant-baseline="middle" font-family="monospace">AG</text>
<rect x="495.5" y="31.5" width="30" height="26" stroke="transparent" fill="#e0d6ff"/>
<text x="510" y="44" text-anchor="middle" dominant-baseline="middle" font-family="monospace">AH</text>
<rect x="75.5" y="57.5" width="30" height="26" stroke="transparent" fill="#fadada"/>
<text x="90" y="70" text-anchor="middle" dominant-baseline="middle" font-family="monospace">BA</text>
<rect x="135.5" y="57.5" width="30" height="26" stroke="transparent" fill="#faeeda"/>
<text x="150" y="70" text-anchor="middle" dominant-baseline="middle" font-family="monospace">BB</text>
<rect x="195.5" y="57.5" width="30" height="26" stroke="transparent" fill="#f3fada"/>
<text x="210" y="70" text-anchor="middle" dominant-baseline="middle" font-family="monospace">BC</text>
<rect x="255.5" y="57.5" width="30" height="26" stroke="transparent" fill="#e0fada"/>
<text x="270" y="70" text-anchor="middle" dominant-baseline="middle" font-family="monospace">BD</text>
<rect x="315.5" y="57.5" width="30" height="26" stroke="transparent" fill="#dafae8"/>
<text x="330" y="70" text-anchor="middle" dominant-baseline="middle" font-family="monospace">BE</text>
<rect x="375.5" y="57.5" width="30" height="26" stroke="transparent" fill="#daf9fa"/>
<text x="390" y="70" text-anchor="middle" dominant-baseline="middle" font-family="monospace">BF</text>
<rect x="435.5" y="57.5" width="30" height="26" stroke="transparent" fill="#dae6fa"/>
<text x="450" y="70" text-anchor="middle" dominant-baseline="middle" font-family="monospace">BG</text>
<rect x="495.5" y="57.5" width="30" height="26" stroke="transparent" fill="#e2dafa"/>
<text x="510" y="70" text-anchor="middle" dominant-baseline="middle" font-family="monospace">BH</text>
<rect x="75.5" y="83.5" width="30" height="26" stroke="transparent" fill="#f6dede"/>
<text x="90" y="96" text-anchor="middle" dominant-baseline="middle" font-family="monospace">CA</text>
<rect x="135.5" y="83.5" width="30" height="26" stroke="transparent" fill="#f6edde"/>
<text x="150" y="96" text-anchor="middle" dominant-baseline="middle" font-family="monospace">CB</text>
<rect x="195.5" y="83.5" width="30" height="26" stroke="transparent" fill="#f1f6de"/>
<text x="210" y="96" text-anchor="middle" dominant-baseline="middle" font-family="monospace">CC</text>
<rect x="255.5" y="83.5" width="30" height="26" stroke="transparent" fill="#e2f6de"/>
<text x="270" y="96" text-anchor="middle" dominant-baseline="middle" font-family="monospace">CD</text>
<rect x="315.5" y="83.5" width="30" height="26" stroke="transparent" fill="#def6e8"/>
<text x="330" y="96" text-anchor="middle" dominant-baseline="middle" font-family="monospace">CE</text>
<rect x="375.5" y="83.5" width="30" height="26" stroke="transparent" fill="#def5f6"/>
<text x="390" y="96" text-anchor="middle" dominant-baseline="middle" font-family="monospace">CF</text>
<rect x="435.5" y="83.5" width="30" height="26" stroke="transparent" fill="#dee7f6"/>
<text x="450" y="96" text-anchor="middle" dominant-baseline="middle" font-family="monospace">CG</text>
<rect x="495.5" y="83.5" width="30" height="26" stroke="transparent" fill="#e4def6"/>
<text x="510" y="96" text-anchor="middle" dominant-baseline="middle" font-family="monospace">CH</text>
<rect x="75.5" y="109.5" width="30" height="26" stroke="transparent" fill="#f2e2e2"/>
<text x="90" y="122" text-anchor="middle" dominant-baseline="middle" font-family="monospace">DA</text>
<rect x="135.5" y="109.5" width="30" height="26" stroke="transparent" fill="#f2ece2"/>
<text x="150" y="122" text-anchor="middle" dominant-baseline="middle" font-family="monospace">DB</text>
<rect x="195.5" y="109.5" width="30" height="26" stroke="transparent" fill="#eff2e2"/>
<text x="210" y="122" text-anchor="middle" dominant-baseline="middle" font-family="monospace">DC</text>
<rect x="255.5" y="109.5" width="30" height="26" stroke="transparent" fill="#e5f2e2"/>
<text x="270" y="122" text-anchor="middle" dominant-baseline="middle" font-family="monospace">DD</text>
<rect x="315.5" y="109.5" width="30" height="26" stroke="transparent" fill="#e2f2e9"/>
<text x="330" y="122" text-anchor="middle" dominant-baseline="middle" font-family="monospace">DE</text>
<rect x="375.5" y="109.5" width="30" height="26" stroke="transparent" fill="#e2f2f2"/>
<text x="390" y="122" text-anchor="middle" dominant-baseline="middle" font-family="monospace">DF</text>
<rect x="435.5" y="109.5" width="30" height="26" stroke="transparent" fill="#e2e8f2"/>
<text x="450" y="122" text-anchor="middle" dominant-baseline="middle" font-family="monospace">DG</text>
<rect x="495.5" y="109.5" width="30" height="26" stroke="transparent" fill="#e6e2f2"/>
<text x="510" y="122" text-anchor="middle" dominant-baseline="middle" font-family="monospace">DH</text>
<path d="M 75.5 5.5 L 555.5 5.5" stroke="black" fill="transparent" stroke-width="1" mask="url('#m1')"/>
<path d="M 75.5 31.5 L 555.5 31.5" stroke="black" fill="transparent" stroke-width="1" mask="url('#m1')"/>
<path d="M 75.5 57.5 L 555.5 57.5" stroke="black" fill="transparent" stroke-width="1" mask="url('#m1')"/>
<path d="M 75.5 83.5 L 555.5 83.5" stroke="black" fill="transparent" stroke-width="1" mask="url('#m1')"/>
<path d="M 75.5 109.5 L 555.5 109.5" stroke="black" fill="transparent" stroke-width="1" mask="url('#m1')"/>
<path d="M 75.5 135.5 L 555.5 135.5" stroke="black" fill="transparent" stroke-width="1" mask="url('#m1')"/>
<path d="M 75.5 161.5 L 555.5 161.5" stroke="black" fill="transparent" stroke-width="1" mask="url('#m1')"/>
<path d="M 75.5 5.5 L 75.5 161.5" stroke="black" fill="transparent" stroke-width="1" mask="url('#m1')"/>
<path d="M 105.5 5.5 L 105.5 161.5" stroke="black" fill="transparent" stroke-width="1" mask="url('#m1')"/>
<path d="M 135.5 5.5 L 135.5 161.5" stroke="black" fill="transparent" stroke-width="1" mask="url('#m1')"/>
<path d="M 165.5 5.5 L 165.5 161.5" stroke="black" fill="transparent" stroke-width="1" mask="url('#m1')"/>
<path d="M 195.5 5.5 L 195.5 161.5" stroke="black" fill="transparent" stroke-width="1" mask="url('#m1')"/>
<path d="M 225.5 5.5 L 225.5 161.5" stroke="black" fill="transparent" stroke-width="1" mask="url('#m1')"/>
<path d="M 255.5 5.5 L 255.5 161.5" stroke="black" fill="transparent" stroke-width="1" mask="url('#m1')"/>
<path d="M 285.5 5.5 L 285.5 161.5" stroke="black" fill="transparent" stroke-width="1" mask="url('#m1')"/>
<path d="M 315.5 5.5 L 315.5 161.5" stroke="black" fill="transparent" stroke-width="1" mask="url('#m1')"/>
<path d="M 345.5 5.5 L 345.5 161.5" stroke="black" fill="transparent" stroke-width="1" mask="url('#m1')"/>
<path d="M 375.5 5.5 L 375.5 161.5" stroke="black" fill="transparent" stroke-width="1" mask="url('#m1')"/>
<path d="M 405.5 5.5 L 405.5 161.5" stroke="black" fill="transparent" stroke-width="1" mask="url('#m1')"/>
<path d="M 435.5 5.5 L 435.5 161.5" stroke="black" fill="transparent" stroke-width="1" mask="url('#m1')"/>
<path d="M 465.5 5.5 L 465.5 161.5" stroke="black" fill="transparent" stroke-width="1" mask="url('#m1')"/>
<path d="M 495.5 5.5 L 495.5 161.5" stroke="black" fill="transparent" stroke-width="1" mask="url('#m1')"/>
<path d="M 525.5 5.5 L 525.5 161.5" stroke="black" fill="transparent" stroke-width="1" mask="url('#m1')"/>
<path d="M 555.5 5.5 L 555.5 161.5" stroke="black" fill="transparent" stroke-width="1" mask="url('#m1')"/>
<text x="70" y="83" text-anchor="end" dominant-baseline="middle" font-family="monospace">Dst</text>
<text x="315" y="181" text-anchor="middle" dominant-baseline="middle" font-size="125%">or</text>
<defs><linearGradient id="lg2" x1="0%" y1="0%" x2="0%" y2="100%">
<stop offset="0%" stop-color="black"/>
<stop offset="16%" stop-color="white"/>
<stop offset="84%" stop-color="white"/>
<stop offset="100%" stop-color="black"/>
</linearGradient><mask id="m2" maskUnits="userSpaceOnUse" x="0" y="0" width="557.5" height="357.5">
<rect x="74.5" y="201.5" width="482" height="156" stroke="transparent" fill="url('#lg2')"/></mask></defs>
<rect x="105.5" y="227.5" width="30" height="26" stroke="transparent" fill="#ffd6d6"/>
<text x="120" y="240" text-anchor="middle" dominant-baseline="middle" font-family="monospace">AA</text>
<rect x="165.5" y="227.5" width="30" height="26" stroke="transparent" fill="#ffeed6"/>
<text x="180" y="240" text-anchor="middle" dominant-baseline="middle" font-family="monospace">AB</text>
<rect x="225.5" y="227.5" width="30" height="26" stroke="transparent" fill="#f6ffd6"/>
<text x="240" y="240" text-anchor="middle" dominant-baseline="middle" font-family="monospace">AC</text>
<rect x="285.5" y="227.5" width="30" height="26" stroke="transparent" fill="#ddffd6"/>
<text x="300" y="240" text-anchor="middle" dominant-baseline="middle" font-family="monospace">AD</text>
<rect x="345.5" y="227.5" width="30" height="26" stroke="transparent" fill="#d6ffe7"/>
<text x="360" y="240" text-anchor="middle" dominant-baseline="middle" font-family="monospace">AE</text>
<rect x="405.5" y="227.5" width="30" height="26" stroke="transparent" fill="#d6fdff"/>
<text x="420" y="240" text-anchor="middle" dominant-baseline="middle" font-family="monospace">AF</text>
<rect x="465.5" y="227.5" width="30" height="26" stroke="transparent" fill="#d6e4ff"/>
<text x="480" y="240" text-anchor="middle" dominant-baseline="middle" font-family="monospace">AG</text>
<rect x="525.5" y="227.5" width="30" height="26" stroke="transparent" fill="#e0d6ff"/>
<text x="540" y="240" text-anchor="middle" dominant-baseline="middle" font-family="monospace">AH</text>
<rect x="105.5" y="253.5" width="30" height="26" stroke="transparent" fill="#fadada"/>
<text x="120" y="266" text-anchor="middle" dominant-baseline="middle" font-family="monospace">BA</text>
<rect x="165.5" y="253.5" width="30" height="26" stroke="transparent" fill="#faeeda"/>
<text x="180" y="266" text-anchor="middle" dominant-baseline="middle" font-family="monospace">BB</text>
<rect x="225.5" y="253.5" width="30" height="26" stroke="transparent" fill="#f3fada"/>
<text x="240" y="266" text-anchor="middle" dominant-baseline="middle" font-family="monospace">BC</text>
<rect x="285.5" y="253.5" width="30" height="26" stroke="transparent" fill="#e0fada"/>
<text x="300" y="266" text-anchor="middle" dominant-baseline="middle" font-family="monospace">BD</text>
<rect x="345.5" y="253.5" width="30" height="26" stroke="transparent" fill="#dafae8"/>
<text x="360" y="266" text-anchor="middle" dominant-baseline="middle" font-family="monospace">BE</text>
<rect x="405.5" y="253.5" width="30" height="26" stroke="transparent" fill="#daf9fa"/>
<text x="420" y="266" text-anchor="middle" dominant-baseline="middle" font-family="monospace">BF</text>
<rect x="465.5" y="253.5" width="30" height="26" stroke="transparent" fill="#dae6fa"/>
<text x="480" y="266" text-anchor="middle" dominant-baseline="middle" font-family="monospace">BG</text>
<rect x="525.5" y="253.5" width="30" height="26" stroke="transparent" fill="#e2dafa"/>
<text x="540" y="266" text-anchor="middle" dominant-baseline="middle" font-family="monospace">BH</text>
<rect x="105.5" y="279.5" width="30" height="26" stroke="transparent" fill="#f6dede"/>
<text x="120" y="292" text-anchor="middle" dominant-baseline="middle" font-family="monospace">CA</text>
<rect x="165.5" y="279.5" width="30" height="26" stroke="transparent" fill="#f6edde"/>
<text x="180" y="292" text-anchor="middle" dominant-baseline="middle" font-family="monospace">CB</text>
<rect x="225.5" y="279.5" width="30" height="26" stroke="transparent" fill="#f1f6de"/>
<text x="240" y="292" text-anchor="middle" dominant-baseline="middle" font-family="monospace">CC</text>
<rect x="285.5" y="279.5" width="30" height="26" stroke="transparent" fill="#e2f6de"/>
<text x="300" y="292" text-anchor="middle" dominant-baseline="middle" font-family="monospace">CD</text>
<rect x="345.5" y="279.5" width="30" height="26" stroke="transparent" fill="#def6e8"/>
<text x="360" y="292" text-anchor="middle" dominant-baseline="middle" font-family="monospace">CE</text>
<rect x="405.5" y="279.5" width="30" height="26" stroke="transparent" fill="#def5f6"/>
<text x="420" y="292" text-anchor="middle" dominant-baseline="middle" font-family="monospace">CF</text>
<rect x="465.5" y="279.5" width="30" height="26" stroke="transparent" fill="#dee7f6"/>
<text x="480" y="292" text-anchor="middle" dominant-baseline="middle" font-family="monospace">CG</text>
<rect x="525.5" y="279.5" width="30" height="26" stroke="transparent" fill="#e4def6"/>
<text x="540" y="292" text-anchor="middle" dominant-baseline="middle" font-family="monospace">CH</text>
<rect x="105.5" y="305.5" width="30" height="26" stroke="transparent" fill="#f2e2e2"/>
<text x="120" y="318" text-anchor="middle" dominant-baseline="middle" font-family="monospace">DA</text>
<rect x="165.5" y="305.5" width="30" height="26" stroke="transparent" fill="#f2ece2"/>
<text x="180" y="318" text-anchor="middle" dominant-baseline="middle" font-family="monospace">DB</text>
<rect x="225.5" y="305.5" width="30" height="26" stroke="transparent" fill="#eff2e2"/>
<text x="240" y="318" text-anchor="middle" dominant-baseline="middle" font-family="monospace">DC</text>
<rect x="285.5" y="305.5" width="30" height="26" stroke="transparent" fill="#e5f2e2"/>
<text x="300" y="318" text-anchor="middle" dominant-baseline="middle" font-family="monospace">DD</text>
<rect x="345.5" y="305.5" width="30" height="26" stroke="transparent" fill="#e2f2e9"/>
<text x="360" y="318" text-anchor="middle" dominant-baseline="middle" font-family="monospace">DE</text>
<rect x="405.5" y="305.5" width="30" height="26" stroke="transparent" fill="#e2f2f2"/>
<text x="420" y="318" text-anchor="middle" dominant-baseline="middle" font-family="monospace">DF</text>
<rect x="465.5" y="305.5" width="30" height="26" stroke="transparent" fill="#e2e8f2"/>
<text x="480" y="318" text-anchor="middle" dominant-baseline="middle" font-family="monospace">DG</text>
<rect x="525.5" y="305.5" width="30" height="26" stroke="transparent" fill="#e6e2f2"/>
<text x="540" y="318" text-anchor="middle" dominant-baseline="middle" font-family="monospace">DH</text>
<path d="M 75.5 201.5 L 555.5 201.5" stroke="black" fill="transparent" stroke-width="1" mask="url('#m2')"/>
<path d="M 75.5 227.5 L 555.5 227.5" stroke="black" fill="transparent" stroke-width="1" mask="url('#m2')"/>
<path d="M 75.5 253.5 L 555.5 253.5" stroke="black" fill="transparent" stroke-width="1" mask="url('#m2')"/>
<path d="M 75.5 279.5 L 555.5 279.5" stroke="black" fill="transparent" stroke-width="1" mask="url('#m2')"/>
<path d="M 75.5 305.5 L 555.5 305.5" stroke="black" fill="transparent" stroke-width="1" mask="url('#m2')"/>
<path d="M 75.5 331.5 L 555.5 331.5" stroke="black" fill="transparent" stroke-width="1" mask="url('#m2')"/>
<path d="M 75.5 357.5 L 555.5 357.5" stroke="black" fill="transparent" stroke-width="1" mask="url('#m2')"/>
<path d="M 75.5 201.5 L 75.5 357.5" stroke="black" fill="transparent" stroke-width="1" mask="url('#m2')"/>
<path d="M 105.5 201.5 L 105.5 357.5" stroke="black" fill="transparent" stroke-width="1" mask="url('#m2')"/>
<path d="M 135.5 201.5 L 135.5 357.5" stroke="black" fill="transparent" stroke-width="1" mask="url('#m2')"/>
<path d="M 165.5 201.5 L 165.5 357.5" stroke="black" fill="transparent" stroke-width="1" mask="url('#m2')"/>
<path d="M 195.5 201.5 L 195.5 357.5" stroke="black" fill="transparent" stroke-width="1" mask="url('#m2')"/>
<path d="M 225.5 201.5 L 225.5 357.5" stroke="black" fill="transparent" stroke-width="1" mask="url('#m2')"/>
<path d="M 255.5 201.5 L 255.5 357.5" stroke="black" fill="transparent" stroke-width="1" mask="url('#m2')"/>
<path d="M 285.5 201.5 L 285.5 357.5" stroke="black" fill="transparent" stroke-width="1" mask="url('#m2')"/>
<path d="M 315.5 201.5 L 315.5 357.5" stroke="black" fill="transparent" stroke-width="1" mask="url('#m2')"/>
<path d="M 345.5 201.5 L 345.5 357.5" stroke="black" fill="transparent" stroke-width="1" mask="url('#m2')"/>
<path d="M 375.5 201.5 L 375.5 357.5" stroke="black" fill="transparent" stroke-width="1" mask="url('#m2')"/>
<path d="M 405.5 201.5 L 405.5 357.5" stroke="black" fill="transparent" stroke-width="1" mask="url('#m2')"/>
<path d="M 435.5 201.5 L 435.5 357.5" stroke="black" fill="transparent" stroke-width="1" mask="url('#m2')"/>
<path d="M 465.5 201.5 L 465.5 357.5" stroke="black" fill="transparent" stroke-width="1" mask="url('#m2')"/>
<path d="M 495.5 201.5 L 495.5 357.5" stroke="black" fill="transparent" stroke-width="1" mask="url('#m2')"/>
<path d="M 525.5 201.5 L 525.5 357.5" stroke="black" fill="transparent" stroke-width="1" mask="url('#m2')"/>
<path d="M 555.5 201.5 L 555.5 357.5" stroke="black" fill="transparent" stroke-width="1" mask="url('#m2')"/>
<text x="70" y="279" text-anchor="end" dominant-baseline="middle" font-family="monospace">Dst</text>
<path d="M 321.5 367.5 L 309.5 367.5 L 309.5 389.5 L 297.5 389.5 L 315.5 407.5 L 333.5 389.5 L 321.5 389.5 Z" stroke="transparent" fill="black" stroke-width="1"/>
<rect x="75.5" y="417.5" width="60" height="26" stroke="transparent" fill="#ffd6d6"/>
<text x="105" y="430" text-anchor="middle" dominant-baseline="middle" font-family="monospace">AA</text>
<rect x="135.5" y="417.5" width="60" height="26" stroke="transparent" fill="#ffeed6"/>
<text x="165" y="430" text-anchor="middle" dominant-baseline="middle" font-family="monospace">AB</text>
<rect x="195.5" y="417.5" width="60" height="26" stroke="transparent" fill="#f6ffd6"/>
<text x="225" y="430" text-anchor="middle" dominant-baseline="middle" font-family="monospace">AC</text>
<rect x="255.5" y="417.5" width="60" height="26" stroke="transparent" fill="#ddffd6"/>
<text x="285" y="430" text-anchor="middle" dominant-baseline="middle" font-family="monospace">AD</text>
<rect x="315.5" y="417.5" width="60" height="26" stroke="transparent" fill="#d6ffe7"/>
<text x="345" y="430" text-anchor="middle" dominant-baseline="middle" font-family="monospace">AE</text>
<rect x="375.5" y="417.5" width="60" height="26" stroke="transparent" fill="#d6fdff"/>
<text x="405" y="430" text-anchor="middle" dominant-baseline="middle" font-family="monospace">AF</text>
<rect x="435.5" y="417.5" width="60" height="26" stroke="transparent" fill="#d6e4ff"/>
<text x="465" y="430" text-anchor="middle" dominant-baseline="middle" font-family="monospace">AG</text>
<rect x="495.5" y="417.5" width="60" height="26" stroke="transparent" fill="#e0d6ff"/>
<text x="525" y="430" text-anchor="middle" dominant-baseline="middle" font-family="monospace">AH</text>
<rect x="75.5" y="443.5" width="60" height="26" stroke="transparent" fill="#fadada"/>
<text x="105" y="456" text-anchor="middle" dominant-baseline="middle" font-family="monospace">BA</text>
<rect x="135.5" y="443.5" width="60" height="26" stroke="transparent" fill="#faeeda"/>
<text x="165" y="456" text-anchor="middle" dominant-baseline="middle" font-family="monospace">BB</text>
<rect x="195.5" y="443.5" width="60" height="26" stroke="transparent" fill="#f3fada"/>
<text x="225" y="456" text-anchor="middle" dominant-baseline="middle" font-family="monospace">BC</text>
<rect x="255.5" y="443.5" width="60" height="26" stroke="transparent" fill="#e0fada"/>
<text x="285" y="456" text-anchor="middle" dominant-baseline="middle" font-family="monospace">BD</text>
<rect x="315.5" y="443.5" width="60" height="26" stroke="transparent" fill="#dafae8"/>
<text x="345" y="456" text-anchor="middle" dominant-baseline="middle" font-family="monospace">BE</text>
<rect x="375.5" y="443.5" width="60" height="26" stroke="transparent" fill="#daf9fa"/>
<text x="405" y="456" text-anchor="middle" dominant-baseline="middle" font-family="monospace">BF</text>
<rect x="435.5" y="443.5" width="60" height="26" stroke="transparent" fill="#dae6fa"/>
<text x="465" y="456" text-anchor="middle" dominant-baseline="middle" font-family="monospace">BG</text>
<rect x="495.5" y="443.5" width="60" height="26" stroke="transparent" fill="#e2dafa"/>
<text x="525" y="456" text-anchor="middle" dominant-baseline="middle" font-family="monospace">BH</text>
<rect x="75.5" y="469.5" width="60" height="26" stroke="transparent" fill="#f6dede"/>
<text x="105" y="482" text-anchor="middle" dominant-baseline="middle" font-family="monospace">CA</text>
<rect x="135.5" y="469.5" width="60" height="26" stroke="transparent" fill="#f6edde"/>
<text x="165" y="482" text-anchor="middle" dominant-baseline="middle" font-family="monospace">CB</text>
<rect x="195.5" y="469.5" width="60" height="26" stroke="transparent" fill="#f1f6de"/>
<text x="225" y="482" text-anchor="middle" dominant-baseline="middle" font-family="monospace">CC</text>
<rect x="255.5" y="469.5" width="60" height="26" stroke="transparent" fill="#e2f6de"/>
<text x="285" y="482" text-anchor="middle" dominant-baseline="middle" font-family="monospace">CD</text>
<rect x="315.5" y="469.5" width="60" height="26" stroke="transparent" fill="#def6e8"/>
<text x="345" y="482" text-anchor="middle" dominant-baseline="middle" font-family="monospace">CE</text>
<rect x="375.5" y="469.5" width="60" height="26" stroke="transparent" fill="#def5f6"/>
<text x="405" y="482" text-anchor="middle" dominant-baseline="middle" font-family="monospace">CF</text>
<rect x="435.5" y="469.5" width="60" height="26" stroke="transparent" fill="#dee7f6"/>
<text x="465" y="482" text-anchor="middle" dominant-baseline="middle" font-family="monospace">CG</text>
<rect x="495.5" y="469.5" width="60" height="26" stroke="transparent" fill="#e4def6"/>
<text x="525" y="482" text-anchor="middle" dominant-baseline="middle" font-family="monospace">CH</text>
<rect x="75.5" y="495.5" width="60" height="26" stroke="transparent" fill="#f2e2e2"/>
<text x="105" y="508" text-anchor="middle" dominant-baseline="middle" font-family="monospace">DA</text>
<rect x="135.5" y="495.5" width="60" height="26" stroke="transparent" fill="#f2ece2"/>
<text x="165" y="508" text-anchor="middle" dominant-baseline="middle" font-family="monospace">DB</text>
<rect x="195.5" y="495.5" width="60" height="26" stroke="transparent" fill="#eff2e2"/>
<text x="225" y="508" text-anchor="middle" dominant-baseline="middle" font-family="monospace">DC</text>
<rect x="255.5" y="495.5" width="60" height="26" stroke="transparent" fill="#e5f2e2"/>
<text x="285" y="508" text-anchor="middle" dominant-baseline="middle" font-family="monospace">DD</text>
<rect x="315.5" y="495.5" width="60" height="26" stroke="transparent" fill="#e2f2e9"/>
<text x="345" y="508" text-anchor="middle" dominant-baseline="middle" font-family="monospace">DE</text>
<rect x="375.5" y="495.5" width="60" height="26" stroke="transparent" fill="#e2f2f2"/>
<text x="405" y="508" text-anchor="middle" dominant-baseline="middle" font-family="monospace">DF</text>
<rect x="435.5" y="495.5" width="60" height="26" stroke="transparent" fill="#e2e8f2"/>
<text x="465" y="508" text-anchor="middle" dominant-baseline="middle" font-family="monospace">DG</text>
<rect x="495.5" y="495.5" width="60" height="26" stroke="transparent" fill="#e6e2f2"/>
<text x="525" y="508" text-anchor="middle" dominant-baseline="middle" font-family="monospace">DH</text>
<path d="M 75.5 417.5 L 555.5 417.5" stroke="black" fill="transparent" stroke-width="1"/>
<path d="M 75.5 443.5 L 555.5 443.5" stroke="black" fill="transparent" stroke-width="1"/>
<path d="M 75.5 469.5 L 555.5 469.5" stroke="black" fill="transparent" stroke-width="1"/>
<path d="M 75.5 495.5 L 555.5 495.5" stroke="black" fill="transparent" stroke-width="1"/>
<path d="M 75.5 521.5 L 555.5 521.5" stroke="black" fill="transparent" stroke-width="1"/>
<path d="M 75.5 417.5 L 75.5 521.5" stroke="black" fill="transparent" stroke-width="1"/>
<path d="M 135.5 417.5 L 135.5 521.5" stroke="black" fill="transparent" stroke-width="1"/>
<path d="M 195.5 417.5 L 195.5 521.5" stroke="black" fill="transparent" stroke-width="1"/>
<path d="M 255.5 417.5 L 255.5 521.5" stroke="black" fill="transparent" stroke-width="1"/>
<path d="M 315.5 417.5 L 315.5 521.5" stroke="black" fill="transparent" stroke-width="1"/>
<path d="M 375.5 417.5 L 375.5 521.5" stroke="black" fill="transparent" stroke-width="1"/>
<path d="M 435.5 417.5 L 435.5 521.5" stroke="black" fill="transparent" stroke-width="1"/>
<path d="M 495.5 417.5 L 495.5 521.5" stroke="black" fill="transparent" stroke-width="1"/>
<path d="M 555.5 417.5 L 555.5 521.5" stroke="black" fill="transparent" stroke-width="1"/>
<text x="70" y="469" text-anchor="end" dominant-baseline="middle" font-family="monospace">LReg[VD]</text>
</svg>