<svg version="1.1" width="790" height="535" xmlns="http://www.w3.org/2000/svg"><rect width="790" height="535" rx="15" stroke="transparent" fill="white"/><rect x="590" y="75" width="134" height="134" stroke="black" fill="#ffd3e2" stroke-width="1" rx="5" ry="5"/><path d="M 591.093 85.4216 L 588.265 88.25 L 596.75 88.25 L 596.75 79.7647 L 593.922 82.5931 L 584.428 73.0992 L 581.599 75.9277 Z" stroke="transparent" fill="#5c009e" stroke-width="1"/>
<path d="M 601.836 83.1642 L 604.664 80.3358 L 595.17 70.8419 L 597.999 68.0135 L 589.513 68.0135 L 589.513 76.4987 L 592.342 73.6703 Z" stroke="transparent" fill="#5c009e" fill-opacity="40%" stroke-width="1"/>
<circle cx="570" cy="55" r="20" stroke="transparent" fill="#5c009e"/><text x="570" y="56" text-anchor="middle" dominant-baseline="middle" fill="white">R</text><path d="M 530 53 L 530 57 L 541 57 L 541 61 L 547 55 L 541 49 L 541 53 Z" stroke="transparent" fill="#5c009e" stroke-width="1"/>
<path d="M 593 53 L 593 57 L 604 57 L 604 61 L 610 55 L 604 49 L 604 53 Z" stroke="transparent" fill="#5c009e" fill-opacity="40%" stroke-width="1"/>
<path d="M 572 15 L 568 15 L 568 26 L 564 26 L 570 32 L 576 26 L 572 26 Z" stroke="transparent" fill="#5c009e" stroke-width="1"/>
<path d="M 572 78 L 568 78 L 568 89 L 564 89 L 570 95 L 576 89 L 572 89 Z" stroke="transparent" fill="#5c009e" fill-opacity="40%" stroke-width="1"/>
<path d="M 716.407 205.078 L 719.235 202.25 L 710.75 202.25 L 710.75 210.735 L 713.578 207.907 L 723.072 217.401 L 725.901 214.572 Z" stroke="transparent" fill="#06829e" stroke-width="1"/>
<path d="M 718.664 194.336 L 715.836 197.164 L 725.33 206.658 L 722.501 209.487 L 730.987 209.487 L 730.987 201.001 L 728.158 203.83 Z" stroke="transparent" fill="#06829e" fill-opacity="40%" stroke-width="1"/>
<circle cx="744" cy="229" r="20" stroke="transparent" fill="#06829e"/><text x="744" y="230" text-anchor="middle" dominant-baseline="middle" fill="white">R</text><path d="M 710 227 L 710 223 L 704 229 L 710 235 L 710 231 L 721 231 L 721 227 Z" stroke="transparent" fill="#06829e" fill-opacity="40%" stroke-width="1"/>
<path d="M 773 227 L 773 223 L 767 229 L 773 235 L 773 231 L 784 231 L 784 227 Z" stroke="transparent" fill="#06829e" stroke-width="1"/>
<path d="M 746 195 L 750 195 L 744 189 L 738 195 L 742 195 L 742 206 L 746 206 Z" stroke="transparent" fill="#06829e" fill-opacity="40%" stroke-width="1"/>
<path d="M 746 258 L 750 258 L 744 252 L 738 258 L 742 258 L 742 269 L 746 269 Z" stroke="transparent" fill="#06829e" stroke-width="1"/>
<path d="M 694 0 L 694 8 Q 694 11 691 11 L 529 11 Q 526 11 526 14 L 526 96 Q 526 99 529 99 L 691 99 Q 694 99 694 102 L 694 800" stroke="#A0A0A0" stroke-dasharray="4 2" fill="transparent" stroke-width="3"/><rect x="600" y="85" width="100" height="40" stroke="transparent" fill="#5c009e" rx="5" ry="5"/><text x="651" y="107" text-anchor="middle" dominant-baseline="middle" fill="white">NoC #0 NIU</text><rect x="614" y="159" width="100" height="40" stroke="transparent" fill="#06829e" rx="5" ry="5"/><text x="665" y="181" text-anchor="middle" dominant-baseline="middle" fill="white">NoC #1 NIU</text><path d="M 490 95 L 500 90 L 500 194 L 490 189 Z" stroke="black" fill="#e9ddaf" stroke-width="1"/><path d="M 507 103 L 507 99 L 501 105 L 507 111 L 507 107 L 599.5 107 L 599.5 103 Z" stroke="transparent" fill="black" stroke-width="1"/>
<path d="M 507 177 L 507 173 L 501 179 L 507 185 L 507 181 L 613.5 181 L 613.5 177 Z" stroke="transparent" fill="black" stroke-width="1"/>
<path d="M 0 64.5 L 227 64.5 Q 230 64.5 230 67.5 L 230 511.5 Q 230 514.5 227 514.5 L 0 514.5" stroke="#A0A0A0" stroke-dasharray="4 2" fill="transparent" stroke-width="3"/><text x="222" y="89" text-anchor="end" dominant-baseline="middle" fill="#A0A0A0">PCI Express Clock</text><text x="238" y="89" text-anchor="start" dominant-baseline="middle" fill="#A0A0A0">AXI Clock</text><text x="686" y="350" text-anchor="end" dominant-baseline="middle" fill="#A0A0A0">AXI Clock</text><text x="702" y="350" text-anchor="start" dominant-baseline="middle" fill="#A0A0A0">AI Clock</text><rect x="140" y="114.5" width="180" height="350" stroke="black" fill="#d4aa00" stroke-width="1"/><text x="230" y="244" text-anchor="middle" dominant-baseline="middle">PCI Express</text><text x="230" y="264" text-anchor="middle" dominant-baseline="middle">Controller</text><text x="230" y="284" text-anchor="middle" dominant-baseline="middle">and</text><text x="230" y="304" text-anchor="middle" dominant-baseline="middle">PHY</text><rect x="160" y="159.5" width="110" height="40" stroke="black" fill="black" fill-opacity="25%" stroke-width="1"/><text x="215" y="179" text-anchor="middle" dominant-baseline="middle">Inbound iATU</text><rect x="190" y="404.5" width="110" height="40" stroke="black" fill="black" fill-opacity="25%" stroke-width="1"/><text x="245" y="424" text-anchor="middle" dominant-baseline="middle">Outbound iATU</text><rect x="160" y="344.5" width="140" height="40" stroke="black" fill="black" fill-opacity="25%" stroke-width="1"/><text x="230" y="364" text-anchor="middle" dominant-baseline="middle">DMA Engines</text><path d="M 108 177.5 L 108 181.5 L 133 181.5 L 133 185.5 L 139 179.5 L 133 173.5 L 133 177.5 Z" stroke="transparent" fill="#6889E9" fill-opacity="40%" stroke-width="1"/>
<text x="103" y="181" text-anchor="end" dominant-baseline="middle">From Host</text><path d="M 134 422.5 L 134 418.5 L 128 424.5 L 134 430.5 L 134 426.5 L 189.5 426.5 L 189.5 422.5 Z" stroke="transparent" fill="#6889E9" stroke-width="1"/>
<text x="123" y="426" text-anchor="end" dominant-baseline="middle">To Host IOMMU</text><path d="M 177 385 L 173 385 L 173 424.5 L 177 424.5 Z" stroke="transparent" fill="#6889E9" stroke-width="1"/>
<rect x="340" y="337" width="55" height="55" stroke="black" fill="#d4aa00" stroke-width="1"/><text x="367" y="354" text-anchor="middle" dominant-baseline="middle">APB /</text><text x="367" y="374" text-anchor="middle" dominant-baseline="middle">/ AXI</text><path d="M 339 364.5 L 322 364.5" stroke="black" fill="transparent" stroke-width="1"/><path d="M 325 361.5 L 322 364.5 L 325 367.5" stroke="black" fill="transparent" stroke-width="1"/><path d="M 415 132 L 425 127 L 425 444.5 L 415 439.5 Z" stroke="black" fill="#e9ddaf" stroke-width="1"/><path d="M 432 140 L 432 136 L 426 142 L 432 148 L 432 144 L 489.5 144 L 489.5 140 Z" stroke="transparent" fill="black" stroke-width="1"/>
<path d="M 402 362.5 L 402 358.5 L 396 364.5 L 402 370.5 L 402 366.5 L 414.5 366.5 L 414.5 362.5 Z" stroke="transparent" fill="black" stroke-width="1"/>
<path d="M 307 422.5 L 307 418.5 L 301 424.5 L 307 430.5 L 307 426.5 L 414.5 426.5 L 414.5 422.5 Z" stroke="transparent" fill="black" stroke-width="1"/>
<path d="M 280 510 L 280 487.5 Q 280 484.5 283 484.5 L 442 484.5 Q 445 484.5 445 481.5 L 445 402.5 Q 445 399.5 442 399.5 L 430 399.5" stroke="black" fill="transparent" stroke-width="4"/><path d="M 430 401.5 L 430 397.5 L 432 397.5 L 432 393.5 L 426 399.5 L 432 405.5 L 432 401.5 Z" stroke="transparent" fill="black" stroke-width="1"/>
<text x="280" y="515" text-anchor="middle" dominant-baseline="hanging">From ARC</text></svg>
