<svg version="1.1" width="790" height="535" xmlns="http://www.w3.org/2000/svg"><rect width="790" height="535" rx="15" stroke="transparent" fill="white"/><rect x="590" y="75" width="134" height="134" stroke="black" fill="#ffd3e2" stroke-width="1" rx="5" ry="5"/><path d="M 591.093 85.4216 L 588.265 88.25 L 596.75 88.25 L 596.75 79.7647 L 593.922 82.5931 L 584.428 73.0992 L 581.599 75.9277 Z" stroke="transparent" fill="#5c009e" fill-opacity="40%" stroke-width="1"/>
<path d="M 601.836 83.1642 L 604.664 80.3358 L 595.17 70.8419 L 597.999 68.0135 L 589.513 68.0135 L 589.513 76.4987 L 592.342 73.6703 Z" stroke="transparent" fill="#5c009e" stroke-width="1"/>
<circle cx="570" cy="55" r="20" stroke="transparent" fill="#5c009e"/><text x="570" y="56" text-anchor="middle" dominant-baseline="middle" fill="white">R</text><path d="M 530 53 L 530 57 L 541 57 L 541 61 L 547 55 L 541 49 L 541 53 Z" stroke="transparent" fill="#5c009e" fill-opacity="40%" stroke-width="1"/>
<path d="M 593 53 L 593 57 L 604 57 L 604 61 L 610 55 L 604 49 L 604 53 Z" stroke="transparent" fill="#5c009e" stroke-width="1"/>
<path d="M 572 15 L 568 15 L 568 26 L 564 26 L 570 32 L 576 26 L 572 26 Z" stroke="transparent" fill="#5c009e" fill-opacity="40%" stroke-width="1"/>
<path d="M 572 78 L 568 78 L 568 89 L 564 89 L 570 95 L 576 89 L 572 89 Z" stroke="transparent" fill="#5c009e" stroke-width="1"/>
<path d="M 716.407 205.078 L 719.235 202.25 L 710.75 202.25 L 710.75 210.735 L 713.578 207.907 L 723.072 217.401 L 725.901 214.572 Z" stroke="transparent" fill="#06829e" fill-opacity="40%" stroke-width="1"/>
<path d="M 718.664 194.336 L 715.836 197.164 L 725.33 206.658 L 722.501 209.487 L 730.987 209.487 L 730.987 201.001 L 728.158 203.83 Z" stroke="transparent" fill="#06829e" stroke-width="1"/>
<circle cx="744" cy="229" r="20" stroke="transparent" fill="#06829e"/><text x="744" y="230" text-anchor="middle" dominant-baseline="middle" fill="white">R</text><path d="M 710 227 L 710 223 L 704 229 L 710 235 L 710 231 L 721 231 L 721 227 Z" stroke="transparent" fill="#06829e" stroke-width="1"/>
<path d="M 773 227 L 773 223 L 767 229 L 773 235 L 773 231 L 784 231 L 784 227 Z" stroke="transparent" fill="#06829e" fill-opacity="40%" stroke-width="1"/>
<path d="M 746 195 L 750 195 L 744 189 L 738 195 L 742 195 L 742 206 L 746 206 Z" stroke="transparent" fill="#06829e" stroke-width="1"/>
<path d="M 746 258 L 750 258 L 744 252 L 738 258 L 742 258 L 742 269 L 746 269 Z" stroke="transparent" fill="#06829e" fill-opacity="40%" stroke-width="1"/>
<path d="M 694 0 L 694 8 Q 694 11 691 11 L 529 11 Q 526 11 526 14 L 526 96 Q 526 99 529 99 L 691 99 Q 694 99 694 102 L 694 800" stroke="#A0A0A0" stroke-dasharray="4 2" fill="transparent" stroke-width="3"/><rect x="600" y="85" width="100" height="40" stroke="transparent" fill="#5c009e" rx="5" ry="5"/><text x="651" y="107" text-anchor="middle" dominant-baseline="middle" fill="white">NoC #0 NIU</text><rect x="614" y="159" width="100" height="40" stroke="transparent" fill="#06829e" rx="5" ry="5"/><text x="665" y="181" text-anchor="middle" dominant-baseline="middle" fill="white">NoC #1 NIU</text><path d="M 490 95 L 500 90 L 500 194 L 490 189 Z" stroke="black" fill="#e9ddaf" stroke-width="1"/><path d="M 500.5 103 L 500.5 107 L 593 107 L 593 111 L 599 105 L 593 99 L 593 103 Z" stroke="transparent" fill="black" stroke-width="1"/>
<path d="M 500.5 177 L 500.5 181 L 607 181 L 607 185 L 613 179 L 607 173 L 607 177 Z" stroke="transparent" fill="black" stroke-width="1"/>
<path d="M 614 229 L 659 229 L 654 239 L 619 239 Z" stroke="black" fill="#e9ddaf" stroke-width="1"/><path d="M 644 228 L 644 201" stroke="black" fill="transparent" stroke-width="1"/><path d="M 647 204 L 644 201 L 641 204" stroke="black" fill="transparent" stroke-width="1"/><path d="M 629 228 L 629 204" stroke="black" fill="transparent" stroke-width="1"/><path d="M 629 154 L 629 127" stroke="black" fill="transparent" stroke-width="1"/><path d="M 632 130 L 629 127 L 626 130" stroke="black" fill="transparent" stroke-width="1"/><rect x="370" y="114.5" width="100" height="55" stroke="black" fill="#d4aa00" stroke-width="1"/><text x="420" y="132" text-anchor="middle" dominant-baseline="middle">Configurable</text><text x="420" y="152" text-anchor="middle" dominant-baseline="middle">TLBs</text><path d="M 470.5 140 L 470.5 144 L 483 144 L 483 148 L 489 142 L 483 136 L 483 140 Z" stroke="transparent" fill="black" stroke-width="1"/>
<rect x="370" y="189.5" width="55" height="55" stroke="black" fill="#d4aa00" stroke-width="1"/><text x="397" y="207" text-anchor="middle" dominant-baseline="middle">AXI /</text><text x="397" y="227" text-anchor="middle" dominant-baseline="middle">/ APB</text><rect x="370" y="264.5" width="55" height="55" stroke="black" fill="#d4aa00" stroke-width="1"/><text x="397" y="282" text-anchor="middle" dominant-baseline="middle">AXI /</text><text x="397" y="302" text-anchor="middle" dominant-baseline="middle">/ APB</text><path d="M 426 217 L 444.5 217 Q 447.5 217 447.5 214 L 447.5 171.5" stroke="black" fill="transparent" stroke-width="1"/><path d="M 450.5 174.5 L 447.5 171.5 L 444.5 174.5" stroke="black" fill="transparent" stroke-width="1"/><path d="M 426 292 L 633.5 292 Q 636.5 292 636.5 289 L 636.5 241" stroke="black" fill="transparent" stroke-width="1"/><path d="M 639.5 244 L 636.5 241 L 633.5 244" stroke="black" fill="transparent" stroke-width="1"/><path d="M 340 132 L 350 127 L 350 382 L 340 377 Z" stroke="black" fill="#e9ddaf" stroke-width="1"/><path d="M 350.5 140 L 350.5 144 L 363 144 L 363 148 L 369 142 L 363 136 L 363 140 Z" stroke="transparent" fill="black" stroke-width="1"/>
<path d="M 350.5 215 L 350.5 219 L 363 219 L 363 223 L 369 217 L 363 211 L 363 215 Z" stroke="transparent" fill="black" stroke-width="1"/>
<path d="M 350.5 290 L 350.5 294 L 363 294 L 363 298 L 369 292 L 363 286 L 363 290 Z" stroke="transparent" fill="black" stroke-width="1"/>
<path d="M 350.5 367 L 397 367 Q 400 367 400 370 L 400 506" stroke="black" fill="transparent" stroke-width="4"/><path d="M 402 506 L 398 506 L 398 504 L 394 504 L 400 510 L 406 504 L 402 504 Z" stroke="transparent" fill="black" stroke-width="1"/>
<path d="M 0 64.5 L 227 64.5 Q 230 64.5 230 67.5 L 230 511.5 Q 230 514.5 227 514.5 L 0 514.5" stroke="#A0A0A0" stroke-dasharray="4 2" fill="transparent" stroke-width="3"/><text x="222" y="89" text-anchor="end" dominant-baseline="middle" fill="#A0A0A0">PCI Express Clock</text><text x="238" y="89" text-anchor="start" dominant-baseline="middle" fill="#A0A0A0">AXI Clock</text><text x="222" y="489" text-anchor="end" dominant-baseline="middle" fill="#A0A0A0">PCI Express Clock</text><text x="238" y="489" text-anchor="start" dominant-baseline="middle" fill="#A0A0A0">AXI Clock</text><text x="686" y="350" text-anchor="end" dominant-baseline="middle" fill="#A0A0A0">AXI Clock</text><text x="702" y="350" text-anchor="start" dominant-baseline="middle" fill="#A0A0A0">AI Clock</text><rect x="140" y="114.5" width="180" height="350" stroke="black" fill="#d4aa00" stroke-width="1"/><text x="230" y="244" text-anchor="middle" dominant-baseline="middle">PCI Express</text><text x="230" y="264" text-anchor="middle" dominant-baseline="middle">Controller</text><text x="230" y="284" text-anchor="middle" dominant-baseline="middle">and</text><text x="230" y="304" text-anchor="middle" dominant-baseline="middle">PHY</text><rect x="160" y="159.5" width="110" height="40" stroke="black" fill="black" fill-opacity="25%" stroke-width="1"/><text x="215" y="179" text-anchor="middle" dominant-baseline="middle">Inbound iATU</text><rect x="190" y="404.5" width="110" height="40" stroke="black" fill="black" fill-opacity="25%" stroke-width="1"/><text x="245" y="424" text-anchor="middle" dominant-baseline="middle">Outbound iATU</text><rect x="160" y="344.5" width="140" height="40" stroke="black" fill="black" fill-opacity="25%" stroke-width="1"/><text x="230" y="364" text-anchor="middle" dominant-baseline="middle">DMA Engines</text><path d="M 128 177.5 L 128 181.5 L 153 181.5 L 153 185.5 L 159 179.5 L 153 173.5 L 153 177.5 Z" stroke="transparent" fill="#6889E9" stroke-width="1"/>
<text x="123" y="181" text-anchor="end" dominant-baseline="middle">From Host MMU</text><path d="M 114 422.5 L 114 418.5 L 108 424.5 L 114 430.5 L 114 426.5 L 139.5 426.5 L 139.5 422.5 Z" stroke="transparent" fill="#6889E9" fill-opacity="40%" stroke-width="1"/>
<text x="103" y="426" text-anchor="end" dominant-baseline="middle">To Host</text><path d="M 270.5 177.5 L 270.5 181.5 L 333 181.5 L 333 185.5 L 339 179.5 L 333 173.5 L 333 177.5 Z" stroke="transparent" fill="black" stroke-width="1"/>
<path d="M 283 344 L 287 344 L 287 179.5 L 283 179.5 Z" stroke="transparent" fill="black" stroke-width="1"/>
<text x="400" y="515" text-anchor="middle" dominant-baseline="hanging">To ARC</text></svg>
