<svg version="1.1" width="790" height="715" xmlns="http://www.w3.org/2000/svg"><rect width="790" height="715" rx="15" stroke="transparent" fill="white"/><rect x="590" y="75" width="134" height="134" stroke="black" fill="#d2fad2" stroke-width="1" rx="5" ry="5"/><path d="M 591.093 85.4216 L 588.265 88.25 L 596.75 88.25 L 596.75 79.7647 L 593.922 82.5931 L 584.428 73.0992 L 581.599 75.9277 Z" stroke="transparent" fill="#5c009e" stroke-width="1"/>
<path d="M 601.836 83.1642 L 604.664 80.3358 L 595.17 70.8419 L 597.999 68.0135 L 589.513 68.0135 L 589.513 76.4987 L 592.342 73.6703 Z" stroke="transparent" fill="#5c009e" fill-opacity="40%" stroke-width="1"/>
<circle cx="570" cy="55" r="20" stroke="transparent" fill="#5c009e"/><text x="570" y="56" text-anchor="middle" dominant-baseline="middle" fill="white">R</text><path d="M 530 53 L 530 57 L 541 57 L 541 61 L 547 55 L 541 49 L 541 53 Z" stroke="transparent" fill="#5c009e" stroke-width="1"/>
<path d="M 593 53 L 593 57 L 604 57 L 604 61 L 610 55 L 604 49 L 604 53 Z" stroke="transparent" fill="#5c009e" fill-opacity="40%" stroke-width="1"/>
<path d="M 572 15 L 568 15 L 568 26 L 564 26 L 570 32 L 576 26 L 572 26 Z" stroke="transparent" fill="#5c009e" stroke-width="1"/>
<path d="M 572 78 L 568 78 L 568 89 L 564 89 L 570 95 L 576 89 L 572 89 Z" stroke="transparent" fill="#5c009e" fill-opacity="40%" stroke-width="1"/>
<path d="M 716.407 205.078 L 719.235 202.25 L 710.75 202.25 L 710.75 210.735 L 713.578 207.907 L 723.072 217.401 L 725.901 214.572 Z" stroke="transparent" fill="#06829e" stroke-width="1"/>
<path d="M 718.664 194.336 L 715.836 197.164 L 725.33 206.658 L 722.501 209.487 L 730.987 209.487 L 730.987 201.001 L 728.158 203.83 Z" stroke="transparent" fill="#06829e" fill-opacity="40%" stroke-width="1"/>
<circle cx="744" cy="229" r="20" stroke="transparent" fill="#06829e"/><text x="744" y="230" text-anchor="middle" dominant-baseline="middle" fill="white">R</text><path d="M 710 227 L 710 223 L 704 229 L 710 235 L 710 231 L 721 231 L 721 227 Z" stroke="transparent" fill="#06829e" fill-opacity="40%" stroke-width="1"/>
<path d="M 773 227 L 773 223 L 767 229 L 773 235 L 773 231 L 784 231 L 784 227 Z" stroke="transparent" fill="#06829e" stroke-width="1"/>
<path d="M 746 195 L 750 195 L 744 189 L 738 195 L 742 195 L 742 206 L 746 206 Z" stroke="transparent" fill="#06829e" fill-opacity="40%" stroke-width="1"/>
<path d="M 746 258 L 750 258 L 744 252 L 738 258 L 742 258 L 742 269 L 746 269 Z" stroke="transparent" fill="#06829e" stroke-width="1"/>
<path d="M 694 0 L 694 8 Q 694 11 691 11 L 529 11 Q 526 11 526 14 L 526 96 Q 526 99 529 99 L 691 99 Q 694 99 694 102 L 694 800" stroke="#A0A0A0" stroke-dasharray="4 2" fill="transparent" stroke-width="3"/><rect x="600" y="85" width="100" height="40" stroke="transparent" fill="#5c009e" rx="5" ry="5"/><text x="651" y="107" text-anchor="middle" dominant-baseline="middle" fill="white">NoC #0 NIU</text><rect x="614" y="159" width="100" height="40" stroke="transparent" fill="#06829e" rx="5" ry="5"/><text x="665" y="181" text-anchor="middle" dominant-baseline="middle" fill="white">NoC #1 NIU</text><path d="M 550 95 L 560 90 L 560 194 L 550 189 Z" stroke="black" fill="#e9ddaf" stroke-width="1"/><path d="M 567 103 L 567 99 L 561 105 L 567 111 L 567 107 L 599.5 107 L 599.5 103 Z" stroke="transparent" fill="black" stroke-width="1"/>
<path d="M 567 177 L 567 173 L 561 179 L 567 185 L 567 181 L 613.5 181 L 613.5 177 Z" stroke="transparent" fill="black" stroke-width="1"/>
<path d="M 614 229 L 659 229 L 654 239 L 619 239 Z" stroke="black" fill="#e9ddaf" stroke-width="1"/><path d="M 644 228 L 644 201" stroke="black" fill="transparent" stroke-width="1"/><path d="M 647 204 L 644 201 L 641 204" stroke="black" fill="transparent" stroke-width="1"/><path d="M 629 228 L 629 202" stroke="black" fill="transparent" stroke-width="1"/><path d="M 629 156 L 629 127" stroke="black" fill="transparent" stroke-width="1"/><path d="M 632 130 L 629 127 L 626 130" stroke="black" fill="transparent" stroke-width="1"/><rect x="5.5" y="40" width="60" height="140" stroke="black" fill="#d4aa00" stroke-width="1"/><text x="35" y="100" text-anchor="middle" dominant-baseline="middle">x280</text><text x="35" y="120" text-anchor="middle" dominant-baseline="middle">Hart 0</text><rect x="85.5" y="40" width="62" height="50" stroke="black" fill="#f4d7e3" stroke-width="1"/><text x="116" y="55" text-anchor="middle" dominant-baseline="middle">L1 D$</text><text x="116" y="75" text-anchor="middle" dominant-baseline="middle">32 KiB</text><rect x="85.5" y="100" width="62" height="50" stroke="black" fill="#f4d7e3" stroke-width="1"/><text x="116" y="115" text-anchor="middle" dominant-baseline="middle">L1 I$</text><text x="116" y="135" text-anchor="middle" dominant-baseline="middle">32 KiB</text><rect x="167.5" y="40" width="58" height="140" stroke="black" fill="#d4aa00" stroke-width="1"/><text x="196" y="90" text-anchor="middle" dominant-baseline="middle">MMU</text><text x="196" y="110" text-anchor="middle" dominant-baseline="middle">and</text><text x="196" y="130" text-anchor="middle" dominant-baseline="middle">BEU</text><rect x="245.5" y="60" width="70" height="70" stroke="black" fill="#f4d7e3" stroke-width="1"/><text x="280" y="85" text-anchor="middle" dominant-baseline="middle">L2 $</text><text x="280" y="105" text-anchor="middle" dominant-baseline="middle">128 KiB</text><path d="M 66 63 L 66 67 L 85 67 L 85 63 Z" stroke="transparent" fill="#6889E9" stroke-width="1"/>
<path d="M 148 63 L 148 67 L 167 67 L 167 63 Z" stroke="transparent" fill="#6889E9" stroke-width="1"/>
<path d="M 66 123 L 66 127 L 85 127 L 85 123 Z" stroke="transparent" fill="#6889E9" stroke-width="1"/>
<path d="M 148 123 L 148 127 L 167 127 L 167 123 Z" stroke="transparent" fill="#6889E9" stroke-width="1"/>
<rect x="5.5" y="200" width="60" height="140" stroke="black" fill="#d4aa00" stroke-width="1"/><text x="35" y="260" text-anchor="middle" dominant-baseline="middle">x280</text><text x="35" y="280" text-anchor="middle" dominant-baseline="middle">Hart 1</text><rect x="85.5" y="200" width="62" height="50" stroke="black" fill="#f4d7e3" stroke-width="1"/><text x="116" y="215" text-anchor="middle" dominant-baseline="middle">L1 D$</text><text x="116" y="235" text-anchor="middle" dominant-baseline="middle">32 KiB</text><rect x="85.5" y="260" width="62" height="50" stroke="black" fill="#f4d7e3" stroke-width="1"/><text x="116" y="275" text-anchor="middle" dominant-baseline="middle">L1 I$</text><text x="116" y="295" text-anchor="middle" dominant-baseline="middle">32 KiB</text><rect x="167.5" y="200" width="58" height="140" stroke="black" fill="#d4aa00" stroke-width="1"/><text x="196" y="250" text-anchor="middle" dominant-baseline="middle">MMU</text><text x="196" y="270" text-anchor="middle" dominant-baseline="middle">and</text><text x="196" y="290" text-anchor="middle" dominant-baseline="middle">BEU</text><rect x="245.5" y="220" width="70" height="70" stroke="black" fill="#f4d7e3" stroke-width="1"/><text x="280" y="245" text-anchor="middle" dominant-baseline="middle">L2 $</text><text x="280" y="265" text-anchor="middle" dominant-baseline="middle">128 KiB</text><path d="M 66 223 L 66 227 L 85 227 L 85 223 Z" stroke="transparent" fill="#6889E9" stroke-width="1"/>
<path d="M 148 223 L 148 227 L 167 227 L 167 223 Z" stroke="transparent" fill="#6889E9" stroke-width="1"/>
<path d="M 66 283 L 66 287 L 85 287 L 85 283 Z" stroke="transparent" fill="#6889E9" stroke-width="1"/>
<path d="M 148 283 L 148 287 L 167 287 L 167 283 Z" stroke="transparent" fill="#6889E9" stroke-width="1"/>
<rect x="5.5" y="360" width="60" height="140" stroke="black" fill="#d4aa00" stroke-width="1"/><text x="35" y="420" text-anchor="middle" dominant-baseline="middle">x280</text><text x="35" y="440" text-anchor="middle" dominant-baseline="middle">Hart 2</text><rect x="85.5" y="360" width="62" height="50" stroke="black" fill="#f4d7e3" stroke-width="1"/><text x="116" y="375" text-anchor="middle" dominant-baseline="middle">L1 D$</text><text x="116" y="395" text-anchor="middle" dominant-baseline="middle">32 KiB</text><rect x="85.5" y="420" width="62" height="50" stroke="black" fill="#f4d7e3" stroke-width="1"/><text x="116" y="435" text-anchor="middle" dominant-baseline="middle">L1 I$</text><text x="116" y="455" text-anchor="middle" dominant-baseline="middle">32 KiB</text><rect x="167.5" y="360" width="58" height="140" stroke="black" fill="#d4aa00" stroke-width="1"/><text x="196" y="410" text-anchor="middle" dominant-baseline="middle">MMU</text><text x="196" y="430" text-anchor="middle" dominant-baseline="middle">and</text><text x="196" y="450" text-anchor="middle" dominant-baseline="middle">BEU</text><rect x="245.5" y="380" width="70" height="70" stroke="black" fill="#f4d7e3" stroke-width="1"/><text x="280" y="405" text-anchor="middle" dominant-baseline="middle">L2 $</text><text x="280" y="425" text-anchor="middle" dominant-baseline="middle">128 KiB</text><path d="M 66 383 L 66 387 L 85 387 L 85 383 Z" stroke="transparent" fill="#6889E9" stroke-width="1"/>
<path d="M 148 383 L 148 387 L 167 387 L 167 383 Z" stroke="transparent" fill="#6889E9" stroke-width="1"/>
<path d="M 66 443 L 66 447 L 85 447 L 85 443 Z" stroke="transparent" fill="#6889E9" stroke-width="1"/>
<path d="M 148 443 L 148 447 L 167 447 L 167 443 Z" stroke="transparent" fill="#6889E9" stroke-width="1"/>
<rect x="5.5" y="520" width="60" height="140" stroke="black" fill="#d4aa00" stroke-width="1"/><text x="35" y="580" text-anchor="middle" dominant-baseline="middle">x280</text><text x="35" y="600" text-anchor="middle" dominant-baseline="middle">Hart 3</text><rect x="85.5" y="520" width="62" height="50" stroke="black" fill="#f4d7e3" stroke-width="1"/><text x="116" y="535" text-anchor="middle" dominant-baseline="middle">L1 D$</text><text x="116" y="555" text-anchor="middle" dominant-baseline="middle">32 KiB</text><rect x="85.5" y="580" width="62" height="50" stroke="black" fill="#f4d7e3" stroke-width="1"/><text x="116" y="595" text-anchor="middle" dominant-baseline="middle">L1 I$</text><text x="116" y="615" text-anchor="middle" dominant-baseline="middle">32 KiB</text><rect x="167.5" y="520" width="58" height="140" stroke="black" fill="#d4aa00" stroke-width="1"/><text x="196" y="570" text-anchor="middle" dominant-baseline="middle">MMU</text><text x="196" y="590" text-anchor="middle" dominant-baseline="middle">and</text><text x="196" y="610" text-anchor="middle" dominant-baseline="middle">BEU</text><rect x="245.5" y="540" width="70" height="70" stroke="black" fill="#f4d7e3" stroke-width="1"/><text x="280" y="565" text-anchor="middle" dominant-baseline="middle">L2 $</text><text x="280" y="585" text-anchor="middle" dominant-baseline="middle">128 KiB</text><path d="M 66 543 L 66 547 L 85 547 L 85 543 Z" stroke="transparent" fill="#6889E9" stroke-width="1"/>
<path d="M 148 543 L 148 547 L 167 547 L 167 543 Z" stroke="transparent" fill="#6889E9" stroke-width="1"/>
<path d="M 66 603 L 66 607 L 85 607 L 85 603 Z" stroke="transparent" fill="#6889E9" stroke-width="1"/>
<path d="M 148 603 L 148 607 L 167 607 L 167 603 Z" stroke="transparent" fill="#6889E9" stroke-width="1"/>
<path d="M 335.5 36 L 345.5 41 L 345.5 655 L 335.5 660 Z" stroke="black" fill="#e9ddaf" stroke-width="1"/><path d="M 226 93 L 226 97 L 245 97 L 245 93 Z" stroke="transparent" fill="#6889E9" stroke-width="1"/>
<path d="M 316 93 L 316 97 L 328.5 97 L 328.5 101 L 334.5 95 L 328.5 89 L 328.5 93 Z" stroke="transparent" fill="#6889E9" stroke-width="1"/>
<path d="M 66 168 L 66 172 L 167 172 L 167 168 Z" stroke="transparent" fill="#6889E9" stroke-width="1"/>
<path d="M 226 168 L 226 172 L 328.5 172 L 328.5 176 L 334.5 170 L 328.5 164 L 328.5 168 Z" stroke="transparent" fill="#6889E9" stroke-width="1"/>
<path d="M 345.5 111 L 352.5 111 Q 355.5 111 355.5 114 L 355.5 118 Q 355.5 121 352.5 121 L 348.5 121" stroke="#6889E9" fill="transparent" stroke-width="1"/><path d="M 332.5 121 L 317.5 121" stroke="#6889E9" fill="transparent" stroke-width="1"/><path d="M 320.5 118 L 317.5 121 L 320.5 124" stroke="#6889E9" fill="transparent" stroke-width="1"/><path d="M 345.5 131 L 352.5 131 Q 355.5 131 355.5 134 L 355.5 138 Q 355.5 141 352.5 141 L 348.5 141" stroke="#6889E9" fill="transparent" stroke-width="1"/><path d="M 332.5 141 L 227.5 141" stroke="#6889E9" fill="transparent" stroke-width="1"/><path d="M 230.5 138 L 227.5 141 L 230.5 144" stroke="#6889E9" fill="transparent" stroke-width="1"/><path d="M 345.5 151 L 352.5 151 Q 355.5 151 355.5 154 L 355.5 158 Q 355.5 161 352.5 161 L 348.5 161" stroke="#6889E9" fill="transparent" stroke-width="1"/><path d="M 332.5 161 L 228.5 161" stroke="#6889E9" fill="transparent" stroke-width="1"/><path d="M 164.5 161 L 67.5 161" stroke="#6889E9" fill="transparent" stroke-width="1"/><path d="M 70.5 158 L 67.5 161 L 70.5 164" stroke="#6889E9" fill="transparent" stroke-width="1"/><path d="M 226 253 L 226 257 L 245 257 L 245 253 Z" stroke="transparent" fill="#6889E9" stroke-width="1"/>
<path d="M 316 253 L 316 257 L 328.5 257 L 328.5 261 L 334.5 255 L 328.5 249 L 328.5 253 Z" stroke="transparent" fill="#6889E9" stroke-width="1"/>
<path d="M 66 328 L 66 332 L 167 332 L 167 328 Z" stroke="transparent" fill="#6889E9" stroke-width="1"/>
<path d="M 226 328 L 226 332 L 328.5 332 L 328.5 336 L 334.5 330 L 328.5 324 L 328.5 328 Z" stroke="transparent" fill="#6889E9" stroke-width="1"/>
<path d="M 345.5 271 L 352.5 271 Q 355.5 271 355.5 274 L 355.5 278 Q 355.5 281 352.5 281 L 348.5 281" stroke="#6889E9" fill="transparent" stroke-width="1"/><path d="M 332.5 281 L 317.5 281" stroke="#6889E9" fill="transparent" stroke-width="1"/><path d="M 320.5 278 L 317.5 281 L 320.5 284" stroke="#6889E9" fill="transparent" stroke-width="1"/><path d="M 345.5 291 L 352.5 291 Q 355.5 291 355.5 294 L 355.5 298 Q 355.5 301 352.5 301 L 348.5 301" stroke="#6889E9" fill="transparent" stroke-width="1"/><path d="M 332.5 301 L 227.5 301" stroke="#6889E9" fill="transparent" stroke-width="1"/><path d="M 230.5 298 L 227.5 301 L 230.5 304" stroke="#6889E9" fill="transparent" stroke-width="1"/><path d="M 345.5 311 L 352.5 311 Q 355.5 311 355.5 314 L 355.5 318 Q 355.5 321 352.5 321 L 348.5 321" stroke="#6889E9" fill="transparent" stroke-width="1"/><path d="M 332.5 321 L 228.5 321" stroke="#6889E9" fill="transparent" stroke-width="1"/><path d="M 164.5 321 L 67.5 321" stroke="#6889E9" fill="transparent" stroke-width="1"/><path d="M 70.5 318 L 67.5 321 L 70.5 324" stroke="#6889E9" fill="transparent" stroke-width="1"/><path d="M 226 413 L 226 417 L 245 417 L 245 413 Z" stroke="transparent" fill="#6889E9" stroke-width="1"/>
<path d="M 316 413 L 316 417 L 328.5 417 L 328.5 421 L 334.5 415 L 328.5 409 L 328.5 413 Z" stroke="transparent" fill="#6889E9" stroke-width="1"/>
<path d="M 66 488 L 66 492 L 167 492 L 167 488 Z" stroke="transparent" fill="#6889E9" stroke-width="1"/>
<path d="M 226 488 L 226 492 L 328.5 492 L 328.5 496 L 334.5 490 L 328.5 484 L 328.5 488 Z" stroke="transparent" fill="#6889E9" stroke-width="1"/>
<path d="M 345.5 431 L 352.5 431 Q 355.5 431 355.5 434 L 355.5 438 Q 355.5 441 352.5 441 L 348.5 441" stroke="#6889E9" fill="transparent" stroke-width="1"/><path d="M 332.5 441 L 317.5 441" stroke="#6889E9" fill="transparent" stroke-width="1"/><path d="M 320.5 438 L 317.5 441 L 320.5 444" stroke="#6889E9" fill="transparent" stroke-width="1"/><path d="M 345.5 451 L 352.5 451 Q 355.5 451 355.5 454 L 355.5 458 Q 355.5 461 352.5 461 L 348.5 461" stroke="#6889E9" fill="transparent" stroke-width="1"/><path d="M 332.5 461 L 227.5 461" stroke="#6889E9" fill="transparent" stroke-width="1"/><path d="M 230.5 458 L 227.5 461 L 230.5 464" stroke="#6889E9" fill="transparent" stroke-width="1"/><path d="M 345.5 471 L 352.5 471 Q 355.5 471 355.5 474 L 355.5 478 Q 355.5 481 352.5 481 L 348.5 481" stroke="#6889E9" fill="transparent" stroke-width="1"/><path d="M 332.5 481 L 228.5 481" stroke="#6889E9" fill="transparent" stroke-width="1"/><path d="M 164.5 481 L 67.5 481" stroke="#6889E9" fill="transparent" stroke-width="1"/><path d="M 70.5 478 L 67.5 481 L 70.5 484" stroke="#6889E9" fill="transparent" stroke-width="1"/><path d="M 226 573 L 226 577 L 245 577 L 245 573 Z" stroke="transparent" fill="#6889E9" stroke-width="1"/>
<path d="M 316 573 L 316 577 L 328.5 577 L 328.5 581 L 334.5 575 L 328.5 569 L 328.5 573 Z" stroke="transparent" fill="#6889E9" stroke-width="1"/>
<path d="M 66 648 L 66 652 L 167 652 L 167 648 Z" stroke="transparent" fill="#6889E9" stroke-width="1"/>
<path d="M 226 648 L 226 652 L 328.5 652 L 328.5 656 L 334.5 650 L 328.5 644 L 328.5 648 Z" stroke="transparent" fill="#6889E9" stroke-width="1"/>
<path d="M 345.5 591 L 352.5 591 Q 355.5 591 355.5 594 L 355.5 598 Q 355.5 601 352.5 601 L 348.5 601" stroke="#6889E9" fill="transparent" stroke-width="1"/><path d="M 332.5 601 L 317.5 601" stroke="#6889E9" fill="transparent" stroke-width="1"/><path d="M 320.5 598 L 317.5 601 L 320.5 604" stroke="#6889E9" fill="transparent" stroke-width="1"/><path d="M 345.5 611 L 352.5 611 Q 355.5 611 355.5 614 L 355.5 618 Q 355.5 621 352.5 621 L 348.5 621" stroke="#6889E9" fill="transparent" stroke-width="1"/><path d="M 332.5 621 L 227.5 621" stroke="#6889E9" fill="transparent" stroke-width="1"/><path d="M 230.5 618 L 227.5 621 L 230.5 624" stroke="#6889E9" fill="transparent" stroke-width="1"/><path d="M 345.5 631 L 352.5 631 Q 355.5 631 355.5 634 L 355.5 638 Q 355.5 641 352.5 641 L 348.5 641" stroke="#6889E9" fill="transparent" stroke-width="1"/><path d="M 332.5 641 L 228.5 641" stroke="#6889E9" fill="transparent" stroke-width="1"/><path d="M 164.5 641 L 67.5 641" stroke="#6889E9" fill="transparent" stroke-width="1"/><path d="M 70.5 638 L 67.5 641 L 70.5 644" stroke="#6889E9" fill="transparent" stroke-width="1"/><rect x="365.5" y="100" width="60" height="380" stroke="black" fill="#f4d7e3" stroke-width="1"/><text x="395" y="280" text-anchor="middle" dominant-baseline="middle">L3 $</text><text x="395" y="300" text-anchor="middle" dominant-baseline="middle">2 MiB</text><rect x="365.5" y="20" width="60" height="60" stroke="black" fill="#d4aa00" stroke-width="1"/><text x="395" y="40" text-anchor="middle" dominant-baseline="middle">DMA</text><text x="395" y="60" text-anchor="middle" dominant-baseline="middle">Engine</text><path d="M 346 348 L 346 352 L 358.5 352 L 358.5 356 L 364.5 350 L 358.5 344 L 358.5 348 Z" stroke="transparent" fill="#6889E9" stroke-width="1"/>
<path d="M 345.5 72 L 363.5 72" stroke="black" fill="transparent" stroke-width="1"/><path d="M 360.5 75 L 363.5 72 L 360.5 69" stroke="black" fill="transparent" stroke-width="1"/><path d="M 345.5 499 L 392.5 499 Q 395.5 499 395.5 496 L 395.5 482" stroke="#6889E9" fill="transparent" stroke-width="1"/><path d="M 398.5 485 L 395.5 482 L 392.5 485" stroke="#6889E9" fill="transparent" stroke-width="1"/><rect x="475.5" y="124" width="54.5" height="36" stroke="black" fill="#d4aa00" stroke-width="1"/><text x="502" y="142" text-anchor="middle" dominant-baseline="middle">TLBs</text><rect x="365.5" y="540" width="240" height="36" stroke="black" fill="#d4aa00" stroke-width="1"/><text x="485" y="558" text-anchor="middle" dominant-baseline="middle">External Peripherals</text><rect x="525.5" y="596" width="80" height="52" stroke="black" fill="#d4aa00" stroke-width="1"/><text x="565" y="612" text-anchor="middle" dominant-baseline="middle">MSI</text><text x="565" y="632" text-anchor="middle" dominant-baseline="middle">Catcher</text><rect x="425.5" y="596" width="80" height="52" stroke="black" fill="#f4d7e3" stroke-width="1"/><text x="465" y="612" text-anchor="middle" dominant-baseline="middle">Scratch</text><text x="465" y="632" text-anchor="middle" dominant-baseline="middle">64 Bytes</text><path d="M 565.5 576 L 565.5 594" stroke="black" fill="transparent" stroke-width="1"/><path d="M 562.5 591 L 565.5 594 L 568.5 591" stroke="black" fill="transparent" stroke-width="1"/><path d="M 465.5 576 L 465.5 594" stroke="black" fill="transparent" stroke-width="1"/><path d="M 462.5 591 L 465.5 594 L 468.5 591" stroke="black" fill="transparent" stroke-width="1"/><path d="M 346 556 L 346 560 L 358.5 560 L 358.5 564 L 364.5 558 L 358.5 552 L 358.5 556 Z" stroke="transparent" fill="black" stroke-width="1"/>
<path d="M 502.75 540 L 502.75 162" stroke="black" fill="transparent" stroke-width="1"/><path d="M 505.75 165 L 502.75 162 L 499.75 165" stroke="black" fill="transparent" stroke-width="1"/><path d="M 605.5 558 L 633.5 558 Q 636.5 558 636.5 555 L 636.5 241" stroke="black" fill="transparent" stroke-width="1"/><path d="M 639.5 244 L 636.5 241 L 633.5 244" stroke="black" fill="transparent" stroke-width="1"/><path d="M 375.5 576 L 375.5 672 Q 375.5 675 372.5 675 L 58.5 675 Q 55.5 675 55.5 672 L 55.5 662" stroke="black" fill="transparent" stroke-width="1"/><path d="M 58.5 665 L 55.5 662 L 52.5 665" stroke="black" fill="transparent" stroke-width="1"/><path d="M 387.5 576 L 387.5 682 Q 387.5 685 384.5 685 L 44.5 685 Q 41.5 685 41.5 682 L 41.5 663" stroke="black" fill="transparent" stroke-width="1"/><path d="M 41.5 517 L 41.5 502" stroke="black" fill="transparent" stroke-width="1"/><path d="M 44.5 505 L 41.5 502 L 38.5 505" stroke="black" fill="transparent" stroke-width="1"/><path d="M 399.5 576 L 399.5 692 Q 399.5 695 396.5 695 L 30.5 695 Q 27.5 695 27.5 692 L 27.5 663" stroke="black" fill="transparent" stroke-width="1"/><path d="M 27.5 517 L 27.5 503" stroke="black" fill="transparent" stroke-width="1"/><path d="M 27.5 357 L 27.5 342" stroke="black" fill="transparent" stroke-width="1"/><path d="M 30.5 345 L 27.5 342 L 24.5 345" stroke="black" fill="transparent" stroke-width="1"/><path d="M 411.5 576 L 411.5 702 Q 411.5 705 408.5 705 L 16.5 705 Q 13.5 705 13.5 702 L 13.5 663" stroke="black" fill="transparent" stroke-width="1"/><path d="M 13.5 517 L 13.5 503" stroke="black" fill="transparent" stroke-width="1"/><path d="M 13.5 357 L 13.5 343" stroke="black" fill="transparent" stroke-width="1"/><path d="M 13.5 197 L 13.5 182" stroke="black" fill="transparent" stroke-width="1"/><path d="M 16.5 185 L 13.5 182 L 10.5 185" stroke="black" fill="transparent" stroke-width="1"/><path d="M 550 113 L 519 113 Q 516 113 516 110 L 516 8.5 Q 516 5.5 513 5.5 L 298.5 5.5 Q 295.5 5.5 295.5 8.5 L 295.5 47 Q 295.5 50 298.5 50 L 330.5 50" stroke="black" fill="transparent" stroke-width="4"/><path d="M 330.5 48 L 330.5 52 L 328.5 52 L 328.5 56 L 334.5 50 L 328.5 44 L 328.5 48 Z" stroke="transparent" fill="black" stroke-width="1"/>
<path d="M 550 171 L 519 171 Q 516 171 516 174 L 516 535" stroke="black" fill="transparent" stroke-width="4"/><path d="M 518 535 L 514 535 L 514 533 L 510 533 L 516 539 L 522 533 L 518 533 Z" stroke="transparent" fill="black" stroke-width="1"/>
<text x="686" y="350" text-anchor="end" dominant-baseline="middle" fill="#A0A0A0">L2SYS</text><text x="686" y="370" text-anchor="end" dominant-baseline="middle" fill="#A0A0A0">Clock</text><text x="702" y="370" text-anchor="start" dominant-baseline="middle" fill="#A0A0A0">AI Clock</text></svg>
