<svg version="1.1" width="790" height="730" xmlns="http://www.w3.org/2000/svg"><rect width="790" height="730" rx="15" stroke="transparent" fill="white"/><rect x="590" y="110" width="134" height="134" stroke="black" fill="#d6fff8" stroke-width="1" rx="5" ry="5"/><path d="M 591.093 120.422 L 588.265 123.25 L 596.75 123.25 L 596.75 114.765 L 593.922 117.593 L 584.428 108.099 L 581.599 110.928 Z" stroke="transparent" fill="#5c009e" stroke-width="1"/>
<path d="M 601.836 118.164 L 604.664 115.336 L 595.17 105.842 L 597.999 103.013 L 589.513 103.013 L 589.513 111.499 L 592.342 108.67 Z" stroke="transparent" fill="#5c009e" fill-opacity="40%" stroke-width="1"/>
<circle cx="570" cy="90" r="20" stroke="transparent" fill="#5c009e"/><text x="570" y="91" text-anchor="middle" dominant-baseline="middle" fill="white">R</text><path d="M 530 88 L 530 92 L 541 92 L 541 96 L 547 90 L 541 84 L 541 88 Z" stroke="transparent" fill="#5c009e" stroke-width="1"/>
<path d="M 593 88 L 593 92 L 604 92 L 604 96 L 610 90 L 604 84 L 604 88 Z" stroke="transparent" fill="#5c009e" fill-opacity="40%" stroke-width="1"/>
<path d="M 572 50 L 568 50 L 568 61 L 564 61 L 570 67 L 576 61 L 572 61 Z" stroke="transparent" fill="#5c009e" stroke-width="1"/>
<path d="M 572 113 L 568 113 L 568 124 L 564 124 L 570 130 L 576 124 L 572 124 Z" stroke="transparent" fill="#5c009e" fill-opacity="40%" stroke-width="1"/>
<path d="M 716.407 240.078 L 719.235 237.25 L 710.75 237.25 L 710.75 245.735 L 713.578 242.907 L 723.072 252.401 L 725.901 249.572 Z" stroke="transparent" fill="#06829e" stroke-width="1"/>
<path d="M 718.664 229.336 L 715.836 232.164 L 725.33 241.658 L 722.501 244.487 L 730.987 244.487 L 730.987 236.001 L 728.158 238.83 Z" stroke="transparent" fill="#06829e" fill-opacity="40%" stroke-width="1"/>
<circle cx="744" cy="264" r="20" stroke="transparent" fill="#06829e"/><text x="744" y="265" text-anchor="middle" dominant-baseline="middle" fill="white">R</text><path d="M 710 262 L 710 258 L 704 264 L 710 270 L 710 266 L 721 266 L 721 262 Z" stroke="transparent" fill="#06829e" fill-opacity="40%" stroke-width="1"/>
<path d="M 773 262 L 773 258 L 767 264 L 773 270 L 773 266 L 784 266 L 784 262 Z" stroke="transparent" fill="#06829e" stroke-width="1"/>
<path d="M 746 230 L 750 230 L 744 224 L 738 230 L 742 230 L 742 241 L 746 241 Z" stroke="transparent" fill="#06829e" fill-opacity="40%" stroke-width="1"/>
<path d="M 746 293 L 750 293 L 744 287 L 738 293 L 742 293 L 742 304 L 746 304 Z" stroke="transparent" fill="#06829e" stroke-width="1"/>
<rect x="590" y="320" width="134" height="134" stroke="black" fill="#d6fff8" stroke-width="1" rx="5" ry="5"/><path d="M 591.093 330.422 L 588.265 333.25 L 596.75 333.25 L 596.75 324.765 L 593.922 327.593 L 584.428 318.099 L 581.599 320.928 Z" stroke="transparent" fill="#5c009e" stroke-width="1"/>
<path d="M 601.836 328.164 L 604.664 325.336 L 595.17 315.842 L 597.999 313.013 L 589.513 313.013 L 589.513 321.499 L 592.342 318.67 Z" stroke="transparent" fill="#5c009e" fill-opacity="40%" stroke-width="1"/>
<circle cx="570" cy="300" r="20" stroke="transparent" fill="#5c009e"/><text x="570" y="301" text-anchor="middle" dominant-baseline="middle" fill="white">R</text><path d="M 530 298 L 530 302 L 541 302 L 541 306 L 547 300 L 541 294 L 541 298 Z" stroke="transparent" fill="#5c009e" stroke-width="1"/>
<path d="M 593 298 L 593 302 L 604 302 L 604 306 L 610 300 L 604 294 L 604 298 Z" stroke="transparent" fill="#5c009e" fill-opacity="40%" stroke-width="1"/>
<path d="M 572 260 L 568 260 L 568 271 L 564 271 L 570 277 L 576 271 L 572 271 Z" stroke="transparent" fill="#5c009e" stroke-width="1"/>
<path d="M 572 323 L 568 323 L 568 334 L 564 334 L 570 340 L 576 334 L 572 334 Z" stroke="transparent" fill="#5c009e" fill-opacity="40%" stroke-width="1"/>
<path d="M 716.407 450.078 L 719.235 447.25 L 710.75 447.25 L 710.75 455.735 L 713.578 452.907 L 723.072 462.401 L 725.901 459.572 Z" stroke="transparent" fill="#06829e" stroke-width="1"/>
<path d="M 718.664 439.336 L 715.836 442.164 L 725.33 451.658 L 722.501 454.487 L 730.987 454.487 L 730.987 446.001 L 728.158 448.83 Z" stroke="transparent" fill="#06829e" fill-opacity="40%" stroke-width="1"/>
<circle cx="744" cy="474" r="20" stroke="transparent" fill="#06829e"/><text x="744" y="475" text-anchor="middle" dominant-baseline="middle" fill="white">R</text><path d="M 710 472 L 710 468 L 704 474 L 710 480 L 710 476 L 721 476 L 721 472 Z" stroke="transparent" fill="#06829e" fill-opacity="40%" stroke-width="1"/>
<path d="M 773 472 L 773 468 L 767 474 L 773 480 L 773 476 L 784 476 L 784 472 Z" stroke="transparent" fill="#06829e" stroke-width="1"/>
<path d="M 746 440 L 750 440 L 744 434 L 738 440 L 742 440 L 742 451 L 746 451 Z" stroke="transparent" fill="#06829e" fill-opacity="40%" stroke-width="1"/>
<path d="M 746 503 L 750 503 L 744 497 L 738 503 L 742 503 L 742 514 L 746 514 Z" stroke="transparent" fill="#06829e" stroke-width="1"/>
<rect x="590" y="530" width="134" height="134" stroke="black" fill="#d6fff8" stroke-width="1" rx="5" ry="5"/><path d="M 591.093 540.422 L 588.265 543.25 L 596.75 543.25 L 596.75 534.765 L 593.922 537.593 L 584.428 528.099 L 581.599 530.928 Z" stroke="transparent" fill="#5c009e" stroke-width="1"/>
<path d="M 601.836 538.164 L 604.664 535.336 L 595.17 525.842 L 597.999 523.013 L 589.513 523.013 L 589.513 531.499 L 592.342 528.67 Z" stroke="transparent" fill="#5c009e" fill-opacity="40%" stroke-width="1"/>
<circle cx="570" cy="510" r="20" stroke="transparent" fill="#5c009e"/><text x="570" y="511" text-anchor="middle" dominant-baseline="middle" fill="white">R</text><path d="M 530 508 L 530 512 L 541 512 L 541 516 L 547 510 L 541 504 L 541 508 Z" stroke="transparent" fill="#5c009e" stroke-width="1"/>
<path d="M 593 508 L 593 512 L 604 512 L 604 516 L 610 510 L 604 504 L 604 508 Z" stroke="transparent" fill="#5c009e" fill-opacity="40%" stroke-width="1"/>
<path d="M 572 470 L 568 470 L 568 481 L 564 481 L 570 487 L 576 481 L 572 481 Z" stroke="transparent" fill="#5c009e" stroke-width="1"/>
<path d="M 572 533 L 568 533 L 568 544 L 564 544 L 570 550 L 576 544 L 572 544 Z" stroke="transparent" fill="#5c009e" fill-opacity="40%" stroke-width="1"/>
<path d="M 716.407 660.078 L 719.235 657.25 L 710.75 657.25 L 710.75 665.735 L 713.578 662.907 L 723.072 672.401 L 725.901 669.572 Z" stroke="transparent" fill="#06829e" stroke-width="1"/>
<path d="M 718.664 649.336 L 715.836 652.164 L 725.33 661.658 L 722.501 664.487 L 730.987 664.487 L 730.987 656.001 L 728.158 658.83 Z" stroke="transparent" fill="#06829e" fill-opacity="40%" stroke-width="1"/>
<circle cx="744" cy="684" r="20" stroke="transparent" fill="#06829e"/><text x="744" y="685" text-anchor="middle" dominant-baseline="middle" fill="white">R</text><path d="M 710 682 L 710 678 L 704 684 L 710 690 L 710 686 L 721 686 L 721 682 Z" stroke="transparent" fill="#06829e" fill-opacity="40%" stroke-width="1"/>
<path d="M 773 682 L 773 678 L 767 684 L 773 690 L 773 686 L 784 686 L 784 682 Z" stroke="transparent" fill="#06829e" stroke-width="1"/>
<path d="M 746 650 L 750 650 L 744 644 L 738 650 L 742 650 L 742 661 L 746 661 Z" stroke="transparent" fill="#06829e" fill-opacity="40%" stroke-width="1"/>
<path d="M 746 713 L 750 713 L 744 707 L 738 713 L 742 713 L 742 724 L 746 724 Z" stroke="transparent" fill="#06829e" stroke-width="1"/>
<path d="M 694 0 L 694 43 Q 694 46 691 46 L 529 46 Q 526 46 526 49 L 526 131 Q 526 134 529 134 L 691 134 Q 694 134 694 137 L 694 253 Q 694 256 691 256 L 529 256 Q 526 256 526 259 L 526 341 Q 526 344 529 344 L 691 344 Q 694 344 694 347 L 694 463 Q 694 466 691 466 L 529 466 Q 526 466 526 469 L 526 551 Q 526 554 529 554 L 691 554 Q 694 554 694 557 L 694 800" stroke="#A0A0A0" stroke-dasharray="4 2" fill="transparent" stroke-width="3"/><rect x="600" y="120" width="100" height="40" stroke="transparent" fill="#5c009e" rx="5" ry="5"/><text x="651" y="142" text-anchor="middle" dominant-baseline="middle" fill="white">NoC #0 NIU</text><rect x="614" y="194" width="100" height="40" stroke="transparent" fill="#06829e" rx="5" ry="5"/><text x="665" y="216" text-anchor="middle" dominant-baseline="middle" fill="white">NoC #1 NIU</text><rect x="600" y="330" width="100" height="40" stroke="transparent" fill="#5c009e" rx="5" ry="5"/><text x="651" y="352" text-anchor="middle" dominant-baseline="middle" fill="white">NoC #0 NIU</text><rect x="614" y="404" width="100" height="40" stroke="transparent" fill="#06829e" rx="5" ry="5"/><text x="665" y="426" text-anchor="middle" dominant-baseline="middle" fill="white">NoC #1 NIU</text><rect x="600" y="540" width="100" height="40" stroke="transparent" fill="#5c009e" rx="5" ry="5"/><text x="651" y="562" text-anchor="middle" dominant-baseline="middle" fill="white">NoC #0 NIU</text><rect x="614" y="614" width="100" height="40" stroke="transparent" fill="#06829e" rx="5" ry="5"/><text x="665" y="636" text-anchor="middle" dominant-baseline="middle" fill="white">NoC #1 NIU</text><path d="M 490 100 L 500 95 L 500 649 L 490 644 Z" stroke="black" fill="#e9ddaf" stroke-width="1"/><path d="M 507 138 L 507 134 L 501 140 L 507 146 L 507 142 L 598 142 L 598 138 Z" stroke="transparent" fill="black" stroke-width="1"/>
<path d="M 507 212 L 507 208 L 501 214 L 507 220 L 507 216 L 612 216 L 612 212 Z" stroke="transparent" fill="black" stroke-width="1"/>
<path d="M 507 348 L 507 344 L 501 350 L 507 356 L 507 352 L 598 352 L 598 348 Z" stroke="transparent" fill="black" stroke-width="1"/>
<path d="M 507 422 L 507 418 L 501 424 L 507 430 L 507 426 L 612 426 L 612 422 Z" stroke="transparent" fill="black" stroke-width="1"/>
<path d="M 507 558 L 507 554 L 501 560 L 507 566 L 507 562 L 598 562 L 598 558 Z" stroke="transparent" fill="black" stroke-width="1"/>
<path d="M 507 632 L 507 628 L 501 634 L 507 640 L 507 636 L 612 636 L 612 632 Z" stroke="transparent" fill="black" stroke-width="1"/>
<path d="M 517 25 L 517 107 Q 517 110 514 110 L 505 110" stroke="black" fill="transparent" stroke-width="4"/><path d="M 505 112 L 505 108 L 507 108 L 507 104 L 501 110 L 507 116 L 507 112 Z" stroke="transparent" fill="black" stroke-width="1"/>
<text x="557" y="20" text-anchor="middle" dominant-baseline="auto">From ARC (D0 tiles only)</text><rect x="65" y="110" width="215" height="215" stroke="black" fill="#f4d7e3" stroke-width="1"/><text x="172" y="207" text-anchor="middle" dominant-baseline="middle">GDDR6</text><text x="172" y="227" text-anchor="middle" dominant-baseline="middle">1 GiB</text><path d="M 287 215.5 L 287 211.5 L 281 217.5 L 287 223.5 L 287 219.5 L 313 219.5 L 313 223.5 L 319 217.5 L 313 211.5 L 313 215.5 Z" stroke="transparent" fill="#6889E9" stroke-width="1"/>
<rect x="65" y="345" width="215" height="215" stroke="black" fill="#f4d7e3" stroke-width="1"/><text x="172" y="442" text-anchor="middle" dominant-baseline="middle">GDDR6</text><text x="172" y="462" text-anchor="middle" dominant-baseline="middle">1 GiB</text><path d="M 287 450.5 L 287 446.5 L 281 452.5 L 287 458.5 L 287 454.5 L 313 454.5 L 313 458.5 L 319 452.5 L 313 446.5 L 313 450.5 Z" stroke="transparent" fill="#6889E9" stroke-width="1"/>
<path d="M 477 215.5 L 477 211.5 L 471 217.5 L 477 223.5 L 477 219.5 L 489.5 219.5 L 489.5 215.5 Z" stroke="transparent" fill="black" stroke-width="1"/>
<path d="M 477 450.5 L 477 446.5 L 471 452.5 L 477 458.5 L 477 454.5 L 489.5 454.5 L 489.5 450.5 Z" stroke="transparent" fill="black" stroke-width="1"/>
<path d="M 345 60 L 345 607 Q 345 610 342 610 L 18 610 Q 15 610 15 607 L 15 63 Q 15 60 18 60 L 345 60" stroke="#A0A0A0" stroke-dasharray="4 2" fill="transparent" stroke-width="3"/><text x="337" y="85" text-anchor="end" dominant-baseline="middle" fill="#A0A0A0">GDDR Clock</text><text x="353" y="85" text-anchor="start" dominant-baseline="middle" fill="#A0A0A0">AXI Clock</text><text x="686" y="37" text-anchor="end" dominant-baseline="middle" fill="#A0A0A0">AXI Clock</text><text x="702" y="37" text-anchor="start" dominant-baseline="middle" fill="#A0A0A0">AI Clock</text><rect x="320" y="110" width="150" height="215" stroke="black" fill="#d4aa00" stroke-width="1"/><text x="395" y="167" text-anchor="middle" dominant-baseline="middle">GDDR6</text><text x="395" y="187" text-anchor="middle" dominant-baseline="middle">Channel 0</text><text x="395" y="207" text-anchor="middle" dominant-baseline="middle"></text><text x="395" y="227" text-anchor="middle" dominant-baseline="middle">Controller</text><text x="395" y="247" text-anchor="middle" dominant-baseline="middle">and</text><text x="395" y="267" text-anchor="middle" dominant-baseline="middle">PHY</text><rect x="320" y="345" width="150" height="215" stroke="black" fill="#d4aa00" stroke-width="1"/><text x="395" y="402" text-anchor="middle" dominant-baseline="middle">GDDR6</text><text x="395" y="422" text-anchor="middle" dominant-baseline="middle">Channel 1</text><text x="395" y="442" text-anchor="middle" dominant-baseline="middle"></text><text x="395" y="462" text-anchor="middle" dominant-baseline="middle">Controller</text><text x="395" y="482" text-anchor="middle" dominant-baseline="middle">and</text><text x="395" y="502" text-anchor="middle" dominant-baseline="middle">PHY</text><rect x="415" y="579" width="55" height="55" stroke="black" fill="#d4aa00" stroke-width="1"/><text x="442" y="596" text-anchor="middle" dominant-baseline="middle">APB /</text><text x="442" y="616" text-anchor="middle" dominant-baseline="middle">/ AXI</text><path d="M 477 604.5 L 477 600.5 L 471 606.5 L 477 612.5 L 477 608.5 L 489.5 608.5 L 489.5 604.5 Z" stroke="transparent" fill="black" stroke-width="1"/>
<path d="M 385 569 L 395 574 L 395 639 L 385 644 Z" stroke="black" fill="#e9ddaf" stroke-width="1"/><path d="M 414 606.5 L 397 606.5" stroke="black" fill="transparent" stroke-width="1"/><path d="M 400 603.5 L 397 606.5 L 400 609.5" stroke="black" fill="transparent" stroke-width="1"/><path d="M 384 584 L 380 584 Q 377 584 377 581 L 377 562" stroke="black" fill="transparent" stroke-width="1"/><path d="M 380 565 L 377 562 L 374 565" stroke="black" fill="transparent" stroke-width="1"/><path d="M 384 606.5 L 365 606.5 Q 362 606.5 362 603.5 L 362 564" stroke="black" fill="transparent" stroke-width="1"/><path d="M 362 341 L 362 327" stroke="black" fill="transparent" stroke-width="1"/><path d="M 365 330 L 362 327 L 359 330" stroke="black" fill="transparent" stroke-width="1"/><path d="M 614 684 L 700 684 L 695 694 L 619 694 Z" stroke="black" fill="#e9ddaf" stroke-width="1"/><path d="M 384 629 L 380 629 Q 377 629 377 632 L 377 706 Q 377 709 380 709 L 654 709 Q 657 709 657 706 L 657 696" stroke="black" fill="transparent" stroke-width="1"/><path d="M 660 699 L 657 696 L 654 699" stroke="black" fill="transparent" stroke-width="1"/><path d="M 685 683 L 685 656" stroke="black" fill="transparent" stroke-width="1"/><path d="M 688 659 L 685 656 L 682 659" stroke="black" fill="transparent" stroke-width="1"/><path d="M 674 683 L 674 659" stroke="black" fill="transparent" stroke-width="1"/><path d="M 674 609 L 674 582" stroke="black" fill="transparent" stroke-width="1"/><path d="M 677 585 L 674 582 L 671 585" stroke="black" fill="transparent" stroke-width="1"/><path d="M 663 683 L 663 669" stroke="black" fill="transparent" stroke-width="1"/><path d="M 663 465 L 663 446" stroke="black" fill="transparent" stroke-width="1"/><path d="M 666 449 L 663 446 L 660 449" stroke="black" fill="transparent" stroke-width="1"/><path d="M 651 683 L 651 669" stroke="black" fill="transparent" stroke-width="1"/><path d="M 651 465 L 651 449" stroke="black" fill="transparent" stroke-width="1"/><path d="M 651 399 L 651 372" stroke="black" fill="transparent" stroke-width="1"/><path d="M 654 375 L 651 372 L 648 375" stroke="black" fill="transparent" stroke-width="1"/><path d="M 640 683 L 640 669" stroke="black" fill="transparent" stroke-width="1"/><path d="M 640 255 L 640 236" stroke="black" fill="transparent" stroke-width="1"/><path d="M 643 239 L 640 236 L 637 239" stroke="black" fill="transparent" stroke-width="1"/><path d="M 629 683 L 629 669" stroke="black" fill="transparent" stroke-width="1"/><path d="M 629 255 L 629 239" stroke="black" fill="transparent" stroke-width="1"/><path d="M 629 189 L 629 162" stroke="black" fill="transparent" stroke-width="1"/><path d="M 632 165 L 629 162 L 626 165" stroke="black" fill="transparent" stroke-width="1"/></svg>
