<svg version="1.1" width="790" height="450" xmlns="http://www.w3.org/2000/svg"><rect width="790" height="450" rx="15" stroke="transparent" fill="white"/><rect x="590" y="110" width="134" height="134" stroke="black" fill="#f2fad3" stroke-width="1" rx="5" ry="5"/><path d="M 591.093 120.422 L 588.265 123.25 L 596.75 123.25 L 596.75 114.765 L 593.922 117.593 L 584.428 108.099 L 581.599 110.928 Z" stroke="transparent" fill="#5c009e" fill-opacity="40%" stroke-width="1"/>
<path d="M 601.836 118.164 L 604.664 115.336 L 595.17 105.842 L 597.999 103.013 L 589.513 103.013 L 589.513 111.499 L 592.342 108.67 Z" stroke="transparent" fill="#5c009e" stroke-width="1"/>
<circle cx="570" cy="90" r="20" stroke="transparent" fill="#5c009e"/><text x="570" y="91" text-anchor="middle" dominant-baseline="middle" fill="white">R</text><path d="M 530 88 L 530 92 L 541 92 L 541 96 L 547 90 L 541 84 L 541 88 Z" stroke="transparent" fill="#5c009e" fill-opacity="40%" stroke-width="1"/>
<path d="M 593 88 L 593 92 L 604 92 L 604 96 L 610 90 L 604 84 L 604 88 Z" stroke="transparent" fill="#5c009e" stroke-width="1"/>
<path d="M 572 50 L 568 50 L 568 61 L 564 61 L 570 67 L 576 61 L 572 61 Z" stroke="transparent" fill="#5c009e" fill-opacity="40%" stroke-width="1"/>
<path d="M 572 113 L 568 113 L 568 124 L 564 124 L 570 130 L 576 124 L 572 124 Z" stroke="transparent" fill="#5c009e" stroke-width="1"/>
<path d="M 716.407 240.078 L 719.235 237.25 L 710.75 237.25 L 710.75 245.735 L 713.578 242.907 L 723.072 252.401 L 725.901 249.572 Z" stroke="transparent" fill="#06829e" fill-opacity="40%" stroke-width="1"/>
<path d="M 718.664 229.336 L 715.836 232.164 L 725.33 241.658 L 722.501 244.487 L 730.987 244.487 L 730.987 236.001 L 728.158 238.83 Z" stroke="transparent" fill="#06829e" stroke-width="1"/>
<circle cx="744" cy="264" r="20" stroke="transparent" fill="#06829e"/><text x="744" y="265" text-anchor="middle" dominant-baseline="middle" fill="white">R</text><path d="M 710 262 L 710 258 L 704 264 L 710 270 L 710 266 L 721 266 L 721 262 Z" stroke="transparent" fill="#06829e" stroke-width="1"/>
<path d="M 773 262 L 773 258 L 767 264 L 773 270 L 773 266 L 784 266 L 784 262 Z" stroke="transparent" fill="#06829e" fill-opacity="40%" stroke-width="1"/>
<path d="M 746 230 L 750 230 L 744 224 L 738 230 L 742 230 L 742 241 L 746 241 Z" stroke="transparent" fill="#06829e" stroke-width="1"/>
<path d="M 746 293 L 750 293 L 744 287 L 738 293 L 742 293 L 742 304 L 746 304 Z" stroke="transparent" fill="#06829e" fill-opacity="40%" stroke-width="1"/>
<path d="M 694 0 L 694 43 Q 694 46 691 46 L 529 46 Q 526 46 526 49 L 526 105 Q 526 108 529 108 L 551 108 Q 554 108 554 111 L 554 131 Q 554 134 557 134 L 691 134 Q 694 134 694 137 L 694 800" stroke="#A0A0A0" stroke-dasharray="4 2" fill="transparent" stroke-width="3"/><rect x="600" y="120" width="100" height="40" stroke="transparent" fill="#5c009e" rx="5" ry="5"/><text x="651" y="142" text-anchor="middle" dominant-baseline="middle" fill="white">NoC #0 NIU</text><rect x="614" y="194" width="100" height="40" stroke="transparent" fill="#06829e" rx="5" ry="5"/><text x="665" y="216" text-anchor="middle" dominant-baseline="middle" fill="white">NoC #1 NIU</text><rect x="450" y="112.5" width="100" height="55" stroke="black" fill="#d4aa00" stroke-width="1"/><text x="500" y="130" text-anchor="middle" dominant-baseline="middle">Configurable</text><text x="500" y="150" text-anchor="middle" dominant-baseline="middle">TLBs</text><path d="M 550.5 138 L 550.5 142 L 593 142 L 593 146 L 599 140 L 593 134 L 593 138 Z" stroke="transparent" fill="black" stroke-width="1"/>
<rect x="450" y="186.5" width="100" height="55" stroke="black" fill="#d4aa00" stroke-width="1"/><text x="500" y="204" text-anchor="middle" dominant-baseline="middle">Configurable</text><text x="500" y="224" text-anchor="middle" dominant-baseline="middle">TLBs</text><path d="M 550.5 212 L 550.5 216 L 607 216 L 607 220 L 613 214 L 607 208 L 607 212 Z" stroke="transparent" fill="black" stroke-width="1"/>
<path d="M 420 130 L 430 125 L 430 229 L 420 224 Z" stroke="black" fill="#e9ddaf" stroke-width="1"/><path d="M 505 264 L 659 264 L 654 274 L 510 274 Z" stroke="black" fill="#e9ddaf" stroke-width="1"/><rect x="280" y="120" width="120" height="130" stroke="black" fill="#d4aa00" stroke-width="1"/><text x="340" y="175" text-anchor="middle" dominant-baseline="middle">ARC</text><text x="340" y="195" text-anchor="middle" dominant-baseline="middle">XBAR</text><path d="M 430.5 138 L 430.5 142 L 443 142 L 443 146 L 449 140 L 443 134 L 443 138 Z" stroke="transparent" fill="black" stroke-width="1"/>
<path d="M 430.5 212 L 430.5 216 L 443 216 L 443 220 L 449 214 L 443 208 L 443 212 Z" stroke="transparent" fill="black" stroke-width="1"/>
<path d="M 644 263 L 644 236" stroke="black" fill="transparent" stroke-width="1"/><path d="M 647 239 L 644 236 L 641 239" stroke="black" fill="transparent" stroke-width="1"/><path d="M 629 263 L 629 239" stroke="black" fill="transparent" stroke-width="1"/><path d="M 629 189 L 629 162" stroke="black" fill="transparent" stroke-width="1"/><path d="M 632 165 L 629 162 L 626 165" stroke="black" fill="transparent" stroke-width="1"/><path d="M 520 263 L 520 246.5" stroke="black" fill="transparent" stroke-width="1"/><path d="M 520 181.5 L 520 169.5" stroke="black" fill="transparent" stroke-width="1"/><path d="M 523 172.5 L 520 169.5 L 517 172.5" stroke="black" fill="transparent" stroke-width="1"/><path d="M 535 263 L 535 243.5" stroke="black" fill="transparent" stroke-width="1"/><path d="M 538 246.5 L 535 243.5 L 532 246.5" stroke="black" fill="transparent" stroke-width="1"/><rect x="230" y="45" width="100" height="55" stroke="black" fill="#d4aa00" stroke-width="1"/><text x="280" y="62" text-anchor="middle" dominant-baseline="middle">Configurable</text><text x="280" y="82" text-anchor="middle" dominant-baseline="middle">TLBs</text><rect x="350" y="45" width="100" height="55" stroke="black" fill="#d4aa00" stroke-width="1"/><text x="400" y="62" text-anchor="middle" dominant-baseline="middle">Fixed</text><text x="400" y="82" text-anchor="middle" dominant-baseline="middle">TLBs</text><path d="M 373 113 L 369 113 L 375 119 L 381 113 L 377 113 L 377 100.5 L 373 100.5 Z" stroke="transparent" fill="black" stroke-width="1"/>
<text x="330" y="20" text-anchor="end" dominant-baseline="auto">To PCI Express</text><text x="350" y="20" text-anchor="start" dominant-baseline="auto">From PCI Express</text><path d="M 303 120.5 L 307 120.5 L 307 107 L 311 107 L 305 101 L 299 107 L 303 107 Z" stroke="transparent" fill="black" stroke-width="1"/>
<rect x="345" y="270" width="55" height="55" stroke="black" fill="#d4aa00" stroke-width="1"/><text x="372" y="287" text-anchor="middle" dominant-baseline="middle">AXI /</text><text x="372" y="307" text-anchor="middle" dominant-baseline="middle">/ APB</text><path d="M 374.5 250.5 L 370.5 250.5 L 370.5 263 L 366.5 263 L 372.5 269 L 378.5 263 L 374.5 263 Z" stroke="transparent" fill="black" stroke-width="1"/>
<path d="M 340 345 L 405 345 L 410 355 L 335 355 Z" stroke="black" fill="#e9ddaf" stroke-width="1"/><rect x="225" y="270" width="100" height="55" stroke="black" fill="#d4aa00" stroke-width="1"/><text x="275" y="287" text-anchor="middle" dominant-baseline="middle">Reset</text><text x="275" y="307" text-anchor="middle" dominant-baseline="middle">Unit</text><path d="M 372.5 326 L 372.5 343" stroke="black" fill="transparent" stroke-width="1"/><path d="M 369.5 340 L 372.5 343 L 375.5 340" stroke="black" fill="transparent" stroke-width="1"/><path d="M 350 356 L 350 362 Q 350 365 347 365 L 303 365 Q 300 365 300 362 L 300 327" stroke="black" fill="transparent" stroke-width="1"/><path d="M 303 330 L 300 327 L 297 330" stroke="black" fill="transparent" stroke-width="1"/><path d="M 372.5 356 L 372.5 385" stroke="black" fill="transparent" stroke-width="1"/><path d="M 369.5 382 L 372.5 385 L 375.5 382" stroke="black" fill="transparent" stroke-width="1"/><text x="372" y="390" text-anchor="middle" dominant-baseline="hanging">SPI, I2C, eFuses, ...</text><rect x="200" y="345" width="60" height="55" stroke="black" fill="#f4d7e3" stroke-width="1"/><text x="230" y="362" text-anchor="middle" dominant-baseline="middle">Scratch</text><text x="230" y="382" text-anchor="middle" dominant-baseline="middle">8x 32b</text><path d="M 242.5 326 L 242.5 343" stroke="black" fill="transparent" stroke-width="1"/><path d="M 239.5 340 L 242.5 343 L 245.5 340" stroke="black" fill="transparent" stroke-width="1"/><rect x="160" y="120" width="100" height="55" stroke="black" fill="#f4d7e3" stroke-width="1"/><text x="210" y="137" text-anchor="middle" dominant-baseline="middle">ARC CSM</text><text x="210" y="157" text-anchor="middle" dominant-baseline="middle">512 KiB</text><path d="M 267 145.5 L 267 141.5 L 261 147.5 L 267 153.5 L 267 149.5 L 279.5 149.5 L 279.5 145.5 Z" stroke="transparent" fill="black" stroke-width="1"/>
<rect x="160" y="195" width="100" height="55" stroke="black" fill="#d4aa00" stroke-width="1"/><text x="210" y="212" text-anchor="middle" dominant-baseline="middle">ARC CPU</text><text x="210" y="232" text-anchor="middle" dominant-baseline="middle">(4 cores)</text><path d="M 260.5 220.5 L 260.5 224.5 L 273 224.5 L 273 228.5 L 279 222.5 L 273 216.5 L 273 220.5 Z" stroke="transparent" fill="black" stroke-width="1"/>
<path d="M 208 194.5 L 212 194.5 L 212 182 L 216 182 L 210 176 L 204 182 L 208 182 Z" stroke="transparent" fill="#6889E9" stroke-width="1"/>
<path d="M 242.5 269 L 242.5 252" stroke="black" fill="transparent" stroke-width="1"/><path d="M 245.5 255 L 242.5 252 L 239.5 255" stroke="black" fill="transparent" stroke-width="1"/><path d="M 224 288.333 L 153 288.333 Q 150 288.333 150 285.333 L 150 75.5 Q 150 72.5 153 72.5 L 228 72.5" stroke="black" fill="transparent" stroke-width="1"/><path d="M 225 75.5 L 228 72.5 L 225 69.5" stroke="black" fill="transparent" stroke-width="1"/><rect x="45" y="270" width="80" height="55" stroke="black" fill="#d4aa00" stroke-width="1"/><text x="85" y="287" text-anchor="middle" dominant-baseline="middle">Cycle</text><text x="85" y="307" text-anchor="middle" dominant-baseline="middle">Counter</text><path d="M 457 34 L 457 104 Q 457 107 454 107 L 413 107 Q 410 107 410 110 L 410 332 Q 410 335 413 335 L 449 335 Q 452 335 452 338 L 452 432 Q 452 435 449 435 L 8.5 435 Q 5.5 435 5.5 432 L 5.5 37 Q 5.5 34 8.5 34 L 457 34" stroke="#A0A0A0" stroke-dasharray="4 2" fill="transparent" stroke-width="3"/><path d="M 140 34 L 140 435" stroke="#A0A0A0" stroke-dasharray="4 2" fill="transparent" stroke-width="3"/><text x="132" y="425" text-anchor="end" dominant-baseline="middle" fill="#A0A0A0">REF Clock</text><text x="148" y="425" text-anchor="start" dominant-baseline="middle" fill="#A0A0A0">ARC Clock</text><text x="444" y="425" text-anchor="end" dominant-baseline="middle" fill="#A0A0A0">ARC Clock</text><text x="460" y="425" text-anchor="start" dominant-baseline="middle" fill="#A0A0A0">AXI Clock</text><text x="686" y="425" text-anchor="end" dominant-baseline="middle" fill="#A0A0A0">AXI Clock</text><text x="702" y="425" text-anchor="start" dominant-baseline="middle" fill="#A0A0A0">AI Clock</text><text x="686" y="37" text-anchor="end" dominant-baseline="middle" fill="#A0A0A0">AXI Clock</text><text x="702" y="37" text-anchor="start" dominant-baseline="middle" fill="#A0A0A0">AI Clock</text><path d="M 400.5 175 L 400.5 179 L 413 179 L 413 183 L 419 177 L 413 171 L 413 175 Z" stroke="transparent" fill="black" stroke-width="1"/>
<path d="M 278 44.5 L 282 44.5 L 282 31 L 286 31 L 280 25 L 274 31 L 278 31 Z" stroke="transparent" fill="black" stroke-width="1"/>
<path d="M 398 38 L 394 38 L 400 44 L 406 38 L 402 38 L 402 25 L 398 25 Z" stroke="transparent" fill="black" stroke-width="1"/>
<path d="M 395 356 L 395 362 Q 395 365 398 365 L 579 365 Q 582 365 582 362 L 582 276" stroke="black" fill="transparent" stroke-width="1"/><path d="M 585 279 L 582 276 L 579 279" stroke="black" fill="transparent" stroke-width="1"/><path d="M 224 306.667 L 127 306.667" stroke="black" fill="transparent" stroke-width="1"/><path d="M 130 303.667 L 127 306.667 L 130 309.667" stroke="black" fill="transparent" stroke-width="1"/></svg>
