<svg version="1.1" width="655" height="960" xmlns="http://www.w3.org/2000/svg"><rect width="655" height="960" rx="15" stroke="transparent" fill="white"/><path d="M 310 18.5 L 334 18.5" stroke="black" fill="transparent" stroke-width="1"/><text x="338" y="19" text-anchor="start" dominant-baseline="middle">ECC Scrubber (atomic)</text><path d="M 310 42.5 L 334 42.5" stroke="black" fill="transparent" stroke-width="1"/><text x="338" y="43" text-anchor="start" dominant-baseline="middle">Packer 1 (write or accumulate)</text><path d="M 310 66.5 L 334 66.5" stroke="black" fill="transparent" stroke-width="1"/><text x="338" y="67" text-anchor="start" dominant-baseline="middle">Unpacker 1 (read)</text><path d="M 300 8.5 L 310 3.5 L 310 81.5 L 300 76.5 Z" stroke="black" fill="#e9ddaf" stroke-width="1"/><path d="M 290 42.5 L 300 42.5" stroke="black" fill="transparent" stroke-width="1"/><rect x="210" y="27.5" width="80" height="30" stroke="black" fill="#d4aa00" stroke-width="1"/><text x="250" y="42" text-anchor="middle" dominant-baseline="middle">Port #1</text><path d="M 290 93.5 L 314 93.5" stroke="black" fill="transparent" stroke-width="1"/><text x="318" y="94" text-anchor="start" dominant-baseline="middle">Unpacker 0 (read)</text><rect x="210" y="78.5" width="80" height="30" stroke="black" fill="#d4aa00" stroke-width="1"/><text x="250" y="93" text-anchor="middle" dominant-baseline="middle">Port #0</text><path d="M 310 117.5 L 334 117.5" stroke="black" fill="transparent" stroke-width="1"/><text x="338" y="118" text-anchor="start" dominant-baseline="middle">Unpacker 0 (read)</text><path d="M 310 141.5 L 334 141.5" stroke="black" fill="transparent" stroke-width="1"/><text x="338" y="142" text-anchor="start" dominant-baseline="middle">Unpacker 1 (read)</text><path d="M 300 107.5 L 310 102.5 L 310 156.5 L 300 151.5 Z" stroke="black" fill="#e9ddaf" stroke-width="1"/><path d="M 290 129.5 L 300 129.5" stroke="black" fill="transparent" stroke-width="1"/><rect x="210" y="114.5" width="80" height="30" stroke="black" fill="#d4aa00" stroke-width="1"/><text x="250" y="129" text-anchor="middle" dominant-baseline="middle">Port #9</text><path d="M 310 176.5 L 334 176.5" stroke="black" fill="transparent" stroke-width="1"/><text x="338" y="177" text-anchor="start" dominant-baseline="middle">Unpacker 0 (read)</text><path d="M 310 200.5 L 334 200.5" stroke="black" fill="transparent" stroke-width="1"/><text x="338" y="201" text-anchor="start" dominant-baseline="middle">Unpacker 1 (read)</text><path d="M 300 166.5 L 310 161.5 L 310 215.5 L 300 210.5 Z" stroke="black" fill="#e9ddaf" stroke-width="1"/><path d="M 290 188.5 L 300 188.5" stroke="black" fill="transparent" stroke-width="1"/><rect x="210" y="173.5" width="80" height="30" stroke="black" fill="#d4aa00" stroke-width="1"/><text x="250" y="188" text-anchor="middle" dominant-baseline="middle">Port #10</text><path d="M 310 235.5 L 334 235.5" stroke="black" fill="transparent" stroke-width="1"/><text x="338" y="236" text-anchor="start" dominant-baseline="middle">Unpacker 0 (read)</text><path d="M 310 259.5 L 334 259.5" stroke="black" fill="transparent" stroke-width="1"/><text x="338" y="260" text-anchor="start" dominant-baseline="middle">Unpacker 1 (read)</text><path d="M 300 225.5 L 310 220.5 L 310 274.5 L 300 269.5 Z" stroke="black" fill="#e9ddaf" stroke-width="1"/><path d="M 290 247.5 L 300 247.5" stroke="black" fill="transparent" stroke-width="1"/><rect x="210" y="232.5" width="80" height="30" stroke="black" fill="#d4aa00" stroke-width="1"/><text x="250" y="247" text-anchor="middle" dominant-baseline="middle">Port #11</text><path d="M 350 286.5 L 374 286.5" stroke="black" fill="transparent" stroke-width="1"/><text x="378" y="287" text-anchor="start" dominant-baseline="middle">Unpacker 0 (read, for BFP exponents)</text><path d="M 350 310.5 L 374 310.5" stroke="black" fill="transparent" stroke-width="1"/><text x="378" y="311" text-anchor="start" dominant-baseline="middle">Unpacker 1 (read, for BFP exponents)</text><path d="M 340 276.5 L 350 271.5 L 350 325.5 L 340 320.5 Z" stroke="black" fill="#e9ddaf" stroke-width="1"/><path d="M 330 298.5 L 340 298.5" stroke="black" fill="transparent" stroke-width="1"/><path d="M 330 337.5 L 354 337.5" stroke="black" fill="transparent" stroke-width="1"/><text x="358" y="338" text-anchor="start" dominant-baseline="middle">Packer 0 (read, for L1-to-L1 pack operations)</text><path d="M 330 361.5 L 354 361.5" stroke="black" fill="transparent" stroke-width="1"/><text x="358" y="362" text-anchor="start" dominant-baseline="middle">Packer 2 (write or accumulate)</text><path d="M 330 385.5 L 354 385.5" stroke="black" fill="transparent" stroke-width="1"/><text x="358" y="386" text-anchor="start" dominant-baseline="middle">ThCon (read or write or atomic)</text><path d="M 330 409.5 L 354 409.5" stroke="black" fill="transparent" stroke-width="1"/><text x="358" y="410" text-anchor="start" dominant-baseline="middle">Mover (read)</text><path d="M 320 288.5 L 330 283.5 L 330 424.5 L 320 419.5 Z" stroke="black" fill="#e9ddaf" stroke-width="1"/><path d="M 310 354 L 320 354" stroke="black" fill="transparent" stroke-width="1"/><path d="M 310 436.5 L 334 436.5" stroke="black" fill="transparent" stroke-width="1"/><text x="338" y="437" text-anchor="start" dominant-baseline="middle">RISCV B (read or write)</text><path d="M 310 460.5 L 334 460.5" stroke="black" fill="transparent" stroke-width="1"/><text x="338" y="461" text-anchor="start" dominant-baseline="middle">RISCV NC (read or write)</text><path d="M 310 484.5 L 334 484.5" stroke="black" fill="transparent" stroke-width="1"/><text x="338" y="485" text-anchor="start" dominant-baseline="middle">RISCV T0 (read or write)</text><path d="M 300 344 L 310 339 L 310 499.5 L 300 494.5 Z" stroke="black" fill="#e9ddaf" stroke-width="1"/><path d="M 290 419.25 L 300 419.25" stroke="black" fill="transparent" stroke-width="1"/><rect x="210" y="404.25" width="80" height="30" stroke="black" fill="#d4aa00" stroke-width="1"/><text x="250" y="419" text-anchor="middle" dominant-baseline="middle">Port #2</text><path d="M 290 511.5 L 314 511.5" stroke="black" fill="transparent" stroke-width="1"/><text x="318" y="512" text-anchor="start" dominant-baseline="middle">Packer 0 (write or accumulate)</text><rect x="210" y="496.5" width="80" height="30" stroke="black" fill="#d4aa00" stroke-width="1"/><text x="250" y="511" text-anchor="middle" dominant-baseline="middle">Port #8</text><path d="M 310 535.5 L 334 535.5" stroke="black" fill="transparent" stroke-width="1"/><text x="338" y="536" text-anchor="start" dominant-baseline="middle">RISCV T1 (read or write)</text><path d="M 310 559.5 L 334 559.5" stroke="black" fill="transparent" stroke-width="1"/><text x="338" y="560" text-anchor="start" dominant-baseline="middle">RISCV T2 (read or write)</text><path d="M 330 583.5 L 354 583.5" stroke="black" fill="transparent" stroke-width="1"/><text x="358" y="584" text-anchor="start" dominant-baseline="middle">Mover (write)</text><path d="M 330 607.5 L 354 607.5" stroke="black" fill="transparent" stroke-width="1"/><text x="358" y="608" text-anchor="start" dominant-baseline="middle">TDMA-RISC (write)</text><path d="M 330 631.5 L 354 631.5" stroke="black" fill="transparent" stroke-width="1"/><text x="358" y="632" text-anchor="start" dominant-baseline="middle">Packer 3 (write or accumulate)</text><path d="M 320 573.5 L 330 568.5 L 330 646.5 L 320 641.5 Z" stroke="black" fill="#e9ddaf" stroke-width="1"/><path d="M 310 607.5 L 320 607.5" stroke="black" fill="transparent" stroke-width="1"/><path d="M 300 525.5 L 310 520.5 L 310 622.5 L 300 617.5 Z" stroke="black" fill="#e9ddaf" stroke-width="1"/><path d="M 290 571.5 L 300 571.5" stroke="black" fill="transparent" stroke-width="1"/><rect x="210" y="556.5" width="80" height="30" stroke="black" fill="#d4aa00" stroke-width="1"/><text x="250" y="571" text-anchor="middle" dominant-baseline="middle">Port #3</text><path d="M 290 658.5 L 314 658.5" stroke="black" fill="transparent" stroke-width="1"/><text x="318" y="659" text-anchor="start" dominant-baseline="middle">NoC 0 (write or atomic)</text><rect x="210" y="643.5" width="80" height="30" stroke="black" fill="#d4aa00" stroke-width="1"/><text x="250" y="658" text-anchor="middle" dominant-baseline="middle">Port #4</text><path d="M 290 693.5 L 314 693.5" stroke="black" fill="transparent" stroke-width="1"/><text x="318" y="694" text-anchor="start" dominant-baseline="middle">NoC 0 (write or atomic)</text><rect x="210" y="678.5" width="80" height="30" stroke="black" fill="#d4aa00" stroke-width="1"/><text x="250" y="693" text-anchor="middle" dominant-baseline="middle">Port #5</text><path d="M 290 728.5 L 314 728.5" stroke="black" fill="transparent" stroke-width="1"/><text x="318" y="729" text-anchor="start" dominant-baseline="middle">NoC 0 (read)</text><rect x="210" y="713.5" width="80" height="30" stroke="black" fill="#d4aa00" stroke-width="1"/><text x="250" y="728" text-anchor="middle" dominant-baseline="middle">Port #6</text><path d="M 290 763.5 L 314 763.5" stroke="black" fill="transparent" stroke-width="1"/><text x="318" y="764" text-anchor="start" dominant-baseline="middle">NoC 0 (read)</text><rect x="210" y="748.5" width="80" height="30" stroke="black" fill="#d4aa00" stroke-width="1"/><text x="250" y="763" text-anchor="middle" dominant-baseline="middle">Port #7</text><path d="M 290 798.5 L 314 798.5" stroke="black" fill="transparent" stroke-width="1"/><text x="318" y="799" text-anchor="start" dominant-baseline="middle">NoC 1 (write or atomic)</text><rect x="210" y="783.5" width="80" height="30" stroke="black" fill="#d4aa00" stroke-width="1"/><text x="250" y="798" text-anchor="middle" dominant-baseline="middle">Port #12</text><path d="M 290 833.5 L 314 833.5" stroke="black" fill="transparent" stroke-width="1"/><text x="318" y="834" text-anchor="start" dominant-baseline="middle">NoC 1 (write or atomic)</text><rect x="210" y="818.5" width="80" height="30" stroke="black" fill="#d4aa00" stroke-width="1"/><text x="250" y="833" text-anchor="middle" dominant-baseline="middle">Port #13</text><path d="M 290 868.5 L 314 868.5" stroke="black" fill="transparent" stroke-width="1"/><text x="318" y="869" text-anchor="start" dominant-baseline="middle">NoC 1 (read)</text><rect x="210" y="853.5" width="80" height="30" stroke="black" fill="#d4aa00" stroke-width="1"/><text x="250" y="868" text-anchor="middle" dominant-baseline="middle">Port #14</text><path d="M 310 892.5 L 334 892.5" stroke="black" fill="transparent" stroke-width="1"/><text x="338" y="893" text-anchor="start" dominant-baseline="middle">NoC 1 (read)</text><path d="M 310 916.5 L 334 916.5" stroke="black" fill="transparent" stroke-width="1"/><text x="338" y="917" text-anchor="start" dominant-baseline="middle">Debug Timestamper (write)</text><path d="M 310 940.5 L 334 940.5" stroke="black" fill="transparent" stroke-width="1"/><text x="338" y="941" text-anchor="start" dominant-baseline="middle">Debug Daisychain (read or write)</text><path d="M 300 882.5 L 310 877.5 L 310 955.5 L 300 950.5 Z" stroke="black" fill="#e9ddaf" stroke-width="1"/><path d="M 290 916.5 L 300 916.5" stroke="black" fill="transparent" stroke-width="1"/><rect x="210" y="901.5" width="80" height="30" stroke="black" fill="#d4aa00" stroke-width="1"/><text x="250" y="916" text-anchor="middle" dominant-baseline="middle">Port #15</text><rect x="3.5" y="27.5" width="80" height="51" stroke="black" fill="#f4d7e3" stroke-width="1"/><text x="43" y="43" text-anchor="middle" dominant-baseline="middle">Bank #0</text><text x="43" y="63" text-anchor="middle" dominant-baseline="middle">91½ KiB</text><rect x="3.5" y="84.5" width="80" height="51" stroke="black" fill="#f4d7e3" stroke-width="1"/><text x="43" y="100" text-anchor="middle" dominant-baseline="middle">Bank #1</text><text x="43" y="120" text-anchor="middle" dominant-baseline="middle">91½ KiB</text><rect x="3.5" y="141.5" width="80" height="51" stroke="black" fill="#f4d7e3" stroke-width="1"/><text x="43" y="157" text-anchor="middle" dominant-baseline="middle">Bank #2</text><text x="43" y="177" text-anchor="middle" dominant-baseline="middle">91½ KiB</text><rect x="3.5" y="198.5" width="80" height="50" stroke="black" fill="#f4d7e3" stroke-width="1"/><text x="43" y="213" text-anchor="middle" dominant-baseline="middle">Bank #3</text><text x="43" y="233" text-anchor="middle" dominant-baseline="middle">91½ KiB</text><rect x="3.5" y="254.5" width="80" height="51" stroke="black" fill="#f4d7e3" stroke-width="1"/><text x="43" y="270" text-anchor="middle" dominant-baseline="middle">Bank #4</text><text x="43" y="290" text-anchor="middle" dominant-baseline="middle">91½ KiB</text><rect x="3.5" y="311.5" width="80" height="51" stroke="black" fill="#f4d7e3" stroke-width="1"/><text x="43" y="327" text-anchor="middle" dominant-baseline="middle">Bank #5</text><text x="43" y="347" text-anchor="middle" dominant-baseline="middle">91½ KiB</text><rect x="3.5" y="368.5" width="80" height="51" stroke="black" fill="#f4d7e3" stroke-width="1"/><text x="43" y="384" text-anchor="middle" dominant-baseline="middle">Bank #6</text><text x="43" y="404" text-anchor="middle" dominant-baseline="middle">91½ KiB</text><rect x="3.5" y="425.5" width="80" height="51" stroke="black" fill="#f4d7e3" stroke-width="1"/><text x="43" y="441" text-anchor="middle" dominant-baseline="middle">Bank #7</text><text x="43" y="461" text-anchor="middle" dominant-baseline="middle">91½ KiB</text><rect x="3.5" y="482.5" width="80" height="51" stroke="black" fill="#f4d7e3" stroke-width="1"/><text x="43" y="498" text-anchor="middle" dominant-baseline="middle">Bank #8</text><text x="43" y="518" text-anchor="middle" dominant-baseline="middle">91½ KiB</text><rect x="3.5" y="539.5" width="80" height="51" stroke="black" fill="#f4d7e3" stroke-width="1"/><text x="43" y="555" text-anchor="middle" dominant-baseline="middle">Bank #9</text><text x="43" y="575" text-anchor="middle" dominant-baseline="middle">91½ KiB</text><rect x="3.5" y="596.5" width="80" height="51" stroke="black" fill="#f4d7e3" stroke-width="1"/><text x="43" y="612" text-anchor="middle" dominant-baseline="middle">Bank #10</text><text x="43" y="632" text-anchor="middle" dominant-baseline="middle">91½ KiB</text><rect x="3.5" y="653.5" width="80" height="50" stroke="black" fill="#f4d7e3" stroke-width="1"/><text x="43" y="668" text-anchor="middle" dominant-baseline="middle">Bank #11</text><text x="43" y="688" text-anchor="middle" dominant-baseline="middle">91½ KiB</text><rect x="3.5" y="709.5" width="80" height="51" stroke="black" fill="#f4d7e3" stroke-width="1"/><text x="43" y="725" text-anchor="middle" dominant-baseline="middle">Bank #12</text><text x="43" y="745" text-anchor="middle" dominant-baseline="middle">91½ KiB</text><rect x="3.5" y="766.5" width="80" height="51" stroke="black" fill="#f4d7e3" stroke-width="1"/><text x="43" y="782" text-anchor="middle" dominant-baseline="middle">Bank #13</text><text x="43" y="802" text-anchor="middle" dominant-baseline="middle">91½ KiB</text><rect x="3.5" y="823.5" width="80" height="51" stroke="black" fill="#f4d7e3" stroke-width="1"/><text x="43" y="839" text-anchor="middle" dominant-baseline="middle">Bank #14</text><text x="43" y="859" text-anchor="middle" dominant-baseline="middle">91½ KiB</text><rect x="3.5" y="880.5" width="80" height="51" stroke="black" fill="#f4d7e3" stroke-width="1"/><text x="43" y="896" text-anchor="middle" dominant-baseline="middle">Bank #15</text><text x="43" y="916" text-anchor="middle" dominant-baseline="middle">91½ KiB</text><path d="M 150 32.5 L 160 27.5 L 160 931.5 L 150 926.5 Z" stroke="black" fill="#e9ddaf" stroke-width="1"/><path d="M 135 27.5 L 145 32.5 L 145 926.5 L 135 931.5 Z" stroke="black" fill="#e9ddaf" stroke-width="1"/><path d="M 160 42.5 L 210 42.5" stroke="black" fill="transparent" stroke-width="1"/><text x="185" y="38" text-anchor="middle">128b</text><path d="M 160 93.5 L 210 93.5" stroke="black" fill="transparent" stroke-width="1"/><text x="185" y="89" text-anchor="middle">128b</text><path d="M 160 129.5 L 210 129.5" stroke="black" fill="transparent" stroke-width="1"/><text x="185" y="125" text-anchor="middle">128b</text><path d="M 160 188.5 L 210 188.5" stroke="black" fill="transparent" stroke-width="1"/><text x="185" y="184" text-anchor="middle">128b</text><path d="M 160 247.5 L 210 247.5" stroke="black" fill="transparent" stroke-width="1"/><text x="185" y="243" text-anchor="middle">128b</text><path d="M 160 419.25 L 210 419.25" stroke="black" fill="transparent" stroke-width="1"/><text x="185" y="415" text-anchor="middle">128b</text><path d="M 160 511.5 L 210 511.5" stroke="black" fill="transparent" stroke-width="1"/><text x="185" y="507" text-anchor="middle">128b</text><path d="M 160 571.5 L 210 571.5" stroke="black" fill="transparent" stroke-width="1"/><text x="185" y="567" text-anchor="middle">128b</text><path d="M 160 658.5 L 210 658.5" stroke="black" fill="transparent" stroke-width="1"/><text x="185" y="654" text-anchor="middle">128b</text><path d="M 160 693.5 L 210 693.5" stroke="black" fill="transparent" stroke-width="1"/><text x="185" y="689" text-anchor="middle">128b</text><path d="M 160 728.5 L 210 728.5" stroke="black" fill="transparent" stroke-width="1"/><text x="185" y="724" text-anchor="middle">128b</text><path d="M 160 763.5 L 210 763.5" stroke="black" fill="transparent" stroke-width="1"/><text x="185" y="759" text-anchor="middle">128b</text><path d="M 160 798.5 L 210 798.5" stroke="black" fill="transparent" stroke-width="1"/><text x="185" y="794" text-anchor="middle">128b</text><path d="M 160 833.5 L 210 833.5" stroke="black" fill="transparent" stroke-width="1"/><text x="185" y="829" text-anchor="middle">128b</text><path d="M 160 868.5 L 210 868.5" stroke="black" fill="transparent" stroke-width="1"/><text x="185" y="864" text-anchor="middle">128b</text><path d="M 160 916.5 L 210 916.5" stroke="black" fill="transparent" stroke-width="1"/><text x="185" y="912" text-anchor="middle">128b</text><path d="M 83.5 53 L 135 53" stroke="black" fill="transparent" stroke-width="1"/><text x="109" y="49" text-anchor="middle">128b</text><path d="M 145 53 L 150 53" stroke="black" fill="transparent" stroke-width="1"/><path d="M 83.5 110 L 135 110" stroke="black" fill="transparent" stroke-width="1"/><text x="109" y="106" text-anchor="middle">128b</text><path d="M 145 110 L 150 110" stroke="black" fill="transparent" stroke-width="1"/><path d="M 83.5 167 L 135 167" stroke="black" fill="transparent" stroke-width="1"/><text x="109" y="163" text-anchor="middle">128b</text><path d="M 145 167 L 150 167" stroke="black" fill="transparent" stroke-width="1"/><path d="M 83.5 223.5 L 135 223.5" stroke="black" fill="transparent" stroke-width="1"/><text x="109" y="219" text-anchor="middle">128b</text><path d="M 145 223.5 L 150 223.5" stroke="black" fill="transparent" stroke-width="1"/><path d="M 83.5 280 L 135 280" stroke="black" fill="transparent" stroke-width="1"/><text x="109" y="276" text-anchor="middle">128b</text><path d="M 145 280 L 150 280" stroke="black" fill="transparent" stroke-width="1"/><path d="M 83.5 337 L 135 337" stroke="black" fill="transparent" stroke-width="1"/><text x="109" y="333" text-anchor="middle">128b</text><path d="M 145 337 L 150 337" stroke="black" fill="transparent" stroke-width="1"/><path d="M 83.5 394 L 135 394" stroke="black" fill="transparent" stroke-width="1"/><text x="109" y="390" text-anchor="middle">128b</text><path d="M 145 394 L 150 394" stroke="black" fill="transparent" stroke-width="1"/><path d="M 83.5 451 L 135 451" stroke="black" fill="transparent" stroke-width="1"/><text x="109" y="447" text-anchor="middle">128b</text><path d="M 145 451 L 150 451" stroke="black" fill="transparent" stroke-width="1"/><path d="M 83.5 508 L 135 508" stroke="black" fill="transparent" stroke-width="1"/><text x="109" y="504" text-anchor="middle">128b</text><path d="M 145 508 L 150 508" stroke="black" fill="transparent" stroke-width="1"/><path d="M 83.5 565 L 135 565" stroke="black" fill="transparent" stroke-width="1"/><text x="109" y="561" text-anchor="middle">128b</text><path d="M 145 565 L 150 565" stroke="black" fill="transparent" stroke-width="1"/><path d="M 83.5 622 L 135 622" stroke="black" fill="transparent" stroke-width="1"/><text x="109" y="618" text-anchor="middle">128b</text><path d="M 145 622 L 150 622" stroke="black" fill="transparent" stroke-width="1"/><path d="M 83.5 678.5 L 135 678.5" stroke="black" fill="transparent" stroke-width="1"/><text x="109" y="674" text-anchor="middle">128b</text><path d="M 145 678.5 L 150 678.5" stroke="black" fill="transparent" stroke-width="1"/><path d="M 83.5 735 L 135 735" stroke="black" fill="transparent" stroke-width="1"/><text x="109" y="731" text-anchor="middle">128b</text><path d="M 145 735 L 150 735" stroke="black" fill="transparent" stroke-width="1"/><path d="M 83.5 792 L 135 792" stroke="black" fill="transparent" stroke-width="1"/><text x="109" y="788" text-anchor="middle">128b</text><path d="M 145 792 L 150 792" stroke="black" fill="transparent" stroke-width="1"/><path d="M 83.5 849 L 135 849" stroke="black" fill="transparent" stroke-width="1"/><text x="109" y="845" text-anchor="middle">128b</text><path d="M 145 849 L 150 849" stroke="black" fill="transparent" stroke-width="1"/><path d="M 83.5 906 L 135 906" stroke="black" fill="transparent" stroke-width="1"/><text x="109" y="902" text-anchor="middle">128b</text><path d="M 145 906 L 150 906" stroke="black" fill="transparent" stroke-width="1"/></svg>
