<svg version="1.1" width="655" height="600" xmlns="http://www.w3.org/2000/svg"><rect width="655" height="600" rx="15" stroke="transparent" fill="white"/><path d="M 350 33.5 L 374 33.5" stroke="black" fill="transparent" stroke-width="1"/><text x="378" y="34" text-anchor="start" dominant-baseline="middle">NoC 1 (write or atomic)</text><rect x="270" y="18.5" width="80" height="30" stroke="black" fill="#d4aa00" stroke-width="1"/><text x="310" y="33" text-anchor="middle" dominant-baseline="middle">Port #0</text><path d="M 350 72.5 L 374 72.5" stroke="black" fill="transparent" stroke-width="1"/><text x="378" y="73" text-anchor="start" dominant-baseline="middle">NoC 1 (write or atomic)</text><rect x="270" y="57.5" width="80" height="30" stroke="black" fill="#d4aa00" stroke-width="1"/><text x="310" y="72" text-anchor="middle" dominant-baseline="middle">Port #1</text><path d="M 350 111.5 L 374 111.5" stroke="black" fill="transparent" stroke-width="1"/><text x="378" y="112" text-anchor="start" dominant-baseline="middle">NoC 1 (read)</text><rect x="270" y="96.5" width="80" height="30" stroke="black" fill="#d4aa00" stroke-width="1"/><text x="310" y="111" text-anchor="middle" dominant-baseline="middle">Port #2</text><path d="M 350 150.5 L 374 150.5" stroke="black" fill="transparent" stroke-width="1"/><text x="378" y="151" text-anchor="start" dominant-baseline="middle">NoC 1 (read)</text><rect x="270" y="135.5" width="80" height="30" stroke="black" fill="#d4aa00" stroke-width="1"/><text x="310" y="150" text-anchor="middle" dominant-baseline="middle">Port #3</text><path d="M 350 189.5 L 374 189.5" stroke="black" fill="transparent" stroke-width="1"/><text x="378" y="190" text-anchor="start" dominant-baseline="middle">NoC 0 (write or atomic)</text><rect x="270" y="174.5" width="80" height="30" stroke="black" fill="#d4aa00" stroke-width="1"/><text x="310" y="189" text-anchor="middle" dominant-baseline="middle">Port #4</text><path d="M 350 228.5 L 374 228.5" stroke="black" fill="transparent" stroke-width="1"/><text x="378" y="229" text-anchor="start" dominant-baseline="middle">NoC 0 (write or atomic)</text><rect x="270" y="213.5" width="80" height="30" stroke="black" fill="#d4aa00" stroke-width="1"/><text x="310" y="228" text-anchor="middle" dominant-baseline="middle">Port #5</text><path d="M 350 267.5 L 374 267.5" stroke="black" fill="transparent" stroke-width="1"/><text x="378" y="268" text-anchor="start" dominant-baseline="middle">NoC 0 (read)</text><rect x="270" y="252.5" width="80" height="30" stroke="black" fill="#d4aa00" stroke-width="1"/><text x="310" y="267" text-anchor="middle" dominant-baseline="middle">Port #6</text><path d="M 350 306.5 L 374 306.5" stroke="black" fill="transparent" stroke-width="1"/><text x="378" y="307" text-anchor="start" dominant-baseline="middle">NoC 0 (read)</text><rect x="270" y="291.5" width="80" height="30" stroke="black" fill="#d4aa00" stroke-width="1"/><text x="310" y="306" text-anchor="middle" dominant-baseline="middle">Port #7</text><path d="M 350 345.5 L 374 345.5" stroke="black" fill="transparent" stroke-width="1"/><text x="378" y="346" text-anchor="start" dominant-baseline="middle">ECC Scrubber (atomic)</text><rect x="270" y="330.5" width="80" height="30" stroke="black" fill="#d4aa00" stroke-width="1"/><text x="310" y="345" text-anchor="middle" dominant-baseline="middle">Port #8</text><path d="M 350 384.5 L 374 384.5" stroke="black" fill="transparent" stroke-width="1"/><text x="378" y="385" text-anchor="start" dominant-baseline="middle">RISCV E (read or write)</text><rect x="270" y="369.5" width="80" height="30" stroke="black" fill="#d4aa00" stroke-width="1"/><text x="310" y="384" text-anchor="middle" dominant-baseline="middle">Port #9</text><path d="M 350 423.5 L 374 423.5" stroke="black" fill="transparent" stroke-width="1"/><text x="378" y="424" text-anchor="start" dominant-baseline="middle">Ethernet TX (read)</text><rect x="270" y="408.5" width="80" height="30" stroke="black" fill="#d4aa00" stroke-width="1"/><text x="310" y="423" text-anchor="middle" dominant-baseline="middle">Port #10</text><path d="M 350 462.5 L 374 462.5" stroke="black" fill="transparent" stroke-width="1"/><text x="378" y="463" text-anchor="start" dominant-baseline="middle">Ethernet TX (read)</text><rect x="270" y="447.5" width="80" height="30" stroke="black" fill="#d4aa00" stroke-width="1"/><text x="310" y="462" text-anchor="middle" dominant-baseline="middle">Port #11</text><path d="M 350 501.5 L 374 501.5" stroke="black" fill="transparent" stroke-width="1"/><text x="378" y="502" text-anchor="start" dominant-baseline="middle">Ethernet RX (write)</text><rect x="270" y="486.5" width="80" height="30" stroke="black" fill="#d4aa00" stroke-width="1"/><text x="310" y="501" text-anchor="middle" dominant-baseline="middle">Port #12</text><path d="M 350 540.5 L 374 540.5" stroke="black" fill="transparent" stroke-width="1"/><text x="378" y="541" text-anchor="start" dominant-baseline="middle">Ethernet RX (write)</text><rect x="270" y="525.5" width="80" height="30" stroke="black" fill="#d4aa00" stroke-width="1"/><text x="310" y="540" text-anchor="middle" dominant-baseline="middle">Port #13</text><path d="M 350 579.5 L 374 579.5" stroke="black" fill="transparent" stroke-width="1"/><text x="378" y="580" text-anchor="start" dominant-baseline="middle">Debug Daisychain (read or write)</text><rect x="270" y="564.5" width="80" height="30" stroke="black" fill="#d4aa00" stroke-width="1"/><text x="310" y="579" text-anchor="middle" dominant-baseline="middle">Port #15</text><rect x="3.5" y="18.5" width="140" height="30" stroke="black" fill="#f4d7e3" stroke-width="1"/><text x="73" y="33" text-anchor="middle" dominant-baseline="middle">Bank #0; 16 KiB</text><rect x="3.5" y="54.5" width="140" height="31" stroke="black" fill="#f4d7e3" stroke-width="1"/><text x="73" y="70" text-anchor="middle" dominant-baseline="middle">Bank #1; 16 KiB</text><rect x="3.5" y="91.5" width="140" height="30" stroke="black" fill="#f4d7e3" stroke-width="1"/><text x="73" y="106" text-anchor="middle" dominant-baseline="middle">Bank #2; 16 KiB</text><rect x="3.5" y="127.5" width="140" height="30" stroke="black" fill="#f4d7e3" stroke-width="1"/><text x="73" y="142" text-anchor="middle" dominant-baseline="middle">Bank #3; 16 KiB</text><rect x="3.5" y="163.5" width="140" height="31" stroke="black" fill="#f4d7e3" stroke-width="1"/><text x="73" y="179" text-anchor="middle" dominant-baseline="middle">Bank #4; 16 KiB</text><rect x="3.5" y="200.5" width="140" height="30" stroke="black" fill="#f4d7e3" stroke-width="1"/><text x="73" y="215" text-anchor="middle" dominant-baseline="middle">Bank #5; 16 KiB</text><rect x="3.5" y="236.5" width="140" height="31" stroke="black" fill="#f4d7e3" stroke-width="1"/><text x="73" y="252" text-anchor="middle" dominant-baseline="middle">Bank #6; 16 KiB</text><rect x="3.5" y="273.5" width="140" height="30" stroke="black" fill="#f4d7e3" stroke-width="1"/><text x="73" y="288" text-anchor="middle" dominant-baseline="middle">Bank #7; 16 KiB</text><rect x="3.5" y="309.5" width="140" height="30" stroke="black" fill="#f4d7e3" stroke-width="1"/><text x="73" y="324" text-anchor="middle" dominant-baseline="middle">Bank #8; 16 KiB</text><rect x="3.5" y="345.5" width="140" height="31" stroke="black" fill="#f4d7e3" stroke-width="1"/><text x="73" y="361" text-anchor="middle" dominant-baseline="middle">Bank #9; 16 KiB</text><rect x="3.5" y="382.5" width="140" height="30" stroke="black" fill="#f4d7e3" stroke-width="1"/><text x="73" y="397" text-anchor="middle" dominant-baseline="middle">Bank #10; 16 KiB</text><rect x="3.5" y="418.5" width="140" height="30" stroke="black" fill="#f4d7e3" stroke-width="1"/><text x="73" y="433" text-anchor="middle" dominant-baseline="middle">Bank #11; 16 KiB</text><rect x="3.5" y="454.5" width="140" height="31" stroke="black" fill="#f4d7e3" stroke-width="1"/><text x="73" y="470" text-anchor="middle" dominant-baseline="middle">Bank #12; 16 KiB</text><rect x="3.5" y="491.5" width="140" height="30" stroke="black" fill="#f4d7e3" stroke-width="1"/><text x="73" y="506" text-anchor="middle" dominant-baseline="middle">Bank #13; 16 KiB</text><rect x="3.5" y="527.5" width="140" height="31" stroke="black" fill="#f4d7e3" stroke-width="1"/><text x="73" y="543" text-anchor="middle" dominant-baseline="middle">Bank #14; 16 KiB</text><rect x="3.5" y="564.5" width="140" height="30" stroke="black" fill="#f4d7e3" stroke-width="1"/><text x="73" y="579" text-anchor="middle" dominant-baseline="middle">Bank #15; 16 KiB</text><path d="M 210 23.5 L 220 18.5 L 220 594.5 L 210 589.5 Z" stroke="black" fill="#e9ddaf" stroke-width="1"/><path d="M 195 18.5 L 205 23.5 L 205 589.5 L 195 594.5 Z" stroke="black" fill="#e9ddaf" stroke-width="1"/><path d="M 220 33.5 L 270 33.5" stroke="black" fill="transparent" stroke-width="1"/><text x="245" y="29" text-anchor="middle">128b</text><path d="M 220 72.5 L 270 72.5" stroke="black" fill="transparent" stroke-width="1"/><text x="245" y="68" text-anchor="middle">128b</text><path d="M 220 111.5 L 270 111.5" stroke="black" fill="transparent" stroke-width="1"/><text x="245" y="107" text-anchor="middle">128b</text><path d="M 220 150.5 L 270 150.5" stroke="black" fill="transparent" stroke-width="1"/><text x="245" y="146" text-anchor="middle">128b</text><path d="M 220 189.5 L 270 189.5" stroke="black" fill="transparent" stroke-width="1"/><text x="245" y="185" text-anchor="middle">128b</text><path d="M 220 228.5 L 270 228.5" stroke="black" fill="transparent" stroke-width="1"/><text x="245" y="224" text-anchor="middle">128b</text><path d="M 220 267.5 L 270 267.5" stroke="black" fill="transparent" stroke-width="1"/><text x="245" y="263" text-anchor="middle">128b</text><path d="M 220 306.5 L 270 306.5" stroke="black" fill="transparent" stroke-width="1"/><text x="245" y="302" text-anchor="middle">128b</text><path d="M 220 345.5 L 270 345.5" stroke="black" fill="transparent" stroke-width="1"/><text x="245" y="341" text-anchor="middle">128b</text><path d="M 220 384.5 L 270 384.5" stroke="black" fill="transparent" stroke-width="1"/><text x="245" y="380" text-anchor="middle">128b</text><path d="M 220 423.5 L 270 423.5" stroke="black" fill="transparent" stroke-width="1"/><text x="245" y="419" text-anchor="middle">128b</text><path d="M 220 462.5 L 270 462.5" stroke="black" fill="transparent" stroke-width="1"/><text x="245" y="458" text-anchor="middle">128b</text><path d="M 220 501.5 L 270 501.5" stroke="black" fill="transparent" stroke-width="1"/><text x="245" y="497" text-anchor="middle">128b</text><path d="M 220 540.5 L 270 540.5" stroke="black" fill="transparent" stroke-width="1"/><text x="245" y="536" text-anchor="middle">128b</text><path d="M 220 579.5 L 270 579.5" stroke="black" fill="transparent" stroke-width="1"/><text x="245" y="575" text-anchor="middle">128b</text><path d="M 143.5 33.5 L 195 33.5" stroke="black" fill="transparent" stroke-width="1"/><text x="169" y="29" text-anchor="middle">128b</text><path d="M 205 33.5 L 210 33.5" stroke="black" fill="transparent" stroke-width="1"/><path d="M 143.5 70 L 195 70" stroke="black" fill="transparent" stroke-width="1"/><text x="169" y="66" text-anchor="middle">128b</text><path d="M 205 70 L 210 70" stroke="black" fill="transparent" stroke-width="1"/><path d="M 143.5 106.5 L 195 106.5" stroke="black" fill="transparent" stroke-width="1"/><text x="169" y="102" text-anchor="middle">128b</text><path d="M 205 106.5 L 210 106.5" stroke="black" fill="transparent" stroke-width="1"/><path d="M 143.5 142.5 L 195 142.5" stroke="black" fill="transparent" stroke-width="1"/><text x="169" y="138" text-anchor="middle">128b</text><path d="M 205 142.5 L 210 142.5" stroke="black" fill="transparent" stroke-width="1"/><path d="M 143.5 179 L 195 179" stroke="black" fill="transparent" stroke-width="1"/><text x="169" y="175" text-anchor="middle">128b</text><path d="M 205 179 L 210 179" stroke="black" fill="transparent" stroke-width="1"/><path d="M 143.5 215.5 L 195 215.5" stroke="black" fill="transparent" stroke-width="1"/><text x="169" y="211" text-anchor="middle">128b</text><path d="M 205 215.5 L 210 215.5" stroke="black" fill="transparent" stroke-width="1"/><path d="M 143.5 252 L 195 252" stroke="black" fill="transparent" stroke-width="1"/><text x="169" y="248" text-anchor="middle">128b</text><path d="M 205 252 L 210 252" stroke="black" fill="transparent" stroke-width="1"/><path d="M 143.5 288.5 L 195 288.5" stroke="black" fill="transparent" stroke-width="1"/><text x="169" y="284" text-anchor="middle">128b</text><path d="M 205 288.5 L 210 288.5" stroke="black" fill="transparent" stroke-width="1"/><path d="M 143.5 324.5 L 195 324.5" stroke="black" fill="transparent" stroke-width="1"/><text x="169" y="320" text-anchor="middle">128b</text><path d="M 205 324.5 L 210 324.5" stroke="black" fill="transparent" stroke-width="1"/><path d="M 143.5 361 L 195 361" stroke="black" fill="transparent" stroke-width="1"/><text x="169" y="357" text-anchor="middle">128b</text><path d="M 205 361 L 210 361" stroke="black" fill="transparent" stroke-width="1"/><path d="M 143.5 397.5 L 195 397.5" stroke="black" fill="transparent" stroke-width="1"/><text x="169" y="393" text-anchor="middle">128b</text><path d="M 205 397.5 L 210 397.5" stroke="black" fill="transparent" stroke-width="1"/><path d="M 143.5 433.5 L 195 433.5" stroke="black" fill="transparent" stroke-width="1"/><text x="169" y="429" text-anchor="middle">128b</text><path d="M 205 433.5 L 210 433.5" stroke="black" fill="transparent" stroke-width="1"/><path d="M 143.5 470 L 195 470" stroke="black" fill="transparent" stroke-width="1"/><text x="169" y="466" text-anchor="middle">128b</text><path d="M 205 470 L 210 470" stroke="black" fill="transparent" stroke-width="1"/><path d="M 143.5 506.5 L 195 506.5" stroke="black" fill="transparent" stroke-width="1"/><text x="169" y="502" text-anchor="middle">128b</text><path d="M 205 506.5 L 210 506.5" stroke="black" fill="transparent" stroke-width="1"/><path d="M 143.5 543 L 195 543" stroke="black" fill="transparent" stroke-width="1"/><text x="169" y="539" text-anchor="middle">128b</text><path d="M 205 543 L 210 543" stroke="black" fill="transparent" stroke-width="1"/><path d="M 143.5 579.5 L 195 579.5" stroke="black" fill="transparent" stroke-width="1"/><text x="169" y="575" text-anchor="middle">128b</text><path d="M 205 579.5 L 210 579.5" stroke="black" fill="transparent" stroke-width="1"/></svg>
