<svg version="1.1" width="1078" height="751" xmlns="http://www.w3.org/2000/svg"><rect width="1078" height="751" rx="15" stroke="transparent" fill="white"/><g transform="translate(5.5 5.5)">
<rect x="5" y="5" width="50" height="50" stroke="black" fill="#d6fff8" stroke-width="1" rx="5" ry="5"/><text x="30" y="30" text-anchor="middle" dominant-baseline="middle" fill-opacity="20%">D0</text><rect x="65" y="5" width="50" height="50" stroke="black" fill="white" stroke-width="1" rx="5" ry="5"/><rect x="125" y="5" width="50" height="50" stroke="black" fill="#ffd3e2" stroke-width="1" rx="5" ry="5"/><text x="150" y="20" text-anchor="middle" dominant-baseline="middle">PCIe</text><text x="150" y="40" text-anchor="middle" dominant-baseline="middle">0</text><rect x="185" y="5" width="50" height="50" stroke="black" fill="white" stroke-width="1" rx="5" ry="5"/><rect x="245" y="5" width="50" height="50" stroke="black" fill="white" stroke-width="1" rx="5" ry="5"/><rect x="305" y="5" width="50" height="50" stroke="black" fill="white" stroke-width="1" rx="5" ry="5"/><rect x="365" y="5" width="50" height="50" stroke="black" fill="white" stroke-width="1" rx="5" ry="5"/><rect x="425" y="5" width="50" height="50" stroke="black" fill="white" stroke-width="1" rx="5" ry="5"/><rect x="485" y="5" width="50" height="50" stroke="black" fill="#f2fad3" stroke-width="1" rx="5" ry="5"/><text x="510" y="30" text-anchor="middle" dominant-baseline="middle" fill-opacity="20%">ARC</text><rect x="545" y="5" width="50" height="50" stroke="black" fill="#d6fff8" stroke-width="1" rx="5" ry="5"/><text x="570" y="30" text-anchor="middle" dominant-baseline="middle" fill-opacity="20%">D4</text><rect x="605" y="5" width="50" height="50" stroke="black" fill="white" stroke-width="1" rx="5" ry="5"/><rect x="665" y="5" width="50" height="50" stroke="black" fill="white" stroke-width="1" rx="5" ry="5"/><path d="M 677.5 17.5 L 702.5 42.5" stroke="red" fill="transparent" stroke-width="8.33333"/><path d="M 677.5 42.5 L 702.5 17.5" stroke="red" fill="transparent" stroke-width="8.33333"/><rect x="725" y="5" width="50" height="50" stroke="black" fill="white" stroke-width="1" rx="5" ry="5"/><rect x="785" y="5" width="50" height="50" stroke="black" fill="white" stroke-width="1" rx="5" ry="5"/><rect x="845" y="5" width="50" height="50" stroke="black" fill="white" stroke-width="1" rx="5" ry="5"/><rect x="905" y="5" width="50" height="50" stroke="black" fill="white" stroke-width="1" rx="5" ry="5"/><rect x="965" y="5" width="50" height="50" stroke="black" fill="white" stroke-width="1" rx="5" ry="5"/><rect x="5" y="65" width="50" height="50" stroke="black" fill="#d6fff8" stroke-width="1" rx="5" ry="5"/><text x="30" y="90" text-anchor="middle" dominant-baseline="middle" fill-opacity="20%">D0</text><rect x="65" y="65" width="50" height="50" stroke="black" fill="#dae4ff" stroke-width="1" rx="5" ry="5"/><text x="90" y="90" text-anchor="middle" dominant-baseline="middle" fill-opacity="20%">E0</text><rect x="125" y="65" width="50" height="50" stroke="black" fill="#dae4ff" stroke-width="1" rx="5" ry="5"/><text x="150" y="90" text-anchor="middle" dominant-baseline="middle" fill-opacity="20%">E2</text><rect x="185" y="65" width="50" height="50" stroke="black" fill="#dae4ff" stroke-width="1" rx="5" ry="5"/><text x="210" y="90" text-anchor="middle" dominant-baseline="middle" fill-opacity="20%">E4</text><rect x="245" y="65" width="50" height="50" stroke="black" fill="#dae4ff" stroke-width="1" rx="5" ry="5"/><text x="270" y="90" text-anchor="middle" dominant-baseline="middle" fill-opacity="20%">E6</text><rect x="305" y="65" width="50" height="50" stroke="black" fill="#dae4ff" stroke-width="1" rx="5" ry="5"/><text x="330" y="90" text-anchor="middle" dominant-baseline="middle" fill-opacity="20%">E8</text><rect x="365" y="65" width="50" height="50" stroke="black" fill="#dae4ff" stroke-width="1" rx="5" ry="5"/><text x="390" y="90" text-anchor="middle" dominant-baseline="middle" fill-opacity="20%">E10</text><rect x="425" y="65" width="50" height="50" stroke="black" fill="#dae4ff" stroke-width="1" rx="5" ry="5"/><text x="450" y="90" text-anchor="middle" dominant-baseline="middle" fill-opacity="20%">E12</text><rect x="485" y="65" width="50" height="50" stroke="black" fill="white" stroke-width="1" rx="5" ry="5"/><rect x="545" y="65" width="50" height="50" stroke="black" fill="#d6fff8" stroke-width="1" rx="5" ry="5"/><text x="570" y="90" text-anchor="middle" dominant-baseline="middle" fill-opacity="20%">D4</text><rect x="605" y="65" width="50" height="50" stroke="black" fill="#dae4ff" stroke-width="1" rx="5" ry="5"/><text x="630" y="90" text-anchor="middle" dominant-baseline="middle" fill-opacity="20%">E13</text><rect x="665" y="65" width="50" height="50" stroke="black" fill="#dae4ff" stroke-width="1" rx="5" ry="5"/><text x="690" y="90" text-anchor="middle" dominant-baseline="middle" fill-opacity="20%">E11</text><rect x="725" y="65" width="50" height="50" stroke="black" fill="#dae4ff" stroke-width="1" rx="5" ry="5"/><text x="750" y="90" text-anchor="middle" dominant-baseline="middle" fill-opacity="20%">E9</text><rect x="785" y="65" width="50" height="50" stroke="black" fill="#dae4ff" stroke-width="1" rx="5" ry="5"/><text x="810" y="90" text-anchor="middle" dominant-baseline="middle" fill-opacity="20%">E7</text><rect x="845" y="65" width="50" height="50" stroke="black" fill="#dae4ff" stroke-width="1" rx="5" ry="5"/><text x="870" y="90" text-anchor="middle" dominant-baseline="middle" fill-opacity="20%">E5</text><rect x="905" y="65" width="50" height="50" stroke="black" fill="#dae4ff" stroke-width="1" rx="5" ry="5"/><text x="930" y="90" text-anchor="middle" dominant-baseline="middle" fill-opacity="20%">E3</text><rect x="965" y="65" width="50" height="50" stroke="black" fill="#dae4ff" stroke-width="1" rx="5" ry="5"/><text x="990" y="90" text-anchor="middle" dominant-baseline="middle" fill-opacity="20%">E1</text><rect x="5" y="125" width="50" height="50" stroke="black" fill="#d6fff8" stroke-width="1" rx="5" ry="5"/><text x="30" y="150" text-anchor="middle" dominant-baseline="middle" fill-opacity="20%">D1</text><rect x="65" y="125" width="50" height="50" stroke="black" fill="#ffebd3" stroke-width="1" rx="5" ry="5"/><text x="90" y="150" text-anchor="middle" dominant-baseline="middle" fill-opacity="20%">T0</text><rect x="125" y="125" width="50" height="50" stroke="black" fill="#ffebd3" stroke-width="1" rx="5" ry="5"/><text x="150" y="150" text-anchor="middle" dominant-baseline="middle" fill-opacity="20%">T1</text><rect x="185" y="125" width="50" height="50" stroke="black" fill="#ffebd3" stroke-width="1" rx="5" ry="5"/><text x="210" y="150" text-anchor="middle" dominant-baseline="middle" fill-opacity="20%">T2</text><rect x="245" y="125" width="50" height="50" stroke="black" fill="#ffebd3" stroke-width="1" rx="5" ry="5"/><text x="270" y="150" text-anchor="middle" dominant-baseline="middle" fill-opacity="20%">T3</text><rect x="305" y="125" width="50" height="50" stroke="black" fill="#ffebd3" stroke-width="1" rx="5" ry="5"/><text x="330" y="150" text-anchor="middle" dominant-baseline="middle" fill-opacity="20%">T4</text><rect x="365" y="125" width="50" height="50" stroke="black" fill="#ffebd3" stroke-width="1" rx="5" ry="5"/><text x="390" y="150" text-anchor="middle" dominant-baseline="middle" fill-opacity="20%">T5</text><rect x="425" y="125" width="50" height="50" stroke="black" fill="#ffebd3" stroke-width="1" rx="5" ry="5"/><text x="450" y="150" text-anchor="middle" dominant-baseline="middle" fill-opacity="20%">T6</text><rect x="485" y="125" width="50" height="50" stroke="black" fill="#ffd4f9" stroke-width="1" rx="5" ry="5"/><text x="510" y="150" text-anchor="middle" dominant-baseline="middle" fill-opacity="20%">SEC</text><rect x="545" y="125" width="50" height="50" stroke="black" fill="#d6fff8" stroke-width="1" rx="5" ry="5"/><text x="570" y="150" text-anchor="middle" dominant-baseline="middle" fill-opacity="20%">D5</text><rect x="605" y="125" width="50" height="50" stroke="black" fill="#ffebd3" stroke-width="1" rx="5" ry="5"/><text x="630" y="150" text-anchor="middle" dominant-baseline="middle" fill-opacity="20%">T7</text><rect x="665" y="125" width="50" height="50" stroke="black" fill="#ffebd3" stroke-width="1" rx="5" ry="5"/><text x="690" y="150" text-anchor="middle" dominant-baseline="middle" fill-opacity="20%">T8</text><rect x="725" y="125" width="50" height="50" stroke="black" fill="#ffebd3" stroke-width="1" rx="5" ry="5"/><text x="750" y="150" text-anchor="middle" dominant-baseline="middle" fill-opacity="20%">T9</text><rect x="785" y="125" width="50" height="50" stroke="black" fill="#ffebd3" stroke-width="1" rx="5" ry="5"/><text x="810" y="150" text-anchor="middle" dominant-baseline="middle" fill-opacity="20%">T10</text><rect x="845" y="125" width="50" height="50" stroke="black" fill="#ffebd3" stroke-width="1" rx="5" ry="5"/><text x="870" y="150" text-anchor="middle" dominant-baseline="middle" fill-opacity="20%">T11</text><rect x="905" y="125" width="50" height="50" stroke="black" fill="#ffebd3" stroke-width="1" rx="5" ry="5"/><text x="930" y="150" text-anchor="middle" dominant-baseline="middle" fill-opacity="20%">T12</text><rect x="965" y="125" width="50" height="50" stroke="black" fill="#ffebd3" stroke-width="1" rx="5" ry="5"/><text x="990" y="150" text-anchor="middle" dominant-baseline="middle" fill-opacity="20%">T13</text><rect x="5" y="185" width="50" height="50" stroke="black" fill="#d6fff8" stroke-width="1" rx="5" ry="5"/><text x="30" y="210" text-anchor="middle" dominant-baseline="middle" fill-opacity="20%">D1</text><rect x="65" y="185" width="50" height="50" stroke="black" fill="#ffebd3" stroke-width="1" rx="5" ry="5"/><text x="90" y="210" text-anchor="middle" dominant-baseline="middle" fill-opacity="20%">T14</text><rect x="125" y="185" width="50" height="50" stroke="black" fill="#ffebd3" stroke-width="1" rx="5" ry="5"/><text x="150" y="210" text-anchor="middle" dominant-baseline="middle" fill-opacity="20%">T15</text><rect x="185" y="185" width="50" height="50" stroke="black" fill="#ffebd3" stroke-width="1" rx="5" ry="5"/><text x="210" y="210" text-anchor="middle" dominant-baseline="middle" fill-opacity="20%">T16</text><rect x="245" y="185" width="50" height="50" stroke="black" fill="#ffebd3" stroke-width="1" rx="5" ry="5"/><text x="270" y="210" text-anchor="middle" dominant-baseline="middle" fill-opacity="20%">T17</text><rect x="305" y="185" width="50" height="50" stroke="black" fill="#ffebd3" stroke-width="1" rx="5" ry="5"/><text x="330" y="210" text-anchor="middle" dominant-baseline="middle" fill-opacity="20%">T18</text><rect x="365" y="185" width="50" height="50" stroke="black" fill="#ffebd3" stroke-width="1" rx="5" ry="5"/><text x="390" y="210" text-anchor="middle" dominant-baseline="middle" fill-opacity="20%">T19</text><rect x="425" y="185" width="50" height="50" stroke="black" fill="#ffebd3" stroke-width="1" rx="5" ry="5"/><text x="450" y="210" text-anchor="middle" dominant-baseline="middle" fill-opacity="20%">T20</text><rect x="485" y="185" width="50" height="50" stroke="black" fill="#d2fad2" stroke-width="1" rx="5" ry="5"/><text x="510" y="200" text-anchor="middle" dominant-baseline="middle" fill-opacity="20%">CPU</text><text x="510" y="220" text-anchor="middle" dominant-baseline="middle" fill-opacity="20%">0-3</text><rect x="545" y="185" width="50" height="50" stroke="black" fill="#d6fff8" stroke-width="1" rx="5" ry="5"/><text x="570" y="210" text-anchor="middle" dominant-baseline="middle" fill-opacity="20%">D5</text><rect x="605" y="185" width="50" height="50" stroke="black" fill="#ffebd3" stroke-width="1" rx="5" ry="5"/><text x="630" y="210" text-anchor="middle" dominant-baseline="middle" fill-opacity="20%">T21</text><rect x="665" y="185" width="50" height="50" stroke="black" fill="#ffebd3" stroke-width="1" rx="5" ry="5"/><text x="690" y="210" text-anchor="middle" dominant-baseline="middle" fill-opacity="20%">T22</text><rect x="725" y="185" width="50" height="50" stroke="black" fill="#ffebd3" stroke-width="1" rx="5" ry="5"/><text x="750" y="210" text-anchor="middle" dominant-baseline="middle" fill-opacity="20%">T23</text><rect x="785" y="185" width="50" height="50" stroke="black" fill="#ffebd3" stroke-width="1" rx="5" ry="5"/><text x="810" y="210" text-anchor="middle" dominant-baseline="middle" fill-opacity="20%">T24</text><rect x="845" y="185" width="50" height="50" stroke="black" fill="#ffebd3" stroke-width="1" rx="5" ry="5"/><text x="870" y="210" text-anchor="middle" dominant-baseline="middle" fill-opacity="20%">T25</text><rect x="905" y="185" width="50" height="50" stroke="black" fill="#ffebd3" stroke-width="1" rx="5" ry="5"/><text x="930" y="210" text-anchor="middle" dominant-baseline="middle" fill-opacity="20%">T26</text><rect x="965" y="185" width="50" height="50" stroke="black" fill="#ffebd3" stroke-width="1" rx="5" ry="5"/><text x="990" y="210" text-anchor="middle" dominant-baseline="middle" fill-opacity="20%">T27</text><rect x="5" y="245" width="50" height="50" stroke="black" fill="#d6fff8" stroke-width="1" rx="5" ry="5"/><text x="30" y="270" text-anchor="middle" dominant-baseline="middle" fill-opacity="20%">D2</text><rect x="65" y="245" width="50" height="50" stroke="black" fill="#ffebd3" stroke-width="1" rx="5" ry="5"/><text x="90" y="270" text-anchor="middle" dominant-baseline="middle" fill-opacity="20%">T28</text><rect x="125" y="245" width="50" height="50" stroke="black" fill="#ffebd3" stroke-width="1" rx="5" ry="5"/><text x="150" y="270" text-anchor="middle" dominant-baseline="middle" fill-opacity="20%">T29</text><rect x="185" y="245" width="50" height="50" stroke="black" fill="#ffebd3" stroke-width="1" rx="5" ry="5"/><text x="210" y="270" text-anchor="middle" dominant-baseline="middle" fill-opacity="20%">T30</text><rect x="245" y="245" width="50" height="50" stroke="black" fill="#ffebd3" stroke-width="1" rx="5" ry="5"/><text x="270" y="270" text-anchor="middle" dominant-baseline="middle" fill-opacity="20%">T31</text><rect x="305" y="245" width="50" height="50" stroke="black" fill="#ffebd3" stroke-width="1" rx="5" ry="5"/><text x="330" y="270" text-anchor="middle" dominant-baseline="middle" fill-opacity="20%">T32</text><rect x="365" y="245" width="50" height="50" stroke="black" fill="#ffebd3" stroke-width="1" rx="5" ry="5"/><text x="390" y="270" text-anchor="middle" dominant-baseline="middle" fill-opacity="20%">T33</text><rect x="425" y="245" width="50" height="50" stroke="black" fill="#ffebd3" stroke-width="1" rx="5" ry="5"/><text x="450" y="270" text-anchor="middle" dominant-baseline="middle" fill-opacity="20%">T34</text><rect x="485" y="245" width="50" height="50" stroke="black" fill="white" stroke-width="1" rx="5" ry="5"/><rect x="545" y="245" width="50" height="50" stroke="black" fill="#d6fff8" stroke-width="1" rx="5" ry="5"/><text x="570" y="270" text-anchor="middle" dominant-baseline="middle" fill-opacity="20%">D6</text><rect x="605" y="245" width="50" height="50" stroke="black" fill="#ffebd3" stroke-width="1" rx="5" ry="5"/><text x="630" y="270" text-anchor="middle" dominant-baseline="middle" fill-opacity="20%">T35</text><rect x="665" y="245" width="50" height="50" stroke="black" fill="#ffebd3" stroke-width="1" rx="5" ry="5"/><text x="690" y="270" text-anchor="middle" dominant-baseline="middle" fill-opacity="20%">T36</text><rect x="725" y="245" width="50" height="50" stroke="black" fill="#ffebd3" stroke-width="1" rx="5" ry="5"/><text x="750" y="270" text-anchor="middle" dominant-baseline="middle" fill-opacity="20%">T37</text><rect x="785" y="245" width="50" height="50" stroke="black" fill="#ffebd3" stroke-width="1" rx="5" ry="5"/><text x="810" y="270" text-anchor="middle" dominant-baseline="middle" fill-opacity="20%">T38</text><rect x="845" y="245" width="50" height="50" stroke="black" fill="#ffebd3" stroke-width="1" rx="5" ry="5"/><text x="870" y="270" text-anchor="middle" dominant-baseline="middle" fill-opacity="20%">T39</text><rect x="905" y="245" width="50" height="50" stroke="black" fill="#ffebd3" stroke-width="1" rx="5" ry="5"/><text x="930" y="270" text-anchor="middle" dominant-baseline="middle" fill-opacity="20%">T40</text><rect x="965" y="245" width="50" height="50" stroke="black" fill="#ffebd3" stroke-width="1" rx="5" ry="5"/><text x="990" y="270" text-anchor="middle" dominant-baseline="middle" fill-opacity="20%">T41</text><rect x="5" y="305" width="50" height="50" stroke="black" fill="#d6fff8" stroke-width="1" rx="5" ry="5"/><text x="30" y="330" text-anchor="middle" dominant-baseline="middle" fill-opacity="20%">D3</text><rect x="65" y="305" width="50" height="50" stroke="black" fill="#ffebd3" stroke-width="1" rx="5" ry="5"/><text x="90" y="330" text-anchor="middle" dominant-baseline="middle" fill-opacity="20%">T42</text><rect x="125" y="305" width="50" height="50" stroke="black" fill="#ffebd3" stroke-width="1" rx="5" ry="5"/><text x="150" y="330" text-anchor="middle" dominant-baseline="middle" fill-opacity="20%">T43</text><rect x="185" y="305" width="50" height="50" stroke="black" fill="#ffebd3" stroke-width="1" rx="5" ry="5"/><text x="210" y="330" text-anchor="middle" dominant-baseline="middle" fill-opacity="20%">T44</text><rect x="245" y="305" width="50" height="50" stroke="black" fill="#ffebd3" stroke-width="1" rx="5" ry="5"/><text x="270" y="330" text-anchor="middle" dominant-baseline="middle" fill-opacity="20%">T45</text><rect x="305" y="305" width="50" height="50" stroke="black" fill="#ffebd3" stroke-width="1" rx="5" ry="5"/><text x="330" y="330" text-anchor="middle" dominant-baseline="middle" fill-opacity="20%">T46</text><rect x="365" y="305" width="50" height="50" stroke="black" fill="#ffebd3" stroke-width="1" rx="5" ry="5"/><text x="390" y="330" text-anchor="middle" dominant-baseline="middle" fill-opacity="20%">T47</text><rect x="425" y="305" width="50" height="50" stroke="black" fill="#ffebd3" stroke-width="1" rx="5" ry="5"/><text x="450" y="330" text-anchor="middle" dominant-baseline="middle" fill-opacity="20%">T48</text><rect x="485" y="305" width="50" height="50" stroke="black" fill="#d2fad2" stroke-width="1" rx="5" ry="5"/><text x="510" y="320" text-anchor="middle" dominant-baseline="middle" fill-opacity="20%">CPU</text><text x="510" y="340" text-anchor="middle" dominant-baseline="middle" fill-opacity="20%">8-11</text><rect x="545" y="305" width="50" height="50" stroke="black" fill="#d6fff8" stroke-width="1" rx="5" ry="5"/><text x="570" y="330" text-anchor="middle" dominant-baseline="middle" fill-opacity="20%">D7</text><rect x="605" y="305" width="50" height="50" stroke="black" fill="#ffebd3" stroke-width="1" rx="5" ry="5"/><text x="630" y="330" text-anchor="middle" dominant-baseline="middle" fill-opacity="20%">T49</text><rect x="665" y="305" width="50" height="50" stroke="black" fill="#ffebd3" stroke-width="1" rx="5" ry="5"/><text x="690" y="330" text-anchor="middle" dominant-baseline="middle" fill-opacity="20%">T50</text><rect x="725" y="305" width="50" height="50" stroke="black" fill="#ffebd3" stroke-width="1" rx="5" ry="5"/><text x="750" y="330" text-anchor="middle" dominant-baseline="middle" fill-opacity="20%">T51</text><rect x="785" y="305" width="50" height="50" stroke="black" fill="#ffebd3" stroke-width="1" rx="5" ry="5"/><text x="810" y="330" text-anchor="middle" dominant-baseline="middle" fill-opacity="20%">T52</text><rect x="845" y="305" width="50" height="50" stroke="black" fill="#ffebd3" stroke-width="1" rx="5" ry="5"/><text x="870" y="330" text-anchor="middle" dominant-baseline="middle" fill-opacity="20%">T53</text><rect x="905" y="305" width="50" height="50" stroke="black" fill="#ffebd3" stroke-width="1" rx="5" ry="5"/><text x="930" y="330" text-anchor="middle" dominant-baseline="middle" fill-opacity="20%">T54</text><rect x="965" y="305" width="50" height="50" stroke="black" fill="#ffebd3" stroke-width="1" rx="5" ry="5"/><text x="990" y="330" text-anchor="middle" dominant-baseline="middle" fill-opacity="20%">T55</text><rect x="5" y="365" width="50" height="50" stroke="black" fill="#d6fff8" stroke-width="1" rx="5" ry="5"/><text x="30" y="390" text-anchor="middle" dominant-baseline="middle" fill-opacity="20%">D3</text><rect x="65" y="365" width="50" height="50" stroke="black" fill="#ffebd3" stroke-width="1" rx="5" ry="5"/><text x="90" y="390" text-anchor="middle" dominant-baseline="middle" fill-opacity="20%">T56</text><rect x="125" y="365" width="50" height="50" stroke="black" fill="#ffebd3" stroke-width="1" rx="5" ry="5"/><text x="150" y="390" text-anchor="middle" dominant-baseline="middle" fill-opacity="20%">T57</text><rect x="185" y="365" width="50" height="50" stroke="black" fill="#ffebd3" stroke-width="1" rx="5" ry="5"/><text x="210" y="390" text-anchor="middle" dominant-baseline="middle" fill-opacity="20%">T58</text><rect x="245" y="365" width="50" height="50" stroke="black" fill="#ffebd3" stroke-width="1" rx="5" ry="5"/><text x="270" y="390" text-anchor="middle" dominant-baseline="middle" fill-opacity="20%">T59</text><rect x="305" y="365" width="50" height="50" stroke="black" fill="#ffebd3" stroke-width="1" rx="5" ry="5"/><text x="330" y="390" text-anchor="middle" dominant-baseline="middle" fill-opacity="20%">T60</text><rect x="365" y="365" width="50" height="50" stroke="black" fill="#ffebd3" stroke-width="1" rx="5" ry="5"/><text x="390" y="390" text-anchor="middle" dominant-baseline="middle" fill-opacity="20%">T61</text><rect x="425" y="365" width="50" height="50" stroke="black" fill="#ffebd3" stroke-width="1" rx="5" ry="5"/><text x="450" y="390" text-anchor="middle" dominant-baseline="middle" fill-opacity="20%">T62</text><rect x="485" y="365" width="50" height="50" stroke="black" fill="white" stroke-width="1" rx="5" ry="5"/><rect x="545" y="365" width="50" height="50" stroke="black" fill="#d6fff8" stroke-width="1" rx="5" ry="5"/><text x="570" y="390" text-anchor="middle" dominant-baseline="middle" fill-opacity="20%">D7</text><rect x="605" y="365" width="50" height="50" stroke="black" fill="#ffebd3" stroke-width="1" rx="5" ry="5"/><text x="630" y="390" text-anchor="middle" dominant-baseline="middle" fill-opacity="20%">T63</text><rect x="665" y="365" width="50" height="50" stroke="black" fill="#ffebd3" stroke-width="1" rx="5" ry="5"/><text x="690" y="390" text-anchor="middle" dominant-baseline="middle" fill-opacity="20%">T64</text><rect x="725" y="365" width="50" height="50" stroke="black" fill="#ffebd3" stroke-width="1" rx="5" ry="5"/><text x="750" y="390" text-anchor="middle" dominant-baseline="middle" fill-opacity="20%">T65</text><rect x="785" y="365" width="50" height="50" stroke="black" fill="#ffebd3" stroke-width="1" rx="5" ry="5"/><text x="810" y="390" text-anchor="middle" dominant-baseline="middle" fill-opacity="20%">T66</text><rect x="845" y="365" width="50" height="50" stroke="black" fill="#ffebd3" stroke-width="1" rx="5" ry="5"/><text x="870" y="390" text-anchor="middle" dominant-baseline="middle" fill-opacity="20%">T67</text><rect x="905" y="365" width="50" height="50" stroke="black" fill="#ffebd3" stroke-width="1" rx="5" ry="5"/><text x="930" y="390" text-anchor="middle" dominant-baseline="middle" fill-opacity="20%">T68</text><rect x="965" y="365" width="50" height="50" stroke="black" fill="#ffebd3" stroke-width="1" rx="5" ry="5"/><text x="990" y="390" text-anchor="middle" dominant-baseline="middle" fill-opacity="20%">T69</text><rect x="5" y="425" width="50" height="50" stroke="black" fill="#d6fff8" stroke-width="1" rx="5" ry="5"/><text x="30" y="450" text-anchor="middle" dominant-baseline="middle" fill-opacity="20%">D3</text><rect x="65" y="425" width="50" height="50" stroke="black" fill="#ffebd3" stroke-width="1" rx="5" ry="5"/><text x="90" y="450" text-anchor="middle" dominant-baseline="middle" fill-opacity="20%">T70</text><rect x="125" y="425" width="50" height="50" stroke="black" fill="#ffebd3" stroke-width="1" rx="5" ry="5"/><text x="150" y="450" text-anchor="middle" dominant-baseline="middle" fill-opacity="20%">T71</text><rect x="185" y="425" width="50" height="50" stroke="black" fill="#ffebd3" stroke-width="1" rx="5" ry="5"/><text x="210" y="450" text-anchor="middle" dominant-baseline="middle" fill-opacity="20%">T72</text><rect x="245" y="425" width="50" height="50" stroke="black" fill="#ffebd3" stroke-width="1" rx="5" ry="5"/><text x="270" y="450" text-anchor="middle" dominant-baseline="middle" fill-opacity="20%">T73</text><rect x="305" y="425" width="50" height="50" stroke="black" fill="#ffebd3" stroke-width="1" rx="5" ry="5"/><text x="330" y="450" text-anchor="middle" dominant-baseline="middle" fill-opacity="20%">T74</text><rect x="365" y="425" width="50" height="50" stroke="black" fill="#ffebd3" stroke-width="1" rx="5" ry="5"/><text x="390" y="450" text-anchor="middle" dominant-baseline="middle" fill-opacity="20%">T75</text><rect x="425" y="425" width="50" height="50" stroke="black" fill="#ffebd3" stroke-width="1" rx="5" ry="5"/><text x="450" y="450" text-anchor="middle" dominant-baseline="middle" fill-opacity="20%">T76</text><rect x="485" y="425" width="50" height="50" stroke="black" fill="#d2fad2" stroke-width="1" rx="5" ry="5"/><text x="510" y="440" text-anchor="middle" dominant-baseline="middle" fill-opacity="20%">CPU</text><text x="510" y="460" text-anchor="middle" dominant-baseline="middle" fill-opacity="20%">12-15</text><rect x="545" y="425" width="50" height="50" stroke="black" fill="#d6fff8" stroke-width="1" rx="5" ry="5"/><text x="570" y="450" text-anchor="middle" dominant-baseline="middle" fill-opacity="20%">D7</text><rect x="605" y="425" width="50" height="50" stroke="black" fill="#ffebd3" stroke-width="1" rx="5" ry="5"/><text x="630" y="450" text-anchor="middle" dominant-baseline="middle" fill-opacity="20%">T77</text><rect x="665" y="425" width="50" height="50" stroke="black" fill="#ffebd3" stroke-width="1" rx="5" ry="5"/><text x="690" y="450" text-anchor="middle" dominant-baseline="middle" fill-opacity="20%">T78</text><rect x="725" y="425" width="50" height="50" stroke="black" fill="#ffebd3" stroke-width="1" rx="5" ry="5"/><text x="750" y="450" text-anchor="middle" dominant-baseline="middle" fill-opacity="20%">T79</text><rect x="785" y="425" width="50" height="50" stroke="black" fill="#ffebd3" stroke-width="1" rx="5" ry="5"/><text x="810" y="450" text-anchor="middle" dominant-baseline="middle" fill-opacity="20%">T80</text><rect x="845" y="425" width="50" height="50" stroke="black" fill="#ffebd3" stroke-width="1" rx="5" ry="5"/><text x="870" y="450" text-anchor="middle" dominant-baseline="middle" fill-opacity="20%">T81</text><rect x="905" y="425" width="50" height="50" stroke="black" fill="#ffebd3" stroke-width="1" rx="5" ry="5"/><text x="930" y="450" text-anchor="middle" dominant-baseline="middle" fill-opacity="20%">T82</text><rect x="965" y="425" width="50" height="50" stroke="black" fill="#ffebd3" stroke-width="1" rx="5" ry="5"/><text x="990" y="450" text-anchor="middle" dominant-baseline="middle" fill-opacity="20%">T83</text><rect x="5" y="485" width="50" height="50" stroke="black" fill="#d6fff8" stroke-width="1" rx="5" ry="5"/><text x="30" y="510" text-anchor="middle" dominant-baseline="middle" fill-opacity="20%">D2</text><rect x="65" y="485" width="50" height="50" stroke="black" fill="#ffebd3" stroke-width="1" rx="5" ry="5"/><text x="90" y="510" text-anchor="middle" dominant-baseline="middle" fill-opacity="20%">T84</text><rect x="125" y="485" width="50" height="50" stroke="black" fill="#ffebd3" stroke-width="1" rx="5" ry="5"/><text x="150" y="510" text-anchor="middle" dominant-baseline="middle" fill-opacity="20%">T85</text><rect x="185" y="485" width="50" height="50" stroke="black" fill="#ffebd3" stroke-width="1" rx="5" ry="5"/><text x="210" y="510" text-anchor="middle" dominant-baseline="middle" fill-opacity="20%">T86</text><rect x="245" y="485" width="50" height="50" stroke="black" fill="#ffebd3" stroke-width="1" rx="5" ry="5"/><text x="270" y="510" text-anchor="middle" dominant-baseline="middle" fill-opacity="20%">T87</text><rect x="305" y="485" width="50" height="50" stroke="black" fill="#ffebd3" stroke-width="1" rx="5" ry="5"/><text x="330" y="510" text-anchor="middle" dominant-baseline="middle" fill-opacity="20%">T88</text><rect x="365" y="485" width="50" height="50" stroke="black" fill="#ffebd3" stroke-width="1" rx="5" ry="5"/><text x="390" y="510" text-anchor="middle" dominant-baseline="middle" fill-opacity="20%">T89</text><rect x="425" y="485" width="50" height="50" stroke="black" fill="#ffebd3" stroke-width="1" rx="5" ry="5"/><text x="450" y="510" text-anchor="middle" dominant-baseline="middle" fill-opacity="20%">T90</text><rect x="485" y="485" width="50" height="50" stroke="black" fill="white" stroke-width="1" rx="5" ry="5"/><rect x="545" y="485" width="50" height="50" stroke="black" fill="#d6fff8" stroke-width="1" rx="5" ry="5"/><text x="570" y="510" text-anchor="middle" dominant-baseline="middle" fill-opacity="20%">D6</text><rect x="605" y="485" width="50" height="50" stroke="black" fill="#ffebd3" stroke-width="1" rx="5" ry="5"/><text x="630" y="510" text-anchor="middle" dominant-baseline="middle" fill-opacity="20%">T91</text><rect x="665" y="485" width="50" height="50" stroke="black" fill="#ffebd3" stroke-width="1" rx="5" ry="5"/><text x="690" y="510" text-anchor="middle" dominant-baseline="middle" fill-opacity="20%">T92</text><rect x="725" y="485" width="50" height="50" stroke="black" fill="#ffebd3" stroke-width="1" rx="5" ry="5"/><text x="750" y="510" text-anchor="middle" dominant-baseline="middle" fill-opacity="20%">T93</text><rect x="785" y="485" width="50" height="50" stroke="black" fill="#ffebd3" stroke-width="1" rx="5" ry="5"/><text x="810" y="510" text-anchor="middle" dominant-baseline="middle" fill-opacity="20%">T94</text><rect x="845" y="485" width="50" height="50" stroke="black" fill="#ffebd3" stroke-width="1" rx="5" ry="5"/><text x="870" y="510" text-anchor="middle" dominant-baseline="middle" fill-opacity="20%">T95</text><rect x="905" y="485" width="50" height="50" stroke="black" fill="#ffebd3" stroke-width="1" rx="5" ry="5"/><text x="930" y="510" text-anchor="middle" dominant-baseline="middle" fill-opacity="20%">T96</text><rect x="965" y="485" width="50" height="50" stroke="black" fill="#ffebd3" stroke-width="1" rx="5" ry="5"/><text x="990" y="510" text-anchor="middle" dominant-baseline="middle" fill-opacity="20%">T97</text><rect x="5" y="545" width="50" height="50" stroke="black" fill="#d6fff8" stroke-width="1" rx="5" ry="5"/><text x="30" y="570" text-anchor="middle" dominant-baseline="middle" fill-opacity="20%">D2</text><rect x="65" y="545" width="50" height="50" stroke="black" fill="#ffebd3" stroke-width="1" rx="5" ry="5"/><text x="90" y="570" text-anchor="middle" dominant-baseline="middle" fill-opacity="20%">T98</text><rect x="125" y="545" width="50" height="50" stroke="black" fill="#ffebd3" stroke-width="1" rx="5" ry="5"/><text x="150" y="570" text-anchor="middle" dominant-baseline="middle" fill-opacity="20%">T99</text><rect x="185" y="545" width="50" height="50" stroke="black" fill="#ffebd3" stroke-width="1" rx="5" ry="5"/><text x="210" y="570" text-anchor="middle" dominant-baseline="middle" fill-opacity="20%">T100</text><rect x="245" y="545" width="50" height="50" stroke="black" fill="#ffebd3" stroke-width="1" rx="5" ry="5"/><text x="270" y="570" text-anchor="middle" dominant-baseline="middle" fill-opacity="20%">T101</text><rect x="305" y="545" width="50" height="50" stroke="black" fill="#ffebd3" stroke-width="1" rx="5" ry="5"/><text x="330" y="570" text-anchor="middle" dominant-baseline="middle" fill-opacity="20%">T102</text><rect x="365" y="545" width="50" height="50" stroke="black" fill="#ffebd3" stroke-width="1" rx="5" ry="5"/><text x="390" y="570" text-anchor="middle" dominant-baseline="middle" fill-opacity="20%">T103</text><rect x="425" y="545" width="50" height="50" stroke="black" fill="#ffebd3" stroke-width="1" rx="5" ry="5"/><text x="450" y="570" text-anchor="middle" dominant-baseline="middle" fill-opacity="20%">T104</text><rect x="485" y="545" width="50" height="50" stroke="black" fill="#d2fad2" stroke-width="1" rx="5" ry="5"/><text x="510" y="560" text-anchor="middle" dominant-baseline="middle" fill-opacity="20%">CPU</text><text x="510" y="580" text-anchor="middle" dominant-baseline="middle" fill-opacity="20%">4-7</text><rect x="545" y="545" width="50" height="50" stroke="black" fill="#d6fff8" stroke-width="1" rx="5" ry="5"/><text x="570" y="570" text-anchor="middle" dominant-baseline="middle" fill-opacity="20%">D6</text><rect x="605" y="545" width="50" height="50" stroke="black" fill="#ffebd3" stroke-width="1" rx="5" ry="5"/><text x="630" y="570" text-anchor="middle" dominant-baseline="middle" fill-opacity="20%">T105</text><rect x="665" y="545" width="50" height="50" stroke="black" fill="#ffebd3" stroke-width="1" rx="5" ry="5"/><text x="690" y="570" text-anchor="middle" dominant-baseline="middle" fill-opacity="20%">T106</text><rect x="725" y="545" width="50" height="50" stroke="black" fill="#ffebd3" stroke-width="1" rx="5" ry="5"/><text x="750" y="570" text-anchor="middle" dominant-baseline="middle" fill-opacity="20%">T107</text><rect x="785" y="545" width="50" height="50" stroke="black" fill="#ffebd3" stroke-width="1" rx="5" ry="5"/><text x="810" y="570" text-anchor="middle" dominant-baseline="middle" fill-opacity="20%">T108</text><rect x="845" y="545" width="50" height="50" stroke="black" fill="#ffebd3" stroke-width="1" rx="5" ry="5"/><text x="870" y="570" text-anchor="middle" dominant-baseline="middle" fill-opacity="20%">T109</text><rect x="905" y="545" width="50" height="50" stroke="black" fill="#ffebd3" stroke-width="1" rx="5" ry="5"/><text x="930" y="570" text-anchor="middle" dominant-baseline="middle" fill-opacity="20%">T110</text><rect x="965" y="545" width="50" height="50" stroke="black" fill="#ffebd3" stroke-width="1" rx="5" ry="5"/><text x="990" y="570" text-anchor="middle" dominant-baseline="middle" fill-opacity="20%">T111</text><rect x="5" y="605" width="50" height="50" stroke="black" fill="#d6fff8" stroke-width="1" rx="5" ry="5"/><text x="30" y="630" text-anchor="middle" dominant-baseline="middle" fill-opacity="20%">D1</text><rect x="65" y="605" width="50" height="50" stroke="black" fill="#ffebd3" stroke-width="1" rx="5" ry="5"/><text x="90" y="630" text-anchor="middle" dominant-baseline="middle" fill-opacity="20%">T112</text><rect x="125" y="605" width="50" height="50" stroke="black" fill="#ffebd3" stroke-width="1" rx="5" ry="5"/><text x="150" y="630" text-anchor="middle" dominant-baseline="middle" fill-opacity="20%">T113</text><rect x="185" y="605" width="50" height="50" stroke="black" fill="#ffebd3" stroke-width="1" rx="5" ry="5"/><text x="210" y="630" text-anchor="middle" dominant-baseline="middle" fill-opacity="20%">T114</text><rect x="245" y="605" width="50" height="50" stroke="black" fill="#ffebd3" stroke-width="1" rx="5" ry="5"/><text x="270" y="630" text-anchor="middle" dominant-baseline="middle" fill-opacity="20%">T115</text><rect x="305" y="605" width="50" height="50" stroke="black" fill="#ffebd3" stroke-width="1" rx="5" ry="5"/><text x="330" y="630" text-anchor="middle" dominant-baseline="middle" fill-opacity="20%">T116</text><rect x="365" y="605" width="50" height="50" stroke="black" fill="#ffebd3" stroke-width="1" rx="5" ry="5"/><text x="390" y="630" text-anchor="middle" dominant-baseline="middle" fill-opacity="20%">T117</text><rect x="425" y="605" width="50" height="50" stroke="black" fill="#ffebd3" stroke-width="1" rx="5" ry="5"/><text x="450" y="630" text-anchor="middle" dominant-baseline="middle" fill-opacity="20%">T118</text><rect x="485" y="605" width="50" height="50" stroke="black" fill="white" stroke-width="1" rx="5" ry="5"/><rect x="545" y="605" width="50" height="50" stroke="black" fill="#d6fff8" stroke-width="1" rx="5" ry="5"/><text x="570" y="630" text-anchor="middle" dominant-baseline="middle" fill-opacity="20%">D5</text><rect x="605" y="605" width="50" height="50" stroke="black" fill="#ffebd3" stroke-width="1" rx="5" ry="5"/><text x="630" y="630" text-anchor="middle" dominant-baseline="middle" fill-opacity="20%">T119</text><rect x="665" y="605" width="50" height="50" stroke="black" fill="#ffebd3" stroke-width="1" rx="5" ry="5"/><text x="690" y="630" text-anchor="middle" dominant-baseline="middle" fill-opacity="20%">T120</text><rect x="725" y="605" width="50" height="50" stroke="black" fill="#ffebd3" stroke-width="1" rx="5" ry="5"/><text x="750" y="630" text-anchor="middle" dominant-baseline="middle" fill-opacity="20%">T121</text><rect x="785" y="605" width="50" height="50" stroke="black" fill="#ffebd3" stroke-width="1" rx="5" ry="5"/><text x="810" y="630" text-anchor="middle" dominant-baseline="middle" fill-opacity="20%">T122</text><rect x="845" y="605" width="50" height="50" stroke="black" fill="#ffebd3" stroke-width="1" rx="5" ry="5"/><text x="870" y="630" text-anchor="middle" dominant-baseline="middle" fill-opacity="20%">T123</text><rect x="905" y="605" width="50" height="50" stroke="black" fill="#ffebd3" stroke-width="1" rx="5" ry="5"/><text x="930" y="630" text-anchor="middle" dominant-baseline="middle" fill-opacity="20%">T124</text><rect x="965" y="605" width="50" height="50" stroke="black" fill="#ffebd3" stroke-width="1" rx="5" ry="5"/><text x="990" y="630" text-anchor="middle" dominant-baseline="middle" fill-opacity="20%">T125</text><rect x="5" y="665" width="50" height="50" stroke="black" fill="#d6fff8" stroke-width="1" rx="5" ry="5"/><text x="30" y="690" text-anchor="middle" dominant-baseline="middle" fill-opacity="20%">D0</text><rect x="65" y="665" width="50" height="50" stroke="black" fill="#ffebd3" stroke-width="1" rx="5" ry="5"/><text x="90" y="690" text-anchor="middle" dominant-baseline="middle" fill-opacity="20%">T126</text><rect x="125" y="665" width="50" height="50" stroke="black" fill="#ffebd3" stroke-width="1" rx="5" ry="5"/><text x="150" y="690" text-anchor="middle" dominant-baseline="middle" fill-opacity="20%">T127</text><rect x="185" y="665" width="50" height="50" stroke="black" fill="#ffebd3" stroke-width="1" rx="5" ry="5"/><text x="210" y="690" text-anchor="middle" dominant-baseline="middle" fill-opacity="20%">T128</text><rect x="245" y="665" width="50" height="50" stroke="black" fill="#ffebd3" stroke-width="1" rx="5" ry="5"/><text x="270" y="690" text-anchor="middle" dominant-baseline="middle" fill-opacity="20%">T129</text><rect x="305" y="665" width="50" height="50" stroke="black" fill="#ffebd3" stroke-width="1" rx="5" ry="5"/><text x="330" y="690" text-anchor="middle" dominant-baseline="middle" fill-opacity="20%">T130</text><rect x="365" y="665" width="50" height="50" stroke="black" fill="#ffebd3" stroke-width="1" rx="5" ry="5"/><text x="390" y="690" text-anchor="middle" dominant-baseline="middle" fill-opacity="20%">T131</text><rect x="425" y="665" width="50" height="50" stroke="black" fill="#ffebd3" stroke-width="1" rx="5" ry="5"/><text x="450" y="690" text-anchor="middle" dominant-baseline="middle" fill-opacity="20%">T132</text><rect x="485" y="665" width="50" height="50" stroke="black" fill="white" stroke-width="1" rx="5" ry="5"/><rect x="545" y="665" width="50" height="50" stroke="black" fill="#d6fff8" stroke-width="1" rx="5" ry="5"/><text x="570" y="690" text-anchor="middle" dominant-baseline="middle" fill-opacity="20%">D4</text><rect x="605" y="665" width="50" height="50" stroke="black" fill="#ffebd3" stroke-width="1" rx="5" ry="5"/><text x="630" y="690" text-anchor="middle" dominant-baseline="middle" fill-opacity="20%">T133</text><rect x="665" y="665" width="50" height="50" stroke="black" fill="#ffebd3" stroke-width="1" rx="5" ry="5"/><text x="690" y="690" text-anchor="middle" dominant-baseline="middle" fill-opacity="20%">T134</text><rect x="725" y="665" width="50" height="50" stroke="black" fill="#ffebd3" stroke-width="1" rx="5" ry="5"/><text x="750" y="690" text-anchor="middle" dominant-baseline="middle" fill-opacity="20%">T135</text><rect x="785" y="665" width="50" height="50" stroke="black" fill="#ffebd3" stroke-width="1" rx="5" ry="5"/><text x="810" y="690" text-anchor="middle" dominant-baseline="middle" fill-opacity="20%">T136</text><rect x="845" y="665" width="50" height="50" stroke="black" fill="#ffebd3" stroke-width="1" rx="5" ry="5"/><text x="870" y="690" text-anchor="middle" dominant-baseline="middle" fill-opacity="20%">T137</text><rect x="905" y="665" width="50" height="50" stroke="black" fill="#ffebd3" stroke-width="1" rx="5" ry="5"/><text x="930" y="690" text-anchor="middle" dominant-baseline="middle" fill-opacity="20%">T138</text><rect x="965" y="665" width="50" height="50" stroke="black" fill="#ffebd3" stroke-width="1" rx="5" ry="5"/><text x="990" y="690" text-anchor="middle" dominant-baseline="middle" fill-opacity="20%">T139</text><path d="M 5 722 L 5 718 L -1 724 L 5 730 L 5 726 L 1015 726 L 1015 722 Z" stroke="transparent" fill="#06829e" stroke-width="1"/>
<path d="M 1026 5 L 1030 5 L 1024 -1 L 1018 5 L 1022 5 L 1022 715 L 1026 715 Z" stroke="transparent" fill="#06829e" stroke-width="1"/>
<text x="150" y="728" text-anchor="middle" dominant-baseline="hanging" fill="#06829e">x = 19</text><text x="1028" y="30" text-anchor="start" dominant-baseline="middle" fill="#06829e">y = 24</text></g>
</svg>
