<svg version="1.1" width="1021" height="721" xmlns="http://www.w3.org/2000/svg"><rect width="1021" height="721" rx="15" stroke="transparent" fill="white"/><g transform="translate(0.5 0.5)">
<rect x="5" y="5" width="50" height="50" stroke="black" fill="#d6fff8" stroke-width="1" rx="5" ry="5"/><text x="30" y="30" text-anchor="middle" dominant-baseline="middle">D0</text><rect x="65" y="5" width="50" height="50" stroke="black" fill="white" stroke-width="1" rx="5" ry="5"/><rect x="125" y="5" width="50" height="50" stroke="black" fill="#ffd3e2" stroke-width="1" rx="5" ry="5"/><text x="150" y="20" text-anchor="middle" dominant-baseline="middle">PCIe</text><text x="150" y="40" text-anchor="middle" dominant-baseline="middle">0</text><rect x="185" y="5" width="50" height="50" stroke="black" fill="white" stroke-width="1" rx="5" ry="5"/><rect x="245" y="5" width="50" height="50" stroke="black" fill="white" stroke-width="1" rx="5" ry="5"/><rect x="305" y="5" width="50" height="50" stroke="black" fill="white" stroke-width="1" rx="5" ry="5"/><rect x="365" y="5" width="50" height="50" stroke="black" fill="white" stroke-width="1" rx="5" ry="5"/><rect x="425" y="5" width="50" height="50" stroke="black" fill="white" stroke-width="1" rx="5" ry="5"/><rect x="485" y="5" width="50" height="50" stroke="black" fill="#f2fad3" stroke-width="1" rx="5" ry="5"/><text x="510" y="30" text-anchor="middle" dominant-baseline="middle">ARC</text><rect x="545" y="5" width="50" height="50" stroke="black" fill="#d6fff8" stroke-width="1" rx="5" ry="5"/><text x="570" y="30" text-anchor="middle" dominant-baseline="middle">D4</text><rect x="605" y="5" width="50" height="50" stroke="black" fill="white" stroke-width="1" rx="5" ry="5"/><rect x="665" y="5" width="50" height="50" stroke="black" fill="#ffd3e2" stroke-width="1" rx="5" ry="5"/><text x="690" y="20" text-anchor="middle" dominant-baseline="middle">PCIe</text><text x="690" y="40" text-anchor="middle" dominant-baseline="middle">1</text><rect x="725" y="5" width="50" height="50" stroke="black" fill="white" stroke-width="1" rx="5" ry="5"/><rect x="785" y="5" width="50" height="50" stroke="black" fill="white" stroke-width="1" rx="5" ry="5"/><rect x="845" y="5" width="50" height="50" stroke="black" fill="white" stroke-width="1" rx="5" ry="5"/><rect x="905" y="5" width="50" height="50" stroke="black" fill="white" stroke-width="1" rx="5" ry="5"/><rect x="965" y="5" width="50" height="50" stroke="black" fill="white" stroke-width="1" rx="5" ry="5"/><rect x="5" y="65" width="50" height="50" stroke="black" fill="#d6fff8" stroke-width="1" rx="5" ry="5"/><text x="30" y="90" text-anchor="middle" dominant-baseline="middle">D0</text><rect x="65" y="65" width="50" height="50" stroke="black" fill="#dae4ff" stroke-width="1" rx="5" ry="5"/><text x="90" y="90" text-anchor="middle" dominant-baseline="middle">E0</text><rect x="125" y="65" width="50" height="50" stroke="black" fill="#dae4ff" stroke-width="1" rx="5" ry="5"/><text x="150" y="90" text-anchor="middle" dominant-baseline="middle">E2</text><rect x="185" y="65" width="50" height="50" stroke="black" fill="#dae4ff" stroke-width="1" rx="5" ry="5"/><text x="210" y="90" text-anchor="middle" dominant-baseline="middle">E4</text><rect x="245" y="65" width="50" height="50" stroke="black" fill="#dae4ff" stroke-width="1" rx="5" ry="5"/><text x="270" y="90" text-anchor="middle" dominant-baseline="middle">E6</text><rect x="305" y="65" width="50" height="50" stroke="black" fill="#dae4ff" stroke-width="1" rx="5" ry="5"/><text x="330" y="90" text-anchor="middle" dominant-baseline="middle">E8</text><rect x="365" y="65" width="50" height="50" stroke="black" fill="#dae4ff" stroke-width="1" rx="5" ry="5"/><text x="390" y="90" text-anchor="middle" dominant-baseline="middle">E10</text><rect x="425" y="65" width="50" height="50" stroke="black" fill="#dae4ff" stroke-width="1" rx="5" ry="5"/><text x="450" y="90" text-anchor="middle" dominant-baseline="middle">E12</text><rect x="485" y="65" width="50" height="50" stroke="black" fill="white" stroke-width="1" rx="5" ry="5"/><rect x="545" y="65" width="50" height="50" stroke="black" fill="#d6fff8" stroke-width="1" rx="5" ry="5"/><text x="570" y="90" text-anchor="middle" dominant-baseline="middle">D4</text><rect x="605" y="65" width="50" height="50" stroke="black" fill="#dae4ff" stroke-width="1" rx="5" ry="5"/><text x="630" y="90" text-anchor="middle" dominant-baseline="middle">E13</text><rect x="665" y="65" width="50" height="50" stroke="black" fill="#dae4ff" stroke-width="1" rx="5" ry="5"/><text x="690" y="90" text-anchor="middle" dominant-baseline="middle">E11</text><rect x="725" y="65" width="50" height="50" stroke="black" fill="#dae4ff" stroke-width="1" rx="5" ry="5"/><text x="750" y="90" text-anchor="middle" dominant-baseline="middle">E9</text><rect x="785" y="65" width="50" height="50" stroke="black" fill="#dae4ff" stroke-width="1" rx="5" ry="5"/><text x="810" y="90" text-anchor="middle" dominant-baseline="middle">E7</text><rect x="845" y="65" width="50" height="50" stroke="black" fill="#dae4ff" stroke-width="1" rx="5" ry="5"/><text x="870" y="90" text-anchor="middle" dominant-baseline="middle">E5</text><rect x="905" y="65" width="50" height="50" stroke="black" fill="#dae4ff" stroke-width="1" rx="5" ry="5"/><text x="930" y="90" text-anchor="middle" dominant-baseline="middle">E3</text><rect x="965" y="65" width="50" height="50" stroke="black" fill="#dae4ff" stroke-width="1" rx="5" ry="5"/><text x="990" y="90" text-anchor="middle" dominant-baseline="middle">E1</text><rect x="5" y="125" width="50" height="50" stroke="black" fill="#d6fff8" stroke-width="1" rx="5" ry="5"/><text x="30" y="150" text-anchor="middle" dominant-baseline="middle">D1</text><rect x="65" y="125" width="50" height="50" stroke="black" fill="#ffebd3" stroke-width="1" rx="5" ry="5"/><text x="90" y="150" text-anchor="middle" dominant-baseline="middle">T0</text><rect x="125" y="125" width="50" height="50" stroke="black" fill="#ffebd3" stroke-width="1" rx="5" ry="5"/><text x="150" y="150" text-anchor="middle" dominant-baseline="middle">T1</text><rect x="185" y="125" width="50" height="50" stroke="black" fill="#ffebd3" stroke-width="1" rx="5" ry="5"/><text x="210" y="150" text-anchor="middle" dominant-baseline="middle">T2</text><rect x="245" y="125" width="50" height="50" stroke="black" fill="#ffebd3" stroke-width="1" rx="5" ry="5"/><text x="270" y="150" text-anchor="middle" dominant-baseline="middle">T3</text><rect x="305" y="125" width="50" height="50" stroke="black" fill="#ffebd3" stroke-width="1" rx="5" ry="5"/><text x="330" y="150" text-anchor="middle" dominant-baseline="middle">T4</text><rect x="365" y="125" width="50" height="50" stroke="black" fill="#ffebd3" stroke-width="1" rx="5" ry="5"/><text x="390" y="150" text-anchor="middle" dominant-baseline="middle">T5</text><rect x="425" y="125" width="50" height="50" stroke="black" fill="#ffebd3" stroke-width="1" rx="5" ry="5"/><text x="450" y="150" text-anchor="middle" dominant-baseline="middle">T6</text><rect x="485" y="125" width="50" height="50" stroke="black" fill="#ffd4f9" stroke-width="1" rx="5" ry="5"/><text x="510" y="150" text-anchor="middle" dominant-baseline="middle">SEC</text><rect x="545" y="125" width="50" height="50" stroke="black" fill="#d6fff8" stroke-width="1" rx="5" ry="5"/><text x="570" y="150" text-anchor="middle" dominant-baseline="middle">D5</text><rect x="605" y="125" width="50" height="50" stroke="black" fill="#ffebd3" stroke-width="1" rx="5" ry="5"/><text x="630" y="150" text-anchor="middle" dominant-baseline="middle">T7</text><rect x="665" y="125" width="50" height="50" stroke="black" fill="#ffebd3" stroke-width="1" rx="5" ry="5"/><text x="690" y="150" text-anchor="middle" dominant-baseline="middle">T8</text><rect x="725" y="125" width="50" height="50" stroke="black" fill="#ffebd3" stroke-width="1" rx="5" ry="5"/><text x="750" y="150" text-anchor="middle" dominant-baseline="middle">T9</text><rect x="785" y="125" width="50" height="50" stroke="black" fill="#ffebd3" stroke-width="1" rx="5" ry="5"/><text x="810" y="150" text-anchor="middle" dominant-baseline="middle">T10</text><rect x="845" y="125" width="50" height="50" stroke="black" fill="#ffebd3" stroke-width="1" rx="5" ry="5"/><text x="870" y="150" text-anchor="middle" dominant-baseline="middle">T11</text><rect x="905" y="125" width="50" height="50" stroke="black" fill="#ffebd3" stroke-width="1" rx="5" ry="5"/><text x="930" y="150" text-anchor="middle" dominant-baseline="middle">T12</text><rect x="965" y="125" width="50" height="50" stroke="black" fill="#ffebd3" stroke-width="1" rx="5" ry="5"/><text x="990" y="150" text-anchor="middle" dominant-baseline="middle">T13</text><rect x="5" y="185" width="50" height="50" stroke="black" fill="#d6fff8" stroke-width="1" rx="5" ry="5"/><text x="30" y="210" text-anchor="middle" dominant-baseline="middle">D1</text><rect x="65" y="185" width="50" height="50" stroke="black" fill="#ffebd3" stroke-width="1" rx="5" ry="5"/><text x="90" y="210" text-anchor="middle" dominant-baseline="middle">T14</text><rect x="125" y="185" width="50" height="50" stroke="black" fill="#ffebd3" stroke-width="1" rx="5" ry="5"/><text x="150" y="210" text-anchor="middle" dominant-baseline="middle">T15</text><rect x="185" y="185" width="50" height="50" stroke="black" fill="#ffebd3" stroke-width="1" rx="5" ry="5"/><text x="210" y="210" text-anchor="middle" dominant-baseline="middle">T16</text><rect x="245" y="185" width="50" height="50" stroke="black" fill="#ffebd3" stroke-width="1" rx="5" ry="5"/><text x="270" y="210" text-anchor="middle" dominant-baseline="middle">T17</text><rect x="305" y="185" width="50" height="50" stroke="black" fill="#ffebd3" stroke-width="1" rx="5" ry="5"/><text x="330" y="210" text-anchor="middle" dominant-baseline="middle">T18</text><rect x="365" y="185" width="50" height="50" stroke="black" fill="#ffebd3" stroke-width="1" rx="5" ry="5"/><text x="390" y="210" text-anchor="middle" dominant-baseline="middle">T19</text><rect x="425" y="185" width="50" height="50" stroke="black" fill="#ffebd3" stroke-width="1" rx="5" ry="5"/><text x="450" y="210" text-anchor="middle" dominant-baseline="middle">T20</text><rect x="485" y="185" width="50" height="50" stroke="black" fill="#d2fad2" stroke-width="1" rx="5" ry="5"/><text x="510" y="200" text-anchor="middle" dominant-baseline="middle">CPU</text><text x="510" y="220" text-anchor="middle" dominant-baseline="middle">0-3</text><rect x="545" y="185" width="50" height="50" stroke="black" fill="#d6fff8" stroke-width="1" rx="5" ry="5"/><text x="570" y="210" text-anchor="middle" dominant-baseline="middle">D5</text><rect x="605" y="185" width="50" height="50" stroke="black" fill="#ffebd3" stroke-width="1" rx="5" ry="5"/><text x="630" y="210" text-anchor="middle" dominant-baseline="middle">T21</text><rect x="665" y="185" width="50" height="50" stroke="black" fill="#ffebd3" stroke-width="1" rx="5" ry="5"/><text x="690" y="210" text-anchor="middle" dominant-baseline="middle">T22</text><rect x="725" y="185" width="50" height="50" stroke="black" fill="#ffebd3" stroke-width="1" rx="5" ry="5"/><text x="750" y="210" text-anchor="middle" dominant-baseline="middle">T23</text><rect x="785" y="185" width="50" height="50" stroke="black" fill="#ffebd3" stroke-width="1" rx="5" ry="5"/><text x="810" y="210" text-anchor="middle" dominant-baseline="middle">T24</text><rect x="845" y="185" width="50" height="50" stroke="black" fill="#ffebd3" stroke-width="1" rx="5" ry="5"/><text x="870" y="210" text-anchor="middle" dominant-baseline="middle">T25</text><rect x="905" y="185" width="50" height="50" stroke="black" fill="#ffebd3" stroke-width="1" rx="5" ry="5"/><text x="930" y="210" text-anchor="middle" dominant-baseline="middle">T26</text><rect x="965" y="185" width="50" height="50" stroke="black" fill="#ffebd3" stroke-width="1" rx="5" ry="5"/><text x="990" y="210" text-anchor="middle" dominant-baseline="middle">T27</text><rect x="5" y="245" width="50" height="50" stroke="black" fill="#d6fff8" stroke-width="1" rx="5" ry="5"/><text x="30" y="270" text-anchor="middle" dominant-baseline="middle">D2</text><rect x="65" y="245" width="50" height="50" stroke="black" fill="#ffebd3" stroke-width="1" rx="5" ry="5"/><text x="90" y="270" text-anchor="middle" dominant-baseline="middle">T28</text><rect x="125" y="245" width="50" height="50" stroke="black" fill="#ffebd3" stroke-width="1" rx="5" ry="5"/><text x="150" y="270" text-anchor="middle" dominant-baseline="middle">T29</text><rect x="185" y="245" width="50" height="50" stroke="black" fill="#ffebd3" stroke-width="1" rx="5" ry="5"/><text x="210" y="270" text-anchor="middle" dominant-baseline="middle">T30</text><rect x="245" y="245" width="50" height="50" stroke="black" fill="#ffebd3" stroke-width="1" rx="5" ry="5"/><text x="270" y="270" text-anchor="middle" dominant-baseline="middle">T31</text><rect x="305" y="245" width="50" height="50" stroke="black" fill="#ffebd3" stroke-width="1" rx="5" ry="5"/><text x="330" y="270" text-anchor="middle" dominant-baseline="middle">T32</text><rect x="365" y="245" width="50" height="50" stroke="black" fill="#ffebd3" stroke-width="1" rx="5" ry="5"/><text x="390" y="270" text-anchor="middle" dominant-baseline="middle">T33</text><rect x="425" y="245" width="50" height="50" stroke="black" fill="#ffebd3" stroke-width="1" rx="5" ry="5"/><text x="450" y="270" text-anchor="middle" dominant-baseline="middle">T34</text><rect x="485" y="245" width="50" height="50" stroke="black" fill="white" stroke-width="1" rx="5" ry="5"/><rect x="545" y="245" width="50" height="50" stroke="black" fill="#d6fff8" stroke-width="1" rx="5" ry="5"/><text x="570" y="270" text-anchor="middle" dominant-baseline="middle">D6</text><rect x="605" y="245" width="50" height="50" stroke="black" fill="#ffebd3" stroke-width="1" rx="5" ry="5"/><text x="630" y="270" text-anchor="middle" dominant-baseline="middle">T35</text><rect x="665" y="245" width="50" height="50" stroke="black" fill="#ffebd3" stroke-width="1" rx="5" ry="5"/><text x="690" y="270" text-anchor="middle" dominant-baseline="middle">T36</text><rect x="725" y="245" width="50" height="50" stroke="black" fill="#ffebd3" stroke-width="1" rx="5" ry="5"/><text x="750" y="270" text-anchor="middle" dominant-baseline="middle">T37</text><rect x="785" y="245" width="50" height="50" stroke="black" fill="#ffebd3" stroke-width="1" rx="5" ry="5"/><text x="810" y="270" text-anchor="middle" dominant-baseline="middle">T38</text><rect x="845" y="245" width="50" height="50" stroke="black" fill="#ffebd3" stroke-width="1" rx="5" ry="5"/><text x="870" y="270" text-anchor="middle" dominant-baseline="middle">T39</text><rect x="905" y="245" width="50" height="50" stroke="black" fill="#ffebd3" stroke-width="1" rx="5" ry="5"/><text x="930" y="270" text-anchor="middle" dominant-baseline="middle">T40</text><rect x="965" y="245" width="50" height="50" stroke="black" fill="#ffebd3" stroke-width="1" rx="5" ry="5"/><text x="990" y="270" text-anchor="middle" dominant-baseline="middle">T41</text><rect x="5" y="305" width="50" height="50" stroke="black" fill="#d6fff8" stroke-width="1" rx="5" ry="5"/><text x="30" y="330" text-anchor="middle" dominant-baseline="middle">D3</text><rect x="65" y="305" width="50" height="50" stroke="black" fill="#ffebd3" stroke-width="1" rx="5" ry="5"/><text x="90" y="330" text-anchor="middle" dominant-baseline="middle">T42</text><rect x="125" y="305" width="50" height="50" stroke="black" fill="#ffebd3" stroke-width="1" rx="5" ry="5"/><text x="150" y="330" text-anchor="middle" dominant-baseline="middle">T43</text><rect x="185" y="305" width="50" height="50" stroke="black" fill="#ffebd3" stroke-width="1" rx="5" ry="5"/><text x="210" y="330" text-anchor="middle" dominant-baseline="middle">T44</text><rect x="245" y="305" width="50" height="50" stroke="black" fill="#ffebd3" stroke-width="1" rx="5" ry="5"/><text x="270" y="330" text-anchor="middle" dominant-baseline="middle">T45</text><rect x="305" y="305" width="50" height="50" stroke="black" fill="#ffebd3" stroke-width="1" rx="5" ry="5"/><text x="330" y="330" text-anchor="middle" dominant-baseline="middle">T46</text><rect x="365" y="305" width="50" height="50" stroke="black" fill="#ffebd3" stroke-width="1" rx="5" ry="5"/><text x="390" y="330" text-anchor="middle" dominant-baseline="middle">T47</text><rect x="425" y="305" width="50" height="50" stroke="black" fill="#ffebd3" stroke-width="1" rx="5" ry="5"/><text x="450" y="330" text-anchor="middle" dominant-baseline="middle">T48</text><rect x="485" y="305" width="50" height="50" stroke="black" fill="#d2fad2" stroke-width="1" rx="5" ry="5"/><text x="510" y="320" text-anchor="middle" dominant-baseline="middle">CPU</text><text x="510" y="340" text-anchor="middle" dominant-baseline="middle">8-11</text><rect x="545" y="305" width="50" height="50" stroke="black" fill="#d6fff8" stroke-width="1" rx="5" ry="5"/><text x="570" y="330" text-anchor="middle" dominant-baseline="middle">D7</text><rect x="605" y="305" width="50" height="50" stroke="black" fill="#ffebd3" stroke-width="1" rx="5" ry="5"/><text x="630" y="330" text-anchor="middle" dominant-baseline="middle">T49</text><rect x="665" y="305" width="50" height="50" stroke="black" fill="#ffebd3" stroke-width="1" rx="5" ry="5"/><text x="690" y="330" text-anchor="middle" dominant-baseline="middle">T50</text><rect x="725" y="305" width="50" height="50" stroke="black" fill="#ffebd3" stroke-width="1" rx="5" ry="5"/><text x="750" y="330" text-anchor="middle" dominant-baseline="middle">T51</text><rect x="785" y="305" width="50" height="50" stroke="black" fill="#ffebd3" stroke-width="1" rx="5" ry="5"/><text x="810" y="330" text-anchor="middle" dominant-baseline="middle">T52</text><rect x="845" y="305" width="50" height="50" stroke="black" fill="#ffebd3" stroke-width="1" rx="5" ry="5"/><text x="870" y="330" text-anchor="middle" dominant-baseline="middle">T53</text><rect x="905" y="305" width="50" height="50" stroke="black" fill="#ffebd3" stroke-width="1" rx="5" ry="5"/><text x="930" y="330" text-anchor="middle" dominant-baseline="middle">T54</text><rect x="965" y="305" width="50" height="50" stroke="black" fill="#ffebd3" stroke-width="1" rx="5" ry="5"/><text x="990" y="330" text-anchor="middle" dominant-baseline="middle">T55</text><rect x="5" y="365" width="50" height="50" stroke="black" fill="#d6fff8" stroke-width="1" rx="5" ry="5"/><text x="30" y="390" text-anchor="middle" dominant-baseline="middle">D3</text><rect x="65" y="365" width="50" height="50" stroke="black" fill="#ffebd3" stroke-width="1" rx="5" ry="5"/><text x="90" y="390" text-anchor="middle" dominant-baseline="middle">T56</text><rect x="125" y="365" width="50" height="50" stroke="black" fill="#ffebd3" stroke-width="1" rx="5" ry="5"/><text x="150" y="390" text-anchor="middle" dominant-baseline="middle">T57</text><rect x="185" y="365" width="50" height="50" stroke="black" fill="#ffebd3" stroke-width="1" rx="5" ry="5"/><text x="210" y="390" text-anchor="middle" dominant-baseline="middle">T58</text><rect x="245" y="365" width="50" height="50" stroke="black" fill="#ffebd3" stroke-width="1" rx="5" ry="5"/><text x="270" y="390" text-anchor="middle" dominant-baseline="middle">T59</text><rect x="305" y="365" width="50" height="50" stroke="black" fill="#ffebd3" stroke-width="1" rx="5" ry="5"/><text x="330" y="390" text-anchor="middle" dominant-baseline="middle">T60</text><rect x="365" y="365" width="50" height="50" stroke="black" fill="#ffebd3" stroke-width="1" rx="5" ry="5"/><text x="390" y="390" text-anchor="middle" dominant-baseline="middle">T61</text><rect x="425" y="365" width="50" height="50" stroke="black" fill="#ffebd3" stroke-width="1" rx="5" ry="5"/><text x="450" y="390" text-anchor="middle" dominant-baseline="middle">T62</text><rect x="485" y="365" width="50" height="50" stroke="black" fill="white" stroke-width="1" rx="5" ry="5"/><rect x="545" y="365" width="50" height="50" stroke="black" fill="#d6fff8" stroke-width="1" rx="5" ry="5"/><text x="570" y="390" text-anchor="middle" dominant-baseline="middle">D7</text><rect x="605" y="365" width="50" height="50" stroke="black" fill="#ffebd3" stroke-width="1" rx="5" ry="5"/><text x="630" y="390" text-anchor="middle" dominant-baseline="middle">T63</text><rect x="665" y="365" width="50" height="50" stroke="black" fill="#ffebd3" stroke-width="1" rx="5" ry="5"/><text x="690" y="390" text-anchor="middle" dominant-baseline="middle">T64</text><rect x="725" y="365" width="50" height="50" stroke="black" fill="#ffebd3" stroke-width="1" rx="5" ry="5"/><text x="750" y="390" text-anchor="middle" dominant-baseline="middle">T65</text><rect x="785" y="365" width="50" height="50" stroke="black" fill="#ffebd3" stroke-width="1" rx="5" ry="5"/><text x="810" y="390" text-anchor="middle" dominant-baseline="middle">T66</text><rect x="845" y="365" width="50" height="50" stroke="black" fill="#ffebd3" stroke-width="1" rx="5" ry="5"/><text x="870" y="390" text-anchor="middle" dominant-baseline="middle">T67</text><rect x="905" y="365" width="50" height="50" stroke="black" fill="#ffebd3" stroke-width="1" rx="5" ry="5"/><text x="930" y="390" text-anchor="middle" dominant-baseline="middle">T68</text><rect x="965" y="365" width="50" height="50" stroke="black" fill="#ffebd3" stroke-width="1" rx="5" ry="5"/><text x="990" y="390" text-anchor="middle" dominant-baseline="middle">T69</text><rect x="5" y="425" width="50" height="50" stroke="black" fill="#d6fff8" stroke-width="1" rx="5" ry="5"/><text x="30" y="450" text-anchor="middle" dominant-baseline="middle">D3</text><rect x="65" y="425" width="50" height="50" stroke="black" fill="#ffebd3" stroke-width="1" rx="5" ry="5"/><text x="90" y="450" text-anchor="middle" dominant-baseline="middle">T70</text><rect x="125" y="425" width="50" height="50" stroke="black" fill="#ffebd3" stroke-width="1" rx="5" ry="5"/><text x="150" y="450" text-anchor="middle" dominant-baseline="middle">T71</text><rect x="185" y="425" width="50" height="50" stroke="black" fill="#ffebd3" stroke-width="1" rx="5" ry="5"/><text x="210" y="450" text-anchor="middle" dominant-baseline="middle">T72</text><rect x="245" y="425" width="50" height="50" stroke="black" fill="#ffebd3" stroke-width="1" rx="5" ry="5"/><text x="270" y="450" text-anchor="middle" dominant-baseline="middle">T73</text><rect x="305" y="425" width="50" height="50" stroke="black" fill="#ffebd3" stroke-width="1" rx="5" ry="5"/><text x="330" y="450" text-anchor="middle" dominant-baseline="middle">T74</text><rect x="365" y="425" width="50" height="50" stroke="black" fill="#ffebd3" stroke-width="1" rx="5" ry="5"/><text x="390" y="450" text-anchor="middle" dominant-baseline="middle">T75</text><rect x="425" y="425" width="50" height="50" stroke="black" fill="#ffebd3" stroke-width="1" rx="5" ry="5"/><text x="450" y="450" text-anchor="middle" dominant-baseline="middle">T76</text><rect x="485" y="425" width="50" height="50" stroke="black" fill="#d2fad2" stroke-width="1" rx="5" ry="5"/><text x="510" y="440" text-anchor="middle" dominant-baseline="middle">CPU</text><text x="510" y="460" text-anchor="middle" dominant-baseline="middle">12-15</text><rect x="545" y="425" width="50" height="50" stroke="black" fill="#d6fff8" stroke-width="1" rx="5" ry="5"/><text x="570" y="450" text-anchor="middle" dominant-baseline="middle">D7</text><rect x="605" y="425" width="50" height="50" stroke="black" fill="#ffebd3" stroke-width="1" rx="5" ry="5"/><text x="630" y="450" text-anchor="middle" dominant-baseline="middle">T77</text><rect x="665" y="425" width="50" height="50" stroke="black" fill="#ffebd3" stroke-width="1" rx="5" ry="5"/><text x="690" y="450" text-anchor="middle" dominant-baseline="middle">T78</text><rect x="725" y="425" width="50" height="50" stroke="black" fill="#ffebd3" stroke-width="1" rx="5" ry="5"/><text x="750" y="450" text-anchor="middle" dominant-baseline="middle">T79</text><rect x="785" y="425" width="50" height="50" stroke="black" fill="#ffebd3" stroke-width="1" rx="5" ry="5"/><text x="810" y="450" text-anchor="middle" dominant-baseline="middle">T80</text><rect x="845" y="425" width="50" height="50" stroke="black" fill="#ffebd3" stroke-width="1" rx="5" ry="5"/><text x="870" y="450" text-anchor="middle" dominant-baseline="middle">T81</text><rect x="905" y="425" width="50" height="50" stroke="black" fill="#ffebd3" stroke-width="1" rx="5" ry="5"/><text x="930" y="450" text-anchor="middle" dominant-baseline="middle">T82</text><rect x="965" y="425" width="50" height="50" stroke="black" fill="#ffebd3" stroke-width="1" rx="5" ry="5"/><text x="990" y="450" text-anchor="middle" dominant-baseline="middle">T83</text><rect x="5" y="485" width="50" height="50" stroke="black" fill="#d6fff8" stroke-width="1" rx="5" ry="5"/><text x="30" y="510" text-anchor="middle" dominant-baseline="middle">D2</text><rect x="65" y="485" width="50" height="50" stroke="black" fill="#ffebd3" stroke-width="1" rx="5" ry="5"/><text x="90" y="510" text-anchor="middle" dominant-baseline="middle">T84</text><rect x="125" y="485" width="50" height="50" stroke="black" fill="#ffebd3" stroke-width="1" rx="5" ry="5"/><text x="150" y="510" text-anchor="middle" dominant-baseline="middle">T85</text><rect x="185" y="485" width="50" height="50" stroke="black" fill="#ffebd3" stroke-width="1" rx="5" ry="5"/><text x="210" y="510" text-anchor="middle" dominant-baseline="middle">T86</text><rect x="245" y="485" width="50" height="50" stroke="black" fill="#ffebd3" stroke-width="1" rx="5" ry="5"/><text x="270" y="510" text-anchor="middle" dominant-baseline="middle">T87</text><rect x="305" y="485" width="50" height="50" stroke="black" fill="#ffebd3" stroke-width="1" rx="5" ry="5"/><text x="330" y="510" text-anchor="middle" dominant-baseline="middle">T88</text><rect x="365" y="485" width="50" height="50" stroke="black" fill="#ffebd3" stroke-width="1" rx="5" ry="5"/><text x="390" y="510" text-anchor="middle" dominant-baseline="middle">T89</text><rect x="425" y="485" width="50" height="50" stroke="black" fill="#ffebd3" stroke-width="1" rx="5" ry="5"/><text x="450" y="510" text-anchor="middle" dominant-baseline="middle">T90</text><rect x="485" y="485" width="50" height="50" stroke="black" fill="white" stroke-width="1" rx="5" ry="5"/><rect x="545" y="485" width="50" height="50" stroke="black" fill="#d6fff8" stroke-width="1" rx="5" ry="5"/><text x="570" y="510" text-anchor="middle" dominant-baseline="middle">D6</text><rect x="605" y="485" width="50" height="50" stroke="black" fill="#ffebd3" stroke-width="1" rx="5" ry="5"/><text x="630" y="510" text-anchor="middle" dominant-baseline="middle">T91</text><rect x="665" y="485" width="50" height="50" stroke="black" fill="#ffebd3" stroke-width="1" rx="5" ry="5"/><text x="690" y="510" text-anchor="middle" dominant-baseline="middle">T92</text><rect x="725" y="485" width="50" height="50" stroke="black" fill="#ffebd3" stroke-width="1" rx="5" ry="5"/><text x="750" y="510" text-anchor="middle" dominant-baseline="middle">T93</text><rect x="785" y="485" width="50" height="50" stroke="black" fill="#ffebd3" stroke-width="1" rx="5" ry="5"/><text x="810" y="510" text-anchor="middle" dominant-baseline="middle">T94</text><rect x="845" y="485" width="50" height="50" stroke="black" fill="#ffebd3" stroke-width="1" rx="5" ry="5"/><text x="870" y="510" text-anchor="middle" dominant-baseline="middle">T95</text><rect x="905" y="485" width="50" height="50" stroke="black" fill="#ffebd3" stroke-width="1" rx="5" ry="5"/><text x="930" y="510" text-anchor="middle" dominant-baseline="middle">T96</text><rect x="965" y="485" width="50" height="50" stroke="black" fill="#ffebd3" stroke-width="1" rx="5" ry="5"/><text x="990" y="510" text-anchor="middle" dominant-baseline="middle">T97</text><rect x="5" y="545" width="50" height="50" stroke="black" fill="#d6fff8" stroke-width="1" rx="5" ry="5"/><text x="30" y="570" text-anchor="middle" dominant-baseline="middle">D2</text><rect x="65" y="545" width="50" height="50" stroke="black" fill="#ffebd3" stroke-width="1" rx="5" ry="5"/><text x="90" y="570" text-anchor="middle" dominant-baseline="middle">T98</text><rect x="125" y="545" width="50" height="50" stroke="black" fill="#ffebd3" stroke-width="1" rx="5" ry="5"/><text x="150" y="570" text-anchor="middle" dominant-baseline="middle">T99</text><rect x="185" y="545" width="50" height="50" stroke="black" fill="#ffebd3" stroke-width="1" rx="5" ry="5"/><text x="210" y="570" text-anchor="middle" dominant-baseline="middle">T100</text><rect x="245" y="545" width="50" height="50" stroke="black" fill="#ffebd3" stroke-width="1" rx="5" ry="5"/><text x="270" y="570" text-anchor="middle" dominant-baseline="middle">T101</text><rect x="305" y="545" width="50" height="50" stroke="black" fill="#ffebd3" stroke-width="1" rx="5" ry="5"/><text x="330" y="570" text-anchor="middle" dominant-baseline="middle">T102</text><rect x="365" y="545" width="50" height="50" stroke="black" fill="#ffebd3" stroke-width="1" rx="5" ry="5"/><text x="390" y="570" text-anchor="middle" dominant-baseline="middle">T103</text><rect x="425" y="545" width="50" height="50" stroke="black" fill="#ffebd3" stroke-width="1" rx="5" ry="5"/><text x="450" y="570" text-anchor="middle" dominant-baseline="middle">T104</text><rect x="485" y="545" width="50" height="50" stroke="black" fill="#d2fad2" stroke-width="1" rx="5" ry="5"/><text x="510" y="560" text-anchor="middle" dominant-baseline="middle">CPU</text><text x="510" y="580" text-anchor="middle" dominant-baseline="middle">4-7</text><rect x="545" y="545" width="50" height="50" stroke="black" fill="#d6fff8" stroke-width="1" rx="5" ry="5"/><text x="570" y="570" text-anchor="middle" dominant-baseline="middle">D6</text><rect x="605" y="545" width="50" height="50" stroke="black" fill="#ffebd3" stroke-width="1" rx="5" ry="5"/><text x="630" y="570" text-anchor="middle" dominant-baseline="middle">T105</text><rect x="665" y="545" width="50" height="50" stroke="black" fill="#ffebd3" stroke-width="1" rx="5" ry="5"/><text x="690" y="570" text-anchor="middle" dominant-baseline="middle">T106</text><rect x="725" y="545" width="50" height="50" stroke="black" fill="#ffebd3" stroke-width="1" rx="5" ry="5"/><text x="750" y="570" text-anchor="middle" dominant-baseline="middle">T107</text><rect x="785" y="545" width="50" height="50" stroke="black" fill="#ffebd3" stroke-width="1" rx="5" ry="5"/><text x="810" y="570" text-anchor="middle" dominant-baseline="middle">T108</text><rect x="845" y="545" width="50" height="50" stroke="black" fill="#ffebd3" stroke-width="1" rx="5" ry="5"/><text x="870" y="570" text-anchor="middle" dominant-baseline="middle">T109</text><rect x="905" y="545" width="50" height="50" stroke="black" fill="#ffebd3" stroke-width="1" rx="5" ry="5"/><text x="930" y="570" text-anchor="middle" dominant-baseline="middle">T110</text><rect x="965" y="545" width="50" height="50" stroke="black" fill="#ffebd3" stroke-width="1" rx="5" ry="5"/><text x="990" y="570" text-anchor="middle" dominant-baseline="middle">T111</text><rect x="5" y="605" width="50" height="50" stroke="black" fill="#d6fff8" stroke-width="1" rx="5" ry="5"/><text x="30" y="630" text-anchor="middle" dominant-baseline="middle">D1</text><rect x="65" y="605" width="50" height="50" stroke="black" fill="#ffebd3" stroke-width="1" rx="5" ry="5"/><text x="90" y="630" text-anchor="middle" dominant-baseline="middle">T112</text><rect x="125" y="605" width="50" height="50" stroke="black" fill="#ffebd3" stroke-width="1" rx="5" ry="5"/><text x="150" y="630" text-anchor="middle" dominant-baseline="middle">T113</text><rect x="185" y="605" width="50" height="50" stroke="black" fill="#ffebd3" stroke-width="1" rx="5" ry="5"/><text x="210" y="630" text-anchor="middle" dominant-baseline="middle">T114</text><rect x="245" y="605" width="50" height="50" stroke="black" fill="#ffebd3" stroke-width="1" rx="5" ry="5"/><text x="270" y="630" text-anchor="middle" dominant-baseline="middle">T115</text><rect x="305" y="605" width="50" height="50" stroke="black" fill="#ffebd3" stroke-width="1" rx="5" ry="5"/><text x="330" y="630" text-anchor="middle" dominant-baseline="middle">T116</text><rect x="365" y="605" width="50" height="50" stroke="black" fill="#ffebd3" stroke-width="1" rx="5" ry="5"/><text x="390" y="630" text-anchor="middle" dominant-baseline="middle">T117</text><rect x="425" y="605" width="50" height="50" stroke="black" fill="#ffebd3" stroke-width="1" rx="5" ry="5"/><text x="450" y="630" text-anchor="middle" dominant-baseline="middle">T118</text><rect x="485" y="605" width="50" height="50" stroke="black" fill="white" stroke-width="1" rx="5" ry="5"/><rect x="545" y="605" width="50" height="50" stroke="black" fill="#d6fff8" stroke-width="1" rx="5" ry="5"/><text x="570" y="630" text-anchor="middle" dominant-baseline="middle">D5</text><rect x="605" y="605" width="50" height="50" stroke="black" fill="#ffebd3" stroke-width="1" rx="5" ry="5"/><text x="630" y="630" text-anchor="middle" dominant-baseline="middle">T119</text><rect x="665" y="605" width="50" height="50" stroke="black" fill="#ffebd3" stroke-width="1" rx="5" ry="5"/><text x="690" y="630" text-anchor="middle" dominant-baseline="middle">T120</text><rect x="725" y="605" width="50" height="50" stroke="black" fill="#ffebd3" stroke-width="1" rx="5" ry="5"/><text x="750" y="630" text-anchor="middle" dominant-baseline="middle">T121</text><rect x="785" y="605" width="50" height="50" stroke="black" fill="#ffebd3" stroke-width="1" rx="5" ry="5"/><text x="810" y="630" text-anchor="middle" dominant-baseline="middle">T122</text><rect x="845" y="605" width="50" height="50" stroke="black" fill="#ffebd3" stroke-width="1" rx="5" ry="5"/><text x="870" y="630" text-anchor="middle" dominant-baseline="middle">T123</text><rect x="905" y="605" width="50" height="50" stroke="black" fill="#ffebd3" stroke-width="1" rx="5" ry="5"/><text x="930" y="630" text-anchor="middle" dominant-baseline="middle">T124</text><rect x="965" y="605" width="50" height="50" stroke="black" fill="#ffebd3" stroke-width="1" rx="5" ry="5"/><text x="990" y="630" text-anchor="middle" dominant-baseline="middle">T125</text><rect x="5" y="665" width="50" height="50" stroke="black" fill="#d6fff8" stroke-width="1" rx="5" ry="5"/><text x="30" y="690" text-anchor="middle" dominant-baseline="middle">D0</text><rect x="65" y="665" width="50" height="50" stroke="black" fill="#ffebd3" stroke-width="1" rx="5" ry="5"/><text x="90" y="690" text-anchor="middle" dominant-baseline="middle">T126</text><rect x="125" y="665" width="50" height="50" stroke="black" fill="#ffebd3" stroke-width="1" rx="5" ry="5"/><text x="150" y="690" text-anchor="middle" dominant-baseline="middle">T127</text><rect x="185" y="665" width="50" height="50" stroke="black" fill="#ffebd3" stroke-width="1" rx="5" ry="5"/><text x="210" y="690" text-anchor="middle" dominant-baseline="middle">T128</text><rect x="245" y="665" width="50" height="50" stroke="black" fill="#ffebd3" stroke-width="1" rx="5" ry="5"/><text x="270" y="690" text-anchor="middle" dominant-baseline="middle">T129</text><rect x="305" y="665" width="50" height="50" stroke="black" fill="#ffebd3" stroke-width="1" rx="5" ry="5"/><text x="330" y="690" text-anchor="middle" dominant-baseline="middle">T130</text><rect x="365" y="665" width="50" height="50" stroke="black" fill="#ffebd3" stroke-width="1" rx="5" ry="5"/><text x="390" y="690" text-anchor="middle" dominant-baseline="middle">T131</text><rect x="425" y="665" width="50" height="50" stroke="black" fill="#ffebd3" stroke-width="1" rx="5" ry="5"/><text x="450" y="690" text-anchor="middle" dominant-baseline="middle">T132</text><rect x="485" y="665" width="50" height="50" stroke="black" fill="white" stroke-width="1" rx="5" ry="5"/><rect x="545" y="665" width="50" height="50" stroke="black" fill="#d6fff8" stroke-width="1" rx="5" ry="5"/><text x="570" y="690" text-anchor="middle" dominant-baseline="middle">D4</text><rect x="605" y="665" width="50" height="50" stroke="black" fill="#ffebd3" stroke-width="1" rx="5" ry="5"/><text x="630" y="690" text-anchor="middle" dominant-baseline="middle">T133</text><rect x="665" y="665" width="50" height="50" stroke="black" fill="#ffebd3" stroke-width="1" rx="5" ry="5"/><text x="690" y="690" text-anchor="middle" dominant-baseline="middle">T134</text><rect x="725" y="665" width="50" height="50" stroke="black" fill="#ffebd3" stroke-width="1" rx="5" ry="5"/><text x="750" y="690" text-anchor="middle" dominant-baseline="middle">T135</text><rect x="785" y="665" width="50" height="50" stroke="black" fill="#ffebd3" stroke-width="1" rx="5" ry="5"/><text x="810" y="690" text-anchor="middle" dominant-baseline="middle">T136</text><rect x="845" y="665" width="50" height="50" stroke="black" fill="#ffebd3" stroke-width="1" rx="5" ry="5"/><text x="870" y="690" text-anchor="middle" dominant-baseline="middle">T137</text><rect x="905" y="665" width="50" height="50" stroke="black" fill="#ffebd3" stroke-width="1" rx="5" ry="5"/><text x="930" y="690" text-anchor="middle" dominant-baseline="middle">T138</text><rect x="965" y="665" width="50" height="50" stroke="black" fill="#ffebd3" stroke-width="1" rx="5" ry="5"/><text x="990" y="690" text-anchor="middle" dominant-baseline="middle">T139</text></g>
</svg>
