<svg version="1.1" width="836" height="1069" xmlns="http://www.w3.org/2000/svg"><rect width="836" height="1069" rx="15" stroke="transparent" fill="white"/><rect x="180.5" y="5.5" width="530" height="42" stroke="black" fill="#d4aa00" stroke-width="1"/><text x="445" y="26" text-anchor="middle" dominant-baseline="middle">Input Address Generator and Datum Count</text><rect x="180.5" y="67.5" width="170" height="50" stroke="black" fill="#f4d7e3" stroke-width="1"/><text x="265" y="82" text-anchor="middle" dominant-baseline="middle">Datums from</text><text x="265" y="102" text-anchor="middle" dominant-baseline="middle"><tspan font-family="monospace">Dst</tspan></text><rect x="540.5" y="67.5" width="170" height="50" stroke="black" fill="#f4d7e3" stroke-width="1"/><text x="625" y="82" text-anchor="middle" dominant-baseline="middle">Datums from L1</text><text x="625" y="102" text-anchor="middle" dominant-baseline="middle">(Packer 0 only)</text><rect x="360.5" y="67.5" width="170" height="50" stroke="black" fill="#f4d7e3" stroke-width="1"/><text x="445" y="82" text-anchor="middle" dominant-baseline="middle">Datums from</text><text x="445" y="102" text-anchor="middle" dominant-baseline="middle"><tspan font-family="monospace">/dev/null</tspan></text><path d="M 265.5 48.5 L 265.5 65.5" stroke="black" fill="transparent" stroke-width="1"/><path d="M 262.5 62.5 L 265.5 65.5 L 268.5 62.5" stroke="black" fill="transparent" stroke-width="1"/><path d="M 625.5 48.5 L 625.5 65.5" stroke="black" fill="transparent" stroke-width="1"/><path d="M 622.5 62.5 L 625.5 65.5 L 628.5 62.5" stroke="black" fill="transparent" stroke-width="1"/><path d="M 445.5 48.5 L 445.5 65.5" stroke="black" fill="transparent" stroke-width="1"/><path d="M 442.5 62.5 L 445.5 65.5 L 448.5 62.5" stroke="black" fill="transparent" stroke-width="1"/><rect x="180.5" y="137.5" width="170" height="42" stroke="black" fill="#d4aa00" stroke-width="1"/><text x="265" y="149" text-anchor="middle" dominant-baseline="middle">Early Format</text><text x="265" y="169" text-anchor="middle" dominant-baseline="middle">Conversion</text><rect x="180.5" y="199.5" width="170" height="42" stroke="black" fill="#d4aa00" stroke-width="1"/><text x="265" y="211" text-anchor="middle" dominant-baseline="middle">Edge Masking</text><text x="265" y="231" text-anchor="middle" dominant-baseline="middle">to zero or minus infinity</text><rect x="180.5" y="261.5" width="170" height="42" stroke="black" fill="#d4aa00" stroke-width="1"/><text x="265" y="273" text-anchor="middle" dominant-baseline="middle">ReLU</text><text x="265" y="293" text-anchor="middle" dominant-baseline="middle">(Optional)</text><rect x="180.5" y="323.5" width="170" height="42" stroke="black" fill="#d4aa00" stroke-width="1"/><text x="265" y="335" text-anchor="middle" dominant-baseline="middle">Exponent</text><text x="265" y="355" text-anchor="middle" dominant-baseline="middle">Thresholding</text><path d="M 265.5 118.5 L 265.5 135.5" stroke="black" fill="transparent" stroke-width="1"/><path d="M 262.5 132.5 L 265.5 135.5 L 268.5 132.5" stroke="black" fill="transparent" stroke-width="1"/><path d="M 265.5 180.5 L 265.5 197.5" stroke="black" fill="transparent" stroke-width="1"/><path d="M 262.5 194.5 L 265.5 197.5 L 268.5 194.5" stroke="black" fill="transparent" stroke-width="1"/><path d="M 265.5 242.5 L 265.5 259.5" stroke="black" fill="transparent" stroke-width="1"/><path d="M 262.5 256.5 L 265.5 259.5 L 268.5 256.5" stroke="black" fill="transparent" stroke-width="1"/><path d="M 265.5 304.5 L 265.5 321.5" stroke="black" fill="transparent" stroke-width="1"/><path d="M 262.5 318.5 L 265.5 321.5 L 268.5 318.5" stroke="black" fill="transparent" stroke-width="1"/><path d="M 250.5 385.5 L 640.5 385.5 L 635.5 395.5 L 255.5 395.5 Z" stroke="black" fill="#e9ddaf" stroke-width="1"/><path d="M 265.5 366.5 L 265.5 383.5" stroke="black" fill="transparent" stroke-width="1"/><path d="M 262.5 380.5 L 265.5 383.5 L 268.5 380.5" stroke="black" fill="transparent" stroke-width="1"/><path d="M 445.5 118.5 L 445.5 383.5" stroke="black" fill="transparent" stroke-width="1"/><path d="M 442.5 380.5 L 445.5 383.5 L 448.5 380.5" stroke="black" fill="transparent" stroke-width="1"/><path d="M 625.5 118.5 L 625.5 383.5" stroke="black" fill="transparent" stroke-width="1"/><path d="M 622.5 380.5 L 625.5 383.5 L 628.5 380.5" stroke="black" fill="transparent" stroke-width="1"/><path d="M 340.5 450.5 L 445.5 415.5 L 550.5 450.5 L 445.5 485.5 Z" stroke="black" fill="#87deaa" stroke-width="1"/><text x="445" y="443" text-anchor="middle" dominant-baseline="middle">Downsample</text><text x="445" y="463" text-anchor="middle" dominant-baseline="middle">Pattern?</text><path d="M 445.5 396.5 L 445.5 413.5" stroke="black" fill="transparent" stroke-width="1"/><path d="M 442.5 410.5 L 445.5 413.5 L 448.5 410.5" stroke="black" fill="transparent" stroke-width="1"/><rect x="620.5" y="425.5" width="170" height="50" stroke="black" fill="#f4d7e3" stroke-width="1"/><text x="705" y="440" text-anchor="middle" dominant-baseline="middle">Output to</text><text x="705" y="460" text-anchor="middle" dominant-baseline="middle"><tspan font-family="monospace">/dev/null</tspan></text><path d="M 552.5 450.5 L 618.5 450.5" stroke="black" fill="transparent" stroke-width="1"/><path d="M 615.5 453.5 L 618.5 450.5 L 615.5 447.5" stroke="black" fill="transparent" stroke-width="1"/><text x="555" y="446" text-anchor="start" dominant-baseline="auto">Discard</text><path d="M 340.5 540.5 L 445.5 505.5 L 550.5 540.5 L 445.5 575.5 Z" stroke="black" fill="#87deaa" stroke-width="1"/><text x="445" y="530" text-anchor="middle" dominant-baseline="middle">Performing</text><text x="445" y="550" text-anchor="middle" dominant-baseline="middle">Compression?</text><path d="M 445.5 486.5 L 445.5 503.5" stroke="black" fill="transparent" stroke-width="1"/><path d="M 442.5 500.5 L 445.5 503.5 L 448.5 500.5" stroke="black" fill="transparent" stroke-width="1"/><text x="451" y="496" text-anchor="start" dominant-baseline="middle">Keep</text><text x="335" y="536" text-anchor="end" dominant-baseline="auto">Yes</text><path d="M 515.5 610.5 L 620.5 575.5 L 725.5 610.5 L 620.5 645.5 Z" stroke="black" fill="#87deaa" stroke-width="1"/><text x="620" y="600" text-anchor="middle" dominant-baseline="middle">Output is</text><text x="620" y="620" text-anchor="middle" dominant-baseline="middle">BFP format?</text><rect x="535.5" y="665.5" width="170" height="32" stroke="black" fill="#f4d7e3" stroke-width="1"/><text x="620" y="681" text-anchor="middle" dominant-baseline="middle">Buffer (16 datums)</text><rect x="535.5" y="717.5" width="170" height="42" stroke="black" fill="#d4aa00" stroke-width="1"/><text x="620" y="730" text-anchor="middle" dominant-baseline="middle">Late Format</text><text x="620" y="750" text-anchor="middle" dominant-baseline="middle">Conversion</text><rect x="345.5" y="717.5" width="170" height="42" stroke="black" fill="#d4aa00" stroke-width="1"/><text x="430" y="730" text-anchor="middle" dominant-baseline="middle">Find Maximum</text><text x="430" y="750" text-anchor="middle" dominant-baseline="middle">of 16 Exponents</text><rect x="535.5" y="779.5" width="170" height="32" stroke="black" fill="#f4d7e3" stroke-width="1"/><text x="620" y="795" text-anchor="middle" dominant-baseline="middle">Data Buffer (128b)</text><rect x="345.5" y="779.5" width="170" height="32" stroke="black" fill="#f4d7e3" stroke-width="1"/><text x="430" y="795" text-anchor="middle" dominant-baseline="middle">Exponent Buffer (128b)</text><path d="M 552.5 540.5 L 617.5 540.5 Q 620.5 540.5 620.5 543.5 L 620.5 573.5" stroke="black" fill="transparent" stroke-width="1"/><path d="M 617.5 570.5 L 620.5 573.5 L 623.5 570.5" stroke="black" fill="transparent" stroke-width="1"/><path d="M 620.5 646.5 L 620.5 663.5" stroke="black" fill="transparent" stroke-width="1"/><path d="M 617.5 660.5 L 620.5 663.5 L 623.5 660.5" stroke="black" fill="transparent" stroke-width="1"/><path d="M 620.5 698.5 L 620.5 715.5" stroke="black" fill="transparent" stroke-width="1"/><path d="M 617.5 712.5 L 620.5 715.5 L 623.5 712.5" stroke="black" fill="transparent" stroke-width="1"/><path d="M 727.5 610.5 L 742.5 610.5 Q 745.5 610.5 745.5 613.5 L 745.5 735.5 Q 745.5 738.5 742.5 738.5 L 707.5 738.5" stroke="black" fill="transparent" stroke-width="1"/><path d="M 710.5 735.5 L 707.5 738.5 L 710.5 741.5" stroke="black" fill="transparent" stroke-width="1"/><path d="M 534.5 681.5 L 433.5 681.5 Q 430.5 681.5 430.5 684.5 L 430.5 715.5" stroke="black" fill="transparent" stroke-width="1"/><path d="M 427.5 712.5 L 430.5 715.5 L 433.5 712.5" stroke="black" fill="transparent" stroke-width="1"/><path d="M 516.5 738.5 L 533.5 738.5" stroke="black" fill="transparent" stroke-width="1"/><path d="M 530.5 741.5 L 533.5 738.5 L 530.5 735.5" stroke="black" fill="transparent" stroke-width="1"/><path d="M 430.5 760.5 L 430.5 777.5" stroke="black" fill="transparent" stroke-width="1"/><path d="M 427.5 774.5 L 430.5 777.5 L 433.5 774.5" stroke="black" fill="transparent" stroke-width="1"/><path d="M 620.5 760.5 L 620.5 777.5" stroke="black" fill="transparent" stroke-width="1"/><path d="M 617.5 774.5 L 620.5 777.5 L 623.5 774.5" stroke="black" fill="transparent" stroke-width="1"/><text x="626" y="656" text-anchor="start" dominant-baseline="middle">Yes</text><path d="M 165.5 610.5 L 270.5 575.5 L 375.5 610.5 L 270.5 645.5 Z" stroke="black" fill="#87deaa" stroke-width="1"/><text x="270" y="603" text-anchor="middle" dominant-baseline="middle">Datum is</text><text x="270" y="623" text-anchor="middle" dominant-baseline="middle">Zero?</text><path d="M 338.5 540.5 L 273.5 540.5 Q 270.5 540.5 270.5 543.5 L 270.5 573.5" stroke="black" fill="transparent" stroke-width="1"/><path d="M 267.5 570.5 L 270.5 573.5 L 273.5 570.5" stroke="black" fill="transparent" stroke-width="1"/><path d="M 377.5 610.5 L 513.5 610.5" stroke="black" fill="transparent" stroke-width="1"/><path d="M 510.5 613.5 L 513.5 610.5 L 510.5 607.5" stroke="black" fill="transparent" stroke-width="1"/><text x="555" y="536" text-anchor="start" dominant-baseline="auto">No</text><text x="380" y="606" text-anchor="start" dominant-baseline="auto">No</text><text x="730" y="606" text-anchor="start" dominant-baseline="auto">No</text><text x="276" y="656" text-anchor="start" dominant-baseline="middle">Regardless</text><rect x="175.5" y="779.5" width="150" height="32" stroke="black" fill="#f4d7e3" stroke-width="1"/><text x="250" y="795" text-anchor="middle" dominant-baseline="middle">RLE Buffer (128b)</text><rect x="5.5" y="779.5" width="150" height="32" stroke="black" fill="#f4d7e3" stroke-width="1"/><text x="80" y="795" text-anchor="middle" dominant-baseline="middle">RSI Buffer (128b)</text><rect x="5.5" y="717.5" width="320" height="42" stroke="black" fill="#d4aa00" stroke-width="1"/><text x="165" y="730" text-anchor="middle" dominant-baseline="middle">Compression Metadata Generator:</text><text x="165" y="750" text-anchor="middle" dominant-baseline="middle">Row Flags, Row Start Indices, RLE of Zeroes</text><rect x="5.5" y="665.5" width="150" height="32" stroke="black" fill="#f4d7e3" stroke-width="1"/><text x="80" y="681" text-anchor="middle" dominant-baseline="middle">Row Flags (32b)</text><path d="M 270.5 646.5 L 270.5 715.5" stroke="black" fill="transparent" stroke-width="1"/><path d="M 267.5 712.5 L 270.5 715.5 L 273.5 712.5" stroke="black" fill="transparent" stroke-width="1"/><path d="M 250.5 760.5 L 250.5 777.5" stroke="black" fill="transparent" stroke-width="1"/><path d="M 247.5 774.5 L 250.5 777.5 L 253.5 774.5" stroke="black" fill="transparent" stroke-width="1"/><path d="M 80.5 760.5 L 80.5 777.5" stroke="black" fill="transparent" stroke-width="1"/><path d="M 77.5 774.5 L 80.5 777.5 L 83.5 774.5" stroke="black" fill="transparent" stroke-width="1"/><path d="M 80.5 716.5 L 80.5 699.5" stroke="black" fill="transparent" stroke-width="1"/><path d="M 83.5 702.5 L 80.5 699.5 L 77.5 702.5" stroke="black" fill="transparent" stroke-width="1"/><rect x="5.5" y="288.5" width="150" height="50" stroke="black" fill="#f4d7e3" stroke-width="1"/><text x="80" y="303" text-anchor="middle" dominant-baseline="middle">Exponent</text><text x="80" y="323" text-anchor="middle" dominant-baseline="middle">Histogram</text><path d="M 265.5 313.5 L 157.5 313.5" stroke="black" fill="transparent" stroke-width="1"/><path d="M 160.5 310.5 L 157.5 313.5 L 160.5 316.5" stroke="black" fill="transparent" stroke-width="1"/><path d="M 515.5 866.5 L 620.5 831.5 L 725.5 866.5 L 620.5 901.5 Z" stroke="black" fill="#87deaa" stroke-width="1"/><text x="620" y="856" text-anchor="middle" dominant-baseline="middle">Performing</text><text x="620" y="876" text-anchor="middle" dominant-baseline="middle">Accumulation?</text><rect x="760.5" y="845.5" width="70" height="42" stroke="black" fill="#d4aa00" stroke-width="1"/><text x="795" y="866" text-anchor="middle" dominant-baseline="middle">Adder</text><rect x="725.5" y="779.5" width="105" height="46" stroke="black" fill="#d4aa00" stroke-width="1"/><text x="778" y="792" text-anchor="middle" dominant-baseline="middle">Register</text><text x="778" y="812" text-anchor="middle" dominant-baseline="middle">Write</text><path d="M 620.5 812.5 L 620.5 829.5" stroke="black" fill="transparent" stroke-width="1"/><path d="M 617.5 826.5 L 620.5 829.5 L 623.5 826.5" stroke="black" fill="transparent" stroke-width="1"/><path d="M 727.5 866.5 L 758.5 866.5" stroke="black" fill="transparent" stroke-width="1"/><path d="M 755.5 869.5 L 758.5 866.5 L 755.5 863.5" stroke="black" fill="transparent" stroke-width="1"/><text x="730" y="862" text-anchor="start" dominant-baseline="auto">Yes</text><rect x="5.5" y="921.5" width="825" height="50" stroke="black" fill="#f4d7e3" stroke-width="1"/><text x="418" y="946" text-anchor="middle" dominant-baseline="middle">Output to L1</text><path d="M 80.5 812.5 L 80.5 919.5" stroke="black" fill="transparent" stroke-width="1"/><path d="M 77.5 916.5 L 80.5 919.5 L 83.5 916.5" stroke="black" fill="transparent" stroke-width="1"/><path d="M 250.5 812.5 L 250.5 919.5" stroke="black" fill="transparent" stroke-width="1"/><path d="M 247.5 916.5 L 250.5 919.5 L 253.5 916.5" stroke="black" fill="transparent" stroke-width="1"/><path d="M 430.5 812.5 L 430.5 919.5" stroke="black" fill="transparent" stroke-width="1"/><path d="M 427.5 916.5 L 430.5 919.5 L 433.5 916.5" stroke="black" fill="transparent" stroke-width="1"/><path d="M 620.5 902.5 L 620.5 919.5" stroke="black" fill="transparent" stroke-width="1"/><path d="M 617.5 916.5 L 620.5 919.5 L 623.5 916.5" stroke="black" fill="transparent" stroke-width="1"/><path d="M 795.5 889.5 L 795.5 919.5" stroke="black" fill="transparent" stroke-width="1"/><path d="M 792.5 916.5 L 795.5 919.5 L 798.5 916.5" stroke="black" fill="transparent" stroke-width="1"/><path d="M 798.5 892.5 L 795.5 889.5 L 792.5 892.5" stroke="black" fill="transparent" stroke-width="1"/><text x="626" y="912" text-anchor="start" dominant-baseline="middle">No</text><path d="M 605.5 991.5 L 810.5 991.5 L 805.5 1001.5 L 610.5 1001.5 Z" stroke="black" fill="#e9ddaf" stroke-width="1"/><rect x="5.5" y="1021.5" width="825" height="42" stroke="black" fill="#d4aa00" stroke-width="1"/><text x="418" y="1042" text-anchor="middle" dominant-baseline="middle">Output Address Generator (x4)</text><path d="M 80.5 1020.5 L 80.5 973.5" stroke="black" fill="transparent" stroke-width="1"/><path d="M 83.5 976.5 L 80.5 973.5 L 77.5 976.5" stroke="black" fill="transparent" stroke-width="1"/><path d="M 250.5 1020.5 L 250.5 973.5" stroke="black" fill="transparent" stroke-width="1"/><path d="M 253.5 976.5 L 250.5 973.5 L 247.5 976.5" stroke="black" fill="transparent" stroke-width="1"/><path d="M 430.5 1020.5 L 430.5 973.5" stroke="black" fill="transparent" stroke-width="1"/><path d="M 433.5 976.5 L 430.5 973.5 L 427.5 976.5" stroke="black" fill="transparent" stroke-width="1"/><path d="M 620.5 990.5 L 620.5 973.5" stroke="black" fill="transparent" stroke-width="1"/><path d="M 623.5 976.5 L 620.5 973.5 L 617.5 976.5" stroke="black" fill="transparent" stroke-width="1"/><path d="M 795.5 990.5 L 795.5 973.5" stroke="black" fill="transparent" stroke-width="1"/><path d="M 798.5 976.5 L 795.5 973.5 L 792.5 976.5" stroke="black" fill="transparent" stroke-width="1"/><path d="M 708 1020.5 L 708 1003.5" stroke="black" fill="transparent" stroke-width="1"/><path d="M 711 1006.5 L 708 1003.5 L 705 1006.5" stroke="black" fill="transparent" stroke-width="1"/></svg>
