<svg version="1.1" width="1045" height="511" xmlns="http://www.w3.org/2000/svg"><rect width="1045" height="511" rx="15" stroke="transparent" fill="white"/><rect x="5.5" y="5.5" width="170" height="50" stroke="black" fill="#f4d7e3" stroke-width="1"/><text x="90" y="20" text-anchor="middle" dominant-baseline="middle">Fidelity Phase RWCs</text><text x="90" y="40" text-anchor="middle" dominant-baseline="middle">3x 2b</text><rect x="5.5" y="83.5" width="170" height="128" stroke="black" fill="#d4aa00" stroke-width="1"/><text x="90" y="137" text-anchor="middle" dominant-baseline="middle">Matrix Unit</text><text x="90" y="157" text-anchor="middle" dominant-baseline="middle">(FPU)</text><rect x="5.5" y="239.5" width="170" height="50" stroke="black" fill="#f4d7e3" stroke-width="1"/><text x="90" y="254" text-anchor="middle" dominant-baseline="middle">Dst, SrcA, SrcB RWCs</text><text x="90" y="274" text-anchor="middle" dominant-baseline="middle">3x 2x (10b + 6b + 6b)</text><rect x="5.5" y="317.5" width="170" height="110" stroke="black" fill="#d4aa00" stroke-width="1"/><text x="90" y="362" text-anchor="middle" dominant-baseline="middle">Vector Unit</text><text x="90" y="382" text-anchor="middle" dominant-baseline="middle">(SFPU)</text><rect x="5.5" y="455.5" width="170" height="50" stroke="black" fill="#f4d7e3" stroke-width="1"/><text x="90" y="470" text-anchor="middle" dominant-baseline="middle">Lane Predication Masks</text><text x="90" y="490" text-anchor="middle" dominant-baseline="middle">32x 9x (1b + 1b)</text><path d="M 90.5 57.5 L 90.5 81.5" stroke="black" fill="transparent" stroke-width="1"/><path d="M 87.5 78.5 L 90.5 81.5 L 93.5 78.5" stroke="black" fill="transparent" stroke-width="1"/><path d="M 93.5 60.5 L 90.5 57.5 L 87.5 60.5" stroke="black" fill="transparent" stroke-width="1"/><path d="M 90.5 213.5 L 90.5 237.5" stroke="black" fill="transparent" stroke-width="1"/><path d="M 87.5 234.5 L 90.5 237.5 L 93.5 234.5" stroke="black" fill="transparent" stroke-width="1"/><path d="M 93.5 216.5 L 90.5 213.5 L 87.5 216.5" stroke="black" fill="transparent" stroke-width="1"/><path d="M 90.5 291.5 L 90.5 315.5" stroke="black" fill="transparent" stroke-width="1"/><path d="M 87.5 312.5 L 90.5 315.5 L 93.5 312.5" stroke="black" fill="transparent" stroke-width="1"/><path d="M 93.5 294.5 L 90.5 291.5 L 87.5 294.5" stroke="black" fill="transparent" stroke-width="1"/><path d="M 90.5 429.5 L 90.5 453.5" stroke="black" fill="transparent" stroke-width="1"/><path d="M 87.5 450.5 L 90.5 453.5 L 93.5 450.5" stroke="black" fill="transparent" stroke-width="1"/><path d="M 93.5 432.5 L 90.5 429.5 L 87.5 432.5" stroke="black" fill="transparent" stroke-width="1"/><rect x="203.5" y="83.5" width="160" height="50" stroke="black" fill="#f4d7e3" stroke-width="1"/><text x="283" y="98" text-anchor="middle" dominant-baseline="middle">SrcA, SrcB Access</text><text x="283" y="118" text-anchor="middle" dominant-baseline="middle">Control; 2x 4b</text><rect x="391.5" y="161.5" width="130" height="50" stroke="black" fill="#f4d7e3" stroke-width="1"/><text x="456" y="176" text-anchor="middle" dominant-baseline="middle">Unpacker ADCs</text><text x="456" y="196" text-anchor="middle" dominant-baseline="middle">3x 2x 2x 2x 47b</text><rect x="391.5" y="221.5" width="130" height="50" stroke="black" fill="#f4d7e3" stroke-width="1"/><text x="456" y="236" text-anchor="middle" dominant-baseline="middle">Packer ADCs</text><text x="456" y="256" text-anchor="middle" dominant-baseline="middle">3x 1x 2x 2x 47b</text><rect x="203.5" y="161.5" width="160" height="110" stroke="black" fill="#d4aa00" stroke-width="1"/><text x="283" y="206" text-anchor="middle" dominant-baseline="middle">Miscellaneous</text><text x="283" y="226" text-anchor="middle" dominant-baseline="middle">Unit</text><rect x="549.5" y="161.5" width="128" height="110" stroke="black" fill="#d4aa00" stroke-width="1"/><text x="613" y="206" text-anchor="middle" dominant-baseline="middle">Scalar Unit</text><text x="613" y="226" text-anchor="middle" dominant-baseline="middle">(ThCon)</text><rect x="391.5" y="83.5" width="286" height="50" stroke="black" fill="#d4aa00" stroke-width="1"/><text x="534" y="108" text-anchor="middle" dominant-baseline="middle">Unpackers</text><rect x="391.5" y="299.5" width="286" height="50" stroke="black" fill="#d4aa00" stroke-width="1"/><text x="534" y="324" text-anchor="middle" dominant-baseline="middle">Packers</text><rect x="549.5" y="377.5" width="128" height="50" stroke="black" fill="#f4d7e3" stroke-width="1"/><text x="613" y="392" text-anchor="middle" dominant-baseline="middle">Metadata FIFOs</text><text x="613" y="412" text-anchor="middle" dominant-baseline="middle">4x 4x (16b + 32b)</text><rect x="391.5" y="5.5" width="138" height="50" stroke="black" fill="#f4d7e3" stroke-width="1"/><text x="460" y="20" text-anchor="middle" dominant-baseline="middle">SrcA, SrcB Row</text><text x="460" y="40" text-anchor="middle" dominant-baseline="middle">Offset; 2x 3x 2b</text><rect x="539.5" y="5.5" width="138" height="50" stroke="black" fill="#f4d7e3" stroke-width="1"/><text x="608" y="20" text-anchor="middle" dominant-baseline="middle">Context Counters</text><text x="608" y="40" text-anchor="middle" dominant-baseline="middle">2x 3x 3b</text><path d="M 460.5 57.5 L 460.5 81.5" stroke="black" fill="transparent" stroke-width="1"/><path d="M 457.5 78.5 L 460.5 81.5 L 463.5 78.5" stroke="black" fill="transparent" stroke-width="1"/><path d="M 463.5 60.5 L 460.5 57.5 L 457.5 60.5" stroke="black" fill="transparent" stroke-width="1"/><path d="M 608.5 57.5 L 608.5 81.5" stroke="black" fill="transparent" stroke-width="1"/><path d="M 605.5 78.5 L 608.5 81.5 L 611.5 78.5" stroke="black" fill="transparent" stroke-width="1"/><path d="M 611.5 60.5 L 608.5 57.5 L 605.5 60.5" stroke="black" fill="transparent" stroke-width="1"/><path d="M 177.5 108.5 L 201.5 108.5" stroke="black" fill="transparent" stroke-width="1"/><path d="M 198.5 111.5 L 201.5 108.5 L 198.5 105.5" stroke="black" fill="transparent" stroke-width="1"/><path d="M 180.5 105.5 L 177.5 108.5 L 180.5 111.5" stroke="black" fill="transparent" stroke-width="1"/><path d="M 365.5 108.5 L 389.5 108.5" stroke="black" fill="transparent" stroke-width="1"/><path d="M 386.5 111.5 L 389.5 108.5 L 386.5 105.5" stroke="black" fill="transparent" stroke-width="1"/><path d="M 368.5 105.5 L 365.5 108.5 L 368.5 111.5" stroke="black" fill="transparent" stroke-width="1"/><path d="M 283.5 159.5 L 283.5 135.5" stroke="black" fill="transparent" stroke-width="1"/><path d="M 286.5 138.5 L 283.5 135.5 L 280.5 138.5" stroke="black" fill="transparent" stroke-width="1"/><path d="M 365.5 186.5 L 389.5 186.5" stroke="black" fill="transparent" stroke-width="1"/><path d="M 386.5 189.5 L 389.5 186.5 L 386.5 183.5" stroke="black" fill="transparent" stroke-width="1"/><path d="M 365.5 246.5 L 389.5 246.5" stroke="black" fill="transparent" stroke-width="1"/><path d="M 386.5 249.5 L 389.5 246.5 L 386.5 243.5" stroke="black" fill="transparent" stroke-width="1"/><path d="M 456.5 135.5 L 456.5 159.5" stroke="black" fill="transparent" stroke-width="1"/><path d="M 453.5 156.5 L 456.5 159.5 L 459.5 156.5" stroke="black" fill="transparent" stroke-width="1"/><path d="M 459.5 138.5 L 456.5 135.5 L 453.5 138.5" stroke="black" fill="transparent" stroke-width="1"/><path d="M 456.5 273.5 L 456.5 297.5" stroke="black" fill="transparent" stroke-width="1"/><path d="M 453.5 294.5 L 456.5 297.5 L 459.5 294.5" stroke="black" fill="transparent" stroke-width="1"/><path d="M 459.5 276.5 L 456.5 273.5 L 453.5 276.5" stroke="black" fill="transparent" stroke-width="1"/><path d="M 547.5 186.5 L 523.5 186.5" stroke="black" fill="transparent" stroke-width="1"/><path d="M 526.5 183.5 L 523.5 186.5 L 526.5 189.5" stroke="black" fill="transparent" stroke-width="1"/><path d="M 547.5 246.5 L 523.5 246.5" stroke="black" fill="transparent" stroke-width="1"/><path d="M 526.5 243.5 L 523.5 246.5 L 526.5 249.5" stroke="black" fill="transparent" stroke-width="1"/><path d="M 613.5 297.5 L 613.5 273.5" stroke="black" fill="transparent" stroke-width="1"/><path d="M 616.5 276.5 L 613.5 273.5 L 610.5 276.5" stroke="black" fill="transparent" stroke-width="1"/><path d="M 613.5 351.5 L 613.5 375.5" stroke="black" fill="transparent" stroke-width="1"/><path d="M 610.5 372.5 L 613.5 375.5 L 616.5 372.5" stroke="black" fill="transparent" stroke-width="1"/><path d="M 613.5 429.5 L 613.5 453.5" stroke="black" fill="transparent" stroke-width="1"/><path d="M 610.5 450.5 L 613.5 453.5 L 616.5 450.5" stroke="black" fill="transparent" stroke-width="1"/><text x="613" y="457" text-anchor="middle" dominant-baseline="hanging">To TDMA-RISC</text><rect x="203.5" y="317.5" width="160" height="50" stroke="black" fill="#f4d7e3" stroke-width="1"/><text x="283" y="332" text-anchor="middle" dominant-baseline="middle">Lane Configuration</text><text x="283" y="352" text-anchor="middle" dominant-baseline="middle">8x 18b</text><rect x="203.5" y="377.5" width="160" height="50" stroke="black" fill="#f4d7e3" stroke-width="1"/><text x="283" y="392" text-anchor="middle" dominant-baseline="middle"><tspan font-family="monospace">SFPLOADMACRO</tspan></text><text x="283" y="412" text-anchor="middle" dominant-baseline="middle">Configuration; 8x 268b</text><path d="M 177.5 342.5 L 201.5 342.5" stroke="black" fill="transparent" stroke-width="1"/><path d="M 198.5 345.5 L 201.5 342.5 L 198.5 339.5" stroke="black" fill="transparent" stroke-width="1"/><path d="M 180.5 339.5 L 177.5 342.5 L 180.5 345.5" stroke="black" fill="transparent" stroke-width="1"/><path d="M 177.5 402.5 L 201.5 402.5" stroke="black" fill="transparent" stroke-width="1"/><path d="M 198.5 405.5 L 201.5 402.5 L 198.5 399.5" stroke="black" fill="transparent" stroke-width="1"/><path d="M 180.5 399.5 L 177.5 402.5 L 180.5 405.5" stroke="black" fill="transparent" stroke-width="1"/><path d="M 705.5 93.5 L 715.5 98.5 L 715.5 334.5 L 705.5 339.5 Z" stroke="black" fill="#e9ddaf" stroke-width="1"/><path d="M 679.5 108.5 L 703.5 108.5" stroke="black" fill="transparent" stroke-width="1"/><path d="M 700.5 111.5 L 703.5 108.5 L 700.5 105.5" stroke="black" fill="transparent" stroke-width="1"/><path d="M 679.5 216.5 L 703.5 216.5" stroke="black" fill="transparent" stroke-width="1"/><path d="M 700.5 219.5 L 703.5 216.5 L 700.5 213.5" stroke="black" fill="transparent" stroke-width="1"/><path d="M 682.5 213.5 L 679.5 216.5 L 682.5 219.5" stroke="black" fill="transparent" stroke-width="1"/><path d="M 679.5 324.5 L 703.5 324.5" stroke="black" fill="transparent" stroke-width="1"/><path d="M 700.5 327.5 L 703.5 324.5 L 700.5 321.5" stroke="black" fill="transparent" stroke-width="1"/><path d="M 743.5 146.5 L 753.5 141.5 L 753.5 291.5 L 743.5 286.5 Z" stroke="black" fill="#e9ddaf" stroke-width="1"/><path d="M 715.5 216.5 L 743.5 216.5" stroke="black" fill="transparent" stroke-width="1"/><path d="M 753.5 156.5 L 773.5 156.5" stroke="black" fill="transparent" stroke-width="1"/><path d="M 770.5 159.5 L 773.5 156.5 L 770.5 153.5" stroke="black" fill="transparent" stroke-width="1"/><text x="777" y="157" text-anchor="start" dominant-baseline="middle">NoC 0 Configuration / Command</text><path d="M 753.5 180.5 L 773.5 180.5" stroke="black" fill="transparent" stroke-width="1"/><path d="M 770.5 183.5 L 773.5 180.5 L 770.5 177.5" stroke="black" fill="transparent" stroke-width="1"/><text x="777" y="181" text-anchor="start" dominant-baseline="middle">NoC 1 Configuration / Command</text><path d="M 753.5 204.5 L 773.5 204.5" stroke="black" fill="transparent" stroke-width="1"/><path d="M 770.5 207.5 L 773.5 204.5 L 770.5 201.5" stroke="black" fill="transparent" stroke-width="1"/><text x="777" y="205" text-anchor="start" dominant-baseline="middle">NoC Overlay Configuration / Command</text><path d="M 753.5 228.5 L 773.5 228.5" stroke="black" fill="transparent" stroke-width="1"/><path d="M 770.5 231.5 L 773.5 228.5 L 770.5 225.5" stroke="black" fill="transparent" stroke-width="1"/><text x="777" y="229" text-anchor="start" dominant-baseline="middle">TDMA-RISC Configuration / Command</text><path d="M 753.5 252.5 L 773.5 252.5" stroke="black" fill="transparent" stroke-width="1"/><path d="M 770.5 255.5 L 773.5 252.5 L 770.5 249.5" stroke="black" fill="transparent" stroke-width="1"/><text x="777" y="253" text-anchor="start" dominant-baseline="middle">PIC Configuration / Status</text><path d="M 753.5 276.5 L 773.5 276.5" stroke="black" fill="transparent" stroke-width="1"/><path d="M 770.5 279.5 L 773.5 276.5 L 770.5 273.5" stroke="black" fill="transparent" stroke-width="1"/><text x="777" y="277" text-anchor="start" dominant-baseline="middle">Tile Control / Debug / Status</text></svg>
