<svg version="1.1" width="1035" height="996" xmlns="http://www.w3.org/2000/svg"><rect width="1035" height="996" rx="15" stroke="transparent" fill="white"/><rect x="10.5" y="85" width="155" height="50" stroke="black" fill="#d4aa00" stroke-width="1"/><text x="88" y="100" text-anchor="middle" dominant-baseline="middle">T0</text><text x="88" y="120" text-anchor="middle" dominant-baseline="middle">Auto TTSync</text><rect x="10.5" y="171" width="155" height="30" stroke="black" fill="#f4d7e3" stroke-width="1"/><text x="88" y="186" text-anchor="middle" dominant-baseline="middle">FIFO; 29-32x 32b</text><rect x="10.5" y="237" width="155" height="50" stroke="black" fill="#d4aa00" stroke-width="1"/><text x="88" y="252" text-anchor="middle" dominant-baseline="middle">T0</text><text x="88" y="272" text-anchor="middle" dominant-baseline="middle">MOP Expander</text><rect x="171.5" y="237" width="155" height="50" stroke="black" fill="#f4d7e3" stroke-width="1"/><text x="249" y="252" text-anchor="middle" dominant-baseline="middle">Instructions and</text><text x="249" y="272" text-anchor="middle" dominant-baseline="middle">counts; 9x 32b</text><path d="M 159.5 249 L 159.5 243 L 150.5 252 L 159.5 261 L 159.5 255 L 181.5 255 L 181.5 249 Z" stroke="transparent" fill="black" stroke-width="1"/>
<path d="M 159.5 269 L 159.5 263 L 150.5 272 L 159.5 281 L 159.5 275 L 181.5 275 L 181.5 269 Z" stroke="transparent" fill="#aaaaff" stroke-width="1"/>
<text x="88" y="44" text-anchor="middle" dominant-baseline="auto"><tspan font-family="monospace">INSTRN_BUF_BASE</tspan></text><text x="88" y="24" text-anchor="middle" dominant-baseline="auto">RISCV T0</text><text x="249" y="44" text-anchor="middle" dominant-baseline="auto"><tspan font-family="monospace">TENSIX_MOP_CFG_BASE</tspan></text><text x="249" y="24" text-anchor="middle" dominant-baseline="auto">RISCV T0</text><path d="M 249 49 L 249 235" stroke="black" fill="transparent" stroke-width="1"/><path d="M 246 232 L 249 235 L 252 232" stroke="black" fill="transparent" stroke-width="1"/><path d="M 68 362 L 295 362 L 290 372 L 73 372 Z" stroke="black" fill="#e9ddaf" stroke-width="1"/><text x="181" y="333" text-anchor="middle" dominant-baseline="auto"><tspan font-family="monospace">INSTRN_BUF_BASE</tspan></text><text x="181" y="313" text-anchor="middle" dominant-baseline="auto">RISCV B</text><text x="275" y="333" text-anchor="middle" dominant-baseline="auto">bus</text><text x="275" y="313" text-anchor="middle" dominant-baseline="auto">Debug</text><rect x="10.5" y="408" width="155" height="30" stroke="black" fill="#f4d7e3" stroke-width="1"/><text x="88" y="423" text-anchor="middle" dominant-baseline="middle">FIFO; 8x 32b</text><rect x="10.5" y="474" width="155" height="50" stroke="black" fill="#d4aa00" stroke-width="1"/><text x="88" y="489" text-anchor="middle" dominant-baseline="middle">T0</text><text x="88" y="509" text-anchor="middle" dominant-baseline="middle">Replay Expander</text><rect x="171.5" y="474" width="155" height="50" stroke="black" fill="#f4d7e3" stroke-width="1"/><text x="249" y="489" text-anchor="middle" dominant-baseline="middle">Instruction buffer</text><text x="249" y="509" text-anchor="middle" dominant-baseline="middle">32x 32b</text><path d="M 155.5 486 L 155.5 492 L 177.5 492 L 177.5 498 L 186.5 489 L 177.5 480 L 177.5 486 Z" stroke="transparent" fill="#aaaaff" stroke-width="1"/>
<path d="M 159.5 506 L 159.5 500 L 150.5 509 L 159.5 518 L 159.5 512 L 181.5 512 L 181.5 506 Z" stroke="transparent" fill="#aaaaff" stroke-width="1"/>
<rect x="10.5" y="560" width="155" height="30" stroke="black" fill="#f4d7e3" stroke-width="1"/><text x="88" y="575" text-anchor="middle" dominant-baseline="middle">FIFO; 2x 32b</text><rect x="10.5" y="626" width="155" height="50" stroke="black" fill="#d4aa00" stroke-width="1"/><text x="88" y="641" text-anchor="middle" dominant-baseline="middle">T0</text><text x="88" y="661" text-anchor="middle" dominant-baseline="middle">Wait Gate</text><rect x="171.5" y="626" width="155" height="50" stroke="black" fill="#f4d7e3" stroke-width="1"/><text x="249" y="641" text-anchor="middle" dominant-baseline="middle">Latched wait</text><text x="249" y="661" text-anchor="middle" dominant-baseline="middle">instruction; 32b</text><path d="M 159.5 648 L 159.5 642 L 150.5 651 L 159.5 660 L 159.5 654 L 181.5 654 L 181.5 648 Z" stroke="transparent" fill="black" stroke-width="1"/>
<path d="M 91 49 L 88 50.5 L 85 49 L 85 75 L 79 75 L 88 84 L 97 75 L 91 75 Z" stroke="transparent" fill="#aaaaff" stroke-width="1"/>
<text x="93" y="66" text-anchor="start" dominant-baseline="middle">4 Instructions</text><path d="M 91 136 L 88 137.5 L 85 136 L 85 161 L 79 161 L 88 170 L 97 161 L 91 161 Z" stroke="transparent" fill="#aaaaff" stroke-width="1"/>
<text x="93" y="153" text-anchor="start" dominant-baseline="middle">4 Instructions</text><path d="M 91 202 L 88 203.5 L 85 202 L 85 227 L 79 227 L 88 236 L 97 227 L 91 227 Z" stroke="transparent" fill="#aaaaff" stroke-width="1"/>
<text x="93" y="219" text-anchor="start" dominant-baseline="middle">1 Instruction</text><path d="M 91 288 L 88 289.5 L 85 288 L 85 361.5 L 91 361.5 Z" stroke="transparent" fill="#aaaaff" stroke-width="1"/>
<path d="M 91 372.5 L 85 372.5 L 85 398 L 79 398 L 88 407 L 97 398 L 91 398 Z" stroke="transparent" fill="#aaaaff" stroke-width="1"/>
<text x="93" y="389" text-anchor="start" dominant-baseline="middle">1 Instruction</text><path d="M 91 439 L 88 440.5 L 85 439 L 85 464 L 79 464 L 88 473 L 97 464 L 91 464 Z" stroke="transparent" fill="#aaaaff" stroke-width="1"/>
<text x="93" y="456" text-anchor="start" dominant-baseline="middle">1 Instruction</text><path d="M 91 525 L 88 526.5 L 85 525 L 85 550 L 79 550 L 88 559 L 97 550 L 91 550 Z" stroke="transparent" fill="#aaaaff" stroke-width="1"/>
<text x="93" y="542" text-anchor="start" dominant-baseline="middle">1 Instruction</text><path d="M 91 591 L 88 592.5 L 85 591 L 85 616 L 79 616 L 88 625 L 97 616 L 91 616 Z" stroke="transparent" fill="#aaaaff" stroke-width="1"/>
<text x="93" y="608" text-anchor="start" dominant-baseline="middle">1 Instruction</text><path d="M 184.5 338 L 181.5 339.5 L 178.5 338 L 178.5 361.5 L 184.5 361.5 Z" stroke="transparent" fill="#aaaaff" stroke-width="1"/>
<path d="M 278 338 L 275 339.5 L 272 338 L 272 361.5 L 278 361.5 Z" stroke="transparent" fill="#aaaaff" stroke-width="1"/>
<path d="M 18.5 110 L 8.5 110 Q 5.5 110 5.5 113 L 5.5 648 Q 5.5 651 8.5 651 L 18.5 651" stroke="black" fill="transparent" stroke-width="1"/><path d="M 15.5 654 L 18.5 651 L 15.5 648" stroke="black" fill="transparent" stroke-width="1"/><path d="M 15.5 113 L 18.5 110 L 15.5 107" stroke="black" fill="transparent" stroke-width="1"/><rect x="338.5" y="85" width="155" height="50" stroke="black" fill="#d4aa00" stroke-width="1"/><text x="416" y="100" text-anchor="middle" dominant-baseline="middle">T1</text><text x="416" y="120" text-anchor="middle" dominant-baseline="middle">Auto TTSync</text><rect x="338.5" y="171" width="155" height="30" stroke="black" fill="#f4d7e3" stroke-width="1"/><text x="416" y="186" text-anchor="middle" dominant-baseline="middle">FIFO; 29-32x 32b</text><rect x="338.5" y="237" width="155" height="50" stroke="black" fill="#d4aa00" stroke-width="1"/><text x="416" y="252" text-anchor="middle" dominant-baseline="middle">T1</text><text x="416" y="272" text-anchor="middle" dominant-baseline="middle">MOP Expander</text><rect x="499.5" y="237" width="155" height="50" stroke="black" fill="#f4d7e3" stroke-width="1"/><text x="577" y="252" text-anchor="middle" dominant-baseline="middle">Instructions and</text><text x="577" y="272" text-anchor="middle" dominant-baseline="middle">counts; 9x 32b</text><path d="M 487.5 249 L 487.5 243 L 478.5 252 L 487.5 261 L 487.5 255 L 509.5 255 L 509.5 249 Z" stroke="transparent" fill="black" stroke-width="1"/>
<path d="M 487.5 269 L 487.5 263 L 478.5 272 L 487.5 281 L 487.5 275 L 509.5 275 L 509.5 269 Z" stroke="transparent" fill="#aaaaff" stroke-width="1"/>
<text x="416" y="44" text-anchor="middle" dominant-baseline="auto"><tspan font-family="monospace">INSTRN_BUF_BASE</tspan></text><text x="416" y="24" text-anchor="middle" dominant-baseline="auto">RISCV T1</text><text x="577" y="44" text-anchor="middle" dominant-baseline="auto"><tspan font-family="monospace">TENSIX_MOP_CFG_BASE</tspan></text><text x="577" y="24" text-anchor="middle" dominant-baseline="auto">RISCV T1</text><path d="M 577 49 L 577 235" stroke="black" fill="transparent" stroke-width="1"/><path d="M 574 232 L 577 235 L 580 232" stroke="black" fill="transparent" stroke-width="1"/><path d="M 396 362 L 623 362 L 618 372 L 401 372 Z" stroke="black" fill="#e9ddaf" stroke-width="1"/><text x="509" y="333" text-anchor="middle" dominant-baseline="auto"><tspan font-family="monospace">INSTRN1_BUF_BASE</tspan></text><text x="509" y="313" text-anchor="middle" dominant-baseline="auto">RISCV B</text><text x="603" y="333" text-anchor="middle" dominant-baseline="auto">bus</text><text x="603" y="313" text-anchor="middle" dominant-baseline="auto">Debug</text><rect x="338.5" y="408" width="155" height="30" stroke="black" fill="#f4d7e3" stroke-width="1"/><text x="416" y="423" text-anchor="middle" dominant-baseline="middle">FIFO; 8x 32b</text><rect x="338.5" y="474" width="155" height="50" stroke="black" fill="#d4aa00" stroke-width="1"/><text x="416" y="489" text-anchor="middle" dominant-baseline="middle">T1</text><text x="416" y="509" text-anchor="middle" dominant-baseline="middle">Replay Expander</text><rect x="499.5" y="474" width="155" height="50" stroke="black" fill="#f4d7e3" stroke-width="1"/><text x="577" y="489" text-anchor="middle" dominant-baseline="middle">Instruction buffer</text><text x="577" y="509" text-anchor="middle" dominant-baseline="middle">32x 32b</text><path d="M 483.5 486 L 483.5 492 L 505.5 492 L 505.5 498 L 514.5 489 L 505.5 480 L 505.5 486 Z" stroke="transparent" fill="#aaaaff" stroke-width="1"/>
<path d="M 487.5 506 L 487.5 500 L 478.5 509 L 487.5 518 L 487.5 512 L 509.5 512 L 509.5 506 Z" stroke="transparent" fill="#aaaaff" stroke-width="1"/>
<rect x="338.5" y="560" width="155" height="30" stroke="black" fill="#f4d7e3" stroke-width="1"/><text x="416" y="575" text-anchor="middle" dominant-baseline="middle">FIFO; 2x 32b</text><rect x="338.5" y="626" width="155" height="50" stroke="black" fill="#d4aa00" stroke-width="1"/><text x="416" y="641" text-anchor="middle" dominant-baseline="middle">T1</text><text x="416" y="661" text-anchor="middle" dominant-baseline="middle">Wait Gate</text><rect x="499.5" y="626" width="155" height="50" stroke="black" fill="#f4d7e3" stroke-width="1"/><text x="577" y="641" text-anchor="middle" dominant-baseline="middle">Latched wait</text><text x="577" y="661" text-anchor="middle" dominant-baseline="middle">instruction; 32b</text><path d="M 487.5 648 L 487.5 642 L 478.5 651 L 487.5 660 L 487.5 654 L 509.5 654 L 509.5 648 Z" stroke="transparent" fill="black" stroke-width="1"/>
<path d="M 419 49 L 416 50.5 L 413 49 L 413 75 L 407 75 L 416 84 L 425 75 L 419 75 Z" stroke="transparent" fill="#aaaaff" stroke-width="1"/>
<text x="421" y="66" text-anchor="start" dominant-baseline="middle">4 Instructions</text><path d="M 419 136 L 416 137.5 L 413 136 L 413 161 L 407 161 L 416 170 L 425 161 L 419 161 Z" stroke="transparent" fill="#aaaaff" stroke-width="1"/>
<text x="421" y="153" text-anchor="start" dominant-baseline="middle">4 Instructions</text><path d="M 419 202 L 416 203.5 L 413 202 L 413 227 L 407 227 L 416 236 L 425 227 L 419 227 Z" stroke="transparent" fill="#aaaaff" stroke-width="1"/>
<text x="421" y="219" text-anchor="start" dominant-baseline="middle">1 Instruction</text><path d="M 419 288 L 416 289.5 L 413 288 L 413 361.5 L 419 361.5 Z" stroke="transparent" fill="#aaaaff" stroke-width="1"/>
<path d="M 419 372.5 L 413 372.5 L 413 398 L 407 398 L 416 407 L 425 398 L 419 398 Z" stroke="transparent" fill="#aaaaff" stroke-width="1"/>
<text x="421" y="389" text-anchor="start" dominant-baseline="middle">1 Instruction</text><path d="M 419 439 L 416 440.5 L 413 439 L 413 464 L 407 464 L 416 473 L 425 464 L 419 464 Z" stroke="transparent" fill="#aaaaff" stroke-width="1"/>
<text x="421" y="456" text-anchor="start" dominant-baseline="middle">1 Instruction</text><path d="M 419 525 L 416 526.5 L 413 525 L 413 550 L 407 550 L 416 559 L 425 550 L 419 550 Z" stroke="transparent" fill="#aaaaff" stroke-width="1"/>
<text x="421" y="542" text-anchor="start" dominant-baseline="middle">1 Instruction</text><path d="M 419 591 L 416 592.5 L 413 591 L 413 616 L 407 616 L 416 625 L 425 616 L 419 616 Z" stroke="transparent" fill="#aaaaff" stroke-width="1"/>
<text x="421" y="608" text-anchor="start" dominant-baseline="middle">1 Instruction</text><path d="M 512.5 338 L 509.5 339.5 L 506.5 338 L 506.5 361.5 L 512.5 361.5 Z" stroke="transparent" fill="#aaaaff" stroke-width="1"/>
<path d="M 606 338 L 603 339.5 L 600 338 L 600 361.5 L 606 361.5 Z" stroke="transparent" fill="#aaaaff" stroke-width="1"/>
<path d="M 346.5 110 L 336.5 110 Q 333.5 110 333.5 113 L 333.5 648 Q 333.5 651 336.5 651 L 346.5 651" stroke="black" fill="transparent" stroke-width="1"/><path d="M 343.5 654 L 346.5 651 L 343.5 648" stroke="black" fill="transparent" stroke-width="1"/><path d="M 343.5 113 L 346.5 110 L 343.5 107" stroke="black" fill="transparent" stroke-width="1"/><rect x="666.5" y="85" width="155" height="50" stroke="black" fill="#d4aa00" stroke-width="1"/><text x="744" y="100" text-anchor="middle" dominant-baseline="middle">T2</text><text x="744" y="120" text-anchor="middle" dominant-baseline="middle">Auto TTSync</text><rect x="666.5" y="171" width="155" height="30" stroke="black" fill="#f4d7e3" stroke-width="1"/><text x="744" y="186" text-anchor="middle" dominant-baseline="middle">FIFO; 29-32x 32b</text><rect x="666.5" y="237" width="155" height="50" stroke="black" fill="#d4aa00" stroke-width="1"/><text x="744" y="252" text-anchor="middle" dominant-baseline="middle">T2</text><text x="744" y="272" text-anchor="middle" dominant-baseline="middle">MOP Expander</text><rect x="827.5" y="237" width="155" height="50" stroke="black" fill="#f4d7e3" stroke-width="1"/><text x="905" y="252" text-anchor="middle" dominant-baseline="middle">Instructions and</text><text x="905" y="272" text-anchor="middle" dominant-baseline="middle">counts; 9x 32b</text><path d="M 815.5 249 L 815.5 243 L 806.5 252 L 815.5 261 L 815.5 255 L 837.5 255 L 837.5 249 Z" stroke="transparent" fill="black" stroke-width="1"/>
<path d="M 815.5 269 L 815.5 263 L 806.5 272 L 815.5 281 L 815.5 275 L 837.5 275 L 837.5 269 Z" stroke="transparent" fill="#aaaaff" stroke-width="1"/>
<text x="744" y="44" text-anchor="middle" dominant-baseline="auto"><tspan font-family="monospace">INSTRN_BUF_BASE</tspan></text><text x="744" y="24" text-anchor="middle" dominant-baseline="auto">RISCV T2</text><text x="905" y="44" text-anchor="middle" dominant-baseline="auto"><tspan font-family="monospace">TENSIX_MOP_CFG_BASE</tspan></text><text x="905" y="24" text-anchor="middle" dominant-baseline="auto">RISCV T2</text><path d="M 905 49 L 905 235" stroke="black" fill="transparent" stroke-width="1"/><path d="M 902 232 L 905 235 L 908 232" stroke="black" fill="transparent" stroke-width="1"/><path d="M 724 362 L 951 362 L 946 372 L 729 372 Z" stroke="black" fill="#e9ddaf" stroke-width="1"/><text x="837" y="333" text-anchor="middle" dominant-baseline="auto"><tspan font-family="monospace">INSTRN2_BUF_BASE</tspan></text><text x="837" y="313" text-anchor="middle" dominant-baseline="auto">RISCV B</text><text x="931" y="333" text-anchor="middle" dominant-baseline="auto">bus</text><text x="931" y="313" text-anchor="middle" dominant-baseline="auto">Debug</text><rect x="666.5" y="408" width="155" height="30" stroke="black" fill="#f4d7e3" stroke-width="1"/><text x="744" y="423" text-anchor="middle" dominant-baseline="middle">FIFO; 8x 32b</text><rect x="666.5" y="474" width="155" height="50" stroke="black" fill="#d4aa00" stroke-width="1"/><text x="744" y="489" text-anchor="middle" dominant-baseline="middle">T2</text><text x="744" y="509" text-anchor="middle" dominant-baseline="middle">Replay Expander</text><rect x="827.5" y="474" width="155" height="50" stroke="black" fill="#f4d7e3" stroke-width="1"/><text x="905" y="489" text-anchor="middle" dominant-baseline="middle">Instruction buffer</text><text x="905" y="509" text-anchor="middle" dominant-baseline="middle">32x 32b</text><path d="M 811.5 486 L 811.5 492 L 833.5 492 L 833.5 498 L 842.5 489 L 833.5 480 L 833.5 486 Z" stroke="transparent" fill="#aaaaff" stroke-width="1"/>
<path d="M 815.5 506 L 815.5 500 L 806.5 509 L 815.5 518 L 815.5 512 L 837.5 512 L 837.5 506 Z" stroke="transparent" fill="#aaaaff" stroke-width="1"/>
<rect x="666.5" y="560" width="155" height="30" stroke="black" fill="#f4d7e3" stroke-width="1"/><text x="744" y="575" text-anchor="middle" dominant-baseline="middle">FIFO; 2x 32b</text><rect x="666.5" y="626" width="155" height="50" stroke="black" fill="#d4aa00" stroke-width="1"/><text x="744" y="641" text-anchor="middle" dominant-baseline="middle">T2</text><text x="744" y="661" text-anchor="middle" dominant-baseline="middle">Wait Gate</text><rect x="827.5" y="626" width="155" height="50" stroke="black" fill="#f4d7e3" stroke-width="1"/><text x="905" y="641" text-anchor="middle" dominant-baseline="middle">Latched wait</text><text x="905" y="661" text-anchor="middle" dominant-baseline="middle">instruction; 32b</text><path d="M 815.5 648 L 815.5 642 L 806.5 651 L 815.5 660 L 815.5 654 L 837.5 654 L 837.5 648 Z" stroke="transparent" fill="black" stroke-width="1"/>
<path d="M 747 49 L 744 50.5 L 741 49 L 741 75 L 735 75 L 744 84 L 753 75 L 747 75 Z" stroke="transparent" fill="#aaaaff" stroke-width="1"/>
<text x="749" y="66" text-anchor="start" dominant-baseline="middle">4 Instructions</text><path d="M 747 136 L 744 137.5 L 741 136 L 741 161 L 735 161 L 744 170 L 753 161 L 747 161 Z" stroke="transparent" fill="#aaaaff" stroke-width="1"/>
<text x="749" y="153" text-anchor="start" dominant-baseline="middle">4 Instructions</text><path d="M 747 202 L 744 203.5 L 741 202 L 741 227 L 735 227 L 744 236 L 753 227 L 747 227 Z" stroke="transparent" fill="#aaaaff" stroke-width="1"/>
<text x="749" y="219" text-anchor="start" dominant-baseline="middle">1 Instruction</text><path d="M 747 288 L 744 289.5 L 741 288 L 741 361.5 L 747 361.5 Z" stroke="transparent" fill="#aaaaff" stroke-width="1"/>
<path d="M 747 372.5 L 741 372.5 L 741 398 L 735 398 L 744 407 L 753 398 L 747 398 Z" stroke="transparent" fill="#aaaaff" stroke-width="1"/>
<text x="749" y="389" text-anchor="start" dominant-baseline="middle">1 Instruction</text><path d="M 747 439 L 744 440.5 L 741 439 L 741 464 L 735 464 L 744 473 L 753 464 L 747 464 Z" stroke="transparent" fill="#aaaaff" stroke-width="1"/>
<text x="749" y="456" text-anchor="start" dominant-baseline="middle">1 Instruction</text><path d="M 747 525 L 744 526.5 L 741 525 L 741 550 L 735 550 L 744 559 L 753 550 L 747 550 Z" stroke="transparent" fill="#aaaaff" stroke-width="1"/>
<text x="749" y="542" text-anchor="start" dominant-baseline="middle">1 Instruction</text><path d="M 747 591 L 744 592.5 L 741 591 L 741 616 L 735 616 L 744 625 L 753 616 L 747 616 Z" stroke="transparent" fill="#aaaaff" stroke-width="1"/>
<text x="749" y="608" text-anchor="start" dominant-baseline="middle">1 Instruction</text><path d="M 840.5 338 L 837.5 339.5 L 834.5 338 L 834.5 361.5 L 840.5 361.5 Z" stroke="transparent" fill="#aaaaff" stroke-width="1"/>
<path d="M 934 338 L 931 339.5 L 928 338 L 928 361.5 L 934 361.5 Z" stroke="transparent" fill="#aaaaff" stroke-width="1"/>
<path d="M 674.5 110 L 664.5 110 Q 661.5 110 661.5 113 L 661.5 648 Q 661.5 651 664.5 651 L 674.5 651" stroke="black" fill="transparent" stroke-width="1"/><path d="M 671.5 654 L 674.5 651 L 671.5 648" stroke="black" fill="transparent" stroke-width="1"/><path d="M 671.5 113 L 674.5 110 L 671.5 107" stroke="black" fill="transparent" stroke-width="1"/><rect x="10.5" y="758" width="103" height="156" stroke="black" fill="#d4aa00" stroke-width="1"/><text x="62" y="783" text-anchor="middle" dominant-baseline="middle">Sync Unit</text><text x="62" y="803" text-anchor="middle" dominant-baseline="middle"></text><rect x="119.5" y="758" width="102" height="100" stroke="black" fill="#d4aa00" stroke-width="1"/><text x="170" y="783" text-anchor="middle" dominant-baseline="middle">Unpackers</text><text x="170" y="803" text-anchor="middle" dominant-baseline="middle"></text><rect x="227.5" y="758" width="103" height="100" stroke="black" fill="#d4aa00" stroke-width="1"/><text x="279" y="783" text-anchor="middle" dominant-baseline="middle">Matrix Unit</text><text x="279" y="803" text-anchor="middle" dominant-baseline="middle">(FPU)</text><rect x="336.5" y="758" width="103" height="100" stroke="black" fill="#d4aa00" stroke-width="1"/><text x="388" y="783" text-anchor="middle" dominant-baseline="middle">Packers</text><text x="388" y="803" text-anchor="middle" dominant-baseline="middle"></text><rect x="445.5" y="758" width="102" height="100" stroke="black" fill="#d4aa00" stroke-width="1"/><text x="496" y="783" text-anchor="middle" dominant-baseline="middle">Vector Unit</text><text x="496" y="803" text-anchor="middle" dominant-baseline="middle">(SFPU)</text><rect x="553.5" y="758" width="103" height="100" stroke="black" fill="#d4aa00" stroke-width="1"/><text x="605" y="783" text-anchor="middle" dominant-baseline="middle">Scalar Unit</text><text x="605" y="803" text-anchor="middle" dominant-baseline="middle">(ThCon)</text><rect x="662.5" y="758" width="103" height="100" stroke="black" fill="#d4aa00" stroke-width="1"/><text x="714" y="783" text-anchor="middle" dominant-baseline="middle">Configuration</text><text x="714" y="803" text-anchor="middle" dominant-baseline="middle">Unit</text><rect x="771.5" y="758" width="102" height="100" stroke="black" fill="#d4aa00" stroke-width="1"/><text x="822" y="783" text-anchor="middle" dominant-baseline="middle">Mover</text><text x="822" y="803" text-anchor="middle" dominant-baseline="middle"></text><rect x="879.5" y="758" width="103" height="156" stroke="black" fill="#d4aa00" stroke-width="1"/><text x="931" y="783" text-anchor="middle" dominant-baseline="middle">Miscellaneous</text><text x="931" y="803" text-anchor="middle" dominant-baseline="middle">Unit</text><path d="M 47 712 L 946 712 L 951 722 L 42 722 Z" stroke="black" fill="#e9ddaf" stroke-width="1"/><path d="M 65 722.5 L 59 722.5 L 59 748 L 53 748 L 62 757 L 71 748 L 65 748 Z" stroke="transparent" fill="#aaaaff" stroke-width="1"/>
<text x="67" y="740" text-anchor="start" dominant-baseline="middle">3 Instructions</text><path d="M 173.5 722.5 L 167.5 722.5 L 167.5 748 L 161.5 748 L 170.5 757 L 179.5 748 L 173.5 748 Z" stroke="transparent" fill="#aaaaff" stroke-width="1"/>
<text x="175" y="740" text-anchor="start" dominant-baseline="middle">1 Instruction</text><path d="M 282 722.5 L 276 722.5 L 276 748 L 270 748 L 279 757 L 288 748 L 282 748 Z" stroke="transparent" fill="#aaaaff" stroke-width="1"/>
<text x="284" y="740" text-anchor="start" dominant-baseline="middle">1 Instruction</text><path d="M 391 722.5 L 385 722.5 L 385 748 L 379 748 L 388 757 L 397 748 L 391 748 Z" stroke="transparent" fill="#aaaaff" stroke-width="1"/>
<text x="393" y="740" text-anchor="start" dominant-baseline="middle">1 Instruction</text><path d="M 499.5 722.5 L 493.5 722.5 L 493.5 748 L 487.5 748 L 496.5 757 L 505.5 748 L 499.5 748 Z" stroke="transparent" fill="#aaaaff" stroke-width="1"/>
<text x="501" y="740" text-anchor="start" dominant-baseline="middle">1 Instruction</text><path d="M 608 722.5 L 602 722.5 L 602 748 L 596 748 L 605 757 L 614 748 L 608 748 Z" stroke="transparent" fill="#aaaaff" stroke-width="1"/>
<text x="610" y="740" text-anchor="start" dominant-baseline="middle">1 Instruction</text><path d="M 717 722.5 L 711 722.5 L 711 748 L 705 748 L 714 757 L 723 748 L 717 748 Z" stroke="transparent" fill="#aaaaff" stroke-width="1"/>
<text x="719" y="740" text-anchor="start" dominant-baseline="middle">3 Instructions</text><path d="M 825.5 722.5 L 819.5 722.5 L 819.5 748 L 813.5 748 L 822.5 757 L 831.5 748 L 825.5 748 Z" stroke="transparent" fill="#aaaaff" stroke-width="1"/>
<text x="827" y="740" text-anchor="start" dominant-baseline="middle">1 Instruction</text><path d="M 934 722.5 L 928 722.5 L 928 748 L 922 748 L 931 757 L 940 748 L 934 748 Z" stroke="transparent" fill="#aaaaff" stroke-width="1"/>
<text x="936" y="740" text-anchor="start" dominant-baseline="middle">3 Instructions</text><rect x="119.5" y="864" width="754" height="50" stroke="black" fill="#f4d7e3" stroke-width="1"/><text x="496" y="879" text-anchor="middle" dominant-baseline="middle">Backend Configuration</text><text x="496" y="899" text-anchor="middle" dominant-baseline="middle">398x 32b</text><path d="M 173.5 852 L 179.5 852 L 170.5 843 L 161.5 852 L 167.5 852 L 167.5 874 L 173.5 874 Z" stroke="transparent" fill="black" stroke-width="1"/>
<path d="M 282 852 L 288 852 L 279 843 L 270 852 L 276 852 L 276 874 L 282 874 Z" stroke="transparent" fill="black" stroke-width="1"/>
<path d="M 391 852 L 397 852 L 388 843 L 379 852 L 385 852 L 385 874 L 391 874 Z" stroke="transparent" fill="black" stroke-width="1"/>
<path d="M 717 852 L 723 852 L 714 843 L 705 852 L 711 852 L 711 870 L 705 870 L 714 879 L 723 870 L 717 870 Z" stroke="transparent" fill="black" stroke-width="1"/>
<path d="M 825.5 852 L 831.5 852 L 822.5 843 L 813.5 852 L 819.5 852 L 819.5 870 L 813.5 870 L 822.5 879 L 831.5 870 L 825.5 870 Z" stroke="transparent" fill="black" stroke-width="1"/>
<path d="M 18.5 758 L 18.5 691 Q 18.5 688 21.5 688 L 246 688 Q 249 688 249 685 L 249 678" stroke="black" fill="transparent" stroke-width="1"/><path d="M 252 681 L 249 678 L 246 681" stroke="black" fill="transparent" stroke-width="1"/><path d="M 26.5 758 L 26.5 699 Q 26.5 696 29.5 696 L 574 696 Q 577 696 577 693 L 577 678" stroke="black" fill="transparent" stroke-width="1"/><path d="M 580 681 L 577 678 L 574 681" stroke="black" fill="transparent" stroke-width="1"/><path d="M 34.5 758 L 34.5 707 Q 34.5 704 37.5 704 L 902 704 Q 905 704 905 701 L 905 678" stroke="black" fill="transparent" stroke-width="1"/><path d="M 908 681 L 905 678 L 902 681" stroke="black" fill="transparent" stroke-width="1"/><rect x="13.5" y="869" width="97" height="42" stroke="black" fill="#f4d7e3" stroke-width="1"/><text x="62" y="880" text-anchor="middle" dominant-baseline="middle">Semaphores</text><text x="62" y="900" text-anchor="middle" dominant-baseline="middle">8x 4b</text><rect x="13.5" y="824" width="97" height="42" stroke="black" fill="#f4d7e3" stroke-width="1"/><text x="62" y="835" text-anchor="middle" dominant-baseline="middle">Mutexes</text><text x="62" y="855" text-anchor="middle" dominant-baseline="middle">4x 2b</text><path d="M 91 677 L 88 678.5 L 85 677 L 85 711.5 L 91 711.5 Z" stroke="transparent" fill="#aaaaff" stroke-width="1"/>
<path d="M 419 677 L 416 678.5 L 413 677 L 413 711.5 L 419 711.5 Z" stroke="transparent" fill="#aaaaff" stroke-width="1"/>
<path d="M 747 677 L 744 678.5 L 741 677 L 741 711.5 L 747 711.5 Z" stroke="transparent" fill="#aaaaff" stroke-width="1"/>
<path d="M 714 950 L 714 904" stroke="black" fill="transparent" stroke-width="1"/><path d="M 717 907 L 714 904 L 711 907" stroke="black" fill="transparent" stroke-width="1"/><path d="M 711 947 L 714 950 L 717 947" stroke="black" fill="transparent" stroke-width="1"/><text x="714" y="955" text-anchor="middle" dominant-baseline="hanging">RISCV B / T0 / T1 / T2</text><text x="714" y="975" text-anchor="middle" dominant-baseline="hanging"><tspan font-family="monospace">TENSIX_CFG_BASE</tspan></text><path d="M 95.5 950 L 95.5 901" stroke="black" fill="transparent" stroke-width="1"/><path d="M 98.5 904 L 95.5 901 L 92.5 904" stroke="black" fill="transparent" stroke-width="1"/><path d="M 92.5 947 L 95.5 950 L 98.5 947" stroke="black" fill="transparent" stroke-width="1"/><text x="95" y="955" text-anchor="middle" dominant-baseline="hanging">RISCV T0 / T1 / T2</text><text x="95" y="975" text-anchor="middle" dominant-baseline="hanging"><tspan font-family="monospace">0xFFE80020</tspan></text></svg>
