<svg version="1.1" width="945" height="516" xmlns="http://www.w3.org/2000/svg"><rect width="945" height="516" rx="15" stroke="transparent" fill="white"/><rect x="5.5" y="5.5" width="90" height="350" stroke="black" fill="#d4aa00" stroke-width="1"/><text x="50" y="170" text-anchor="middle" dominant-baseline="middle">Matrix Unit</text><text x="50" y="190" text-anchor="middle" dominant-baseline="middle">(FPU)</text><rect x="5.5" y="360.5" width="90" height="150" stroke="black" fill="#d4aa00" stroke-width="1"/><text x="50" y="425" text-anchor="middle" dominant-baseline="middle">Vector Unit</text><text x="50" y="445" text-anchor="middle" dominant-baseline="middle">(SFPU)</text><rect x="123.5" y="5.5" width="120" height="70" stroke="black" fill="#f4d7e3" stroke-width="1"/><text x="183" y="30" text-anchor="middle" dominant-baseline="middle">SrcB</text><text x="183" y="50" text-anchor="middle" dominant-baseline="middle">2x 64x 16x 19b</text><rect x="123.5" y="80.5" width="120" height="70" stroke="black" fill="#f4d7e3" stroke-width="1"/><text x="183" y="105" text-anchor="middle" dominant-baseline="middle">SrcA</text><text x="183" y="125" text-anchor="middle" dominant-baseline="middle">2x 64x 16x 19b</text><rect x="123.5" y="440.5" width="120" height="70" stroke="black" fill="#f4d7e3" stroke-width="1"/><text x="183" y="455" text-anchor="middle" dominant-baseline="middle">LReg</text><text x="183" y="475" text-anchor="middle" dominant-baseline="middle">9x 32x 32b</text><text x="183" y="495" text-anchor="middle" dominant-baseline="middle">and 4x 8x 32b</text><rect x="123.5" y="155.5" width="120" height="280" stroke="black" fill="#f4d7e3" stroke-width="1"/><text x="183" y="275" text-anchor="middle" dominant-baseline="middle">Dst</text><text x="183" y="295" text-anchor="middle" dominant-baseline="middle">1024x 16x 16b</text><text x="183" y="315" text-anchor="middle" dominant-baseline="middle">or 512x 16x 32b</text><path d="M 104.5 37.5 L 104.5 31.5 L 95.5 40.5 L 104.5 49.5 L 104.5 43.5 L 114.5 43.5 L 114.5 49.5 L 123.5 40.5 L 114.5 31.5 L 114.5 37.5 Z" stroke="transparent" fill="black" stroke-width="1"/>
<path d="M 104.5 112.5 L 104.5 106.5 L 95.5 115.5 L 104.5 124.5 L 104.5 118.5 L 114.5 118.5 L 114.5 124.5 L 123.5 115.5 L 114.5 106.5 L 114.5 112.5 Z" stroke="transparent" fill="black" stroke-width="1"/>
<path d="M 104.5 252.5 L 104.5 246.5 L 95.5 255.5 L 104.5 264.5 L 104.5 258.5 L 114.5 258.5 L 114.5 264.5 L 123.5 255.5 L 114.5 246.5 L 114.5 252.5 Z" stroke="transparent" fill="black" stroke-width="1"/>
<path d="M 104.5 395 L 104.5 389 L 95.5 398 L 104.5 407 L 104.5 401 L 114.5 401 L 114.5 407 L 123.5 398 L 114.5 389 L 114.5 395 Z" stroke="transparent" fill="black" stroke-width="1"/>
<path d="M 104.5 472.5 L 104.5 466.5 L 95.5 475.5 L 104.5 484.5 L 104.5 478.5 L 114.5 478.5 L 114.5 484.5 L 123.5 475.5 L 114.5 466.5 L 114.5 472.5 Z" stroke="transparent" fill="black" stroke-width="1"/>
<path d="M 271.5 118 L 281.5 123 L 281.5 183 L 271.5 188 Z" stroke="black" fill="#e9ddaf" stroke-width="1"/><path d="M 252.5 131.25 L 252.5 125.25 L 243.5 134.25 L 252.5 143.25 L 252.5 137.25 L 271.5 137.25 L 271.5 131.25 Z" stroke="transparent" fill="black" stroke-width="1"/>
<path d="M 252.5 168.75 L 252.5 162.75 L 243.5 171.75 L 252.5 180.75 L 252.5 174.75 L 271.5 174.75 L 271.5 168.75 Z" stroke="transparent" fill="black" stroke-width="1"/>
<rect x="309.5" y="99" width="90" height="88" stroke="black" fill="#d4aa00" stroke-width="1"/><text x="354" y="143" text-anchor="middle" dominant-baseline="middle">Unpacker 0</text><path d="M 281.5 150 L 281.5 156 L 309.5 156 L 309.5 150 Z" stroke="transparent" fill="black" stroke-width="1"/>
<rect x="309.5" y="5.5" width="90" height="88" stroke="black" fill="#d4aa00" stroke-width="1"/><text x="354" y="49" text-anchor="middle" dominant-baseline="middle">Unpacker 1</text><path d="M 252.5 37.5 L 252.5 31.5 L 243.5 40.5 L 252.5 49.5 L 252.5 43.5 L 309.5 43.5 L 309.5 37.5 Z" stroke="transparent" fill="black" stroke-width="1"/>
<path d="M 427.5 55.5 L 437.5 60.5 L 437.5 133 L 427.5 138 Z" stroke="black" fill="#e9ddaf" stroke-width="1"/><path d="M 408.5 62.5 L 408.5 56.5 L 399.5 65.5 L 408.5 74.5 L 408.5 68.5 L 427.5 68.5 L 427.5 62.5 Z" stroke="transparent" fill="black" stroke-width="1"/>
<path d="M 408.5 125 L 408.5 119 L 399.5 128 L 408.5 137 L 408.5 131 L 427.5 131 L 427.5 125 Z" stroke="transparent" fill="black" stroke-width="1"/>
<rect x="493.5" y="5.5" width="90" height="505" stroke="black" fill="#f4d7e3" stroke-width="1"/><text x="538" y="248" text-anchor="middle" dominant-baseline="middle">L1</text><text x="538" y="268" text-anchor="middle" dominant-baseline="middle">1464 KiB</text><path d="M 408.5 37.5 L 408.5 31.5 L 399.5 40.5 L 408.5 49.5 L 408.5 43.5 L 493.5 43.5 L 493.5 37.5 Z" stroke="transparent" fill="black" stroke-width="1"/>
<text x="481" y="33" text-anchor="end" dominant-baseline="auto">128b</text><path d="M 437.5 93.75 L 437.5 99.75 L 493.5 99.75 L 493.5 93.75 Z" stroke="transparent" fill="black" stroke-width="1"/>
<text x="481" y="89" text-anchor="end" dominant-baseline="auto">384b</text><path d="M 408.5 150 L 408.5 144 L 399.5 153 L 408.5 162 L 408.5 156 L 493.5 156 L 493.5 150 Z" stroke="transparent" fill="black" stroke-width="1"/>
<text x="481" y="146" text-anchor="end" dominant-baseline="auto">128b</text><path d="M 271.5 403 L 281.5 408 L 281.5 468 L 271.5 473 Z" stroke="black" fill="#e9ddaf" stroke-width="1"/><path d="M 243.5 416.25 L 243.5 422.25 L 271.5 422.25 L 271.5 416.25 Z" stroke="transparent" fill="black" stroke-width="1"/>
<rect x="309.5" y="408" width="90" height="60" stroke="black" fill="#d4aa00" stroke-width="1"/><text x="354" y="438" text-anchor="middle" dominant-baseline="middle">Packer 0</text><path d="M 281.5 435 L 281.5 441 L 300.5 441 L 300.5 447 L 309.5 438 L 300.5 429 L 300.5 435 Z" stroke="transparent" fill="black" stroke-width="1"/>
<path d="M 408.5 435 L 408.5 429 L 399.5 438 L 408.5 447 L 408.5 441 L 484.5 441 L 484.5 447 L 493.5 438 L 484.5 429 L 484.5 435 Z" stroke="transparent" fill="black" stroke-width="1"/>
<text x="481" y="431" text-anchor="end" dominant-baseline="auto">128b</text><path d="M 271.5 456.75 L 260.5 456.75 Q 257.5 456.75 257.5 459.75 L 257.5 500 Q 257.5 503 260.5 503 L 493.5 503" stroke="black" fill="transparent" stroke-width="6"/><text x="481" y="496" text-anchor="end" dominant-baseline="auto">128b</text><rect x="309.5" y="343" width="90" height="60" stroke="black" fill="#d4aa00" stroke-width="1"/><text x="354" y="373" text-anchor="middle" dominant-baseline="middle">Packer 1</text><path d="M 243.5 370 L 243.5 376 L 300.5 376 L 300.5 382 L 309.5 373 L 300.5 364 L 300.5 370 Z" stroke="transparent" fill="black" stroke-width="1"/>
<path d="M 408.5 370 L 408.5 364 L 399.5 373 L 408.5 382 L 408.5 376 L 484.5 376 L 484.5 382 L 493.5 373 L 484.5 364 L 484.5 370 Z" stroke="transparent" fill="black" stroke-width="1"/>
<text x="481" y="366" text-anchor="end" dominant-baseline="auto">128b</text><rect x="309.5" y="278" width="90" height="60" stroke="black" fill="#d4aa00" stroke-width="1"/><text x="354" y="308" text-anchor="middle" dominant-baseline="middle">Packer 2</text><path d="M 243.5 305 L 243.5 311 L 300.5 311 L 300.5 317 L 309.5 308 L 300.5 299 L 300.5 305 Z" stroke="transparent" fill="black" stroke-width="1"/>
<path d="M 408.5 305 L 408.5 299 L 399.5 308 L 408.5 317 L 408.5 311 L 484.5 311 L 484.5 317 L 493.5 308 L 484.5 299 L 484.5 305 Z" stroke="transparent" fill="black" stroke-width="1"/>
<text x="481" y="301" text-anchor="end" dominant-baseline="auto">128b</text><rect x="309.5" y="213" width="90" height="60" stroke="black" fill="#d4aa00" stroke-width="1"/><text x="354" y="243" text-anchor="middle" dominant-baseline="middle">Packer 3</text><path d="M 243.5 240 L 243.5 246 L 300.5 246 L 300.5 252 L 309.5 243 L 300.5 234 L 300.5 240 Z" stroke="transparent" fill="black" stroke-width="1"/>
<path d="M 408.5 240 L 408.5 234 L 399.5 243 L 408.5 252 L 408.5 246 L 484.5 246 L 484.5 252 L 493.5 243 L 484.5 234 L 484.5 240 Z" stroke="transparent" fill="black" stroke-width="1"/>
<text x="481" y="236" text-anchor="end" dominant-baseline="auto">128b</text><rect x="639.5" y="440.5" width="100" height="70" stroke="black" fill="#d4aa00" stroke-width="1"/><text x="689" y="475" text-anchor="middle" dominant-baseline="middle">Mover</text><rect x="639.5" y="5.5" width="100" height="70" stroke="black" fill="white" stroke-width="1"/><text x="689" y="30" text-anchor="middle" dominant-baseline="middle">NoC 0</text><text x="689" y="50" text-anchor="middle" dominant-baseline="middle">Data</text><rect x="639.5" y="80.5" width="100" height="70" stroke="black" fill="white" stroke-width="1"/><text x="689" y="105" text-anchor="middle" dominant-baseline="middle">NoC 1</text><text x="689" y="125" text-anchor="middle" dominant-baseline="middle">Data</text><path d="M 583.5 455 L 583.5 461 L 630.5 461 L 630.5 467 L 639.5 458 L 630.5 449 L 630.5 455 Z" stroke="transparent" fill="black" stroke-width="1"/>
<text x="595" y="451" text-anchor="start" dominant-baseline="auto">128b</text><path d="M 592.5 490 L 592.5 484 L 583.5 493 L 592.5 502 L 592.5 496 L 639.5 496 L 639.5 490 Z" stroke="transparent" fill="black" stroke-width="1"/>
<text x="595" y="486" text-anchor="start" dominant-baseline="auto">128b</text><path d="M 583.5 20 L 583.5 26 L 630.5 26 L 630.5 32 L 639.5 23 L 630.5 14 L 630.5 20 Z" stroke="transparent" fill="black" stroke-width="1"/>
<text x="595" y="16" text-anchor="start" dominant-baseline="auto">256b</text><path d="M 592.5 55 L 592.5 49 L 583.5 58 L 592.5 67 L 592.5 61 L 639.5 61 L 639.5 55 Z" stroke="transparent" fill="black" stroke-width="1"/>
<text x="595" y="51" text-anchor="start" dominant-baseline="auto">256b</text><path d="M 583.5 95 L 583.5 101 L 630.5 101 L 630.5 107 L 639.5 98 L 630.5 89 L 630.5 95 Z" stroke="transparent" fill="black" stroke-width="1"/>
<text x="595" y="91" text-anchor="start" dominant-baseline="auto">256b</text><path d="M 592.5 130 L 592.5 124 L 583.5 133 L 592.5 142 L 592.5 136 L 639.5 136 L 639.5 130 Z" stroke="transparent" fill="black" stroke-width="1"/>
<text x="595" y="126" text-anchor="start" dominant-baseline="auto">256b</text><rect x="639.5" y="365.5" width="100" height="70" stroke="black" fill="#d4aa00" stroke-width="1"/><text x="689" y="390" text-anchor="middle" dominant-baseline="middle">Scalar Unit</text><text x="689" y="410" text-anchor="middle" dominant-baseline="middle">(ThCon)</text><path d="M 592.5 397.5 L 592.5 391.5 L 583.5 400.5 L 592.5 409.5 L 592.5 403.5 L 630.5 403.5 L 630.5 409.5 L 639.5 400.5 L 630.5 391.5 L 630.5 397.5 Z" stroke="transparent" fill="black" stroke-width="1"/>
<text x="595" y="393" text-anchor="start" dominant-baseline="auto">128b</text><rect x="639.5" y="270.5" width="100" height="50" stroke="black" fill="#f4d7e3" stroke-width="1"/><text x="689" y="285" text-anchor="middle" dominant-baseline="middle">GPRs</text><text x="689" y="305" text-anchor="middle" dominant-baseline="middle">3x 64x 32b</text><path d="M 692.5 329.5 L 698.5 329.5 L 689.5 320.5 L 680.5 329.5 L 686.5 329.5 L 686.5 356.5 L 680.5 356.5 L 689.5 365.5 L 698.5 356.5 L 692.5 356.5 Z" stroke="transparent" fill="black" stroke-width="1"/>
<text x="682" y="344" text-anchor="end" dominant-baseline="middle">128b</text><path d="M 729.5 295.5 L 775.5 295.5" stroke="black" fill="transparent" stroke-width="1"/><path d="M 772.5 298.5 L 775.5 295.5 L 772.5 292.5" stroke="black" fill="transparent" stroke-width="1"/><path d="M 732.5 292.5 L 729.5 295.5 L 732.5 298.5" stroke="black" fill="transparent" stroke-width="1"/><text x="781" y="287" text-anchor="start" dominant-baseline="middle">RISCV B / T0 / T1 / T2</text><text x="781" y="307" text-anchor="start" dominant-baseline="middle"><tspan font-family="monospace">REGFILE_BASE</tspan></text><rect x="639.5" y="155.5" width="100" height="70" stroke="black" fill="#d4aa00" stroke-width="1"/><text x="689" y="180" text-anchor="middle" dominant-baseline="middle">Configuration</text><text x="689" y="200" text-anchor="middle" dominant-baseline="middle">Unit</text><path d="M 692.5 234.5 L 698.5 234.5 L 689.5 225.5 L 680.5 234.5 L 686.5 234.5 L 686.5 261.5 L 680.5 261.5 L 689.5 270.5 L 698.5 261.5 L 692.5 261.5 Z" stroke="transparent" fill="black" stroke-width="1"/>
<text x="682" y="249" text-anchor="end" dominant-baseline="middle">128b</text></svg>
