<svg version="1.1" width="1030" height="910" xmlns="http://www.w3.org/2000/svg"><rect width="1030" height="910" rx="15" stroke="transparent" fill="white"/><rect x="5.5" y="85" width="155" height="30" stroke="black" fill="#f4d7e3" stroke-width="1"/><text x="83" y="100" text-anchor="middle" dominant-baseline="middle">FIFO; 32x 32b</text><rect x="5.5" y="151" width="155" height="50" stroke="black" fill="#d4aa00" stroke-width="1"/><text x="83" y="166" text-anchor="middle" dominant-baseline="middle">T0</text><text x="83" y="186" text-anchor="middle" dominant-baseline="middle">MOP Expander</text><rect x="166.5" y="151" width="155" height="50" stroke="black" fill="#f4d7e3" stroke-width="1"/><text x="244" y="166" text-anchor="middle" dominant-baseline="middle">Instructions and</text><text x="244" y="186" text-anchor="middle" dominant-baseline="middle">counts; 9x 32b</text><path d="M 154.5 163 L 154.5 157 L 145.5 166 L 154.5 175 L 154.5 169 L 176.5 169 L 176.5 163 Z" stroke="transparent" fill="black" stroke-width="1"/>
<path d="M 154.5 183 L 154.5 177 L 145.5 186 L 154.5 195 L 154.5 189 L 176.5 189 L 176.5 183 Z" stroke="transparent" fill="#aaaaff" stroke-width="1"/>
<text x="83" y="44" text-anchor="middle" dominant-baseline="auto"><tspan font-family="monospace">INSTRN_BUF_BASE</tspan></text><text x="83" y="24" text-anchor="middle" dominant-baseline="auto">RISCV T0</text><text x="244" y="44" text-anchor="middle" dominant-baseline="auto"><tspan font-family="monospace">TENSIX_MOP_CFG_BASE</tspan></text><text x="244" y="24" text-anchor="middle" dominant-baseline="auto">RISCV T0</text><path d="M 244 49 L 244 149" stroke="black" fill="transparent" stroke-width="1"/><path d="M 241 146 L 244 149 L 247 146" stroke="black" fill="transparent" stroke-width="1"/><path d="M 63 276 L 290 276 L 285 286 L 68 286 Z" stroke="black" fill="#e9ddaf" stroke-width="1"/><text x="176" y="247" text-anchor="middle" dominant-baseline="auto"><tspan font-family="monospace">INSTRN_BUF_BASE</tspan></text><text x="176" y="227" text-anchor="middle" dominant-baseline="auto">RISCV B</text><text x="270" y="247" text-anchor="middle" dominant-baseline="auto">bus</text><text x="270" y="227" text-anchor="middle" dominant-baseline="auto">Debug</text><rect x="5.5" y="322" width="155" height="30" stroke="black" fill="#f4d7e3" stroke-width="1"/><text x="83" y="337" text-anchor="middle" dominant-baseline="middle">FIFO; 8x 32b</text><rect x="5.5" y="388" width="155" height="50" stroke="black" fill="#d4aa00" stroke-width="1"/><text x="83" y="403" text-anchor="middle" dominant-baseline="middle">T0</text><text x="83" y="423" text-anchor="middle" dominant-baseline="middle">Replay Expander</text><rect x="166.5" y="388" width="155" height="50" stroke="black" fill="#f4d7e3" stroke-width="1"/><text x="244" y="403" text-anchor="middle" dominant-baseline="middle">Instruction buffer</text><text x="244" y="423" text-anchor="middle" dominant-baseline="middle">32x 32b</text><path d="M 150.5 400 L 150.5 406 L 172.5 406 L 172.5 412 L 181.5 403 L 172.5 394 L 172.5 400 Z" stroke="transparent" fill="#aaaaff" stroke-width="1"/>
<path d="M 154.5 420 L 154.5 414 L 145.5 423 L 154.5 432 L 154.5 426 L 176.5 426 L 176.5 420 Z" stroke="transparent" fill="#aaaaff" stroke-width="1"/>
<rect x="5.5" y="474" width="155" height="30" stroke="black" fill="#f4d7e3" stroke-width="1"/><text x="83" y="489" text-anchor="middle" dominant-baseline="middle">FIFO; 2x 32b</text><rect x="5.5" y="540" width="155" height="50" stroke="black" fill="#d4aa00" stroke-width="1"/><text x="83" y="555" text-anchor="middle" dominant-baseline="middle">T0</text><text x="83" y="575" text-anchor="middle" dominant-baseline="middle">Wait Gate</text><rect x="166.5" y="540" width="155" height="50" stroke="black" fill="#f4d7e3" stroke-width="1"/><text x="244" y="555" text-anchor="middle" dominant-baseline="middle">Latched wait</text><text x="244" y="575" text-anchor="middle" dominant-baseline="middle">instruction; 32b</text><path d="M 154.5 562 L 154.5 556 L 145.5 565 L 154.5 574 L 154.5 568 L 176.5 568 L 176.5 562 Z" stroke="transparent" fill="black" stroke-width="1"/>
<path d="M 86 49 L 83 50.5 L 80 49 L 80 75 L 74 75 L 83 84 L 92 75 L 86 75 Z" stroke="transparent" fill="#aaaaff" stroke-width="1"/>
<text x="88" y="66" text-anchor="start" dominant-baseline="middle">1 Instruction</text><path d="M 86 116 L 83 117.5 L 80 116 L 80 141 L 74 141 L 83 150 L 92 141 L 86 141 Z" stroke="transparent" fill="#aaaaff" stroke-width="1"/>
<text x="88" y="133" text-anchor="start" dominant-baseline="middle">1 Instruction</text><path d="M 86 202 L 83 203.5 L 80 202 L 80 275.5 L 86 275.5 Z" stroke="transparent" fill="#aaaaff" stroke-width="1"/>
<path d="M 86 286.5 L 80 286.5 L 80 312 L 74 312 L 83 321 L 92 312 L 86 312 Z" stroke="transparent" fill="#aaaaff" stroke-width="1"/>
<text x="88" y="303" text-anchor="start" dominant-baseline="middle">1 Instruction</text><path d="M 86 353 L 83 354.5 L 80 353 L 80 378 L 74 378 L 83 387 L 92 378 L 86 378 Z" stroke="transparent" fill="#aaaaff" stroke-width="1"/>
<text x="88" y="370" text-anchor="start" dominant-baseline="middle">1 Instruction</text><path d="M 86 439 L 83 440.5 L 80 439 L 80 464 L 74 464 L 83 473 L 92 464 L 86 464 Z" stroke="transparent" fill="#aaaaff" stroke-width="1"/>
<text x="88" y="456" text-anchor="start" dominant-baseline="middle">1 Instruction</text><path d="M 86 505 L 83 506.5 L 80 505 L 80 530 L 74 530 L 83 539 L 92 530 L 86 530 Z" stroke="transparent" fill="#aaaaff" stroke-width="1"/>
<text x="88" y="522" text-anchor="start" dominant-baseline="middle">1 Instruction</text><path d="M 179.5 252 L 176.5 253.5 L 173.5 252 L 173.5 275.5 L 179.5 275.5 Z" stroke="transparent" fill="#aaaaff" stroke-width="1"/>
<path d="M 273 252 L 270 253.5 L 267 252 L 267 275.5 L 273 275.5 Z" stroke="transparent" fill="#aaaaff" stroke-width="1"/>
<rect x="333.5" y="85" width="155" height="30" stroke="black" fill="#f4d7e3" stroke-width="1"/><text x="411" y="100" text-anchor="middle" dominant-baseline="middle">FIFO; 16x 32b</text><rect x="333.5" y="151" width="155" height="50" stroke="black" fill="#d4aa00" stroke-width="1"/><text x="411" y="166" text-anchor="middle" dominant-baseline="middle">T1</text><text x="411" y="186" text-anchor="middle" dominant-baseline="middle">MOP Expander</text><rect x="494.5" y="151" width="155" height="50" stroke="black" fill="#f4d7e3" stroke-width="1"/><text x="572" y="166" text-anchor="middle" dominant-baseline="middle">Instructions and</text><text x="572" y="186" text-anchor="middle" dominant-baseline="middle">counts; 9x 32b</text><path d="M 482.5 163 L 482.5 157 L 473.5 166 L 482.5 175 L 482.5 169 L 504.5 169 L 504.5 163 Z" stroke="transparent" fill="black" stroke-width="1"/>
<path d="M 482.5 183 L 482.5 177 L 473.5 186 L 482.5 195 L 482.5 189 L 504.5 189 L 504.5 183 Z" stroke="transparent" fill="#aaaaff" stroke-width="1"/>
<text x="411" y="44" text-anchor="middle" dominant-baseline="auto"><tspan font-family="monospace">INSTRN_BUF_BASE</tspan></text><text x="411" y="24" text-anchor="middle" dominant-baseline="auto">RISCV T1</text><text x="572" y="44" text-anchor="middle" dominant-baseline="auto"><tspan font-family="monospace">TENSIX_MOP_CFG_BASE</tspan></text><text x="572" y="24" text-anchor="middle" dominant-baseline="auto">RISCV T1</text><path d="M 572 49 L 572 149" stroke="black" fill="transparent" stroke-width="1"/><path d="M 569 146 L 572 149 L 575 146" stroke="black" fill="transparent" stroke-width="1"/><path d="M 391 276 L 618 276 L 613 286 L 396 286 Z" stroke="black" fill="#e9ddaf" stroke-width="1"/><text x="504" y="247" text-anchor="middle" dominant-baseline="auto"><tspan font-family="monospace">INSTRN1_BUF_BASE</tspan></text><text x="504" y="227" text-anchor="middle" dominant-baseline="auto">RISCV B</text><text x="598" y="247" text-anchor="middle" dominant-baseline="auto">bus</text><text x="598" y="227" text-anchor="middle" dominant-baseline="auto">Debug</text><rect x="333.5" y="322" width="155" height="30" stroke="black" fill="#f4d7e3" stroke-width="1"/><text x="411" y="337" text-anchor="middle" dominant-baseline="middle">FIFO; 8x 32b</text><rect x="333.5" y="388" width="155" height="50" stroke="black" fill="#d4aa00" stroke-width="1"/><text x="411" y="403" text-anchor="middle" dominant-baseline="middle">T1</text><text x="411" y="423" text-anchor="middle" dominant-baseline="middle">Replay Expander</text><rect x="494.5" y="388" width="155" height="50" stroke="black" fill="#f4d7e3" stroke-width="1"/><text x="572" y="403" text-anchor="middle" dominant-baseline="middle">Instruction buffer</text><text x="572" y="423" text-anchor="middle" dominant-baseline="middle">32x 32b</text><path d="M 478.5 400 L 478.5 406 L 500.5 406 L 500.5 412 L 509.5 403 L 500.5 394 L 500.5 400 Z" stroke="transparent" fill="#aaaaff" stroke-width="1"/>
<path d="M 482.5 420 L 482.5 414 L 473.5 423 L 482.5 432 L 482.5 426 L 504.5 426 L 504.5 420 Z" stroke="transparent" fill="#aaaaff" stroke-width="1"/>
<rect x="333.5" y="474" width="155" height="30" stroke="black" fill="#f4d7e3" stroke-width="1"/><text x="411" y="489" text-anchor="middle" dominant-baseline="middle">FIFO; 2x 32b</text><rect x="333.5" y="540" width="155" height="50" stroke="black" fill="#d4aa00" stroke-width="1"/><text x="411" y="555" text-anchor="middle" dominant-baseline="middle">T1</text><text x="411" y="575" text-anchor="middle" dominant-baseline="middle">Wait Gate</text><rect x="494.5" y="540" width="155" height="50" stroke="black" fill="#f4d7e3" stroke-width="1"/><text x="572" y="555" text-anchor="middle" dominant-baseline="middle">Latched wait</text><text x="572" y="575" text-anchor="middle" dominant-baseline="middle">instruction; 32b</text><path d="M 482.5 562 L 482.5 556 L 473.5 565 L 482.5 574 L 482.5 568 L 504.5 568 L 504.5 562 Z" stroke="transparent" fill="black" stroke-width="1"/>
<path d="M 414 49 L 411 50.5 L 408 49 L 408 75 L 402 75 L 411 84 L 420 75 L 414 75 Z" stroke="transparent" fill="#aaaaff" stroke-width="1"/>
<text x="416" y="66" text-anchor="start" dominant-baseline="middle">1 Instruction</text><path d="M 414 116 L 411 117.5 L 408 116 L 408 141 L 402 141 L 411 150 L 420 141 L 414 141 Z" stroke="transparent" fill="#aaaaff" stroke-width="1"/>
<text x="416" y="133" text-anchor="start" dominant-baseline="middle">1 Instruction</text><path d="M 414 202 L 411 203.5 L 408 202 L 408 275.5 L 414 275.5 Z" stroke="transparent" fill="#aaaaff" stroke-width="1"/>
<path d="M 414 286.5 L 408 286.5 L 408 312 L 402 312 L 411 321 L 420 312 L 414 312 Z" stroke="transparent" fill="#aaaaff" stroke-width="1"/>
<text x="416" y="303" text-anchor="start" dominant-baseline="middle">1 Instruction</text><path d="M 414 353 L 411 354.5 L 408 353 L 408 378 L 402 378 L 411 387 L 420 378 L 414 378 Z" stroke="transparent" fill="#aaaaff" stroke-width="1"/>
<text x="416" y="370" text-anchor="start" dominant-baseline="middle">1 Instruction</text><path d="M 414 439 L 411 440.5 L 408 439 L 408 464 L 402 464 L 411 473 L 420 464 L 414 464 Z" stroke="transparent" fill="#aaaaff" stroke-width="1"/>
<text x="416" y="456" text-anchor="start" dominant-baseline="middle">1 Instruction</text><path d="M 414 505 L 411 506.5 L 408 505 L 408 530 L 402 530 L 411 539 L 420 530 L 414 530 Z" stroke="transparent" fill="#aaaaff" stroke-width="1"/>
<text x="416" y="522" text-anchor="start" dominant-baseline="middle">1 Instruction</text><path d="M 507.5 252 L 504.5 253.5 L 501.5 252 L 501.5 275.5 L 507.5 275.5 Z" stroke="transparent" fill="#aaaaff" stroke-width="1"/>
<path d="M 601 252 L 598 253.5 L 595 252 L 595 275.5 L 601 275.5 Z" stroke="transparent" fill="#aaaaff" stroke-width="1"/>
<rect x="661.5" y="85" width="155" height="30" stroke="black" fill="#f4d7e3" stroke-width="1"/><text x="739" y="100" text-anchor="middle" dominant-baseline="middle">FIFO; 16x 32b</text><rect x="661.5" y="151" width="155" height="50" stroke="black" fill="#d4aa00" stroke-width="1"/><text x="739" y="166" text-anchor="middle" dominant-baseline="middle">T2</text><text x="739" y="186" text-anchor="middle" dominant-baseline="middle">MOP Expander</text><rect x="822.5" y="151" width="155" height="50" stroke="black" fill="#f4d7e3" stroke-width="1"/><text x="900" y="166" text-anchor="middle" dominant-baseline="middle">Instructions and</text><text x="900" y="186" text-anchor="middle" dominant-baseline="middle">counts; 9x 32b</text><path d="M 810.5 163 L 810.5 157 L 801.5 166 L 810.5 175 L 810.5 169 L 832.5 169 L 832.5 163 Z" stroke="transparent" fill="black" stroke-width="1"/>
<path d="M 810.5 183 L 810.5 177 L 801.5 186 L 810.5 195 L 810.5 189 L 832.5 189 L 832.5 183 Z" stroke="transparent" fill="#aaaaff" stroke-width="1"/>
<text x="739" y="44" text-anchor="middle" dominant-baseline="auto"><tspan font-family="monospace">INSTRN_BUF_BASE</tspan></text><text x="739" y="24" text-anchor="middle" dominant-baseline="auto">RISCV T2</text><text x="900" y="44" text-anchor="middle" dominant-baseline="auto"><tspan font-family="monospace">TENSIX_MOP_CFG_BASE</tspan></text><text x="900" y="24" text-anchor="middle" dominant-baseline="auto">RISCV T2</text><path d="M 900 49 L 900 149" stroke="black" fill="transparent" stroke-width="1"/><path d="M 897 146 L 900 149 L 903 146" stroke="black" fill="transparent" stroke-width="1"/><path d="M 719 276 L 946 276 L 941 286 L 724 286 Z" stroke="black" fill="#e9ddaf" stroke-width="1"/><text x="832" y="247" text-anchor="middle" dominant-baseline="auto"><tspan font-family="monospace">INSTRN2_BUF_BASE</tspan></text><text x="832" y="227" text-anchor="middle" dominant-baseline="auto">RISCV B</text><text x="926" y="247" text-anchor="middle" dominant-baseline="auto">bus</text><text x="926" y="227" text-anchor="middle" dominant-baseline="auto">Debug</text><rect x="661.5" y="322" width="155" height="30" stroke="black" fill="#f4d7e3" stroke-width="1"/><text x="739" y="337" text-anchor="middle" dominant-baseline="middle">FIFO; 8x 32b</text><rect x="661.5" y="388" width="155" height="50" stroke="black" fill="#d4aa00" stroke-width="1"/><text x="739" y="403" text-anchor="middle" dominant-baseline="middle">T2</text><text x="739" y="423" text-anchor="middle" dominant-baseline="middle">Replay Expander</text><rect x="822.5" y="388" width="155" height="50" stroke="black" fill="#f4d7e3" stroke-width="1"/><text x="900" y="403" text-anchor="middle" dominant-baseline="middle">Instruction buffer</text><text x="900" y="423" text-anchor="middle" dominant-baseline="middle">32x 32b</text><path d="M 806.5 400 L 806.5 406 L 828.5 406 L 828.5 412 L 837.5 403 L 828.5 394 L 828.5 400 Z" stroke="transparent" fill="#aaaaff" stroke-width="1"/>
<path d="M 810.5 420 L 810.5 414 L 801.5 423 L 810.5 432 L 810.5 426 L 832.5 426 L 832.5 420 Z" stroke="transparent" fill="#aaaaff" stroke-width="1"/>
<rect x="661.5" y="474" width="155" height="30" stroke="black" fill="#f4d7e3" stroke-width="1"/><text x="739" y="489" text-anchor="middle" dominant-baseline="middle">FIFO; 2x 32b</text><rect x="661.5" y="540" width="155" height="50" stroke="black" fill="#d4aa00" stroke-width="1"/><text x="739" y="555" text-anchor="middle" dominant-baseline="middle">T2</text><text x="739" y="575" text-anchor="middle" dominant-baseline="middle">Wait Gate</text><rect x="822.5" y="540" width="155" height="50" stroke="black" fill="#f4d7e3" stroke-width="1"/><text x="900" y="555" text-anchor="middle" dominant-baseline="middle">Latched wait</text><text x="900" y="575" text-anchor="middle" dominant-baseline="middle">instruction; 32b</text><path d="M 810.5 562 L 810.5 556 L 801.5 565 L 810.5 574 L 810.5 568 L 832.5 568 L 832.5 562 Z" stroke="transparent" fill="black" stroke-width="1"/>
<path d="M 742 49 L 739 50.5 L 736 49 L 736 75 L 730 75 L 739 84 L 748 75 L 742 75 Z" stroke="transparent" fill="#aaaaff" stroke-width="1"/>
<text x="744" y="66" text-anchor="start" dominant-baseline="middle">1 Instruction</text><path d="M 742 116 L 739 117.5 L 736 116 L 736 141 L 730 141 L 739 150 L 748 141 L 742 141 Z" stroke="transparent" fill="#aaaaff" stroke-width="1"/>
<text x="744" y="133" text-anchor="start" dominant-baseline="middle">1 Instruction</text><path d="M 742 202 L 739 203.5 L 736 202 L 736 275.5 L 742 275.5 Z" stroke="transparent" fill="#aaaaff" stroke-width="1"/>
<path d="M 742 286.5 L 736 286.5 L 736 312 L 730 312 L 739 321 L 748 312 L 742 312 Z" stroke="transparent" fill="#aaaaff" stroke-width="1"/>
<text x="744" y="303" text-anchor="start" dominant-baseline="middle">1 Instruction</text><path d="M 742 353 L 739 354.5 L 736 353 L 736 378 L 730 378 L 739 387 L 748 378 L 742 378 Z" stroke="transparent" fill="#aaaaff" stroke-width="1"/>
<text x="744" y="370" text-anchor="start" dominant-baseline="middle">1 Instruction</text><path d="M 742 439 L 739 440.5 L 736 439 L 736 464 L 730 464 L 739 473 L 748 464 L 742 464 Z" stroke="transparent" fill="#aaaaff" stroke-width="1"/>
<text x="744" y="456" text-anchor="start" dominant-baseline="middle">1 Instruction</text><path d="M 742 505 L 739 506.5 L 736 505 L 736 530 L 730 530 L 739 539 L 748 530 L 742 530 Z" stroke="transparent" fill="#aaaaff" stroke-width="1"/>
<text x="744" y="522" text-anchor="start" dominant-baseline="middle">1 Instruction</text><path d="M 835.5 252 L 832.5 253.5 L 829.5 252 L 829.5 275.5 L 835.5 275.5 Z" stroke="transparent" fill="#aaaaff" stroke-width="1"/>
<path d="M 929 252 L 926 253.5 L 923 252 L 923 275.5 L 929 275.5 Z" stroke="transparent" fill="#aaaaff" stroke-width="1"/>
<rect x="5.5" y="672" width="103" height="156" stroke="black" fill="#d4aa00" stroke-width="1"/><text x="57" y="697" text-anchor="middle" dominant-baseline="middle">Sync Unit</text><text x="57" y="717" text-anchor="middle" dominant-baseline="middle"></text><rect x="114.5" y="672" width="102" height="100" stroke="black" fill="#d4aa00" stroke-width="1"/><text x="165" y="697" text-anchor="middle" dominant-baseline="middle">Unpackers</text><text x="165" y="717" text-anchor="middle" dominant-baseline="middle"></text><rect x="222.5" y="672" width="103" height="100" stroke="black" fill="#d4aa00" stroke-width="1"/><text x="274" y="697" text-anchor="middle" dominant-baseline="middle">Matrix Unit</text><text x="274" y="717" text-anchor="middle" dominant-baseline="middle">(FPU)</text><rect x="331.5" y="672" width="103" height="100" stroke="black" fill="#d4aa00" stroke-width="1"/><text x="383" y="697" text-anchor="middle" dominant-baseline="middle">Packers</text><text x="383" y="717" text-anchor="middle" dominant-baseline="middle"></text><rect x="440.5" y="672" width="102" height="100" stroke="black" fill="#d4aa00" stroke-width="1"/><text x="491" y="697" text-anchor="middle" dominant-baseline="middle">Vector Unit</text><text x="491" y="717" text-anchor="middle" dominant-baseline="middle">(SFPU)</text><rect x="548.5" y="672" width="103" height="100" stroke="black" fill="#d4aa00" stroke-width="1"/><text x="600" y="697" text-anchor="middle" dominant-baseline="middle">Scalar Unit</text><text x="600" y="717" text-anchor="middle" dominant-baseline="middle">(ThCon)</text><rect x="657.5" y="672" width="103" height="100" stroke="black" fill="#d4aa00" stroke-width="1"/><text x="709" y="697" text-anchor="middle" dominant-baseline="middle">Configuration</text><text x="709" y="717" text-anchor="middle" dominant-baseline="middle">Unit</text><rect x="766.5" y="672" width="102" height="100" stroke="black" fill="#d4aa00" stroke-width="1"/><text x="817" y="697" text-anchor="middle" dominant-baseline="middle">Mover</text><text x="817" y="717" text-anchor="middle" dominant-baseline="middle"></text><rect x="874.5" y="672" width="103" height="156" stroke="black" fill="#d4aa00" stroke-width="1"/><text x="926" y="697" text-anchor="middle" dominant-baseline="middle">Miscellaneous</text><text x="926" y="717" text-anchor="middle" dominant-baseline="middle">Unit</text><path d="M 42 626 L 941 626 L 946 636 L 37 636 Z" stroke="black" fill="#e9ddaf" stroke-width="1"/><path d="M 60 636.5 L 54 636.5 L 54 662 L 48 662 L 57 671 L 66 662 L 60 662 Z" stroke="transparent" fill="#aaaaff" stroke-width="1"/>
<text x="62" y="654" text-anchor="start" dominant-baseline="middle">3 Instructions</text><path d="M 168.5 636.5 L 162.5 636.5 L 162.5 662 L 156.5 662 L 165.5 671 L 174.5 662 L 168.5 662 Z" stroke="transparent" fill="#aaaaff" stroke-width="1"/>
<text x="170" y="654" text-anchor="start" dominant-baseline="middle">1 Instruction</text><path d="M 277 636.5 L 271 636.5 L 271 662 L 265 662 L 274 671 L 283 662 L 277 662 Z" stroke="transparent" fill="#aaaaff" stroke-width="1"/>
<text x="279" y="654" text-anchor="start" dominant-baseline="middle">1 Instruction</text><path d="M 386 636.5 L 380 636.5 L 380 662 L 374 662 L 383 671 L 392 662 L 386 662 Z" stroke="transparent" fill="#aaaaff" stroke-width="1"/>
<text x="388" y="654" text-anchor="start" dominant-baseline="middle">1 Instruction</text><path d="M 494.5 636.5 L 488.5 636.5 L 488.5 662 L 482.5 662 L 491.5 671 L 500.5 662 L 494.5 662 Z" stroke="transparent" fill="#aaaaff" stroke-width="1"/>
<text x="496" y="654" text-anchor="start" dominant-baseline="middle">1 Instruction</text><path d="M 603 636.5 L 597 636.5 L 597 662 L 591 662 L 600 671 L 609 662 L 603 662 Z" stroke="transparent" fill="#aaaaff" stroke-width="1"/>
<text x="605" y="654" text-anchor="start" dominant-baseline="middle">1 Instruction</text><path d="M 712 636.5 L 706 636.5 L 706 662 L 700 662 L 709 671 L 718 662 L 712 662 Z" stroke="transparent" fill="#aaaaff" stroke-width="1"/>
<text x="714" y="654" text-anchor="start" dominant-baseline="middle">3 Instructions</text><path d="M 820.5 636.5 L 814.5 636.5 L 814.5 662 L 808.5 662 L 817.5 671 L 826.5 662 L 820.5 662 Z" stroke="transparent" fill="#aaaaff" stroke-width="1"/>
<text x="822" y="654" text-anchor="start" dominant-baseline="middle">1 Instruction</text><path d="M 929 636.5 L 923 636.5 L 923 662 L 917 662 L 926 671 L 935 662 L 929 662 Z" stroke="transparent" fill="#aaaaff" stroke-width="1"/>
<text x="931" y="654" text-anchor="start" dominant-baseline="middle">3 Instructions</text><rect x="114.5" y="778" width="754" height="50" stroke="black" fill="#f4d7e3" stroke-width="1"/><text x="491" y="793" text-anchor="middle" dominant-baseline="middle">Backend Configuration</text><text x="491" y="813" text-anchor="middle" dominant-baseline="middle">354x 32b</text><path d="M 168.5 766 L 174.5 766 L 165.5 757 L 156.5 766 L 162.5 766 L 162.5 788 L 168.5 788 Z" stroke="transparent" fill="black" stroke-width="1"/>
<path d="M 277 766 L 283 766 L 274 757 L 265 766 L 271 766 L 271 788 L 277 788 Z" stroke="transparent" fill="black" stroke-width="1"/>
<path d="M 386 766 L 392 766 L 383 757 L 374 766 L 380 766 L 380 788 L 386 788 Z" stroke="transparent" fill="black" stroke-width="1"/>
<path d="M 603 762 L 597 762 L 597 784 L 591 784 L 600 793 L 609 784 L 603 784 Z" stroke="transparent" fill="black" stroke-width="1"/>
<path d="M 712 766 L 718 766 L 709 757 L 700 766 L 706 766 L 706 784 L 700 784 L 709 793 L 718 784 L 712 784 Z" stroke="transparent" fill="black" stroke-width="1"/>
<path d="M 820.5 766 L 826.5 766 L 817.5 757 L 808.5 766 L 814.5 766 L 814.5 784 L 808.5 784 L 817.5 793 L 826.5 784 L 820.5 784 Z" stroke="transparent" fill="black" stroke-width="1"/>
<path d="M 13.5 672 L 13.5 605 Q 13.5 602 16.5 602 L 241 602 Q 244 602 244 599 L 244 592" stroke="black" fill="transparent" stroke-width="1"/><path d="M 247 595 L 244 592 L 241 595" stroke="black" fill="transparent" stroke-width="1"/><path d="M 21.5 672 L 21.5 613 Q 21.5 610 24.5 610 L 569 610 Q 572 610 572 607 L 572 592" stroke="black" fill="transparent" stroke-width="1"/><path d="M 575 595 L 572 592 L 569 595" stroke="black" fill="transparent" stroke-width="1"/><path d="M 29.5 672 L 29.5 621 Q 29.5 618 32.5 618 L 897 618 Q 900 618 900 615 L 900 592" stroke="black" fill="transparent" stroke-width="1"/><path d="M 903 595 L 900 592 L 897 595" stroke="black" fill="transparent" stroke-width="1"/><rect x="8.5" y="783" width="97" height="42" stroke="black" fill="#f4d7e3" stroke-width="1"/><text x="57" y="794" text-anchor="middle" dominant-baseline="middle">Semaphores</text><text x="57" y="814" text-anchor="middle" dominant-baseline="middle">8x 4b</text><rect x="8.5" y="738" width="97" height="42" stroke="black" fill="#f4d7e3" stroke-width="1"/><text x="57" y="749" text-anchor="middle" dominant-baseline="middle">Mutexes</text><text x="57" y="769" text-anchor="middle" dominant-baseline="middle">7x 2b</text><path d="M 86 591 L 83 592.5 L 80 591 L 80 625.5 L 86 625.5 Z" stroke="transparent" fill="#aaaaff" stroke-width="1"/>
<path d="M 414 591 L 411 592.5 L 408 591 L 408 625.5 L 414 625.5 Z" stroke="transparent" fill="#aaaaff" stroke-width="1"/>
<path d="M 742 591 L 739 592.5 L 736 591 L 736 625.5 L 742 625.5 Z" stroke="transparent" fill="#aaaaff" stroke-width="1"/>
<path d="M 709 864 L 709 818" stroke="black" fill="transparent" stroke-width="1"/><path d="M 712 821 L 709 818 L 706 821" stroke="black" fill="transparent" stroke-width="1"/><path d="M 706 861 L 709 864 L 712 861" stroke="black" fill="transparent" stroke-width="1"/><text x="709" y="869" text-anchor="middle" dominant-baseline="hanging">RISCV B / T0 / T1 / T2</text><text x="709" y="889" text-anchor="middle" dominant-baseline="hanging"><tspan font-family="monospace">TENSIX_CFG_BASE</tspan></text><path d="M 90.5 864 L 90.5 815" stroke="black" fill="transparent" stroke-width="1"/><path d="M 93.5 818 L 90.5 815 L 87.5 818" stroke="black" fill="transparent" stroke-width="1"/><path d="M 87.5 861 L 90.5 864 L 93.5 861" stroke="black" fill="transparent" stroke-width="1"/><text x="90" y="869" text-anchor="middle" dominant-baseline="hanging">RISCV T0 / T1 / T2</text><text x="90" y="889" text-anchor="middle" dominant-baseline="hanging"><tspan font-family="monospace">0xFFE80020</tspan></text></svg>
