<svg version="1.1" width="836" height="715" xmlns="http://www.w3.org/2000/svg"><rect width="836" height="715" rx="15" stroke="transparent" fill="white"/><rect x="5.5" y="5.5" width="320" height="42" stroke="black" fill="#d4aa00" stroke-width="1"/><text x="165" y="26" text-anchor="middle" dominant-baseline="middle">Input Address Generator and Datum Count</text><rect x="510.5" y="5.5" width="320" height="42" stroke="black" fill="#d4aa00" stroke-width="1"/><text x="670" y="26" text-anchor="middle" dominant-baseline="middle">Input Address Generator and Datum Count</text><rect x="345.5" y="5.5" width="145" height="42" stroke="black" fill="#f4d7e3" stroke-width="1"/><text x="418" y="16" text-anchor="middle" dominant-baseline="middle">RSI Cache</text><text x="418" y="36" text-anchor="middle" dominant-baseline="middle">(for decompression)</text><path d="M 344.5 26.5 L 327.5 26.5" stroke="black" fill="transparent" stroke-width="1"/><path d="M 330.5 23.5 L 327.5 26.5 L 330.5 29.5" stroke="black" fill="transparent" stroke-width="1"/><path d="M 491.5 26.5 L 508.5 26.5" stroke="black" fill="transparent" stroke-width="1"/><path d="M 505.5 29.5 L 508.5 26.5 L 505.5 23.5" stroke="black" fill="transparent" stroke-width="1"/><rect x="5.5" y="67.5" width="825" height="50" stroke="black" fill="#f4d7e3" stroke-width="1"/><text x="418" y="92" text-anchor="middle" dominant-baseline="middle">Input from L1</text><path d="M 418 66.5 L 418 49.5" stroke="black" fill="transparent" stroke-width="1"/><path d="M 421 52.5 L 418 49.5 L 415 52.5" stroke="black" fill="transparent" stroke-width="1"/><rect x="5.5" y="167.5" width="128" height="32" stroke="black" fill="#f4d7e3" stroke-width="1"/><text x="69" y="183" text-anchor="middle" dominant-baseline="middle">RLE Stream</text><path d="M 69.5 118.5 L 69.5 165.5" stroke="black" fill="transparent" stroke-width="1"/><path d="M 66.5 162.5 L 69.5 165.5 L 72.5 162.5" stroke="black" fill="transparent" stroke-width="1"/><path d="M 69.5 48.5 L 69.5 65.5" stroke="black" fill="transparent" stroke-width="1"/><path d="M 66.5 62.5 L 69.5 65.5 L 72.5 62.5" stroke="black" fill="transparent" stroke-width="1"/><rect x="143.5" y="167.5" width="128" height="32" stroke="black" fill="#f4d7e3" stroke-width="1"/><text x="207" y="183" text-anchor="middle" dominant-baseline="middle">Exponent Stream</text><path d="M 207.5 118.5 L 207.5 165.5" stroke="black" fill="transparent" stroke-width="1"/><path d="M 204.5 162.5 L 207.5 165.5 L 210.5 162.5" stroke="black" fill="transparent" stroke-width="1"/><path d="M 207.5 48.5 L 207.5 65.5" stroke="black" fill="transparent" stroke-width="1"/><path d="M 204.5 62.5 L 207.5 65.5 L 210.5 62.5" stroke="black" fill="transparent" stroke-width="1"/><rect x="281.5" y="167.5" width="128" height="32" stroke="black" fill="#f4d7e3" stroke-width="1"/><text x="345" y="183" text-anchor="middle" dominant-baseline="middle">Datum Stream</text><path d="M 303.5 48.5 L 303.5 65.5" stroke="black" fill="transparent" stroke-width="1"/><path d="M 300.5 62.5 L 303.5 65.5 L 306.5 62.5" stroke="black" fill="transparent" stroke-width="1"/><path d="M 303.5 118.5 L 303.5 165.5" stroke="black" fill="transparent" stroke-width="1"/><path d="M 300.5 162.5 L 303.5 165.5 L 306.5 162.5" stroke="black" fill="transparent" stroke-width="1"/><rect x="426.5" y="167.5" width="128" height="32" stroke="black" fill="#f4d7e3" stroke-width="1"/><text x="490" y="183" text-anchor="middle" dominant-baseline="middle">Datum Stream</text><path d="M 532.5 48.5 L 532.5 65.5" stroke="black" fill="transparent" stroke-width="1"/><path d="M 529.5 62.5 L 532.5 65.5 L 535.5 62.5" stroke="black" fill="transparent" stroke-width="1"/><path d="M 532.5 118.5 L 532.5 165.5" stroke="black" fill="transparent" stroke-width="1"/><path d="M 529.5 162.5 L 532.5 165.5 L 535.5 162.5" stroke="black" fill="transparent" stroke-width="1"/><rect x="564.5" y="167.5" width="128" height="32" stroke="black" fill="#f4d7e3" stroke-width="1"/><text x="628" y="183" text-anchor="middle" dominant-baseline="middle">Exponent Stream</text><path d="M 628.5 118.5 L 628.5 165.5" stroke="black" fill="transparent" stroke-width="1"/><path d="M 625.5 162.5 L 628.5 165.5 L 631.5 162.5" stroke="black" fill="transparent" stroke-width="1"/><path d="M 628.5 48.5 L 628.5 65.5" stroke="black" fill="transparent" stroke-width="1"/><path d="M 625.5 62.5 L 628.5 65.5 L 631.5 62.5" stroke="black" fill="transparent" stroke-width="1"/><rect x="702.5" y="167.5" width="128" height="32" stroke="black" fill="#f4d7e3" stroke-width="1"/><text x="766" y="183" text-anchor="middle" dominant-baseline="middle">RLE Stream</text><path d="M 766.5 118.5 L 766.5 165.5" stroke="black" fill="transparent" stroke-width="1"/><path d="M 763.5 162.5 L 766.5 165.5 L 769.5 162.5" stroke="black" fill="transparent" stroke-width="1"/><path d="M 766.5 48.5 L 766.5 65.5" stroke="black" fill="transparent" stroke-width="1"/><path d="M 763.5 62.5 L 766.5 65.5 L 769.5 62.5" stroke="black" fill="transparent" stroke-width="1"/><path d="M 350.5 137.5 L 485.5 137.5 L 490.5 147.5 L 345.5 147.5 Z" stroke="black" fill="#e9ddaf" stroke-width="1"/><path d="M 403 118.5 L 403 135.5" stroke="black" fill="transparent" stroke-width="1"/><path d="M 400 132.5 L 403 135.5 L 406 132.5" stroke="black" fill="transparent" stroke-width="1"/><path d="M 418 118.5 L 418 135.5" stroke="black" fill="transparent" stroke-width="1"/><path d="M 415 132.5 L 418 135.5 L 421 132.5" stroke="black" fill="transparent" stroke-width="1"/><path d="M 433 118.5 L 433 135.5" stroke="black" fill="transparent" stroke-width="1"/><path d="M 430 132.5 L 433 135.5 L 436 132.5" stroke="black" fill="transparent" stroke-width="1"/><path d="M 362.5 148.5 L 362.5 165.5" stroke="black" fill="transparent" stroke-width="1"/><path d="M 359.5 162.5 L 362.5 165.5 L 365.5 162.5" stroke="black" fill="transparent" stroke-width="1"/><path d="M 377.5 148.5 L 377.5 165.5" stroke="black" fill="transparent" stroke-width="1"/><path d="M 374.5 162.5 L 377.5 165.5 L 380.5 162.5" stroke="black" fill="transparent" stroke-width="1"/><path d="M 392.5 148.5 L 392.5 165.5" stroke="black" fill="transparent" stroke-width="1"/><path d="M 389.5 162.5 L 392.5 165.5 L 395.5 162.5" stroke="black" fill="transparent" stroke-width="1"/><path d="M 443.5 148.5 L 443.5 165.5" stroke="black" fill="transparent" stroke-width="1"/><path d="M 440.5 162.5 L 443.5 165.5 L 446.5 162.5" stroke="black" fill="transparent" stroke-width="1"/><path d="M 458.5 148.5 L 458.5 165.5" stroke="black" fill="transparent" stroke-width="1"/><path d="M 455.5 162.5 L 458.5 165.5 L 461.5 162.5" stroke="black" fill="transparent" stroke-width="1"/><path d="M 473.5 148.5 L 473.5 165.5" stroke="black" fill="transparent" stroke-width="1"/><path d="M 470.5 162.5 L 473.5 165.5 L 476.5 162.5" stroke="black" fill="transparent" stroke-width="1"/><rect x="143.5" y="219.5" width="266" height="42" stroke="black" fill="#d4aa00" stroke-width="1"/><text x="276" y="241" text-anchor="middle" dominant-baseline="middle">Format Conversion</text><path d="M 207.5 200.5 L 207.5 217.5" stroke="black" fill="transparent" stroke-width="1"/><path d="M 204.5 214.5 L 207.5 217.5 L 210.5 214.5" stroke="black" fill="transparent" stroke-width="1"/><path d="M 345.5 200.5 L 345.5 217.5" stroke="black" fill="transparent" stroke-width="1"/><path d="M 342.5 214.5 L 345.5 217.5 L 348.5 214.5" stroke="black" fill="transparent" stroke-width="1"/><rect x="426.5" y="219.5" width="266" height="42" stroke="black" fill="#d4aa00" stroke-width="1"/><text x="559" y="241" text-anchor="middle" dominant-baseline="middle">Format Conversion</text><path d="M 490.5 200.5 L 490.5 217.5" stroke="black" fill="transparent" stroke-width="1"/><path d="M 487.5 214.5 L 490.5 217.5 L 493.5 214.5" stroke="black" fill="transparent" stroke-width="1"/><path d="M 628.5 200.5 L 628.5 217.5" stroke="black" fill="transparent" stroke-width="1"/><path d="M 625.5 214.5 L 628.5 217.5 L 631.5 214.5" stroke="black" fill="transparent" stroke-width="1"/><rect x="37.5" y="281.5" width="266" height="42" stroke="black" fill="#d4aa00" stroke-width="1"/><text x="170" y="303" text-anchor="middle" dominant-baseline="middle">Decompress (Optional)</text><rect x="532.5" y="281.5" width="266" height="42" stroke="black" fill="#d4aa00" stroke-width="1"/><text x="665" y="303" text-anchor="middle" dominant-baseline="middle">Decompress (Optional)</text><path d="M 85.5 200.5 L 85.5 279.5" stroke="black" fill="transparent" stroke-width="1"/><path d="M 82.5 276.5 L 85.5 279.5 L 88.5 276.5" stroke="black" fill="transparent" stroke-width="1"/><path d="M 750.5 200.5 L 750.5 279.5" stroke="black" fill="transparent" stroke-width="1"/><path d="M 747.5 276.5 L 750.5 279.5 L 753.5 276.5" stroke="black" fill="transparent" stroke-width="1"/><rect x="72" y="343.5" width="197" height="42" stroke="black" fill="#d4aa00" stroke-width="1"/><text x="170" y="365" text-anchor="middle" dominant-baseline="middle">Upsample (Optional)</text><rect x="567" y="343.5" width="197" height="42" stroke="black" fill="#d4aa00" stroke-width="1"/><text x="665" y="365" text-anchor="middle" dominant-baseline="middle">Upsample (Optional)</text><rect x="106.5" y="405.5" width="128" height="50" stroke="black" fill="#d4aa00" stroke-width="1"/><text x="170" y="420" text-anchor="middle" dominant-baseline="middle">Wait for</text><text x="170" y="440" text-anchor="middle" dominant-baseline="middle"><tspan font-family="monospace">SrcA</tspan></text><path d="M 223.5 262.5 L 223.5 279.5" stroke="black" fill="transparent" stroke-width="1"/><path d="M 220.5 276.5 L 223.5 279.5 L 226.5 276.5" stroke="black" fill="transparent" stroke-width="1"/><path d="M 170.5 324.5 L 170.5 341.5" stroke="black" fill="transparent" stroke-width="1"/><path d="M 167.5 338.5 L 170.5 341.5 L 173.5 338.5" stroke="black" fill="transparent" stroke-width="1"/><path d="M 170.5 386.5 L 170.5 403.5" stroke="black" fill="transparent" stroke-width="1"/><path d="M 167.5 400.5 L 170.5 403.5 L 173.5 400.5" stroke="black" fill="transparent" stroke-width="1"/><rect x="601.5" y="405.5" width="128" height="50" stroke="black" fill="#d4aa00" stroke-width="1"/><text x="665" y="420" text-anchor="middle" dominant-baseline="middle">Wait for</text><text x="665" y="440" text-anchor="middle" dominant-baseline="middle"><tspan font-family="monospace">SrcB</tspan></text><path d="M 612.5 262.5 L 612.5 279.5" stroke="black" fill="transparent" stroke-width="1"/><path d="M 609.5 276.5 L 612.5 279.5 L 615.5 276.5" stroke="black" fill="transparent" stroke-width="1"/><path d="M 665.5 324.5 L 665.5 341.5" stroke="black" fill="transparent" stroke-width="1"/><path d="M 662.5 338.5 L 665.5 341.5 L 668.5 338.5" stroke="black" fill="transparent" stroke-width="1"/><path d="M 665.5 386.5 L 665.5 403.5" stroke="black" fill="transparent" stroke-width="1"/><path d="M 662.5 400.5 L 665.5 403.5 L 668.5 400.5" stroke="black" fill="transparent" stroke-width="1"/><path d="M 10.5 475.5 L 340.5 475.5 L 345.5 485.5 L 5.5 485.5 Z" stroke="black" fill="#e9ddaf" stroke-width="1"/><rect x="180.5" y="505.5" width="165" height="42" stroke="black" fill="#d4aa00" stroke-width="1"/><text x="263" y="516" text-anchor="middle" dominant-baseline="middle">Transpose</text><text x="263" y="536" text-anchor="middle" dominant-baseline="middle">(Optional)</text><rect x="5.5" y="567.5" width="165" height="50" stroke="black" fill="#f4d7e3" stroke-width="1"/><text x="88" y="582" text-anchor="middle" dominant-baseline="middle">Output to</text><text x="88" y="602" text-anchor="middle" dominant-baseline="middle"><tspan font-family="monospace">Dst</tspan></text><rect x="180.5" y="567.5" width="165" height="50" stroke="black" fill="#f4d7e3" stroke-width="1"/><text x="263" y="582" text-anchor="middle" dominant-baseline="middle">Output to</text><text x="263" y="602" text-anchor="middle" dominant-baseline="middle"><tspan font-family="monospace">SrcA</tspan></text><rect x="583" y="567.5" width="165" height="50" stroke="black" fill="#f4d7e3" stroke-width="1"/><text x="665" y="582" text-anchor="middle" dominant-baseline="middle">Output to</text><text x="665" y="602" text-anchor="middle" dominant-baseline="middle"><tspan font-family="monospace">SrcB</tspan></text><path d="M 170.5 456.5 L 170.5 473.5" stroke="black" fill="transparent" stroke-width="1"/><path d="M 167.5 470.5 L 170.5 473.5 L 173.5 470.5" stroke="black" fill="transparent" stroke-width="1"/><path d="M 88 486.5 L 88 565.5" stroke="black" fill="transparent" stroke-width="1"/><path d="M 85 562.5 L 88 565.5 L 91 562.5" stroke="black" fill="transparent" stroke-width="1"/><path d="M 263 486.5 L 263 503.5" stroke="black" fill="transparent" stroke-width="1"/><path d="M 260 500.5 L 263 503.5 L 266 500.5" stroke="black" fill="transparent" stroke-width="1"/><path d="M 263 548.5 L 263 565.5" stroke="black" fill="transparent" stroke-width="1"/><path d="M 260 562.5 L 263 565.5 L 266 562.5" stroke="black" fill="transparent" stroke-width="1"/><path d="M 665.5 456.5 L 665.5 565.5" stroke="black" fill="transparent" stroke-width="1"/><path d="M 662.5 562.5 L 665.5 565.5 L 668.5 562.5" stroke="black" fill="transparent" stroke-width="1"/><path d="M 5.5 637.5 L 345.5 637.5 L 340.5 647.5 L 10.5 647.5 Z" stroke="black" fill="#e9ddaf" stroke-width="1"/><path d="M 88 636.5 L 88 619.5" stroke="black" fill="transparent" stroke-width="1"/><path d="M 91 622.5 L 88 619.5 L 85 622.5" stroke="black" fill="transparent" stroke-width="1"/><path d="M 263 636.5 L 263 619.5" stroke="black" fill="transparent" stroke-width="1"/><path d="M 266 622.5 L 263 619.5 L 260 622.5" stroke="black" fill="transparent" stroke-width="1"/><rect x="37.5" y="667.5" width="266" height="42" stroke="black" fill="#d4aa00" stroke-width="1"/><text x="170" y="688" text-anchor="middle" dominant-baseline="middle">Output Address Generator</text><path d="M 170.5 666.5 L 170.5 649.5" stroke="black" fill="transparent" stroke-width="1"/><path d="M 173.5 652.5 L 170.5 649.5 L 167.5 652.5" stroke="black" fill="transparent" stroke-width="1"/><rect x="532.5" y="667.5" width="266" height="42" stroke="black" fill="#d4aa00" stroke-width="1"/><text x="665" y="688" text-anchor="middle" dominant-baseline="middle">Output Address Generator</text><path d="M 665.5 666.5 L 665.5 619.5" stroke="black" fill="transparent" stroke-width="1"/><path d="M 668.5 622.5 L 665.5 619.5 L 662.5 622.5" stroke="black" fill="transparent" stroke-width="1"/><rect x="411.75" y="475.5" width="105" height="46" stroke="black" fill="#d4aa00" stroke-width="1"/><text x="464" y="488" text-anchor="middle" dominant-baseline="middle">Register</text><text x="464" y="508" text-anchor="middle" dominant-baseline="middle">Write</text></svg>
